<?xml version="1.0" encoding="UTF-8" standalone="no"?><svg xmlns="http://www.w3.org/2000/svg" xmlns:xlink="http://www.w3.org/1999/xlink" contentScriptType="application/ecmascript" contentStyleType="text/css" height="717px" preserveAspectRatio="none" style="width:673px;height:717px;" version="1.1" viewBox="0 0 673 717"
    width="673px" zoomAndPan="magnify"><defs><filter height="300%" id="f124qd7zau26mj" width="300%" x="-1" y="-1"><feGaussianBlur result="blurOut" stdDeviation="2.0"/><feColorMatrix in="blurOut" result="blurOut2" type="matrix" values="0 0 0 0 0 0 0 0 0 0 0 0 0 0 0 0 0 0 .4 0"/><feOffset dx="4.0" dy="4.0" in="blurOut2" result="blurOut3"/><feBlend in="SourceGraphic" in2="blurOut3" mode="normal"/></filter></defs><g><!--cluster Logiciel--><rect fill="#FFFFFF" filter="url(#f124qd7zau26mj)" height="638" style="stroke: #000000; stroke-width: 2.0;" width="640" x="22" y="24"/><text fill="#000000" font-family="sans-serif" font-size="14" font-weight="bold" lengthAdjust="spacingAndGlyphs" textLength="55" x="314.5" y="40.5332">Logiciel</text><!--cluster LogiVente--><rect fill="#FFFFFF" filter="url(#f124qd7zau26mj)" height="234" style="stroke: #000000; stroke-width: 2.0;" width="161" x="444.5" y="404"/><text fill="#000000" font-family="sans-serif" font-size="14" font-weight="bold" lengthAdjust="spacingAndGlyphs" textLength="71" x="489.5" y="420.5332">LogiVente</text><!--cluster LogiAchat--><rect fill="#FFFFFF" filter="url(#f124qd7zau26mj)" height="241" style="stroke: #000000; stroke-width: 2.0;" width="226" x="412" y="139"/><text fill="#000000" font-family="sans-serif" font-size="14" font-weight="bold" lengthAdjust="spacingAndGlyphs" textLength="69" x="490.5" y="155.5332">LogiAchat</text><!--cluster LogiPub--><rect fill="#FFFFFF" filter="url(#f124qd7zau26mj)" height="86" style="stroke: #000000; stroke-width: 2.0;" width="173" x="148.5" y="176"/><text fill="#000000" font-family="sans-serif" font-size="14" font-weight="bold" lengthAdjust="spacingAndGlyphs" textLength="57" x="206.5" y="192.5332">LogiPub</text><!--cluster LogiStat--><rect fill="#FFFFFF" filter="url(#f124qd7zau26mj)" height="84" style="stroke: #000000; stroke-width: 2.0;" width="121" x="174.5" y="68"/><text fill="#000000" font-family="sans-serif" font-size="14" font-weight="bold" lengthAdjust="spacingAndGlyphs" textLength="57" x="206.5" y="84.5332">LogiStat</text><ellipse cx="234.8193" cy="588.9639" fill="#FEFECE" filter="url(#f124qd7zau26mj)" rx="87.8193" ry="19.9639" style="stroke: #A80036; stroke-width: 1.5;"/><text fill="#000000" font-family="sans-serif" font-size="14" lengthAdjust="spacingAndGlyphs" textLength="145" x="162.3193" y="594.2685">Organiser rendez-vous</text><!--entity Agence--><ellipse cx="62" cy="341.5" fill="#FEFECE" filter="url(#f124qd7zau26mj)" rx="8" ry="8" style="stroke: #A80036; stroke-width: 2.0;"/><path d="M62,349.5 L62,376.5 M49,357.5 L75,357.5 M62,376.5 L49,391.5 M62,376.5 L75,391.5 " fill="#FEFECE" filter="url(#f124qd7zau26mj)" style="stroke: #A80036; stroke-width: 2.0;"/><text fill="#000000" font-family="sans-serif" font-size="14" lengthAdjust="spacingAndGlyphs" textLength="48" x="38" y="413.0332">Agence</text><ellipse cx="235.0594" cy="517.0119" fill="#FEFECE" filter="url(#f124qd7zau26mj)" rx="73.0594" ry="17.0119" style="stroke: #A80036; stroke-width: 1.5;"/><text fill="#000000" font-family="sans-serif" font-size="14" lengthAdjust="spacingAndGlyphs" textLength="109" x="180.5594" y="522.3166">Ajouter personne</text><ellipse cx="235.0213" cy="446.9043" fill="#FEFECE" filter="url(#f124qd7zau26mj)" rx="75.0213" ry="17.4043" style="stroke: #A80036; stroke-width: 1.5;"/><text fill="#000000" font-family="sans-serif" font-size="14" lengthAdjust="spacingAndGlyphs" textLength="114" x="178.0213" y="452.2089">Modifier personne</text><ellipse cx="525.2401" cy="605.9517" fill="#FEFECE" filter="url(#f124qd7zau26mj)" rx="56.7401" ry="15.4517" style="stroke: #A80036; stroke-width: 1.5;"/><text fill="#000000" font-family="sans-serif" font-size="14" lengthAdjust="spacingAndGlyphs" textLength="76" x="487.2401" y="611.2564">Ajouter bien</text><ellipse cx="525.0183" cy="521.9517" fill="#FEFECE" filter="url(#f124qd7zau26mj)" rx="64.5183" ry="15.4517" style="stroke: #A80036; stroke-width: 1.5;"/><text fill="#000000" font-family="sans-serif" font-size="14" lengthAdjust="spacingAndGlyphs" textLength="87" x="481.5183" y="527.2564">Créer mandat</text><ellipse cx="524.7756" cy="455.9517" fill="#FEFECE" filter="url(#f124qd7zau26mj)" rx="60.2756" ry="15.4517" style="stroke: #A80036; stroke-width: 1.5;"/><text fill="#000000" font-family="sans-serif" font-size="14" lengthAdjust="spacingAndGlyphs" textLength="81" x="484.2756" y="461.2564">Modifier bien</text><ellipse cx="524.7514" cy="341.8503" fill="#FEFECE" filter="url(#f124qd7zau26mj)" rx="94.7514" ry="21.3503" style="stroke: #A80036; stroke-width: 1.5;"/><text fill="#000000" font-family="sans-serif" font-size="14" lengthAdjust="spacingAndGlyphs" textLength="161" x="444.2514" y="347.155">Créer promesse de vente</text><ellipse cx="524.8259" cy="269.9517" fill="#FEFECE" filter="url(#f124qd7zau26mj)" rx="55.3259" ry="15.4517" style="stroke: #A80036; stroke-width: 1.5;"/><text fill="#000000" font-family="sans-serif" font-size="14" lengthAdjust="spacingAndGlyphs" textLength="74" x="487.8259" y="275.2564">Créer envie</text><ellipse cx="524.9525" cy="196.7905" fill="#FEFECE" filter="url(#f124qd7zau26mj)" rx="96.9525" ry="21.7905" style="stroke: #A80036; stroke-width: 1.5;"/><text fill="#000000" font-family="sans-serif" font-size="14" lengthAdjust="spacingAndGlyphs" textLength="166" x="441.9525" y="202.0952">Signer promesse de vente</text><ellipse cx="234.8726" cy="228.9745" fill="#FEFECE" filter="url(#f124qd7zau26mj)" rx="70.3726" ry="16.4745" style="stroke: #A80036; stroke-width: 1.5;"/><text fill="#000000" font-family="sans-serif" font-size="14" lengthAdjust="spacingAndGlyphs" textLength="102" x="183.8726" y="234.2792">Créer document</text><ellipse cx="235.2193" cy="119.9517" fill="#FEFECE" filter="url(#f124qd7zau26mj)" rx="44.7193" ry="15.4517" style="stroke: #A80036; stroke-width: 1.5;"/><text fill="#000000" font-family="sans-serif" font-size="14" lengthAdjust="spacingAndGlyphs" textLength="59" x="205.7193" y="125.2564">Voir stats</text><!--link Agence to Ajouter personne--><path d="M85.4405,416.658 C98.8823,438.725 117.775,464.607 140.5,482 C152.023,490.819 166.009,497.614 179.614,502.764 " fill="none" id="Agence-Ajouter personne" style="stroke: #A80036; stroke-width: 1.0;"/><polygon fill="#A80036" points="184.604,504.588,177.5252,497.7403,179.9081,502.8708,174.7777,505.2537,184.604,504.588" style="stroke: #A80036; stroke-width: 1.0;"/><!--link Agence to Modifier personne--><path d="M86.1763,387.028 C95.3413,391.973 106.046,397.493 116,402 C139.118,412.468 165.453,422.669 187.371,430.705 " fill="none" id="Agence-Modifier personne" style="stroke: #A80036; stroke-width: 1.0;"/><polygon fill="#A80036" points="192.264,432.49,185.1808,425.6468,187.567,430.7758,182.4381,433.162,192.264,432.49" style="stroke: #A80036; stroke-width: 1.0;"/><!--link Agence to Organiser rendez-vous--><path d="M71.7373,416.77 C81.9256,456.605 102.4548,515.221 140.5,552 C149.176,560.387 159.984,566.943 171.14,572.044 " fill="none" id="Agence-Organiser rendez-vous" style="stroke: #A80036; stroke-width: 1.0;"/><polygon fill="#A80036" points="175.937,574.143,169.2956,566.8703,171.3564,572.1385,166.0883,574.1993,175.937,574.143" style="stroke: #A80036; stroke-width: 1.0;"/><!--link Ajouter bien to Créer mandat--><path d="M525,590.2002 C525,576.825 525,557.547 525,542.897 " fill="none" id="Ajouter bien-Créer mandat" style="stroke: #A80036; stroke-width: 1.0; stroke-dasharray: 7.0,7.0;"/><polygon fill="#A80036" points="525,537.729,521,546.729,525,542.729,529,546.729,525,537.729" style="stroke: #A80036; stroke-width: 1.0;"/><text fill="#000000" font-family="sans-serif" font-size="13" lengthAdjust="spacingAndGlyphs" textLength="41" x="492.5" y="569.4951">include</text><!--link Agence to Modifier bien--><path d="M86.2732,376.676 C132.712,382.157 240.102,395.542 329.5,412 C379.682,421.238 436.549,434.423 475.772,443.948 " fill="none" id="Agence-Modifier bien" style="stroke: #A80036; stroke-width: 1.0;"/><polygon fill="#A80036" points="480.946,445.208,473.148,439.1921,476.088,444.0249,471.2551,446.9649,480.946,445.208" style="stroke: #A80036; stroke-width: 1.0;"/><!--link Agence to Ajouter bien--><path d="M69.8324,416.551 C81.2811,481.839 106.474,601.836 140.5,627 C246.257,705.2119 416.741,650.4192 489.403,621.1599 " fill="none" id="Agence-Ajouter bien" style="stroke: #A80036; stroke-width: 1.0;"/><polygon fill="#A80036" points="494.463,619.0996,484.6191,618.7866,489.8317,620.9841,487.6343,626.1967,494.463,619.0996" style="stroke: #A80036; stroke-width: 1.0;"/><!--link Organiser rendez-vous to Créer mandat--><path d="M302.223,573.594 C356.076,561.066 430.664,543.714 478.127,532.672 " fill="none" id="Organiser rendez-vous-Créer mandat" style="stroke: #A80036; stroke-width: 1.0; stroke-dasharray: 7.0,7.0;"/><polygon fill="#A80036" points="297.077,574.791,306.7494,576.6472,301.9469,573.6578,304.9363,568.8554,297.077,574.791" style="stroke: #A80036; stroke-width: 1.0;"/><text fill="#000000" font-family="sans-serif" font-size="13" lengthAdjust="spacingAndGlyphs" textLength="41" x="354" y="549.4951">include</text><!--link Agence to Créer promesse de vente--><path d="M86.0986,359.323 C95.0761,354.414 105.6728,349.546 116,347 C223.453,320.51 351.707,324.49 435.354,331.615 " fill="none" id="Agence-Créer promesse de vente" style="stroke: #A80036; stroke-width: 1.0;"/><polygon fill="#A80036" points="440.549,332.067,431.9292,327.3027,435.5678,331.634,431.2364,335.2726,440.549,332.067" style="stroke: #A80036; stroke-width: 1.0;"/><!--link Agence to Créer envie--><path d="M86.177,368.771 C158.016,352.565 378.001,302.937 476.014,280.826 " fill="none" id="Agence-Créer envie" style="stroke: #A80036; stroke-width: 1.0;"/><polygon fill="#A80036" points="481.156,279.665,471.4959,277.7458,476.2788,280.7664,473.2582,285.5493,481.156,279.665" style="stroke: #A80036; stroke-width: 1.0;"/><!--link Organiser rendez-vous to Créer promesse de vente--><path d="M296.943,571.73 C308.563,566.619 320.035,560.14 329.5,552 C379.407,509.082 359.17,472.197 404,424 C427.802,398.411 460.973,376.509 486.409,361.794 " fill="none" id="Organiser rendez-vous-Créer promesse de vente" style="stroke: #A80036; stroke-width: 1.0; stroke-dasharray: 7.0,7.0;"/><polygon fill="#A80036" points="292.312,573.694,302.1594,573.8637,296.9154,571.7424,299.0368,566.4983,292.312,573.694" style="stroke: #A80036; stroke-width: 1.0;"/><text fill="#000000" font-family="sans-serif" font-size="13" lengthAdjust="spacingAndGlyphs" textLength="41" x="354" y="432.4951">include</text><!--link Agence to Signer promesse de vente--><path d="M86.0031,356.709 C100.8812,346.238 121.039,333.338 140.5,325 C221.888,290.129 245.528,290.084 329.5,262 C362.622,250.922 370.878,248.078 404,237 C423.775,230.386 445.39,223.176 464.759,216.721 " fill="none" id="Agence-Signer promesse de vente" style="stroke: #A80036; stroke-width: 1.0;"/><polygon fill="#A80036" points="469.632,215.097,459.8289,214.1483,464.8886,216.6781,462.3588,221.7378,469.632,215.097" style="stroke: #A80036; stroke-width: 1.0;"/><!--link Agence to Créer document--><path d="M76.6657,331.302 C88.4938,302.226 108.783,266.036 140.5,249 C148.968,244.452 158.389,240.937 167.899,238.223 " fill="none" id="Agence-Créer document" style="stroke: #A80036; stroke-width: 1.0;"/><polygon fill="#A80036" points="172.875,236.874,163.1422,235.3662,168.0489,238.1812,165.2338,243.0879,172.875,236.874" style="stroke: #A80036; stroke-width: 1.0;"/><!--link Agence to Voir stats--><path d="M75.156,331.432 C87.4405,293.355 109.11,237.338 140.5,196 C159.161,171.425 187.36,149.938 207.909,136.139 " fill="none" id="Agence-Voir stats" style="stroke: #A80036; stroke-width: 1.0;"/><polygon fill="#A80036" points="212.172,133.313,202.4606,134.9525,208.0047,136.0759,206.8813,141.6201,212.172,133.313" style="stroke: #A80036; stroke-width: 1.0;"/><!--
@startuml

left to right direction

rectangle "Logiciel" {

  (Organiser rendez-vous)

  Agence - -> (Ajouter personne)
  Agence - -> (Modifier personne)
  Agence - -> (Organiser rendez-vous)

  rectangle "LogiVente"{
    (Ajouter bien) .right.> (Créer mandat) : include
    Agence - -> (Modifier bien)
    Agence - -> (Ajouter bien)
    (Créer mandat) .up.> (Organiser rendez-vous) : include
  }

  rectangle "LogiAchat"{
    Agence - -> (Créer promesse de vente)
    Agence - -> (Créer envie)
    (Créer promesse de vente) .up.> (Organiser rendez-vous) : include
    Agence - -> (Signer promesse de vente)
  }

  rectangle "LogiPub"{
    Agence - -> (Créer document)
  }

  rectangle "LogiStat"{
    Agence - -> (Voir stats)
  }

}


@enduml

PlantUML version 1.2017.18(Fri Oct 06 18:56:32 CEST 2017)
(GPL source distribution)
Java Runtime: Java(TM) SE Runtime Environment
JVM: Java HotSpot(TM) 64-Bit Server VM
Java Version: 9.0.1+11
Operating System: Windows 10
OS Version: 10.0
Default Encoding: Cp1252
Language: fr
Country: FR
--></g></svg>