<?xml version="1.0" encoding="UTF-8" standalone="no"?><svg xmlns="http://www.w3.org/2000/svg" xmlns:xlink="http://www.w3.org/1999/xlink" contentScriptType="application/ecmascript" contentStyleType="text/css" height="1176px" preserveAspectRatio="none" style="width:477px;height:1176px;" version="1.1" viewBox="0 0 477 1176"
    width="477px" zoomAndPan="magnify"><defs><filter height="300%" id="f156k6bxwrmk40" width="300%" x="-1" y="-1"><feGaussianBlur result="blurOut" stdDeviation="2.0"/><feColorMatrix in="blurOut" result="blurOut2" type="matrix" values="0 0 0 0 0 0 0 0 0 0 0 0 0 0 0 0 0 0 .4 0"/><feOffset dx="4.0" dy="4.0" in="blurOut2" result="blurOut3"/><feBlend in="SourceGraphic" in2="blurOut3" mode="normal"/></filter></defs><g><!--cluster Logiciel--><rect fill="#FFFFFF" filter="url(#f156k6bxwrmk40)" height="1141" style="stroke: #000000; stroke-width: 2.0;" width="444" x="22" y="24"/><text fill="#000000" font-family="sans-serif" font-size="14" font-weight="bold" lengthAdjust="spacingAndGlyphs" textLength="55" x="216.5" y="40.5332">Logiciel</text><!--cluster LogiVente--><rect fill="#FFFFFF" filter="url(#f156k6bxwrmk40)" height="252" style="stroke: #000000; stroke-width: 2.0;" width="248" x="185" y="641"/><text fill="#000000" font-family="sans-serif" font-size="14" font-weight="bold" lengthAdjust="spacingAndGlyphs" textLength="71" x="273.5" y="657.5332">LogiVente</text><!--cluster LogiAchat--><rect fill="#FFFFFF" filter="url(#f156k6bxwrmk40)" height="264" style="stroke: #000000; stroke-width: 2.0;" width="266" x="176" y="353"/><text fill="#000000" font-family="sans-serif" font-size="14" font-weight="bold" lengthAdjust="spacingAndGlyphs" textLength="69" x="274.5" y="369.5332">LogiAchat</text><!--cluster LogiPub--><rect fill="#FFFFFF" filter="url(#f156k6bxwrmk40)" height="153" style="stroke: #000000; stroke-width: 2.0;" width="176" x="221" y="176"/><text fill="#000000" font-family="sans-serif" font-size="14" font-weight="bold" lengthAdjust="spacingAndGlyphs" textLength="57" x="280.5" y="192.5332">LogiPub</text><!--cluster LogiStat--><rect fill="#FFFFFF" filter="url(#f156k6bxwrmk40)" height="84" style="stroke: #000000; stroke-width: 2.0;" width="153" x="232.5" y="68"/><text fill="#000000" font-family="sans-serif" font-size="14" font-weight="bold" lengthAdjust="spacingAndGlyphs" textLength="57" x="280.5" y="84.5332">LogiStat</text><!--entity Agence--><ellipse cx="62" cy="603.5" fill="#FEFECE" filter="url(#f156k6bxwrmk40)" rx="8" ry="8" style="stroke: #A80036; stroke-width: 2.0;"/><path d="M62,611.5 L62,638.5 M49,619.5 L75,619.5 M62,638.5 L49,653.5 M62,638.5 L75,653.5 " fill="#FEFECE" filter="url(#f156k6bxwrmk40)" style="stroke: #A80036; stroke-width: 2.0;"/><text fill="#000000" font-family="sans-serif" font-size="14" lengthAdjust="spacingAndGlyphs" textLength="48" x="38" y="675.0332">Agence</text><ellipse cx="309.0917" cy="1024.1183" fill="#FEFECE" filter="url(#f156k6bxwrmk40)" rx="81.0917" ry="18.6183" style="stroke: #A80036; stroke-width: 1.5;"/><text fill="#000000" font-family="sans-serif" font-size="14" lengthAdjust="spacingAndGlyphs" textLength="129" x="244.5917" y="1029.423">Ajouter un personne</text><ellipse cx="309.091" cy="1121.9182" fill="#FEFECE" filter="url(#f156k6bxwrmk40)" rx="120.091" ry="26.4182" style="stroke: #A80036; stroke-width: 1.5;"/><text fill="#000000" font-family="sans-serif" font-size="14" lengthAdjust="spacingAndGlyphs" textLength="217" x="200.591" y="1127.2229">Modifier les informations personne</text><ellipse cx="308.8193" cy="949.9639" fill="#FEFECE" filter="url(#f156k6bxwrmk40)" rx="87.8193" ry="19.9639" style="stroke: #A80036; stroke-width: 1.5;"/><text fill="#000000" font-family="sans-serif" font-size="14" lengthAdjust="spacingAndGlyphs" textLength="145" x="236.3193" y="955.2685">Organiser rendez-vous</text><ellipse cx="309.1311" cy="861.0262" fill="#FEFECE" filter="url(#f156k6bxwrmk40)" rx="68.1311" ry="16.0262" style="stroke: #A80036; stroke-width: 1.5;"/><text fill="#000000" font-family="sans-serif" font-size="14" lengthAdjust="spacingAndGlyphs" textLength="96" x="261.1311" y="866.3309">Ajouter un bien</text><ellipse cx="309.1585" cy="768.0317" fill="#FEFECE" filter="url(#f156k6bxwrmk40)" rx="108.1585" ry="24.0317" style="stroke: #A80036; stroke-width: 1.5;"/><text fill="#000000" font-family="sans-serif" font-size="14" lengthAdjust="spacingAndGlyphs" textLength="191" x="213.6585" y="773.3364">Modifier les informations biens</text><ellipse cx="309.0183" cy="692.9517" fill="#FEFECE" filter="url(#f156k6bxwrmk40)" rx="64.5183" ry="15.4517" style="stroke: #A80036; stroke-width: 1.5;"/><text fill="#000000" font-family="sans-serif" font-size="14" lengthAdjust="spacingAndGlyphs" textLength="87" x="265.5183" y="698.2564">Créer mandat</text><ellipse cx="308.8753" cy="497.1751" fill="#FEFECE" filter="url(#f156k6bxwrmk40)" rx="93.8753" ry="21.1751" style="stroke: #A80036; stroke-width: 1.5;"/><text fill="#000000" font-family="sans-serif" font-size="14" lengthAdjust="spacingAndGlyphs" textLength="159" x="229.3753" y="502.4797">Créer une fiche de voeux</text><ellipse cx="308.7512" cy="576.8502" fill="#FEFECE" filter="url(#f156k6bxwrmk40)" rx="107.2512" ry="23.8502" style="stroke: #A80036; stroke-width: 1.5;"/><text fill="#000000" font-family="sans-serif" font-size="14" lengthAdjust="spacingAndGlyphs" textLength="189" x="214.2512" y="582.1549">Créer une promesse de vente</text><ellipse cx="308.8554" cy="414.7711" fill="#FEFECE" filter="url(#f156k6bxwrmk40)" rx="116.8554" ry="25.7711" style="stroke: #A80036; stroke-width: 1.5;"/><text fill="#000000" font-family="sans-serif" font-size="14" lengthAdjust="spacingAndGlyphs" textLength="210" x="203.8554" y="420.0758">Conclure une promesse de vente</text><ellipse cx="309.1715" cy="297.2343" fill="#FEFECE" filter="url(#f156k6bxwrmk40)" rx="66.6715" ry="15.7343" style="stroke: #A80036; stroke-width: 1.5;"/><text fill="#000000" font-family="sans-serif" font-size="14" lengthAdjust="spacingAndGlyphs" textLength="92" x="263.1715" y="302.539">Créer une pub</text><ellipse cx="308.8989" cy="228.7798" fill="#FEFECE" filter="url(#f156k6bxwrmk40)" rx="71.8989" ry="16.7798" style="stroke: #A80036; stroke-width: 1.5;"/><text fill="#000000" font-family="sans-serif" font-size="14" lengthAdjust="spacingAndGlyphs" textLength="106" x="255.8989" y="234.0845">Modifier une pub</text><ellipse cx="308.7756" cy="119.9517" fill="#FEFECE" filter="url(#f156k6bxwrmk40)" rx="60.2756" ry="15.4517" style="stroke: #A80036; stroke-width: 1.5;"/><text fill="#000000" font-family="sans-serif" font-size="14" lengthAdjust="spacingAndGlyphs" textLength="81" x="268.2756" y="125.2564">Voir les stats</text><!--link Agence to Ajouter un personne--><path d="M66.8191,678.921 C72.6615,732.787 86.4176,827.289 116,903 C132.117,944.249 132.392,961.669 168,988 C186.103,1001.387 208.712,1009.812 230.445,1015.109 " fill="none" id="Agence-Ajouter un personne" style="stroke: #A80036; stroke-width: 1.0;"/><polygon fill="#A80036" points="235.358,1016.258,227.5053,1010.3136,230.4894,1015.1194,225.6836,1018.1035,235.358,1016.258" style="stroke: #A80036; stroke-width: 1.0;"/><!--link Agence to Modifier les informations personne--><path d="M63.0173,678.608 C64.4289,746.566 72.9764,882.575 116,988 C130.915,1024.547 137.334,1035.146 168,1060 C187.665,1075.939 212.072,1088.5985 234.972,1098.2133 " fill="none" id="Agence-Modifier les informations personne" style="stroke: #A80036; stroke-width: 1.0;"/><polygon fill="#A80036" points="239.833,1100.2189,233.0391,1093.0885,235.211,1098.3118,229.9877,1100.4836,239.833,1100.2189" style="stroke: #A80036; stroke-width: 1.0;"/><!--link Modifier les informations personne to Ajouter un personne--><path d="M309,1095.4798 C309,1080.637 309,1062.281 309,1047.887 " fill="none" id="Modifier les informations personne-Ajouter un personne" style="stroke: #A80036; stroke-width: 1.0; stroke-dasharray: 7.0,7.0;"/><polygon fill="#A80036" points="309,1042.777,305,1051.777,309,1047.777,313,1051.777,309,1042.777" style="stroke: #A80036; stroke-width: 1.0;"/><text fill="#000000" font-family="sans-serif" font-size="13" lengthAdjust="spacingAndGlyphs" textLength="41" x="276.5" y="1074.4951">include</text><!--link Agence to Organiser rendez-vous--><path d="M64.712,678.568 C68.4363,725.399 80.0571,801.153 116,855 C144.132,897.145 196.705,921.339 239.734,934.751 " fill="none" id="Agence-Organiser rendez-vous" style="stroke: #A80036; stroke-width: 1.0;"/><polygon fill="#A80036" points="244.665,936.255,237.2232,929.8037,239.8824,934.7965,234.8896,937.4558,244.665,936.255" style="stroke: #A80036; stroke-width: 1.0;"/><!--link Agence to Ajouter un bien--><path d="M62.9581,678.528 C65.3316,721.3 75.9404,786.053 116,823 C148.272,852.764 196.873,862.164 237.101,864.174 " fill="none" id="Agence-Ajouter un bien" style="stroke: #A80036; stroke-width: 1.0;"/><polygon fill="#A80036" points="242.467,864.401,233.6454,860.0215,237.4715,864.1882,233.3049,868.0143,242.467,864.401" style="stroke: #A80036; stroke-width: 1.0;"/><!--link Ajouter un bien to Organiser rendez-vous--><path d="M309,877.254 C309,890.535 309,909.537 309,924.789 " fill="none" id="Ajouter un bien-Organiser rendez-vous" style="stroke: #A80036; stroke-width: 1.0; stroke-dasharray: 7.0,7.0;"/><polygon fill="#A80036" points="309,929.805,313,920.805,309,924.805,305,920.805,309,929.805" style="stroke: #A80036; stroke-width: 1.0;"/><text fill="#000000" font-family="sans-serif" font-size="13" lengthAdjust="spacingAndGlyphs" textLength="41" x="276.5" y="908.9951">include</text><!--link Agence to Modifier les informations biens--><path d="M86.2428,661.036 C106.187,681.173 136.606,708.848 168,726 C185.963,735.814 206.506,743.613 226.219,749.693 " fill="none" id="Agence-Modifier les informations biens" style="stroke: #A80036; stroke-width: 1.0;"/><polygon fill="#A80036" points="231.211,751.202,223.7535,744.7688,226.4249,749.7552,221.4386,752.4266,231.211,751.202" style="stroke: #A80036; stroke-width: 1.0;"/><!--link Modifier les informations biens to Ajouter un bien--><path d="M309,792.041 C309,806.812 309,825.563 309,839.783 " fill="none" id="Modifier les informations biens-Ajouter un bien" style="stroke: #A80036; stroke-width: 1.0; stroke-dasharray: 7.0,7.0;"/><polygon fill="#A80036" points="309,844.801,313,835.801,309,839.801,305,835.801,309,844.801" style="stroke: #A80036; stroke-width: 1.0;"/><text fill="#000000" font-family="sans-serif" font-size="13" lengthAdjust="spacingAndGlyphs" textLength="41" x="276.5" y="823.9951">include</text><!--link Agence to Créer mandat--><path d="M86.049,641.362 C124.938,650.41 204.473,668.914 257.009,681.137 " fill="none" id="Agence-Créer mandat" style="stroke: #A80036; stroke-width: 1.0;"/><polygon fill="#A80036" points="262.006,682.299,254.1463,676.3639,257.136,681.1661,252.3338,684.1558,262.006,682.299" style="stroke: #A80036; stroke-width: 1.0;"/><!--link Créer mandat to Organiser rendez-vous--><path d="M244.862,695.209 C218.43,699.129 189.117,707.756 168,726 C142.332,748.176 146.334,763.676 140,797 C131.701,840.663 137.2,860.958 168,893 C187.127,912.898 214.143,926.05 239.416,934.647 " fill="none" id="Créer mandat-Organiser rendez-vous" style="stroke: #A80036; stroke-width: 1.0; stroke-dasharray: 7.0,7.0;"/><polygon fill="#A80036" points="244.444,936.307,237.151,929.6879,239.6959,934.74,234.6438,937.2849,244.444,936.307" style="stroke: #A80036; stroke-width: 1.0;"/><text fill="#000000" font-family="sans-serif" font-size="13" lengthAdjust="spacingAndGlyphs" textLength="41" x="117" y="811.4951">include</text><!--link Agence to Créer une fiche de voeux--><path d="M86.3025,606.631 C105.831,583.911 135.65,553.33 168,535 C186.663,524.425 208.404,516.681 229.109,511.054 " fill="none" id="Agence-Créer une fiche de voeux" style="stroke: #A80036; stroke-width: 1.0;"/><polygon fill="#A80036" points="234.067,509.741,224.343,508.1778,229.2336,511.0208,226.3906,515.9114,234.067,509.741" style="stroke: #A80036; stroke-width: 1.0;"/><!--link Agence to Créer une promesse de vente--><path d="M86.049,630.449 C118.756,622.573 180.213,607.773 230.179,595.741 " fill="none" id="Agence-Créer une promesse de vente" style="stroke: #A80036; stroke-width: 1.0;"/><polygon fill="#A80036" points="235.285,594.511,225.5989,592.7279,230.4238,595.6809,227.4708,600.5059,235.285,594.511" style="stroke: #A80036; stroke-width: 1.0;"/><!--link Créer une promesse de vente to Organiser rendez-vous--><path d="M254.107,597.787 C224.631,611.56 189.945,632.405 168,661 C140.161,697.275 146.282,714.708 140,760 C131.701,819.834 128.5,847.297 168,893 C185.724,913.507 211.906,926.733 236.913,935.22 " fill="none" id="Créer une promesse de vente-Organiser rendez-vous" style="stroke: #A80036; stroke-width: 1.0; stroke-dasharray: 7.0,7.0;"/><polygon fill="#A80036" points="241.896,936.855,234.591,930.2491,237.1451,935.2966,232.0976,937.8506,241.896,936.855" style="stroke: #A80036; stroke-width: 1.0;"/><text fill="#000000" font-family="sans-serif" font-size="13" lengthAdjust="spacingAndGlyphs" textLength="41" x="117" y="774.4951">include</text><!--link Agence to Conclure une promesse de vente--><path d="M77.8142,593.152 C93.9279,552.685 123.493,493.11 168,458 C181.387,447.439 197.368,439.46 213.665,433.436 " fill="none" id="Agence-Conclure une promesse de vente" style="stroke: #A80036; stroke-width: 1.0;"/><polygon fill="#A80036" points="218.73,431.628,208.9092,430.885,214.0208,433.3082,211.5976,438.4198,218.73,431.628" style="stroke: #A80036; stroke-width: 1.0;"/><!--link Agence to Créer une pub--><path d="M69.9664,593.45 C81.2796,536.665 108.654,435.97 168,373 C195.007,344.344 235.28,324.054 265.708,311.688 " fill="none" id="Agence-Créer une pub" style="stroke: #A80036; stroke-width: 1.0;"/><polygon fill="#A80036" points="270.503,309.772,260.6612,309.398,265.8601,311.6277,263.6304,316.8266,270.503,309.772" style="stroke: #A80036; stroke-width: 1.0;"/><!--link Agence to Modifier une pub--><path d="M69.2918,593.226 C83.1207,505.212 118.886,308.363 168,264 C185.965,247.773 210.314,238.809 233.668,233.938 " fill="none" id="Agence-Modifier une pub" style="stroke: #A80036; stroke-width: 1.0;"/><polygon fill="#A80036" points="238.633,232.959,229.0293,230.7753,233.7274,233.9261,230.5767,238.6243,238.633,232.959" style="stroke: #A80036; stroke-width: 1.0;"/><!--link Agence to Voir les stats--><path d="M66.6349,593.441 C72.703,531.251 87.1814,412.354 116,315 C132.383,259.656 128.966,238.517 168,196 C194.897,166.7 235.753,146.34 266.398,134.12 " fill="none" id="Agence-Voir les stats" style="stroke: #A80036; stroke-width: 1.0;"/><polygon fill="#A80036" points="271.225,132.22,261.3861,131.7782,266.5694,134.0437,264.3039,139.227,271.225,132.22" style="stroke: #A80036; stroke-width: 1.0;"/><!--
@startuml
left to right direction


rectangle "Logiciel" {

    Agence - -> (Ajouter un personne)
    Agence - -> (Modifier les informations personne)
    (Modifier les informations personne) .> (Ajouter un personne) : include
    Agence - -> (Organiser rendez-vous)


    rectangle "LogiVente"{
        Agence - -> (Ajouter un bien)
        (Ajouter un bien) .> (Organiser rendez-vous) : include
        Agence - -> (Modifier les informations biens)
        (Modifier les informations biens) .> (Ajouter un bien) : include
        Agence - -> (Créer mandat)
        (Créer mandat) .> (Organiser rendez-vous) : include

    }
    rectangle "LogiAchat"{
        Agence - -> (Créer une fiche de voeux)
        Agence - -> (Créer une promesse de vente)
        (Créer une promesse de vente) .> (Organiser rendez-vous) : include
        Agence - -> (Conclure une promesse de vente)
    }

    rectangle "LogiPub"{
        Agence - -> (Créer une pub)
        Agence - -> (Modifier une pub)
    }
    rectangle "LogiStat"{
        Agence - -> (Voir les stats)
    }

}


@enduml

PlantUML version 1.2017.18(Fri Oct 06 18:56:32 CEST 2017)
(GPL source distribution)
Java Runtime: Java(TM) SE Runtime Environment
JVM: Java HotSpot(TM) 64-Bit Server VM
Java Version: 9.0.1+11
Operating System: Windows 10
OS Version: 10.0
Default Encoding: Cp1252
Language: fr
Country: FR
--></g></svg>