<?xml version="1.0" encoding="UTF-8" standalone="no"?><svg xmlns="http://www.w3.org/2000/svg" xmlns:xlink="http://www.w3.org/1999/xlink" contentScriptType="application/ecmascript" contentStyleType="text/css" height="709px" preserveAspectRatio="none" style="width:673px;height:709px;" version="1.1" viewBox="0 0 673 709"
    width="673px" zoomAndPan="magnify"><defs><filter height="300%" id="f1l2twnrxchgdv" width="300%" x="-1" y="-1"><feGaussianBlur result="blurOut" stdDeviation="2.0"/><feColorMatrix in="blurOut" result="blurOut2" type="matrix" values="0 0 0 0 0 0 0 0 0 0 0 0 0 0 0 0 0 0 .4 0"/><feOffset dx="4.0" dy="4.0" in="blurOut2" result="blurOut3"/><feBlend in="SourceGraphic" in2="blurOut3" mode="normal"/></filter></defs><g><!--cluster Logiciel--><rect fill="#FFFFFF" filter="url(#f1l2twnrxchgdv)" height="631" style="stroke: #000000; stroke-width: 2.0;" width="640" x="22" y="24"/><text fill="#000000" font-family="sans-serif" font-size="14" font-weight="bold" lengthAdjust="spacingAndGlyphs" textLength="55" x="314.5" y="40.5332">Logiciel</text><!--cluster LogiVente--><rect fill="#FFFFFF" filter="url(#f1l2twnrxchgdv)" height="234" style="stroke: #000000; stroke-width: 2.0;" width="161" x="444.5" y="397"/><text fill="#000000" font-family="sans-serif" font-size="14" font-weight="bold" lengthAdjust="spacingAndGlyphs" textLength="71" x="489.5" y="413.5332">LogiVente</text><!--cluster LogiAchat--><rect fill="#FFFFFF" filter="url(#f1l2twnrxchgdv)" height="241" style="stroke: #000000; stroke-width: 2.0;" width="226" x="412" y="132"/><text fill="#000000" font-family="sans-serif" font-size="14" font-weight="bold" lengthAdjust="spacingAndGlyphs" textLength="69" x="490.5" y="148.5332">LogiAchat</text><!--cluster LogiPub--><rect fill="#FFFFFF" filter="url(#f1l2twnrxchgdv)" height="86" style="stroke: #000000; stroke-width: 2.0;" width="173" x="148.5" y="176"/><text fill="#000000" font-family="sans-serif" font-size="14" font-weight="bold" lengthAdjust="spacingAndGlyphs" textLength="57" x="206.5" y="192.5332">LogiPub</text><!--cluster LogiStat--><rect fill="#FFFFFF" filter="url(#f1l2twnrxchgdv)" height="84" style="stroke: #000000; stroke-width: 2.0;" width="121" x="174.5" y="68"/><text fill="#000000" font-family="sans-serif" font-size="14" font-weight="bold" lengthAdjust="spacingAndGlyphs" textLength="57" x="206.5" y="84.5332">LogiStat</text><ellipse cx="234.8193" cy="581.9639" fill="#FEFECE" filter="url(#f1l2twnrxchgdv)" rx="87.8193" ry="19.9639" style="stroke: #A80036; stroke-width: 1.5;"/><text fill="#000000" font-family="sans-serif" font-size="14" lengthAdjust="spacingAndGlyphs" textLength="145" x="162.3193" y="587.2685">Organiser rendez-vous</text><!--entity Agence--><ellipse cx="62" cy="341.5" fill="#FEFECE" filter="url(#f1l2twnrxchgdv)" rx="8" ry="8" style="stroke: #A80036; stroke-width: 2.0;"/><path d="M62,349.5 L62,376.5 M49,357.5 L75,357.5 M62,376.5 L49,391.5 M62,376.5 L75,391.5 " fill="#FEFECE" filter="url(#f1l2twnrxchgdv)" style="stroke: #A80036; stroke-width: 2.0;"/><text fill="#000000" font-family="sans-serif" font-size="14" lengthAdjust="spacingAndGlyphs" textLength="48" x="38" y="413.0332">Agence</text><ellipse cx="234.9828" cy="510.9517" fill="#FEFECE" filter="url(#f1l2twnrxchgdv)" rx="60.9828" ry="15.4517" style="stroke: #A80036; stroke-width: 1.5;"/><text fill="#000000" font-family="sans-serif" font-size="14" lengthAdjust="spacingAndGlyphs" textLength="82" x="193.9828" y="516.2564">Ajouter client</text><ellipse cx="235.0183" cy="444.9517" fill="#FEFECE" filter="url(#f1l2twnrxchgdv)" rx="64.5183" ry="15.4517" style="stroke: #A80036; stroke-width: 1.5;"/><text fill="#000000" font-family="sans-serif" font-size="14" lengthAdjust="spacingAndGlyphs" textLength="87" x="191.5183" y="450.2564">Modifier client</text><ellipse cx="525.2401" cy="598.9517" fill="#FEFECE" filter="url(#f1l2twnrxchgdv)" rx="56.7401" ry="15.4517" style="stroke: #A80036; stroke-width: 1.5;"/><text fill="#000000" font-family="sans-serif" font-size="14" lengthAdjust="spacingAndGlyphs" textLength="76" x="487.2401" y="604.2564">Ajouter bien</text><ellipse cx="525.0183" cy="514.9517" fill="#FEFECE" filter="url(#f1l2twnrxchgdv)" rx="64.5183" ry="15.4517" style="stroke: #A80036; stroke-width: 1.5;"/><text fill="#000000" font-family="sans-serif" font-size="14" lengthAdjust="spacingAndGlyphs" textLength="87" x="481.5183" y="520.2564">Créer mandat</text><ellipse cx="524.7756" cy="448.9517" fill="#FEFECE" filter="url(#f1l2twnrxchgdv)" rx="60.2756" ry="15.4517" style="stroke: #A80036; stroke-width: 1.5;"/><text fill="#000000" font-family="sans-serif" font-size="14" lengthAdjust="spacingAndGlyphs" textLength="81" x="484.2756" y="454.2564">Modifier bien</text><ellipse cx="524.7514" cy="334.8503" fill="#FEFECE" filter="url(#f1l2twnrxchgdv)" rx="94.7514" ry="21.3503" style="stroke: #A80036; stroke-width: 1.5;"/><text fill="#000000" font-family="sans-serif" font-size="14" lengthAdjust="spacingAndGlyphs" textLength="161" x="444.2514" y="340.155">Créer promesse de vente</text><ellipse cx="524.8259" cy="262.9517" fill="#FEFECE" filter="url(#f1l2twnrxchgdv)" rx="55.3259" ry="15.4517" style="stroke: #A80036; stroke-width: 1.5;"/><text fill="#000000" font-family="sans-serif" font-size="14" lengthAdjust="spacingAndGlyphs" textLength="74" x="487.8259" y="268.2564">Créer envie</text><ellipse cx="524.9525" cy="189.7905" fill="#FEFECE" filter="url(#f1l2twnrxchgdv)" rx="96.9525" ry="21.7905" style="stroke: #A80036; stroke-width: 1.5;"/><text fill="#000000" font-family="sans-serif" font-size="14" lengthAdjust="spacingAndGlyphs" textLength="166" x="441.9525" y="195.0952">Signer promesse de vente</text><ellipse cx="234.8726" cy="228.9745" fill="#FEFECE" filter="url(#f1l2twnrxchgdv)" rx="70.3726" ry="16.4745" style="stroke: #A80036; stroke-width: 1.5;"/><text fill="#000000" font-family="sans-serif" font-size="14" lengthAdjust="spacingAndGlyphs" textLength="102" x="183.8726" y="234.2792">Créer document</text><ellipse cx="235.2193" cy="119.9517" fill="#FEFECE" filter="url(#f1l2twnrxchgdv)" rx="44.7193" ry="15.4517" style="stroke: #A80036; stroke-width: 1.5;"/><text fill="#000000" font-family="sans-serif" font-size="14" lengthAdjust="spacingAndGlyphs" textLength="59" x="205.7193" y="125.2564">Voir stats</text><!--link Agence to Ajouter client--><path d="M86.1265,416.004 C99.5902,437.125 118.29,461.641 140.5,478 C153.202,487.355 168.791,494.241 183.573,499.227 " fill="none" id="Agence-Ajouter client" style="stroke: #A80036; stroke-width: 1.0;"/><polygon fill="#A80036" points="188.55,500.846,181.2272,494.2599,183.7949,499.3005,178.7543,501.8682,188.55,500.846" style="stroke: #A80036; stroke-width: 1.0;"/><!--link Agence to Modifier client--><path d="M86.1416,387.106 C95.3021,392.06 106.013,397.567 116,402 C140.466,412.86 168.604,423.193 191.265,431.007 " fill="none" id="Agence-Modifier client" style="stroke: #A80036; stroke-width: 1.0;"/><polygon fill="#A80036" points="196.014,432.635,188.7974,425.9327,191.2842,431.0136,186.2032,433.5004,196.014,432.635" style="stroke: #A80036; stroke-width: 1.0;"/><!--link Agence to Organiser rendez-vous--><path d="M72.8319,416.621 C83.5927,454.573 104.3329,509.311 140.5,544 C149.543,552.673 160.829,559.466 172.4,564.752 " fill="none" id="Agence-Organiser rendez-vous" style="stroke: #A80036; stroke-width: 1.0;"/><polygon fill="#A80036" points="177.018,566.778,170.3831,559.4994,172.4392,564.7693,167.1693,566.8254,177.018,566.778" style="stroke: #A80036; stroke-width: 1.0;"/><!--link Ajouter bien to Créer mandat--><path d="M525,583.2002 C525,569.825 525,550.547 525,535.897 " fill="none" id="Ajouter bien-Créer mandat" style="stroke: #A80036; stroke-width: 1.0; stroke-dasharray: 7.0,7.0;"/><polygon fill="#A80036" points="525,530.729,521,539.729,525,535.729,529,539.729,525,530.729" style="stroke: #A80036; stroke-width: 1.0;"/><text fill="#000000" font-family="sans-serif" font-size="13" lengthAdjust="spacingAndGlyphs" textLength="41" x="492.5" y="562.4951">include</text><!--link Agence to Modifier bien--><path d="M86.2264,376.943 C132.582,382.899 239.831,397.086 329.5,412 C377.851,420.042 432.685,430.605 471.778,438.385 " fill="none" id="Agence-Modifier bien" style="stroke: #A80036; stroke-width: 1.0;"/><polygon fill="#A80036" points="476.946,439.416,468.903,433.7318,472.0427,438.4373,467.3372,441.577,476.946,439.416" style="stroke: #A80036; stroke-width: 1.0;"/><!--link Agence to Ajouter bien--><path d="M62.3419,416.915 C64.0785,474.035 76.7702,573.2598 140.5,620 C246.436,697.6947 416.462,643.3609 489.182,614.2017 " fill="none" id="Agence-Ajouter bien" style="stroke: #A80036; stroke-width: 1.0;"/><polygon fill="#A80036" points="494.248,612.1479,484.4045,611.8224,489.6143,614.0265,487.4102,619.2363,494.248,612.1479" style="stroke: #A80036; stroke-width: 1.0;"/><!--link Organiser rendez-vous to Créer mandat--><path d="M302.223,566.594 C356.076,554.066 430.664,536.714 478.127,525.672 " fill="none" id="Organiser rendez-vous-Créer mandat" style="stroke: #A80036; stroke-width: 1.0; stroke-dasharray: 7.0,7.0;"/><polygon fill="#A80036" points="297.077,567.791,306.7494,569.6472,301.9469,566.6578,304.9363,561.8554,297.077,567.791" style="stroke: #A80036; stroke-width: 1.0;"/><text fill="#000000" font-family="sans-serif" font-size="13" lengthAdjust="spacingAndGlyphs" textLength="41" x="354" y="542.4951">include</text><!--link Agence to Créer promesse de vente--><path d="M86.1224,359.418 C95.1027,354.52 105.695,349.634 116,347 C221.916,319.923 348.342,321.123 432.096,326.351 " fill="none" id="Agence-Créer promesse de vente" style="stroke: #A80036; stroke-width: 1.0;"/><polygon fill="#A80036" points="437.3,326.685,428.5744,322.1172,432.3102,326.365,428.0625,330.1008,437.3,326.685" style="stroke: #A80036; stroke-width: 1.0;"/><!--link Agence to Créer envie--><path d="M86.177,368.419 C158.285,351.057 379.651,297.756 477.11,274.29 " fill="none" id="Agence-Créer envie" style="stroke: #A80036; stroke-width: 1.0;"/><polygon fill="#A80036" points="482.22,273.06,472.5339,271.2769,477.3588,274.2299,474.4058,279.0549,482.22,273.06" style="stroke: #A80036; stroke-width: 1.0;"/><!--link Organiser rendez-vous to Créer promesse de vente--><path d="M296.064,564.395 C307.978,559.104 319.79,552.4 329.5,544 C378.992,501.188 359.349,464.84 404,417 C427.845,391.452 461.013,369.546 486.437,354.82 " fill="none" id="Organiser rendez-vous-Créer promesse de vente" style="stroke: #A80036; stroke-width: 1.0; stroke-dasharray: 7.0,7.0;"/><polygon fill="#A80036" points="291.318,566.429,301.166,566.5596,295.9136,564.4591,298.0141,559.2066,291.318,566.429" style="stroke: #A80036; stroke-width: 1.0;"/><text fill="#000000" font-family="sans-serif" font-size="13" lengthAdjust="spacingAndGlyphs" textLength="41" x="354" y="425.4951">include</text><!--link Agence to Signer promesse de vente--><path d="M86.0002,356.189 C100.8772,345.362 121.035,331.946 140.5,323 C220.702,286.141 246.859,293.007 329.5,262 C363.24,249.341 370.321,242.82 404,230 C422.92,222.798 443.775,215.596 462.718,209.327 " fill="none" id="Agence-Signer promesse de vente" style="stroke: #A80036; stroke-width: 1.0;"/><polygon fill="#A80036" points="467.49,207.755,457.6903,206.7718,462.741,209.3194,460.1934,214.3701,467.49,207.755" style="stroke: #A80036; stroke-width: 1.0;"/><!--link Agence to Créer document--><path d="M76.6657,331.302 C88.4938,302.226 108.783,266.036 140.5,249 C148.968,244.452 158.389,240.937 167.899,238.223 " fill="none" id="Agence-Créer document" style="stroke: #A80036; stroke-width: 1.0;"/><polygon fill="#A80036" points="172.875,236.874,163.1422,235.3662,168.0489,238.1812,165.2338,243.0879,172.875,236.874" style="stroke: #A80036; stroke-width: 1.0;"/><!--link Agence to Voir stats--><path d="M75.156,331.432 C87.4405,293.355 109.11,237.338 140.5,196 C159.161,171.425 187.36,149.938 207.909,136.139 " fill="none" id="Agence-Voir stats" style="stroke: #A80036; stroke-width: 1.0;"/><polygon fill="#A80036" points="212.172,133.313,202.4606,134.9525,208.0047,136.0759,206.8813,141.6201,212.172,133.313" style="stroke: #A80036; stroke-width: 1.0;"/><!--
@startuml

left to right direction

rectangle "Logiciel" {

  (Organiser rendez-vous)

  Agence - -> (Ajouter client)
  Agence - -> (Modifier client)
  Agence - -> (Organiser rendez-vous)

  rectangle "LogiVente"{
    (Ajouter bien) .right.> (Créer mandat) : include
    Agence - -> (Modifier bien)
    Agence - -> (Ajouter bien)
    (Créer mandat) .up.> (Organiser rendez-vous) : include
  }

  rectangle "LogiAchat"{
    Agence - -> (Créer promesse de vente)
    Agence - -> (Créer envie)
    (Créer promesse de vente) .up.> (Organiser rendez-vous) : include
    Agence - -> (Signer promesse de vente)
  }

  rectangle "LogiPub"{
    Agence - -> (Créer document)
  }

  rectangle "LogiStat"{
    Agence - -> (Voir stats)
  }

}


@enduml

PlantUML version 1.2017.18(Fri Oct 06 18:56:32 CEST 2017)
(GPL source distribution)
Java Runtime: Java(TM) SE Runtime Environment
JVM: Java HotSpot(TM) 64-Bit Server VM
Java Version: 9.0.1+11
Operating System: Windows 10
OS Version: 10.0
Default Encoding: Cp1252
Language: fr
Country: FR
--></g></svg>