<?xml version="1.0" encoding="UTF-8" standalone="no"?><svg xmlns="http://www.w3.org/2000/svg" xmlns:xlink="http://www.w3.org/1999/xlink" contentScriptType="application/ecmascript" contentStyleType="text/css" height="1229px" preserveAspectRatio="none" style="width:1674px;height:1229px;" version="1.1" viewBox="0 0 1674 1229"
    width="1674px" zoomAndPan="magnify"><defs><filter height="300%" id="f1rcvo8k19c31o" width="300%" x="-1" y="-1"><feGaussianBlur result="blurOut" stdDeviation="2.0"/><feColorMatrix in="blurOut" result="blurOut2" type="matrix" values="0 0 0 0 0 0 0 0 0 0 0 0 0 0 0 0 0 0 .4 0"/><feOffset dx="4.0" dy="4.0" in="blurOut2" result="blurOut3"/><feBlend in="SourceGraphic" in2="blurOut3" mode="normal"/></filter></defs><g><!--cluster user--><polygon fill="#FFFFFF" filter="url(#f1rcvo8k19c31o)" points="1341.43,851,1379.43,851,1386.43,874.6094,1652.43,874.6094,1652.43,1217,1341.43,1217,1341.43,851" style="stroke: #000000; stroke-width: 2.0;"/><line style="stroke: #000000; stroke-width: 2.0;" x1="1341.43" x2="1386.43" y1="874.6094" y2="874.6094"/><text fill="#000000" font-family="sans-serif" font-size="14" font-weight="bold" lengthAdjust="spacingAndGlyphs" textLength="32" x="1345.43" y="867.5332">user</text><!--cluster agence--><polygon fill="#FFFFFF" filter="url(#f1rcvo8k19c31o)" points="774.432,342,832.432,342,839.432,365.6094,1317.43,365.6094,1317.43,1020,774.432,1020,774.432,342" style="stroke: #000000; stroke-width: 2.0;"/><line style="stroke: #000000; stroke-width: 2.0;" x1="774.432" x2="839.432" y1="365.6094" y2="365.6094"/><text fill="#000000" font-family="sans-serif" font-size="14" font-weight="bold" lengthAdjust="spacingAndGlyphs" textLength="52" x="778.432" y="358.5332">agence</text><!--cluster pub--><polygon fill="#FFFFFF" filter="url(#f1rcvo8k19c31o)" points="906.432,24,939.432,24,946.432,47.6094,1550.43,47.6094,1550.43,292,906.432,292,906.432,24" style="stroke: #000000; stroke-width: 2.0;"/><line style="stroke: #000000; stroke-width: 2.0;" x1="906.432" x2="946.432" y1="47.6094" y2="47.6094"/><text fill="#000000" font-family="sans-serif" font-size="14" font-weight="bold" lengthAdjust="spacingAndGlyphs" textLength="27" x="910.432" y="40.5332">pub</text><!--cluster immo--><polygon fill="#FFFFFF" filter="url(#f1rcvo8k19c31o)" points="64.4323,369.5,107.4323,369.5,114.4323,393.1094,750.432,393.1094,750.432,796,64.4323,796,64.4323,369.5" style="stroke: #000000; stroke-width: 2.0;"/><line style="stroke: #000000; stroke-width: 2.0;" x1="64.4323" x2="114.4323" y1="393.1094" y2="393.1094"/><text fill="#000000" font-family="sans-serif" font-size="14" font-weight="bold" lengthAdjust="spacingAndGlyphs" textLength="37" x="68.4323" y="386.0332">immo</text><!--class Personne--><rect fill="#FEFECE" filter="url(#f1rcvo8k19c31o)" height="103.3438" id="Personne" style="stroke: #A80036; stroke-width: 1.5;" width="97" x="1357.93" y="887"/><ellipse cx="1377.88" cy="903" fill="#ADD1B2" rx="11" ry="11" style="stroke: #A80036; stroke-width: 1.0;"/><path d="M1380.6456,898.875 Q1380.8019,898.6563 1380.9894,898.5469 Q1381.1769,898.4375 1381.3956,898.4375 Q1381.7706,898.4375 1382.005,898.6953 Q1382.2394,898.9531 1382.2394,899.5625 L1382.2394,901.0156 Q1382.2394,901.625 1382.005,901.8906 Q1381.7706,902.1563 1381.3956,902.1563 Q1381.0519,902.1563 1380.8488,901.9531 Q1380.6456,901.7656 1380.5363,901.25 Q1380.4894,900.8906 1380.3019,900.7031 Q1379.9738,900.3281 1379.3644,900.1094 Q1378.755,899.8906 1378.13,899.8906 Q1377.3644,899.8906 1376.7316,900.2188 Q1376.0988,900.5469 1375.6066,901.2969 Q1375.1144,902.0469 1375.1144,903.0781 L1375.1144,904.1719 Q1375.1144,905.4063 1376.005,906.2266 Q1376.8956,907.0469 1378.4894,907.0469 Q1379.4269,907.0469 1380.0831,906.7969 Q1380.4738,906.6406 1380.8956,906.2031 Q1381.1613,905.9375 1381.3097,905.8594 Q1381.4581,905.7813 1381.6613,905.7813 Q1381.9894,905.7813 1382.2472,906.0391 Q1382.505,906.2969 1382.505,906.6406 Q1382.505,906.9844 1382.1613,907.3906 Q1381.6613,907.9688 1380.8644,908.2969 Q1379.7863,908.75 1378.4894,908.75 Q1376.9738,908.75 1375.7706,908.125 Q1374.7863,907.625 1374.0988,906.5547 Q1373.4113,905.4844 1373.4113,904.2031 L1373.4113,903.0469 Q1373.4113,901.7188 1374.0284,900.5703 Q1374.6456,899.4219 1375.7394,898.8047 Q1376.8331,898.1875 1378.0675,898.1875 Q1378.8019,898.1875 1379.4503,898.3516 Q1380.0988,898.5156 1380.6456,898.875 Z "/><text fill="#000000" font-family="sans-serif" font-size="12" lengthAdjust="spacingAndGlyphs" textLength="54" x="1392.98" y="907.9102">Personne</text><line style="stroke: #A80036; stroke-width: 1.5;" x1="1358.93" x2="1453.93" y1="919" y2="919"/><rect fill="none" height="6" style="stroke: #C82930; stroke-width: 1.0;" width="6" x="1365.93" y="928.418"/><text fill="#000000" font-family="sans-serif" font-size="11" lengthAdjust="spacingAndGlyphs" textLength="51" x="1377.93" y="934.4189">String nom</text><rect fill="none" height="6" style="stroke: #C82930; stroke-width: 1.0;" width="6" x="1365.93" y="942.2539"/><text fill="#000000" font-family="sans-serif" font-size="11" lengthAdjust="spacingAndGlyphs" textLength="71" x="1377.93" y="948.2549">String adresse</text><rect fill="none" height="6" style="stroke: #C82930; stroke-width: 1.0;" width="6" x="1365.93" y="956.0898"/><text fill="#000000" font-family="sans-serif" font-size="11" lengthAdjust="spacingAndGlyphs" textLength="61" x="1377.93" y="962.0908">Int telephone</text><rect fill="none" height="6" style="stroke: #C82930; stroke-width: 1.0;" width="6" x="1365.93" y="969.9258"/><text fill="#000000" font-family="sans-serif" font-size="11" lengthAdjust="spacingAndGlyphs" textLength="55" x="1377.93" y="975.9268">String email</text><line style="stroke: #A80036; stroke-width: 1.5;" x1="1358.93" x2="1453.93" y1="982.3438" y2="982.3438"/><!--class Entreprise--><rect fill="#FEFECE" filter="url(#f1rcvo8k19c31o)" height="75.6719" id="Entreprise" style="stroke: #A80036; stroke-width: 1.5;" width="128" x="1357.43" y="1104.5"/><ellipse cx="1389.98" cy="1120.5" fill="#ADD1B2" rx="11" ry="11" style="stroke: #A80036; stroke-width: 1.0;"/><path d="M1392.7456,1116.375 Q1392.9019,1116.1563 1393.0894,1116.0469 Q1393.2769,1115.9375 1393.4956,1115.9375 Q1393.8706,1115.9375 1394.105,1116.1953 Q1394.3394,1116.4531 1394.3394,1117.0625 L1394.3394,1118.5156 Q1394.3394,1119.125 1394.105,1119.3906 Q1393.8706,1119.6563 1393.4956,1119.6563 Q1393.1519,1119.6563 1392.9488,1119.4531 Q1392.7456,1119.2656 1392.6363,1118.75 Q1392.5894,1118.3906 1392.4019,1118.2031 Q1392.0738,1117.8281 1391.4644,1117.6094 Q1390.855,1117.3906 1390.23,1117.3906 Q1389.4644,1117.3906 1388.8316,1117.7188 Q1388.1988,1118.0469 1387.7066,1118.7969 Q1387.2144,1119.5469 1387.2144,1120.5781 L1387.2144,1121.6719 Q1387.2144,1122.9063 1388.105,1123.7266 Q1388.9956,1124.5469 1390.5894,1124.5469 Q1391.5269,1124.5469 1392.1831,1124.2969 Q1392.5738,1124.1406 1392.9956,1123.7031 Q1393.2613,1123.4375 1393.4097,1123.3594 Q1393.5581,1123.2813 1393.7613,1123.2813 Q1394.0894,1123.2813 1394.3472,1123.5391 Q1394.605,1123.7969 1394.605,1124.1406 Q1394.605,1124.4844 1394.2613,1124.8906 Q1393.7613,1125.4688 1392.9644,1125.7969 Q1391.8863,1126.25 1390.5894,1126.25 Q1389.0738,1126.25 1387.8706,1125.625 Q1386.8863,1125.125 1386.1988,1124.0547 Q1385.5113,1122.9844 1385.5113,1121.7031 L1385.5113,1120.5469 Q1385.5113,1119.2188 1386.1284,1118.0703 Q1386.7456,1116.9219 1387.8394,1116.3047 Q1388.9331,1115.6875 1390.1675,1115.6875 Q1390.9019,1115.6875 1391.5503,1115.8516 Q1392.1988,1116.0156 1392.7456,1116.375 Z "/><text fill="#000000" font-family="sans-serif" font-size="12" lengthAdjust="spacingAndGlyphs" textLength="57" x="1407.88" y="1125.4102">Entreprise</text><line style="stroke: #A80036; stroke-width: 1.5;" x1="1358.43" x2="1484.43" y1="1136.5" y2="1136.5"/><rect fill="none" height="6" style="stroke: #C82930; stroke-width: 1.0;" width="6" x="1365.43" y="1145.918"/><text fill="#000000" font-family="sans-serif" font-size="11" lengthAdjust="spacingAndGlyphs" textLength="102" x="1377.43" y="1151.9189">String formeJuridique</text><rect fill="none" height="6" style="stroke: #C82930; stroke-width: 1.0;" width="6" x="1365.43" y="1159.7539"/><text fill="#000000" font-family="sans-serif" font-size="11" lengthAdjust="spacingAndGlyphs" textLength="59" x="1377.43" y="1165.7549">Int numSiren</text><line style="stroke: #A80036; stroke-width: 1.5;" x1="1358.43" x2="1484.43" y1="1172.1719" y2="1172.1719"/><!--class Envie--><rect fill="#FEFECE" filter="url(#f1rcvo8k19c31o)" height="117.1797" id="Envie" style="stroke: #A80036; stroke-width: 1.5;" width="115" x="1520.93" y="1084"/><ellipse cx="1559.78" cy="1100" fill="#ADD1B2" rx="11" ry="11" style="stroke: #A80036; stroke-width: 1.0;"/><path d="M1562.5456,1095.875 Q1562.7019,1095.6563 1562.8894,1095.5469 Q1563.0769,1095.4375 1563.2956,1095.4375 Q1563.6706,1095.4375 1563.905,1095.6953 Q1564.1394,1095.9531 1564.1394,1096.5625 L1564.1394,1098.0156 Q1564.1394,1098.625 1563.905,1098.8906 Q1563.6706,1099.1563 1563.2956,1099.1563 Q1562.9519,1099.1563 1562.7488,1098.9531 Q1562.5456,1098.7656 1562.4363,1098.25 Q1562.3894,1097.8906 1562.2019,1097.7031 Q1561.8738,1097.3281 1561.2644,1097.1094 Q1560.655,1096.8906 1560.03,1096.8906 Q1559.2644,1096.8906 1558.6316,1097.2188 Q1557.9988,1097.5469 1557.5066,1098.2969 Q1557.0144,1099.0469 1557.0144,1100.0781 L1557.0144,1101.1719 Q1557.0144,1102.4063 1557.905,1103.2266 Q1558.7956,1104.0469 1560.3894,1104.0469 Q1561.3269,1104.0469 1561.9831,1103.7969 Q1562.3738,1103.6406 1562.7956,1103.2031 Q1563.0613,1102.9375 1563.2097,1102.8594 Q1563.3581,1102.7813 1563.5613,1102.7813 Q1563.8894,1102.7813 1564.1472,1103.0391 Q1564.405,1103.2969 1564.405,1103.6406 Q1564.405,1103.9844 1564.0613,1104.3906 Q1563.5613,1104.9688 1562.7644,1105.2969 Q1561.6863,1105.75 1560.3894,1105.75 Q1558.8738,1105.75 1557.6706,1105.125 Q1556.6863,1104.625 1555.9988,1103.5547 Q1555.3113,1102.4844 1555.3113,1101.2031 L1555.3113,1100.0469 Q1555.3113,1098.7188 1555.9284,1097.5703 Q1556.5456,1096.4219 1557.6394,1095.8047 Q1558.7331,1095.1875 1559.9675,1095.1875 Q1560.7019,1095.1875 1561.3503,1095.3516 Q1561.9988,1095.5156 1562.5456,1095.875 Z "/><text fill="#000000" font-family="sans-serif" font-size="12" lengthAdjust="spacingAndGlyphs" textLength="30" x="1579.08" y="1104.9102">Envie</text><line style="stroke: #A80036; stroke-width: 1.5;" x1="1521.93" x2="1634.93" y1="1116" y2="1116"/><rect fill="none" height="6" style="stroke: #C82930; stroke-width: 1.0;" width="6" x="1528.93" y="1125.418"/><text fill="#000000" font-family="sans-serif" font-size="11" lengthAdjust="spacingAndGlyphs" textLength="52" x="1540.93" y="1131.4189">String type</text><rect fill="none" height="6" style="stroke: #C82930; stroke-width: 1.0;" width="6" x="1528.93" y="1139.2539"/><text fill="#000000" font-family="sans-serif" font-size="11" lengthAdjust="spacingAndGlyphs" textLength="54" x="1540.93" y="1145.2549">Double prix</text><rect fill="none" height="6" style="stroke: #C82930; stroke-width: 1.0;" width="6" x="1528.93" y="1153.0898"/><text fill="#000000" font-family="sans-serif" font-size="11" lengthAdjust="spacingAndGlyphs" textLength="84" x="1540.93" y="1159.0908">String localisation</text><rect fill="none" height="6" style="stroke: #C82930; stroke-width: 1.0;" width="6" x="1528.93" y="1166.9258"/><text fill="#000000" font-family="sans-serif" font-size="11" lengthAdjust="spacingAndGlyphs" textLength="89" x="1540.93" y="1172.9268">Double surfaceSol</text><rect fill="none" height="6" style="stroke: #C82930; stroke-width: 1.0;" width="6" x="1528.93" y="1180.7617"/><text fill="#000000" font-family="sans-serif" font-size="11" lengthAdjust="spacingAndGlyphs" textLength="58" x="1540.93" y="1186.7627">Int nbPieces</text><line style="stroke: #A80036; stroke-width: 1.5;" x1="1521.93" x2="1634.93" y1="1193.1797" y2="1193.1797"/><!--class Agence--><rect fill="#FEFECE" filter="url(#f1rcvo8k19c31o)" height="200.1953" id="Agence" style="stroke: #A80036; stroke-width: 1.5;" width="248" x="871.432" y="378"/><ellipse cx="970.682" cy="394" fill="#ADD1B2" rx="11" ry="11" style="stroke: #A80036; stroke-width: 1.0;"/><path d="M973.4476,389.875 Q973.6039,389.6563 973.7914,389.5469 Q973.9789,389.4375 974.1976,389.4375 Q974.5726,389.4375 974.807,389.6953 Q975.0414,389.9531 975.0414,390.5625 L975.0414,392.0156 Q975.0414,392.625 974.807,392.8906 Q974.5726,393.1563 974.1976,393.1563 Q973.8539,393.1563 973.6508,392.9531 Q973.4476,392.7656 973.3383,392.25 Q973.2914,391.8906 973.1039,391.7031 Q972.7758,391.3281 972.1664,391.1094 Q971.557,390.8906 970.932,390.8906 Q970.1664,390.8906 969.5336,391.2188 Q968.9008,391.5469 968.4086,392.2969 Q967.9164,393.0469 967.9164,394.0781 L967.9164,395.1719 Q967.9164,396.4063 968.807,397.2266 Q969.6976,398.0469 971.2914,398.0469 Q972.2289,398.0469 972.8851,397.7969 Q973.2758,397.6406 973.6976,397.2031 Q973.9633,396.9375 974.1117,396.8594 Q974.2601,396.7813 974.4633,396.7813 Q974.7914,396.7813 975.0492,397.0391 Q975.307,397.2969 975.307,397.6406 Q975.307,397.9844 974.9633,398.3906 Q974.4633,398.9688 973.6664,399.2969 Q972.5883,399.75 971.2914,399.75 Q969.7758,399.75 968.5726,399.125 Q967.5883,398.625 966.9008,397.5547 Q966.2133,396.4844 966.2133,395.2031 L966.2133,394.0469 Q966.2133,392.7188 966.8304,391.5703 Q967.4476,390.4219 968.5414,389.8047 Q969.6351,389.1875 970.8695,389.1875 Q971.6039,389.1875 972.2523,389.3516 Q972.9008,389.5156 973.4476,389.875 Z "/><text fill="#000000" font-family="sans-serif" font-size="12" lengthAdjust="spacingAndGlyphs" textLength="41" x="991.182" y="398.9102">Agence</text><line style="stroke: #A80036; stroke-width: 1.5;" x1="872.432" x2="1118.432" y1="410" y2="410"/><rect fill="none" height="6" style="stroke: #C82930; stroke-width: 1.0;" width="6" x="879.432" y="419.418"/><text fill="#000000" font-family="sans-serif" font-size="11" lengthAdjust="spacingAndGlyphs" textLength="51" x="891.432" y="425.4189">String nom</text><rect fill="none" height="6" style="stroke: #C82930; stroke-width: 1.0;" width="6" x="879.432" y="433.2539"/><text fill="#000000" font-family="sans-serif" font-size="11" lengthAdjust="spacingAndGlyphs" textLength="210" x="891.432" y="439.2549">HashSet&lt;Date, Personne&gt; listeRdvVendeur</text><line style="stroke: #A80036; stroke-width: 1.5;" x1="872.432" x2="1118.432" y1="445.6719" y2="445.6719"/><ellipse cx="882.432" cy="458.0898" fill="#84BE84" rx="3" ry="3" style="stroke: #038048; stroke-width: 1.0;"/><text fill="#000000" font-family="sans-serif" font-size="11" lengthAdjust="spacingAndGlyphs" textLength="222" x="891.432" y="461.0908">creerPersonne(String, String, Int, String) : void</text><ellipse cx="882.432" cy="471.9258" fill="#84BE84" rx="3" ry="3" style="stroke: #038048; stroke-width: 1.0;"/><text fill="#000000" font-family="sans-serif" font-size="11" lengthAdjust="spacingAndGlyphs" textLength="196" x="891.432" y="474.9268">priseRdvVendeur(Personne, Date) : void</text><ellipse cx="882.432" cy="485.7617" fill="#84BE84" rx="3" ry="3" style="stroke: #038048; stroke-width: 1.0;"/><text fill="#000000" font-family="sans-serif" font-size="11" lengthAdjust="spacingAndGlyphs" textLength="185" x="891.432" y="488.7627">creerMandat(Personne, Mandat) : void</text><ellipse cx="882.432" cy="499.5977" fill="#84BE84" rx="3" ry="3" style="stroke: #038048; stroke-width: 1.0;"/><text fill="#000000" font-family="sans-serif" font-size="11" lengthAdjust="spacingAndGlyphs" textLength="167" x="891.432" y="502.5986">creerEnvie(Personne, Envie) : void</text><ellipse cx="882.432" cy="513.4336" fill="#84BE84" rx="3" ry="3" style="stroke: #038048; stroke-width: 1.0;"/><text fill="#000000" font-family="sans-serif" font-size="11" lengthAdjust="spacingAndGlyphs" textLength="205" x="891.432" y="516.4346">organiserVisite(Envie, Mandat, Date) : void</text><ellipse cx="882.432" cy="527.2695" fill="#84BE84" rx="3" ry="3" style="stroke: #038048; stroke-width: 1.0;"/><text fill="#000000" font-family="sans-serif" font-size="11" lengthAdjust="spacingAndGlyphs" textLength="207" x="891.432" y="530.2705">organiserVente(Envie, Mandat, Date) : void</text><rect fill="#F24D5C" height="6" style="stroke: #C82930; stroke-width: 1.0;" width="6" x="879.432" y="538.1055"/><text fill="#000000" font-family="sans-serif" font-size="11" lengthAdjust="spacingAndGlyphs" textLength="159" x="891.432" y="544.1064">creerPromesse(Promesse) : void</text><ellipse cx="882.432" cy="554.9414" fill="#84BE84" rx="3" ry="3" style="stroke: #038048; stroke-width: 1.0;"/><text fill="#000000" font-family="sans-serif" font-size="11" lengthAdjust="spacingAndGlyphs" textLength="80" x="891.432" y="557.9424">voirStats() : void</text><ellipse cx="882.432" cy="568.7773" fill="#84BE84" rx="3" ry="3" style="stroke: #038048; stroke-width: 1.0;"/><text fill="#000000" font-family="sans-serif" font-size="11" lengthAdjust="spacingAndGlyphs" textLength="111" x="891.432" y="571.7783">creerDocument() : void</text><!--class Mandat--><rect fill="#FEFECE" filter="url(#f1rcvo8k19c31o)" height="131.0156" id="Mandat" style="stroke: #A80036; stroke-width: 1.5;" width="221" x="1079.93" y="656"/><ellipse cx="1166.18" cy="672" fill="#ADD1B2" rx="11" ry="11" style="stroke: #A80036; stroke-width: 1.0;"/><path d="M1168.9456,667.875 Q1169.1019,667.6563 1169.2894,667.5469 Q1169.4769,667.4375 1169.6956,667.4375 Q1170.0706,667.4375 1170.305,667.6953 Q1170.5394,667.9531 1170.5394,668.5625 L1170.5394,670.0156 Q1170.5394,670.625 1170.305,670.8906 Q1170.0706,671.1563 1169.6956,671.1563 Q1169.3519,671.1563 1169.1488,670.9531 Q1168.9456,670.7656 1168.8363,670.25 Q1168.7894,669.8906 1168.6019,669.7031 Q1168.2738,669.3281 1167.6644,669.1094 Q1167.055,668.8906 1166.43,668.8906 Q1165.6644,668.8906 1165.0316,669.2188 Q1164.3988,669.5469 1163.9066,670.2969 Q1163.4144,671.0469 1163.4144,672.0781 L1163.4144,673.1719 Q1163.4144,674.4063 1164.305,675.2266 Q1165.1956,676.0469 1166.7894,676.0469 Q1167.7269,676.0469 1168.3831,675.7969 Q1168.7738,675.6406 1169.1956,675.2031 Q1169.4613,674.9375 1169.6097,674.8594 Q1169.7581,674.7813 1169.9613,674.7813 Q1170.2894,674.7813 1170.5472,675.0391 Q1170.805,675.2969 1170.805,675.6406 Q1170.805,675.9844 1170.4613,676.3906 Q1169.9613,676.9688 1169.1644,677.2969 Q1168.0863,677.75 1166.7894,677.75 Q1165.2738,677.75 1164.0706,677.125 Q1163.0863,676.625 1162.3988,675.5547 Q1161.7113,674.4844 1161.7113,673.2031 L1161.7113,672.0469 Q1161.7113,670.7188 1162.3284,669.5703 Q1162.9456,668.4219 1164.0394,667.8047 Q1165.1331,667.1875 1166.3675,667.1875 Q1167.1019,667.1875 1167.7503,667.3516 Q1168.3988,667.5156 1168.9456,667.875 Z "/><text fill="#000000" font-family="sans-serif" font-size="12" lengthAdjust="spacingAndGlyphs" textLength="40" x="1186.68" y="676.9102">Mandat</text><line style="stroke: #A80036; stroke-width: 1.5;" x1="1080.93" x2="1299.93" y1="688" y2="688"/><rect fill="none" height="6" style="stroke: #C82930; stroke-width: 1.0;" width="6" x="1087.93" y="697.418"/><text fill="#000000" font-family="sans-serif" font-size="11" lengthAdjust="spacingAndGlyphs" textLength="195" x="1099.93" y="703.4189">HashSet&lt;Date, Personne&gt; listeRdvVisite</text><rect fill="none" height="6" style="stroke: #C82930; stroke-width: 1.0;" width="6" x="1087.93" y="711.2539"/><text fill="#000000" font-family="sans-serif" font-size="11" lengthAdjust="spacingAndGlyphs" textLength="32" x="1099.93" y="717.2549">Int prix</text><rect fill="none" height="6" style="stroke: #C82930; stroke-width: 1.0;" width="6" x="1087.93" y="725.0898"/><text fill="#000000" font-family="sans-serif" font-size="11" lengthAdjust="spacingAndGlyphs" textLength="52" x="1099.93" y="731.0908">Date vente</text><rect fill="none" height="6" style="stroke: #C82930; stroke-width: 1.0;" width="6" x="1087.93" y="738.9258"/><text fill="#000000" font-family="sans-serif" font-size="11" lengthAdjust="spacingAndGlyphs" textLength="52" x="1099.93" y="744.9268">Date debut</text><rect fill="none" height="6" style="stroke: #C82930; stroke-width: 1.0;" width="6" x="1087.93" y="752.7617"/><text fill="#000000" font-family="sans-serif" font-size="11" lengthAdjust="spacingAndGlyphs" textLength="37" x="1099.93" y="758.7627">Date fin</text><line style="stroke: #A80036; stroke-width: 1.5;" x1="1080.93" x2="1299.93" y1="765.1797" y2="765.1797"/><rect fill="#F24D5C" height="6" style="stroke: #C82930; stroke-width: 1.0;" width="6" x="1087.93" y="774.5977"/><text fill="#000000" font-family="sans-serif" font-size="11" lengthAdjust="spacingAndGlyphs" textLength="84" x="1099.93" y="780.5986">creerBien() : void</text><!--class Promesse--><rect fill="#FEFECE" filter="url(#f1rcvo8k19c31o)" height="131.0156" id="Promesse" style="stroke: #A80036; stroke-width: 1.5;" width="156" x="822.432" y="873"/><ellipse cx="867.182" cy="889" fill="#ADD1B2" rx="11" ry="11" style="stroke: #A80036; stroke-width: 1.0;"/><path d="M869.9476,884.875 Q870.1039,884.6563 870.2914,884.5469 Q870.4789,884.4375 870.6976,884.4375 Q871.0726,884.4375 871.307,884.6953 Q871.5414,884.9531 871.5414,885.5625 L871.5414,887.0156 Q871.5414,887.625 871.307,887.8906 Q871.0726,888.1563 870.6976,888.1563 Q870.3539,888.1563 870.1508,887.9531 Q869.9476,887.7656 869.8383,887.25 Q869.7914,886.8906 869.6039,886.7031 Q869.2758,886.3281 868.6664,886.1094 Q868.057,885.8906 867.432,885.8906 Q866.6664,885.8906 866.0336,886.2188 Q865.4008,886.5469 864.9086,887.2969 Q864.4164,888.0469 864.4164,889.0781 L864.4164,890.1719 Q864.4164,891.4063 865.307,892.2266 Q866.1976,893.0469 867.7914,893.0469 Q868.7289,893.0469 869.3851,892.7969 Q869.7758,892.6406 870.1976,892.2031 Q870.4633,891.9375 870.6117,891.8594 Q870.7601,891.7813 870.9633,891.7813 Q871.2914,891.7813 871.5492,892.0391 Q871.807,892.2969 871.807,892.6406 Q871.807,892.9844 871.4633,893.3906 Q870.9633,893.9688 870.1664,894.2969 Q869.0883,894.75 867.7914,894.75 Q866.2758,894.75 865.0726,894.125 Q864.0883,893.625 863.4008,892.5547 Q862.7133,891.4844 862.7133,890.2031 L862.7133,889.0469 Q862.7133,887.7188 863.3304,886.5703 Q863.9476,885.4219 865.0414,884.8047 Q866.1351,884.1875 867.3695,884.1875 Q868.1039,884.1875 868.7523,884.3516 Q869.4008,884.5156 869.9476,884.875 Z "/><text fill="#000000" font-family="sans-serif" font-size="12" lengthAdjust="spacingAndGlyphs" textLength="58" x="887.682" y="893.9102">Promesse</text><line style="stroke: #A80036; stroke-width: 1.5;" x1="823.432" x2="977.432" y1="905" y2="905"/><rect fill="none" height="6" style="stroke: #C82930; stroke-width: 1.0;" width="6" x="830.432" y="914.418"/><text fill="#000000" font-family="sans-serif" font-size="11" lengthAdjust="spacingAndGlyphs" textLength="126" x="842.432" y="920.4189">Double prixVerseVendeur</text><rect fill="none" height="6" style="stroke: #C82930; stroke-width: 1.0;" width="6" x="830.432" y="928.2539"/><text fill="#000000" font-family="sans-serif" font-size="11" lengthAdjust="spacingAndGlyphs" textLength="105" x="842.432" y="934.2549">String adresseNotaire</text><rect fill="none" height="6" style="stroke: #C82930; stroke-width: 1.0;" width="6" x="830.432" y="942.0898"/><text fill="#000000" font-family="sans-serif" font-size="11" lengthAdjust="spacingAndGlyphs" textLength="52" x="842.432" y="948.0908">Date vente</text><rect fill="none" height="6" style="stroke: #C82930; stroke-width: 1.0;" width="6" x="830.432" y="955.9258"/><text fill="#000000" font-family="sans-serif" font-size="11" lengthAdjust="spacingAndGlyphs" textLength="130" x="842.432" y="961.9268">Double commissionAgence</text><rect fill="none" height="6" style="stroke: #C82930; stroke-width: 1.0;" width="6" x="830.432" y="969.7617"/><text fill="#000000" font-family="sans-serif" font-size="11" lengthAdjust="spacingAndGlyphs" textLength="87" x="842.432" y="975.7627">Double fraisVente</text><line style="stroke: #A80036; stroke-width: 1.5;" x1="823.432" x2="977.432" y1="982.1797" y2="982.1797"/><ellipse cx="833.432" cy="994.5977" fill="#84BE84" rx="3" ry="3" style="stroke: #038048; stroke-width: 1.0;"/><text fill="#000000" font-family="sans-serif" font-size="11" lengthAdjust="spacingAndGlyphs" textLength="115" x="842.432" y="997.5986">signerPromesse() : void</text><!--class Notaire--><rect fill="#FEFECE" filter="url(#f1rcvo8k19c31o)" height="61.8359" id="Notaire" style="stroke: #A80036; stroke-width: 1.5;" width="99" x="945.932" y="690.5"/><ellipse cx="973.082" cy="706.5" fill="#ADD1B2" rx="11" ry="11" style="stroke: #A80036; stroke-width: 1.0;"/><path d="M975.8476,702.375 Q976.0039,702.1563 976.1914,702.0469 Q976.3789,701.9375 976.5976,701.9375 Q976.9726,701.9375 977.207,702.1953 Q977.4414,702.4531 977.4414,703.0625 L977.4414,704.5156 Q977.4414,705.125 977.207,705.3906 Q976.9726,705.6563 976.5976,705.6563 Q976.2539,705.6563 976.0508,705.4531 Q975.8476,705.2656 975.7383,704.75 Q975.6914,704.3906 975.5039,704.2031 Q975.1758,703.8281 974.5664,703.6094 Q973.957,703.3906 973.332,703.3906 Q972.5664,703.3906 971.9336,703.7188 Q971.3008,704.0469 970.8086,704.7969 Q970.3164,705.5469 970.3164,706.5781 L970.3164,707.6719 Q970.3164,708.9063 971.207,709.7266 Q972.0976,710.5469 973.6914,710.5469 Q974.6289,710.5469 975.2851,710.2969 Q975.6758,710.1406 976.0976,709.7031 Q976.3633,709.4375 976.5117,709.3594 Q976.6601,709.2813 976.8633,709.2813 Q977.1914,709.2813 977.4492,709.5391 Q977.707,709.7969 977.707,710.1406 Q977.707,710.4844 977.3633,710.8906 Q976.8633,711.4688 976.0664,711.7969 Q974.9883,712.25 973.6914,712.25 Q972.1758,712.25 970.9726,711.625 Q969.9883,711.125 969.3008,710.0547 Q968.6133,708.9844 968.6133,707.7031 L968.6133,706.5469 Q968.6133,705.2188 969.2304,704.0703 Q969.8476,702.9219 970.9414,702.3047 Q972.0351,701.6875 973.2695,701.6875 Q974.0039,701.6875 974.6523,701.8516 Q975.3008,702.0156 975.8476,702.375 Z "/><text fill="#000000" font-family="sans-serif" font-size="12" lengthAdjust="spacingAndGlyphs" textLength="40" x="989.782" y="711.4102">Notaire</text><line style="stroke: #A80036; stroke-width: 1.5;" x1="946.932" x2="1043.932" y1="722.5" y2="722.5"/><line style="stroke: #A80036; stroke-width: 1.5;" x1="946.932" x2="1043.932" y1="730.5" y2="730.5"/><ellipse cx="956.932" cy="742.918" fill="#84BE84" rx="3" ry="3" style="stroke: #038048; stroke-width: 1.0;"/><text fill="#000000" font-family="sans-serif" font-size="11" lengthAdjust="spacingAndGlyphs" textLength="73" x="965.932" y="745.9189">verserArgent()</text><!--class AnnoncePub--><rect fill="#FEFECE" filter="url(#f1rcvo8k19c31o)" height="61.8359" id="AnnoncePub" style="stroke: #A80036; stroke-width: 1.5;" width="145" x="922.932" y="207"/><ellipse cx="957.282" cy="223" fill="#ADD1B2" rx="11" ry="11" style="stroke: #A80036; stroke-width: 1.0;"/><path d="M960.0476,218.875 Q960.2039,218.6563 960.3914,218.5469 Q960.5789,218.4375 960.7976,218.4375 Q961.1726,218.4375 961.407,218.6953 Q961.6414,218.9531 961.6414,219.5625 L961.6414,221.0156 Q961.6414,221.625 961.407,221.8906 Q961.1726,222.1563 960.7976,222.1563 Q960.4539,222.1563 960.2508,221.9531 Q960.0476,221.7656 959.9383,221.25 Q959.8914,220.8906 959.7039,220.7031 Q959.3758,220.3281 958.7664,220.1094 Q958.157,219.8906 957.532,219.8906 Q956.7664,219.8906 956.1336,220.2188 Q955.5008,220.5469 955.0086,221.2969 Q954.5164,222.0469 954.5164,223.0781 L954.5164,224.1719 Q954.5164,225.4063 955.407,226.2266 Q956.2976,227.0469 957.8914,227.0469 Q958.8289,227.0469 959.4851,226.7969 Q959.8758,226.6406 960.2976,226.2031 Q960.5633,225.9375 960.7117,225.8594 Q960.8601,225.7813 961.0633,225.7813 Q961.3914,225.7813 961.6492,226.0391 Q961.907,226.2969 961.907,226.6406 Q961.907,226.9844 961.5633,227.3906 Q961.0633,227.9688 960.2664,228.2969 Q959.1883,228.75 957.8914,228.75 Q956.3758,228.75 955.1726,228.125 Q954.1883,227.625 953.5008,226.5547 Q952.8133,225.4844 952.8133,224.2031 L952.8133,223.0469 Q952.8133,221.7188 953.4304,220.5703 Q954.0476,219.4219 955.1414,218.8047 Q956.2351,218.1875 957.4695,218.1875 Q958.2039,218.1875 958.8523,218.3516 Q959.5008,218.5156 960.0476,218.875 Z "/><text fill="#000000" font-family="sans-serif" font-size="12" lengthAdjust="spacingAndGlyphs" textLength="70" x="975.582" y="227.9102">AnnoncePub</text><line style="stroke: #A80036; stroke-width: 1.5;" x1="923.932" x2="1066.932" y1="239" y2="239"/><line style="stroke: #A80036; stroke-width: 1.5;" x1="923.932" x2="1066.932" y1="247" y2="247"/><ellipse cx="933.932" cy="259.418" fill="#84BE84" rx="3" ry="3" style="stroke: #038048; stroke-width: 1.0;"/><text fill="#000000" font-family="sans-serif" font-size="11" lengthAdjust="spacingAndGlyphs" textLength="119" x="942.932" y="262.4189">addElem(TypePub) : void</text><!--class TypePub--><rect fill="#FEFECE" filter="url(#f1rcvo8k19c31o)" height="61.8359" id="TypePub" style="stroke: #A80036; stroke-width: 1.5;" width="82" x="1226.43" y="60"/><ellipse cx="1241.43" cy="76" fill="#A9DCDF" rx="11" ry="11" style="stroke: #A80036; stroke-width: 1.0;"/><path d="M1243.6175,77.7656 L1239.4769,77.7656 L1239.055,78.7969 L1239.4769,78.7969 Q1240.0863,78.7969 1240.3519,79.0313 Q1240.6175,79.2656 1240.6175,79.6563 Q1240.6175,80.0313 1240.3519,80.2656 Q1240.0863,80.5 1239.4769,80.5 L1237.18,80.5 Q1236.5706,80.5 1236.3128,80.2656 Q1236.055,80.0313 1236.055,79.6406 Q1236.055,79.2656 1236.3284,79.0234 Q1236.6019,78.7813 1237.2269,78.7969 L1239.8988,72.1406 L1238.7894,72.1406 Q1238.18,72.1406 1237.9144,71.9063 Q1237.6488,71.6719 1237.6488,71.2813 Q1237.6488,70.9063 1237.9144,70.6719 Q1238.18,70.4375 1238.7894,70.4375 L1242.4613,70.4375 L1245.8519,78.7969 Q1246.4456,78.7969 1246.6331,78.9375 Q1247.0238,79.2031 1247.0238,79.6563 Q1247.0238,80.0313 1246.7659,80.2656 Q1246.5081,80.5 1245.8988,80.5 L1243.6019,80.5 Q1242.9925,80.5 1242.7269,80.2656 Q1242.4613,80.0313 1242.4613,79.6406 Q1242.4613,79.2656 1242.7269,79.0313 Q1242.9925,78.7969 1243.6019,78.7969 L1244.0238,78.7969 L1243.6175,77.7656 Z M1242.8988,76.0625 L1241.5394,72.6875 L1240.1644,76.0625 L1242.8988,76.0625 Z "/><text fill="#000000" font-family="sans-serif" font-size="12" font-style="italic" lengthAdjust="spacingAndGlyphs" textLength="50" x="1255.43" y="80.9102">TypePub</text><line style="stroke: #A80036; stroke-width: 1.5;" x1="1227.43" x2="1307.43" y1="92" y2="92"/><line style="stroke: #A80036; stroke-width: 1.5;" x1="1227.43" x2="1307.43" y1="100" y2="100"/><ellipse cx="1237.43" cy="112.418" fill="#84BE84" rx="3" ry="3" style="stroke: #038048; stroke-width: 1.0;"/><text fill="#000000" font-family="sans-serif" font-size="11" lengthAdjust="spacingAndGlyphs" textLength="45" x="1246.43" y="115.4189">getElem()</text><!--class TypeTexte--><rect fill="#FEFECE" filter="url(#f1rcvo8k19c31o)" height="75.6719" id="TypeTexte" style="stroke: #A80036; stroke-width: 1.5;" width="87" x="1102.93" y="200"/><ellipse cx="1117.93" cy="216" fill="#ADD1B2" rx="11" ry="11" style="stroke: #A80036; stroke-width: 1.0;"/><path d="M1120.6956,211.875 Q1120.8519,211.6563 1121.0394,211.5469 Q1121.2269,211.4375 1121.4456,211.4375 Q1121.8206,211.4375 1122.055,211.6953 Q1122.2894,211.9531 1122.2894,212.5625 L1122.2894,214.0156 Q1122.2894,214.625 1122.055,214.8906 Q1121.8206,215.1563 1121.4456,215.1563 Q1121.1019,215.1563 1120.8988,214.9531 Q1120.6956,214.7656 1120.5863,214.25 Q1120.5394,213.8906 1120.3519,213.7031 Q1120.0238,213.3281 1119.4144,213.1094 Q1118.805,212.8906 1118.18,212.8906 Q1117.4144,212.8906 1116.7816,213.2188 Q1116.1488,213.5469 1115.6566,214.2969 Q1115.1644,215.0469 1115.1644,216.0781 L1115.1644,217.1719 Q1115.1644,218.4063 1116.055,219.2266 Q1116.9456,220.0469 1118.5394,220.0469 Q1119.4769,220.0469 1120.1331,219.7969 Q1120.5238,219.6406 1120.9456,219.2031 Q1121.2113,218.9375 1121.3597,218.8594 Q1121.5081,218.7813 1121.7113,218.7813 Q1122.0394,218.7813 1122.2972,219.0391 Q1122.555,219.2969 1122.555,219.6406 Q1122.555,219.9844 1122.2113,220.3906 Q1121.7113,220.9688 1120.9144,221.2969 Q1119.8363,221.75 1118.5394,221.75 Q1117.0238,221.75 1115.8206,221.125 Q1114.8363,220.625 1114.1488,219.5547 Q1113.4613,218.4844 1113.4613,217.2031 L1113.4613,216.0469 Q1113.4613,214.7188 1114.0784,213.5703 Q1114.6956,212.4219 1115.7894,211.8047 Q1116.8831,211.1875 1118.1175,211.1875 Q1118.8519,211.1875 1119.5003,211.3516 Q1120.1488,211.5156 1120.6956,211.875 Z "/><text fill="#000000" font-family="sans-serif" font-size="12" lengthAdjust="spacingAndGlyphs" textLength="55" x="1131.93" y="220.9102">TypeTexte</text><line style="stroke: #A80036; stroke-width: 1.5;" x1="1103.93" x2="1188.93" y1="232" y2="232"/><rect fill="none" height="6" style="stroke: #C82930; stroke-width: 1.0;" width="6" x="1110.93" y="241.418"/><text fill="#000000" font-family="sans-serif" font-size="11" lengthAdjust="spacingAndGlyphs" textLength="55" x="1122.93" y="247.4189">String texte</text><line style="stroke: #A80036; stroke-width: 1.5;" x1="1103.93" x2="1188.93" y1="253.8359" y2="253.8359"/><ellipse cx="1113.93" cy="266.2539" fill="#84BE84" rx="3" ry="3" style="stroke: #038048; stroke-width: 1.0;"/><text fill="#000000" font-family="sans-serif" font-size="11" lengthAdjust="spacingAndGlyphs" textLength="45" x="1122.93" y="269.2549">getElem()</text><!--class TypeHtml--><rect fill="#FEFECE" filter="url(#f1rcvo8k19c31o)" height="75.6719" id="TypeHtml" style="stroke: #A80036; stroke-width: 1.5;" width="84" x="1225.43" y="200"/><ellipse cx="1240.43" cy="216" fill="#ADD1B2" rx="11" ry="11" style="stroke: #A80036; stroke-width: 1.0;"/><path d="M1243.1956,211.875 Q1243.3519,211.6563 1243.5394,211.5469 Q1243.7269,211.4375 1243.9456,211.4375 Q1244.3206,211.4375 1244.555,211.6953 Q1244.7894,211.9531 1244.7894,212.5625 L1244.7894,214.0156 Q1244.7894,214.625 1244.555,214.8906 Q1244.3206,215.1563 1243.9456,215.1563 Q1243.6019,215.1563 1243.3988,214.9531 Q1243.1956,214.7656 1243.0863,214.25 Q1243.0394,213.8906 1242.8519,213.7031 Q1242.5238,213.3281 1241.9144,213.1094 Q1241.305,212.8906 1240.68,212.8906 Q1239.9144,212.8906 1239.2816,213.2188 Q1238.6488,213.5469 1238.1566,214.2969 Q1237.6644,215.0469 1237.6644,216.0781 L1237.6644,217.1719 Q1237.6644,218.4063 1238.555,219.2266 Q1239.4456,220.0469 1241.0394,220.0469 Q1241.9769,220.0469 1242.6331,219.7969 Q1243.0238,219.6406 1243.4456,219.2031 Q1243.7113,218.9375 1243.8597,218.8594 Q1244.0081,218.7813 1244.2113,218.7813 Q1244.5394,218.7813 1244.7972,219.0391 Q1245.055,219.2969 1245.055,219.6406 Q1245.055,219.9844 1244.7113,220.3906 Q1244.2113,220.9688 1243.4144,221.2969 Q1242.3363,221.75 1241.0394,221.75 Q1239.5238,221.75 1238.3206,221.125 Q1237.3363,220.625 1236.6488,219.5547 Q1235.9613,218.4844 1235.9613,217.2031 L1235.9613,216.0469 Q1235.9613,214.7188 1236.5784,213.5703 Q1237.1956,212.4219 1238.2894,211.8047 Q1239.3831,211.1875 1240.6175,211.1875 Q1241.3519,211.1875 1242.0003,211.3516 Q1242.6488,211.5156 1243.1956,211.875 Z "/><text fill="#000000" font-family="sans-serif" font-size="12" lengthAdjust="spacingAndGlyphs" textLength="52" x="1254.43" y="220.9102">TypeHtml</text><line style="stroke: #A80036; stroke-width: 1.5;" x1="1226.43" x2="1308.43" y1="232" y2="232"/><rect fill="none" height="6" style="stroke: #C82930; stroke-width: 1.0;" width="6" x="1233.43" y="241.418"/><text fill="#000000" font-family="sans-serif" font-size="11" lengthAdjust="spacingAndGlyphs" textLength="50" x="1245.43" y="247.4189">String html</text><line style="stroke: #A80036; stroke-width: 1.5;" x1="1226.43" x2="1308.43" y1="253.8359" y2="253.8359"/><ellipse cx="1236.43" cy="266.2539" fill="#84BE84" rx="3" ry="3" style="stroke: #038048; stroke-width: 1.0;"/><text fill="#000000" font-family="sans-serif" font-size="11" lengthAdjust="spacingAndGlyphs" textLength="45" x="1245.43" y="269.2549">getElem()</text><!--class TypeImg--><rect fill="#FEFECE" filter="url(#f1rcvo8k19c31o)" height="75.6719" id="TypeImg" style="stroke: #A80036; stroke-width: 1.5;" width="79" x="1344.93" y="200"/><ellipse cx="1359.93" cy="216" fill="#ADD1B2" rx="11" ry="11" style="stroke: #A80036; stroke-width: 1.0;"/><path d="M1362.6956,211.875 Q1362.8519,211.6563 1363.0394,211.5469 Q1363.2269,211.4375 1363.4456,211.4375 Q1363.8206,211.4375 1364.055,211.6953 Q1364.2894,211.9531 1364.2894,212.5625 L1364.2894,214.0156 Q1364.2894,214.625 1364.055,214.8906 Q1363.8206,215.1563 1363.4456,215.1563 Q1363.1019,215.1563 1362.8988,214.9531 Q1362.6956,214.7656 1362.5863,214.25 Q1362.5394,213.8906 1362.3519,213.7031 Q1362.0238,213.3281 1361.4144,213.1094 Q1360.805,212.8906 1360.18,212.8906 Q1359.4144,212.8906 1358.7816,213.2188 Q1358.1488,213.5469 1357.6566,214.2969 Q1357.1644,215.0469 1357.1644,216.0781 L1357.1644,217.1719 Q1357.1644,218.4063 1358.055,219.2266 Q1358.9456,220.0469 1360.5394,220.0469 Q1361.4769,220.0469 1362.1331,219.7969 Q1362.5238,219.6406 1362.9456,219.2031 Q1363.2113,218.9375 1363.3597,218.8594 Q1363.5081,218.7813 1363.7113,218.7813 Q1364.0394,218.7813 1364.2972,219.0391 Q1364.555,219.2969 1364.555,219.6406 Q1364.555,219.9844 1364.2113,220.3906 Q1363.7113,220.9688 1362.9144,221.2969 Q1361.8363,221.75 1360.5394,221.75 Q1359.0238,221.75 1357.8206,221.125 Q1356.8363,220.625 1356.1488,219.5547 Q1355.4613,218.4844 1355.4613,217.2031 L1355.4613,216.0469 Q1355.4613,214.7188 1356.0784,213.5703 Q1356.6956,212.4219 1357.7894,211.8047 Q1358.8831,211.1875 1360.1175,211.1875 Q1360.8519,211.1875 1361.5003,211.3516 Q1362.1488,211.5156 1362.6956,211.875 Z "/><text fill="#000000" font-family="sans-serif" font-size="12" lengthAdjust="spacingAndGlyphs" textLength="47" x="1373.93" y="220.9102">TypeImg</text><line style="stroke: #A80036; stroke-width: 1.5;" x1="1345.93" x2="1422.93" y1="232" y2="232"/><rect fill="none" height="6" style="stroke: #C82930; stroke-width: 1.0;" width="6" x="1352.93" y="241.418"/><text fill="#000000" font-family="sans-serif" font-size="11" lengthAdjust="spacingAndGlyphs" textLength="47" x="1364.93" y="247.4189">String img</text><line style="stroke: #A80036; stroke-width: 1.5;" x1="1345.93" x2="1422.93" y1="253.8359" y2="253.8359"/><ellipse cx="1355.93" cy="266.2539" fill="#84BE84" rx="3" ry="3" style="stroke: #038048; stroke-width: 1.0;"/><text fill="#000000" font-family="sans-serif" font-size="11" lengthAdjust="spacingAndGlyphs" textLength="45" x="1364.93" y="269.2549">getElem()</text><!--class TypeVid--><rect fill="#FEFECE" filter="url(#f1rcvo8k19c31o)" height="75.6719" id="TypeVid" style="stroke: #A80036; stroke-width: 1.5;" width="75" x="1458.93" y="200"/><ellipse cx="1473.93" cy="216" fill="#ADD1B2" rx="11" ry="11" style="stroke: #A80036; stroke-width: 1.0;"/><path d="M1476.6956,211.875 Q1476.8519,211.6563 1477.0394,211.5469 Q1477.2269,211.4375 1477.4456,211.4375 Q1477.8206,211.4375 1478.055,211.6953 Q1478.2894,211.9531 1478.2894,212.5625 L1478.2894,214.0156 Q1478.2894,214.625 1478.055,214.8906 Q1477.8206,215.1563 1477.4456,215.1563 Q1477.1019,215.1563 1476.8988,214.9531 Q1476.6956,214.7656 1476.5863,214.25 Q1476.5394,213.8906 1476.3519,213.7031 Q1476.0238,213.3281 1475.4144,213.1094 Q1474.805,212.8906 1474.18,212.8906 Q1473.4144,212.8906 1472.7816,213.2188 Q1472.1488,213.5469 1471.6566,214.2969 Q1471.1644,215.0469 1471.1644,216.0781 L1471.1644,217.1719 Q1471.1644,218.4063 1472.055,219.2266 Q1472.9456,220.0469 1474.5394,220.0469 Q1475.4769,220.0469 1476.1331,219.7969 Q1476.5238,219.6406 1476.9456,219.2031 Q1477.2113,218.9375 1477.3597,218.8594 Q1477.5081,218.7813 1477.7113,218.7813 Q1478.0394,218.7813 1478.2972,219.0391 Q1478.555,219.2969 1478.555,219.6406 Q1478.555,219.9844 1478.2113,220.3906 Q1477.7113,220.9688 1476.9144,221.2969 Q1475.8363,221.75 1474.5394,221.75 Q1473.0238,221.75 1471.8206,221.125 Q1470.8363,220.625 1470.1488,219.5547 Q1469.4613,218.4844 1469.4613,217.2031 L1469.4613,216.0469 Q1469.4613,214.7188 1470.0784,213.5703 Q1470.6956,212.4219 1471.7894,211.8047 Q1472.8831,211.1875 1474.1175,211.1875 Q1474.8519,211.1875 1475.5003,211.3516 Q1476.1488,211.5156 1476.6956,211.875 Z "/><text fill="#000000" font-family="sans-serif" font-size="12" lengthAdjust="spacingAndGlyphs" textLength="43" x="1487.93" y="220.9102">TypeVid</text><line style="stroke: #A80036; stroke-width: 1.5;" x1="1459.93" x2="1532.93" y1="232" y2="232"/><rect fill="none" height="6" style="stroke: #C82930; stroke-width: 1.0;" width="6" x="1466.93" y="241.418"/><text fill="#000000" font-family="sans-serif" font-size="11" lengthAdjust="spacingAndGlyphs" textLength="45" x="1478.93" y="247.4189">String vid</text><line style="stroke: #A80036; stroke-width: 1.5;" x1="1459.93" x2="1532.93" y1="253.8359" y2="253.8359"/><ellipse cx="1469.93" cy="266.2539" fill="#84BE84" rx="3" ry="3" style="stroke: #038048; stroke-width: 1.0;"/><text fill="#000000" font-family="sans-serif" font-size="11" lengthAdjust="spacingAndGlyphs" textLength="45" x="1478.93" y="269.2549">getElem()</text><!--class BienImmo--><rect fill="#FEFECE" filter="url(#f1rcvo8k19c31o)" height="144.8516" id="BienImmo" style="stroke: #A80036; stroke-width: 1.5;" width="182" x="443.432" y="405.5"/><ellipse cx="501.182" cy="421.5" fill="#A9DCDF" rx="11" ry="11" style="stroke: #A80036; stroke-width: 1.0;"/><path d="M503.3695,423.2656 L499.2289,423.2656 L498.807,424.2969 L499.2289,424.2969 Q499.8383,424.2969 500.1039,424.5313 Q500.3695,424.7656 500.3695,425.1563 Q500.3695,425.5313 500.1039,425.7656 Q499.8383,426 499.2289,426 L496.932,426 Q496.3226,426 496.0648,425.7656 Q495.807,425.5313 495.807,425.1406 Q495.807,424.7656 496.0804,424.5234 Q496.3539,424.2813 496.9789,424.2969 L499.6508,417.6406 L498.5414,417.6406 Q497.932,417.6406 497.6664,417.4063 Q497.4008,417.1719 497.4008,416.7813 Q497.4008,416.4063 497.6664,416.1719 Q497.932,415.9375 498.5414,415.9375 L502.2133,415.9375 L505.6039,424.2969 Q506.1976,424.2969 506.3851,424.4375 Q506.7758,424.7031 506.7758,425.1563 Q506.7758,425.5313 506.5179,425.7656 Q506.2601,426 505.6508,426 L503.3539,426 Q502.7445,426 502.4789,425.7656 Q502.2133,425.5313 502.2133,425.1406 Q502.2133,424.7656 502.4789,424.5313 Q502.7445,424.2969 503.3539,424.2969 L503.7758,424.2969 L503.3695,423.2656 Z M502.6508,421.5625 L501.2914,418.1875 L499.9164,421.5625 L502.6508,421.5625 Z "/><text fill="#000000" font-family="sans-serif" font-size="12" font-style="italic" lengthAdjust="spacingAndGlyphs" textLength="58" x="521.682" y="426.4102">BienImmo</text><line style="stroke: #A80036; stroke-width: 1.5;" x1="444.432" x2="624.432" y1="437.5" y2="437.5"/><rect fill="none" height="6" style="stroke: #C82930; stroke-width: 1.0;" width="6" x="451.432" y="446.918"/><text fill="#000000" font-family="sans-serif" font-size="11" lengthAdjust="spacingAndGlyphs" textLength="34" x="463.432" y="452.9189">Int num</text><rect fill="none" height="6" style="stroke: #C82930; stroke-width: 1.0;" width="6" x="451.432" y="460.7539"/><text fill="#000000" font-family="sans-serif" font-size="11" lengthAdjust="spacingAndGlyphs" textLength="71" x="463.432" y="466.7549">String adresse</text><rect fill="none" height="6" style="stroke: #C82930; stroke-width: 1.0;" width="6" x="451.432" y="474.5898"/><text fill="#000000" font-family="sans-serif" font-size="11" lengthAdjust="spacingAndGlyphs" textLength="81" x="463.432" y="480.5908">String orientation</text><rect fill="none" height="6" style="stroke: #C82930; stroke-width: 1.0;" width="6" x="451.432" y="488.4258"/><text fill="#000000" font-family="sans-serif" font-size="11" lengthAdjust="spacingAndGlyphs" textLength="54" x="463.432" y="494.4268">Double prix</text><rect fill="none" height="6" style="stroke: #C82930; stroke-width: 1.0;" width="6" x="451.432" y="502.2617"/><text fill="#000000" font-family="sans-serif" font-size="11" lengthAdjust="spacingAndGlyphs" textLength="52" x="463.432" y="508.2627">Date vente</text><rect fill="none" height="6" style="stroke: #C82930; stroke-width: 1.0;" width="6" x="451.432" y="516.0977"/><text fill="#000000" font-family="sans-serif" font-size="11" lengthAdjust="spacingAndGlyphs" textLength="57" x="463.432" y="522.0986">Date[] dispo</text><line style="stroke: #A80036; stroke-width: 1.5;" x1="444.432" x2="624.432" y1="528.5156" y2="528.5156"/><ellipse cx="454.432" cy="540.9336" fill="#84BE84" rx="3" ry="3" style="stroke: #038048; stroke-width: 1.0;"/><text fill="#000000" font-family="sans-serif" font-size="11" lengthAdjust="spacingAndGlyphs" textLength="156" x="463.432" y="543.9346">correspondance(Envie) : Double</text><!--class Terrain--><rect fill="#FEFECE" filter="url(#f1rcvo8k19c31o)" height="89.5078" id="Terrain" style="stroke: #A80036; stroke-width: 1.5;" width="182" x="80.4323" y="676.5"/><ellipse cx="147.6823" cy="692.5" fill="#ADD1B2" rx="11" ry="11" style="stroke: #A80036; stroke-width: 1.0;"/><path d="M150.4479,688.375 Q150.6042,688.1563 150.7917,688.0469 Q150.9792,687.9375 151.1979,687.9375 Q151.5729,687.9375 151.8073,688.1953 Q152.0417,688.4531 152.0417,689.0625 L152.0417,690.5156 Q152.0417,691.125 151.8073,691.3906 Q151.5729,691.6563 151.1979,691.6563 Q150.8542,691.6563 150.6511,691.4531 Q150.4479,691.2656 150.3386,690.75 Q150.2917,690.3906 150.1042,690.2031 Q149.7761,689.8281 149.1667,689.6094 Q148.5573,689.3906 147.9323,689.3906 Q147.1667,689.3906 146.5339,689.7188 Q145.9011,690.0469 145.4089,690.7969 Q144.9167,691.5469 144.9167,692.5781 L144.9167,693.6719 Q144.9167,694.9063 145.8073,695.7266 Q146.6979,696.5469 148.2917,696.5469 Q149.2292,696.5469 149.8854,696.2969 Q150.2761,696.1406 150.6979,695.7031 Q150.9636,695.4375 151.112,695.3594 Q151.2604,695.2813 151.4636,695.2813 Q151.7917,695.2813 152.0495,695.5391 Q152.3073,695.7969 152.3073,696.1406 Q152.3073,696.4844 151.9636,696.8906 Q151.4636,697.4688 150.6667,697.7969 Q149.5886,698.25 148.2917,698.25 Q146.7761,698.25 145.5729,697.625 Q144.5886,697.125 143.9011,696.0547 Q143.2136,694.9844 143.2136,693.7031 L143.2136,692.5469 Q143.2136,691.2188 143.8307,690.0703 Q144.4479,688.9219 145.5417,688.3047 Q146.6354,687.6875 147.8698,687.6875 Q148.6042,687.6875 149.2526,687.8516 Q149.9011,688.0156 150.4479,688.375 Z "/><text fill="#000000" font-family="sans-serif" font-size="12" lengthAdjust="spacingAndGlyphs" textLength="39" x="168.1823" y="697.4102">Terrain</text><line style="stroke: #A80036; stroke-width: 1.5;" x1="81.4323" x2="261.4323" y1="708.5" y2="708.5"/><rect fill="none" height="6" style="stroke: #C82930; stroke-width: 1.0;" width="6" x="88.4323" y="717.918"/><text fill="#000000" font-family="sans-serif" font-size="11" lengthAdjust="spacingAndGlyphs" textLength="89" x="100.4323" y="723.9189">Double surfaceSol</text><rect fill="none" height="6" style="stroke: #C82930; stroke-width: 1.0;" width="6" x="88.4323" y="731.7539"/><text fill="#000000" font-family="sans-serif" font-size="11" lengthAdjust="spacingAndGlyphs" textLength="114" x="100.4323" y="737.7549">Double longueurFacade</text><line style="stroke: #A80036; stroke-width: 1.5;" x1="81.4323" x2="261.4323" y1="744.1719" y2="744.1719"/><ellipse cx="91.4323" cy="756.5898" fill="#84BE84" rx="3" ry="3" style="stroke: #038048; stroke-width: 1.0;"/><text fill="#000000" font-family="sans-serif" font-size="11" lengthAdjust="spacingAndGlyphs" textLength="156" x="100.4323" y="759.5908">correspondance(Envie) : Double</text><!--class Maison--><rect fill="#FEFECE" filter="url(#f1rcvo8k19c31o)" height="117.1797" id="Maison" style="stroke: #A80036; stroke-width: 1.5;" width="182" x="335.432" y="663"/><ellipse cx="402.182" cy="679" fill="#ADD1B2" rx="11" ry="11" style="stroke: #A80036; stroke-width: 1.0;"/><path d="M404.9476,674.875 Q405.1039,674.6563 405.2914,674.5469 Q405.4789,674.4375 405.6976,674.4375 Q406.0726,674.4375 406.307,674.6953 Q406.5414,674.9531 406.5414,675.5625 L406.5414,677.0156 Q406.5414,677.625 406.307,677.8906 Q406.0726,678.1563 405.6976,678.1563 Q405.3539,678.1563 405.1508,677.9531 Q404.9476,677.7656 404.8383,677.25 Q404.7914,676.8906 404.6039,676.7031 Q404.2758,676.3281 403.6664,676.1094 Q403.057,675.8906 402.432,675.8906 Q401.6664,675.8906 401.0336,676.2188 Q400.4008,676.5469 399.9086,677.2969 Q399.4164,678.0469 399.4164,679.0781 L399.4164,680.1719 Q399.4164,681.4063 400.307,682.2266 Q401.1976,683.0469 402.7914,683.0469 Q403.7289,683.0469 404.3851,682.7969 Q404.7758,682.6406 405.1976,682.2031 Q405.4633,681.9375 405.6117,681.8594 Q405.7601,681.7813 405.9633,681.7813 Q406.2914,681.7813 406.5492,682.0391 Q406.807,682.2969 406.807,682.6406 Q406.807,682.9844 406.4633,683.3906 Q405.9633,683.9688 405.1664,684.2969 Q404.0883,684.75 402.7914,684.75 Q401.2758,684.75 400.0726,684.125 Q399.0883,683.625 398.4008,682.5547 Q397.7133,681.4844 397.7133,680.2031 L397.7133,679.0469 Q397.7133,677.7188 398.3304,676.5703 Q398.9476,675.4219 400.0414,674.8047 Q401.1351,674.1875 402.3695,674.1875 Q403.1039,674.1875 403.7523,674.3516 Q404.4008,674.5156 404.9476,674.875 Z "/><text fill="#000000" font-family="sans-serif" font-size="12" lengthAdjust="spacingAndGlyphs" textLength="40" x="422.682" y="683.9102">Maison</text><line style="stroke: #A80036; stroke-width: 1.5;" x1="336.432" x2="516.432" y1="695" y2="695"/><rect fill="none" height="6" style="stroke: #C82930; stroke-width: 1.0;" width="6" x="343.432" y="704.418"/><text fill="#000000" font-family="sans-serif" font-size="11" lengthAdjust="spacingAndGlyphs" textLength="118" x="355.432" y="710.4189">Double surfaceHabitable</text><rect fill="none" height="6" style="stroke: #C82930; stroke-width: 1.0;" width="6" x="343.432" y="718.2539"/><text fill="#000000" font-family="sans-serif" font-size="11" lengthAdjust="spacingAndGlyphs" textLength="58" x="355.432" y="724.2549">Int nbPieces</text><rect fill="none" height="6" style="stroke: #C82930; stroke-width: 1.0;" width="6" x="343.432" y="732.0898"/><text fill="#000000" font-family="sans-serif" font-size="11" lengthAdjust="spacingAndGlyphs" textLength="59" x="355.432" y="738.0908">Int nbEtages</text><rect fill="none" height="6" style="stroke: #C82930; stroke-width: 1.0;" width="6" x="343.432" y="745.9258"/><text fill="#000000" font-family="sans-serif" font-size="11" lengthAdjust="spacingAndGlyphs" textLength="81" x="355.432" y="751.9268">String chauffage</text><line style="stroke: #A80036; stroke-width: 1.5;" x1="336.432" x2="516.432" y1="758.3438" y2="758.3438"/><ellipse cx="346.432" cy="770.7617" fill="#84BE84" rx="3" ry="3" style="stroke: #038048; stroke-width: 1.0;"/><text fill="#000000" font-family="sans-serif" font-size="11" lengthAdjust="spacingAndGlyphs" textLength="156" x="355.432" y="773.7627">correspondance(Envie) : Double</text><!--class Appartement--><rect fill="#FEFECE" filter="url(#f1rcvo8k19c31o)" height="103.3438" id="Appartement" style="stroke: #A80036; stroke-width: 1.5;" width="182" x="552.432" y="670"/><ellipse cx="604.182" cy="686" fill="#ADD1B2" rx="11" ry="11" style="stroke: #A80036; stroke-width: 1.0;"/><path d="M606.9476,681.875 Q607.1039,681.6563 607.2914,681.5469 Q607.4789,681.4375 607.6976,681.4375 Q608.0726,681.4375 608.307,681.6953 Q608.5414,681.9531 608.5414,682.5625 L608.5414,684.0156 Q608.5414,684.625 608.307,684.8906 Q608.0726,685.1563 607.6976,685.1563 Q607.3539,685.1563 607.1508,684.9531 Q606.9476,684.7656 606.8383,684.25 Q606.7914,683.8906 606.6039,683.7031 Q606.2758,683.3281 605.6664,683.1094 Q605.057,682.8906 604.432,682.8906 Q603.6664,682.8906 603.0336,683.2188 Q602.4008,683.5469 601.9086,684.2969 Q601.4164,685.0469 601.4164,686.0781 L601.4164,687.1719 Q601.4164,688.4063 602.307,689.2266 Q603.1976,690.0469 604.7914,690.0469 Q605.7289,690.0469 606.3851,689.7969 Q606.7758,689.6406 607.1976,689.2031 Q607.4633,688.9375 607.6117,688.8594 Q607.7601,688.7813 607.9633,688.7813 Q608.2914,688.7813 608.5492,689.0391 Q608.807,689.2969 608.807,689.6406 Q608.807,689.9844 608.4633,690.3906 Q607.9633,690.9688 607.1664,691.2969 Q606.0883,691.75 604.7914,691.75 Q603.2758,691.75 602.0726,691.125 Q601.0883,690.625 600.4008,689.5547 Q599.7133,688.4844 599.7133,687.2031 L599.7133,686.0469 Q599.7133,684.7188 600.3304,683.5703 Q600.9476,682.4219 602.0414,681.8047 Q603.1351,681.1875 604.3695,681.1875 Q605.1039,681.1875 605.7523,681.3516 Q606.4008,681.5156 606.9476,681.875 Z "/><text fill="#000000" font-family="sans-serif" font-size="12" lengthAdjust="spacingAndGlyphs" textLength="70" x="624.682" y="690.9102">Appartement</text><line style="stroke: #A80036; stroke-width: 1.5;" x1="553.432" x2="733.432" y1="702" y2="702"/><rect fill="none" height="6" style="stroke: #C82930; stroke-width: 1.0;" width="6" x="560.432" y="711.418"/><text fill="#000000" font-family="sans-serif" font-size="11" lengthAdjust="spacingAndGlyphs" textLength="58" x="572.432" y="717.4189">Int nbPieces</text><rect fill="none" height="6" style="stroke: #C82930; stroke-width: 1.0;" width="6" x="560.432" y="725.2539"/><text fill="#000000" font-family="sans-serif" font-size="11" lengthAdjust="spacingAndGlyphs" textLength="41" x="572.432" y="731.2549">Int etage</text><rect fill="none" height="6" style="stroke: #C82930; stroke-width: 1.0;" width="6" x="560.432" y="739.0898"/><text fill="#000000" font-family="sans-serif" font-size="11" lengthAdjust="spacingAndGlyphs" textLength="130" x="572.432" y="745.0908">Double chargesMensuelles</text><line style="stroke: #A80036; stroke-width: 1.5;" x1="553.432" x2="733.432" y1="751.5078" y2="751.5078"/><ellipse cx="563.432" cy="763.9258" fill="#84BE84" rx="3" ry="3" style="stroke: #038048; stroke-width: 1.0;"/><text fill="#000000" font-family="sans-serif" font-size="11" lengthAdjust="spacingAndGlyphs" textLength="156" x="572.432" y="766.9268">correspondance(Envie) : Double</text><!--link Personne to Entreprise--><path d="M1411.69,1010.294 C1414.05,1042.042 1416.73,1078.174 1418.68,1104.472 " fill="none" id="Personne-Entreprise" style="stroke: #A80036; stroke-width: 1.0;"/><polygon fill="none" points="1404.7,1010.676,1410.2,990.212,1418.66,1009.639,1404.7,1010.676" style="stroke: #A80036; stroke-width: 1.0;"/><!--link Personne to Envie--><path d="M1458.08,1000.16 C1480.71,1026.737 1507.14,1057.772 1529.45,1083.98 " fill="none" id="Personne-Envie" style="stroke: #A80036; stroke-width: 1.0;"/><polygon fill="#A80036" points="1449.61,990.212,1450.4532,997.3736,1457.3883,999.3497,1456.5451,992.1881,1449.61,990.212" style="stroke: #A80036; stroke-width: 1.0;"/><text fill="#000000" font-family="sans-serif" font-size="13" lengthAdjust="spacingAndGlyphs" textLength="55" x="1503.43" y="1050.4951">listeEnvie</text><text fill="#000000" font-family="sans-serif" font-size="13" lengthAdjust="spacingAndGlyphs" textLength="5" x="1517.8541" y="1072.9633">*</text><!--link Personne to Agence--><path d="M1402.05,886.875 C1394.42,825.982 1373.75,723.54 1318.43,656 C1269.99,596.855 1196.35,554.349 1131.6,525.84 " fill="none" id="Personne-Agence" style="stroke: #A80036; stroke-width: 1.0;"/><polygon fill="#A80036" points="1119.63,520.679,1123.5518,526.7304,1130.6461,525.4377,1126.7243,519.3863,1119.63,520.679" style="stroke: #A80036; stroke-width: 1.0;"/><text fill="#000000" font-family="sans-serif" font-size="13" lengthAdjust="spacingAndGlyphs" textLength="79" x="1387.43" y="726.9951">listePersonne</text><text fill="#000000" font-family="sans-serif" font-size="13" lengthAdjust="spacingAndGlyphs" textLength="5" x="1396.0825" y="875.9859">*</text><!--link Agence to Mandat--><path d="M1083.8,588.443 C1102.39,611.46 1121.42,635.028 1138.16,655.766 " fill="none" id="Agence-Mandat" style="stroke: #A80036; stroke-width: 1.0;"/><polygon fill="#A80036" points="1075.59,578.273,1076.2474,585.4541,1083.1289,587.6092,1082.4715,580.4282,1075.59,578.273" style="stroke: #A80036; stroke-width: 1.0;"/><text fill="#000000" font-family="sans-serif" font-size="13" lengthAdjust="spacingAndGlyphs" textLength="67" x="1111.43" y="622.4951">listeMandat</text><text fill="#000000" font-family="sans-serif" font-size="13" lengthAdjust="spacingAndGlyphs" textLength="5" x="1127.1695" y="645.2148">*</text><!--link Agence to Promesse--><path d="M881.541,588.438 C865.95,609.289 852.279,632.118 843.432,656 C820.582,717.681 830.25,739.557 843.432,804 C848.18,827.209 857.126,851.373 866.547,872.662 " fill="none" id="Agence-Promesse" style="stroke: #A80036; stroke-width: 1.0;"/><polygon fill="#A80036" points="889.594,578.043,882.7574,580.3366,882.2451,587.5295,889.0817,585.2359,889.594,578.043" style="stroke: #A80036; stroke-width: 1.0;"/><text fill="#000000" font-family="sans-serif" font-size="13" lengthAdjust="spacingAndGlyphs" textLength="83" x="844.432" y="726.9951">listePromesse</text><text fill="#000000" font-family="sans-serif" font-size="13" lengthAdjust="spacingAndGlyphs" textLength="5" x="857.5674" y="862.0995">*</text><!--link Mandat to Personne--><path d="M1259.99,787.157 C1278.83,805.037 1299.09,824.59 1317.43,843 C1330.23,855.842 1343.77,869.944 1356.32,883.246 " fill="none" id="Mandat-Personne" style="stroke: #A80036; stroke-width: 1.0;"/><polygon fill="#A80036" points="1359.84,886.975,1356.5826,877.6804,1356.4124,883.3347,1350.7581,883.1645,1359.84,886.975" style="stroke: #A80036; stroke-width: 1.0;"/><text fill="#000000" font-family="sans-serif" font-size="13" lengthAdjust="spacingAndGlyphs" textLength="44" x="1308.43" y="831.4951">vendeur</text><text fill="#000000" font-family="sans-serif" font-size="13" lengthAdjust="spacingAndGlyphs" textLength="7" x="1345.7961" y="876.1">1</text><!--link Promesse to Personne--><path d="M978.663,938.5 C1082.43,938.5 1262.89,938.5 1352.6,938.5 " fill="none" id="Promesse-Personne" style="stroke: #A80036; stroke-width: 1.0;"/><polygon fill="#A80036" points="1357.85,938.5,1348.85,934.5,1352.85,938.5,1348.85,942.5,1357.85,938.5" style="stroke: #A80036; stroke-width: 1.0;"/><text fill="#000000" font-family="sans-serif" font-size="13" lengthAdjust="spacingAndGlyphs" textLength="50" x="1143.18" y="931.9951">acheteur</text><text fill="#000000" font-family="sans-serif" font-size="13" lengthAdjust="spacingAndGlyphs" textLength="7" x="1342.8752" y="934.7707">1</text><!--link Agence to Notaire--><path d="M995.432,591.6 C995.432,627.962 995.432,665.314 995.432,690.386 " fill="none" id="Agence-Notaire" style="stroke: #A80036; stroke-width: 1.0;"/><polygon fill="#A80036" points="995.432,578.273,991.432,584.273,995.432,590.273,999.432,584.273,995.432,578.273" style="stroke: #A80036; stroke-width: 1.0;"/><text fill="#000000" font-family="sans-serif" font-size="13" lengthAdjust="spacingAndGlyphs" textLength="65" x="996.432" y="622.4951">listeNotaire</text><text fill="#000000" font-family="sans-serif" font-size="13" lengthAdjust="spacingAndGlyphs" textLength="5" x="989.9164" y="679.867">*</text><!--link Notaire to Promesse--><path d="M979.874,757.711 C966.121,788.836 945.71,835.028 929.022,872.797 " fill="none" id="Notaire-Promesse" style="stroke: #A80036; stroke-width: 1.0;"/><polygon fill="#A80036" points="982.023,752.848,974.7257,759.4624,980.0015,757.4211,982.0427,762.6968,982.023,752.848" style="stroke: #A80036; stroke-width: 1.0;"/><text fill="#000000" font-family="sans-serif" font-size="13" lengthAdjust="spacingAndGlyphs" textLength="39" x="955.432" y="831.4951">notaire</text><text fill="#000000" font-family="sans-serif" font-size="13" lengthAdjust="spacingAndGlyphs" textLength="7" x="971.7997" y="773.893">1</text><!--link AnnoncePub to Agence--><path d="M995.432,269.143 C995.432,293.488 995.432,329.362 995.432,364.48 " fill="none" id="AnnoncePub-Agence" style="stroke: #A80036; stroke-width: 1.0;"/><polygon fill="#A80036" points="995.432,377.877,999.432,371.877,995.432,365.877,991.432,371.877,995.432,377.877" style="stroke: #A80036; stroke-width: 1.0;"/><text fill="#000000" font-family="sans-serif" font-size="13" lengthAdjust="spacingAndGlyphs" textLength="75" x="996.432" y="322.4951">listeAnnonce</text><text fill="#000000" font-family="sans-serif" font-size="13" lengthAdjust="spacingAndGlyphs" textLength="5" x="989.9398" y="290.3952">*</text><!--link TypePub to AnnoncePub--><path d="M1226.28,111.75 C1202.74,123.2 1172.76,138.08 1146.43,152 C1117.48,167.32 1085.83,184.98 1059.03,200.22 " fill="none" id="TypePub-AnnoncePub" style="stroke: #A80036; stroke-width: 1.0;"/><polygon fill="#A80036" points="1047.47,206.82,1054.6635,207.323,1057.8946,200.8763,1050.7011,200.3733,1047.47,206.82" style="stroke: #A80036; stroke-width: 1.0;"/><text fill="#000000" font-family="sans-serif" font-size="13" lengthAdjust="spacingAndGlyphs" textLength="47" x="1147.43" y="166.4951">listePub</text><text fill="#000000" font-family="sans-serif" font-size="13" lengthAdjust="spacingAndGlyphs" textLength="5" x="1213.5048" y="111.5621">*</text><!--link TypePub to TypeTexte--><path d="M1229.37,137.61 C1212.67,157.62 1193.31,180.83 1177.49,199.78 " fill="none" id="TypePub-TypeTexte" style="stroke: #A80036; stroke-width: 1.0;"/><polygon fill="none" points="1224.17,132.91,1242.36,122.04,1234.92,141.88,1224.17,132.91" style="stroke: #A80036; stroke-width: 1.0;"/><!--link TypePub to TypeHtml--><path d="M1267.43,142.14 C1267.43,161.06 1267.43,182.24 1267.43,199.78 " fill="none" id="TypePub-TypeHtml" style="stroke: #A80036; stroke-width: 1.0;"/><polygon fill="none" points="1260.43,142.04,1267.43,122.04,1274.43,142.04,1260.43,142.04" style="stroke: #A80036; stroke-width: 1.0;"/><!--link TypePub to TypeImg--><path d="M1304.47,137.91 C1320.57,157.85 1339.18,180.92 1354.4,199.78 " fill="none" id="TypePub-TypeImg" style="stroke: #A80036; stroke-width: 1.0;"/><polygon fill="none" points="1298.79,142,1291.67,122.04,1309.68,133.21,1298.79,142" style="stroke: #A80036; stroke-width: 1.0;"/><!--link TypePub to TypeVid--><path d="M1325.77,127.47 C1359.72,148.3 1403.21,175.3 1441.43,200 C1447.04,203.62 1452.93,207.5 1458.68,211.34 " fill="none" id="TypePub-TypeVid" style="stroke: #A80036; stroke-width: 1.0;"/><polygon fill="none" points="1321.89,133.3,1308.48,116.89,1329.19,121.36,1321.89,133.3" style="stroke: #A80036; stroke-width: 1.0;"/><!--link BienImmo to Agence--><path d="M625.511,478 C691.851,478 782.873,478 858.025,478 " fill="none" id="BienImmo-Agence" style="stroke: #A80036; stroke-width: 1.0;"/><polygon fill="#A80036" points="871.381,478,865.381,474,859.381,478,865.381,482,871.381,478" style="stroke: #A80036; stroke-width: 1.0;"/><text fill="#000000" font-family="sans-serif" font-size="13" lengthAdjust="spacingAndGlyphs" textLength="50" x="723.432" y="471.4951">listeBien</text><text fill="#000000" font-family="sans-serif" font-size="13" lengthAdjust="spacingAndGlyphs" textLength="5" x="633.5529" y="474.8291">*</text><!--link BienImmo to Mandat--><path d="M630.424,521.865 C673.906,540.43 726.262,561.615 774.432,578 C837.206,599.352 1000.509,632.293 1062.43,656 C1068.13,658.18 1073.9,660.533 1079.69,663.007 " fill="none" id="BienImmo-Mandat" style="stroke: #A80036; stroke-width: 1.0;"/><polygon fill="#A80036" points="625.706,519.846,632.4067,527.0641,630.3028,521.813,635.5539,519.7092,625.706,519.846" style="stroke: #A80036; stroke-width: 1.0;"/><text fill="#000000" font-family="sans-serif" font-size="13" lengthAdjust="spacingAndGlyphs" textLength="24" x="953.432" y="622.4951">bien</text><text fill="#000000" font-family="sans-serif" font-size="13" lengthAdjust="spacingAndGlyphs" textLength="7" x="633.5545" y="520.1647">1</text><!--link BienImmo to Promesse--><path d="M438.048,482.028 C320.837,491.508 127.414,527.106 36.4323,656 C-1.5,709.739 -6.3814,754.063 36.4323,804 C137.508,921.893 629.016,936.612 822.221,937.772 " fill="none" id="BienImmo-Promesse" style="stroke: #A80036; stroke-width: 1.0;"/><polygon fill="#A80036" points="443.224,481.622,433.9385,478.3389,438.2393,482.0135,434.5648,486.3143,443.224,481.622" style="stroke: #A80036; stroke-width: 1.0;"/><text fill="#000000" font-family="sans-serif" font-size="13" lengthAdjust="spacingAndGlyphs" textLength="24" x="37.4323" y="726.9951">bien</text><text fill="#000000" font-family="sans-serif" font-size="13" lengthAdjust="spacingAndGlyphs" textLength="7" x="428.381" y="478.7753">1</text><!--link BienImmo to Appartement--><path d="M575.157,569.23 C590.475,603.168 607.346,640.548 620.485,669.659 " fill="none" id="BienImmo-Appartement" style="stroke: #A80036; stroke-width: 1.0;"/><polygon fill="none" points="568.688,571.913,566.841,550.804,581.449,566.154,568.688,571.913" style="stroke: #A80036; stroke-width: 1.0;"/><!--link BienImmo to Maison--><path d="M494.042,569.317 C480.053,600.599 464.76,634.795 452.263,662.74 " fill="none" id="BienImmo-Maison" style="stroke: #A80036; stroke-width: 1.0;"/><polygon fill="none" points="487.766,566.204,502.321,550.804,500.546,571.919,487.766,566.204" style="stroke: #A80036; stroke-width: 1.0;"/><!--link BienImmo to Terrain--><path d="M426.398,550.874 C365.101,591.654 290.355,641.382 237.688,676.421 " fill="none" id="BienImmo-Terrain" style="stroke: #A80036; stroke-width: 1.0;"/><polygon fill="none" points="422.772,544.879,443.301,539.629,430.526,556.535,422.772,544.879" style="stroke: #A80036; stroke-width: 1.0;"/><!--link Terrain to Maison--><path d="M262.773,721.5 C282.024,721.5 302.474,721.5 322.159,721.5 " fill="none" id="Terrain-Maison" style="stroke: #A80036; stroke-width: 1.0;"/><polygon fill="#A80036" points="335.301,721.5,329.301,717.5,323.301,721.5,329.301,725.5,335.301,721.5" style="stroke: #A80036; stroke-width: 1.0;"/><text fill="#000000" font-family="sans-serif" font-size="13" lengthAdjust="spacingAndGlyphs" textLength="36" x="280.932" y="714.9951">terrain</text><text fill="#000000" font-family="sans-serif" font-size="13" lengthAdjust="spacingAndGlyphs" textLength="7" x="270.3306" y="718.3912">1</text><!--
@startuml

package user {

  class Personne {
    -String nom
    -String adresse
    -Int telephone
    -String email
  }

  class Entreprise {
    -String formeJuridique
    -Int numSiren
  }

  Entreprise -up-|> Personne

  class Envie {
    -String type
    -Double prix
    -String localisation
    -Double surfaceSol
    -Int nbPieces
  }

  Personne *- -"*" Envie : "listeEnvie"

}

package agence {

  class Agence {
    -String nom
    -HashSet<Date, Personne> listeRdvVendeur
    +creerPersonne(String, String, Int, String) : void
    +priseRdvVendeur(Personne, Date) : void
    +creerMandat(Personne, Mandat) : void
    +creerEnvie(Personne, Envie) : void
    +organiserVisite(Envie, Mandat, Date) : void
    +organiserVente(Envie, Mandat, Date) : void
    -creerPromesse(Promesse) : void
    +voirStats() : void
    +creerDocument() : void
  }

  Personne "*"-left-* Agence : "listePersonne"

  class Mandat {
    -HashSet<Date, Personne> listeRdvVisite
    -Int prix
    -Date vente
    -Date debut
    -Date fin
    -creerBien() : void
  }

  class Promesse {
    -Double prixVerseVendeur
    -String adresseNotaire
    -Date vente
    -Double commissionAgence
    -Double fraisVente
    +signerPromesse() : void
  }

  Agence *- -"*" Mandat : "listeMandat"
  Agence *- -"*" Promesse : "listePromesse"

  Mandat - ->"1" Personne : "vendeur"
  Promesse - ->"1" Personne : "acheteur"

  class Notaire {
    +verserArgent()
  }

  Agence *- -"*" Notaire : "listeNotaire"

  Notaire "1"<- - Promesse : "notaire"

}

package pub {

  class AnnoncePub {
    +addElem(TypePub) : void
  }

  AnnoncePub "*"- -* Agence : "listeAnnonce"
  TypePub "*"- -* AnnoncePub : "listePub"

  abstract class TypePub {
    +getElem()
  }

  class TypeTexte {
    -String texte
    +getElem()
  }

  class TypeHtml {
    -String html
    +getElem()
  }

  class TypeImg {
    -String img
    +getElem()
  }

  class TypeVid {
    -String vid
    +getElem()
  }

  TypeTexte -up-|> TypePub
  TypeHtml -up-|> TypePub
  TypeImg -up-|> TypePub
  TypeVid -up-|> TypePub

}

package immo {

  abstract class BienImmo {
    -Int num
    -String adresse
    -String orientation
    -Double prix
    -Date vente
    -Date[] dispo
    +correspondance(Envie) : Double
  }

  BienImmo "*"-left-* Agence : "listeBien"
  Mandat -up->"1" BienImmo : "bien"
  Promesse -up->"1" BienImmo : "bien"

  class Terrain {
    -Double surfaceSol
    -Double longueurFacade
    +correspondance(Envie) : Double
  }

  class Maison {
    -Double surfaceHabitable
    -Int nbPieces
    -Int nbEtages
    -String chauffage
    +correspondance(Envie) : Double
  }

  class Appartement {
    -Int nbPieces
    -Int etage
    -Double chargesMensuelles
    +correspondance(Envie) : Double
  }

  Appartement -up-|> BienImmo
  Maison -up-|> BienImmo
  Terrain -up-|> BienImmo

  Maison *-left-"1" Terrain : "terrain"

}

@enduml

PlantUML version 1.2017.18(Fri Oct 06 18:56:32 CEST 2017)
(GPL source distribution)
Java Runtime: Java(TM) SE Runtime Environment
JVM: Java HotSpot(TM) 64-Bit Server VM
Java Version: 9.0.1+11
Operating System: Windows 10
OS Version: 10.0
Default Encoding: Cp1252
Language: fr
Country: FR
--></g></svg>