<?xml version="1.0" encoding="UTF-8" standalone="no"?><svg xmlns="http://www.w3.org/2000/svg" xmlns:xlink="http://www.w3.org/1999/xlink" contentScriptType="application/ecmascript" contentStyleType="text/css" height="730px" preserveAspectRatio="none" style="width:731px;height:730px;" version="1.1" viewBox="0 0 731 730"
    width="731px" zoomAndPan="magnify"><defs><filter height="300%" id="fok7ej8xnandp" width="300%" x="-1" y="-1"><feGaussianBlur result="blurOut" stdDeviation="2.0"/><feColorMatrix in="blurOut" result="blurOut2" type="matrix" values="0 0 0 0 0 0 0 0 0 0 0 0 0 0 0 0 0 0 .4 0"/><feOffset dx="4.0" dy="4.0" in="blurOut2" result="blurOut3"/><feBlend in="SourceGraphic" in2="blurOut3" mode="normal"/></filter></defs><g><text fill="#000000" font-family="sans-serif" font-size="14" font-weight="bold" lengthAdjust="spacingAndGlyphs" textLength="114" x="309" y="24.5332">Footer removed</text><line style="stroke: #A80036; stroke-width: 1.0;" x1="43" x2="43" y1="71.2188" y2="215.625"/><line style="stroke: #A80036; stroke-width: 1.0; stroke-dasharray: 1.0,4.0;" x1="43" x2="43" y1="215.625" y2="243.625"/><line style="stroke: #A80036; stroke-width: 1.0;" x1="43" x2="43" y1="243.625" y2="273.9766"/><line style="stroke: #A80036; stroke-width: 1.0; stroke-dasharray: 1.0,4.0;" x1="43" x2="43" y1="273.9766" y2="301.9766"/><line style="stroke: #A80036; stroke-width: 1.0;" x1="43" x2="43" y1="301.9766" y2="345.3281"/><line style="stroke: #A80036; stroke-width: 1.0; stroke-dasharray: 1.0,4.0;" x1="43" x2="43" y1="345.3281" y2="373.3281"/><line style="stroke: #A80036; stroke-width: 1.0;" x1="43" x2="43" y1="373.3281" y2="416.6797"/><line style="stroke: #A80036; stroke-width: 1.0; stroke-dasharray: 1.0,4.0;" x1="43" x2="43" y1="416.6797" y2="444.6797"/><line style="stroke: #A80036; stroke-width: 1.0;" x1="43" x2="43" y1="444.6797" y2="548.7344"/><line style="stroke: #A80036; stroke-width: 1.0; stroke-dasharray: 1.0,4.0;" x1="43" x2="43" y1="548.7344" y2="576.7344"/><line style="stroke: #A80036; stroke-width: 1.0;" x1="43" x2="43" y1="576.7344" y2="620.0859"/><line style="stroke: #A80036; stroke-width: 1.0; stroke-dasharray: 1.0,4.0;" x1="43" x2="43" y1="620.0859" y2="648.0859"/><line style="stroke: #A80036; stroke-width: 1.0;" x1="43" x2="43" y1="648.0859" y2="718.7891"/><line style="stroke: #A80036; stroke-width: 1.0;" x1="161.5" x2="161.5" y1="71.2188" y2="215.625"/><line style="stroke: #A80036; stroke-width: 1.0; stroke-dasharray: 1.0,4.0;" x1="161.5" x2="161.5" y1="215.625" y2="243.625"/><line style="stroke: #A80036; stroke-width: 1.0;" x1="161.5" x2="161.5" y1="243.625" y2="273.9766"/><line style="stroke: #A80036; stroke-width: 1.0; stroke-dasharray: 1.0,4.0;" x1="161.5" x2="161.5" y1="273.9766" y2="301.9766"/><line style="stroke: #A80036; stroke-width: 1.0;" x1="161.5" x2="161.5" y1="301.9766" y2="345.3281"/><line style="stroke: #A80036; stroke-width: 1.0; stroke-dasharray: 1.0,4.0;" x1="161.5" x2="161.5" y1="345.3281" y2="373.3281"/><line style="stroke: #A80036; stroke-width: 1.0;" x1="161.5" x2="161.5" y1="373.3281" y2="416.6797"/><line style="stroke: #A80036; stroke-width: 1.0; stroke-dasharray: 1.0,4.0;" x1="161.5" x2="161.5" y1="416.6797" y2="444.6797"/><line style="stroke: #A80036; stroke-width: 1.0;" x1="161.5" x2="161.5" y1="444.6797" y2="548.7344"/><line style="stroke: #A80036; stroke-width: 1.0; stroke-dasharray: 1.0,4.0;" x1="161.5" x2="161.5" y1="548.7344" y2="576.7344"/><line style="stroke: #A80036; stroke-width: 1.0;" x1="161.5" x2="161.5" y1="576.7344" y2="620.0859"/><line style="stroke: #A80036; stroke-width: 1.0; stroke-dasharray: 1.0,4.0;" x1="161.5" x2="161.5" y1="620.0859" y2="648.0859"/><line style="stroke: #A80036; stroke-width: 1.0;" x1="161.5" x2="161.5" y1="648.0859" y2="718.7891"/><line style="stroke: #A80036; stroke-width: 1.0;" x1="247.5" x2="247.5" y1="71.2188" y2="215.625"/><line style="stroke: #A80036; stroke-width: 1.0; stroke-dasharray: 1.0,4.0;" x1="247.5" x2="247.5" y1="215.625" y2="243.625"/><line style="stroke: #A80036; stroke-width: 1.0;" x1="247.5" x2="247.5" y1="243.625" y2="273.9766"/><line style="stroke: #A80036; stroke-width: 1.0; stroke-dasharray: 1.0,4.0;" x1="247.5" x2="247.5" y1="273.9766" y2="301.9766"/><line style="stroke: #A80036; stroke-width: 1.0;" x1="247.5" x2="247.5" y1="301.9766" y2="345.3281"/><line style="stroke: #A80036; stroke-width: 1.0; stroke-dasharray: 1.0,4.0;" x1="247.5" x2="247.5" y1="345.3281" y2="373.3281"/><line style="stroke: #A80036; stroke-width: 1.0;" x1="247.5" x2="247.5" y1="373.3281" y2="416.6797"/><line style="stroke: #A80036; stroke-width: 1.0; stroke-dasharray: 1.0,4.0;" x1="247.5" x2="247.5" y1="416.6797" y2="444.6797"/><line style="stroke: #A80036; stroke-width: 1.0;" x1="247.5" x2="247.5" y1="444.6797" y2="548.7344"/><line style="stroke: #A80036; stroke-width: 1.0; stroke-dasharray: 1.0,4.0;" x1="247.5" x2="247.5" y1="548.7344" y2="576.7344"/><line style="stroke: #A80036; stroke-width: 1.0;" x1="247.5" x2="247.5" y1="576.7344" y2="620.0859"/><line style="stroke: #A80036; stroke-width: 1.0; stroke-dasharray: 1.0,4.0;" x1="247.5" x2="247.5" y1="620.0859" y2="648.0859"/><line style="stroke: #A80036; stroke-width: 1.0;" x1="247.5" x2="247.5" y1="648.0859" y2="718.7891"/><line style="stroke: #A80036; stroke-width: 1.0;" x1="335" x2="335" y1="71.2188" y2="215.625"/><line style="stroke: #A80036; stroke-width: 1.0; stroke-dasharray: 1.0,4.0;" x1="335" x2="335" y1="215.625" y2="243.625"/><line style="stroke: #A80036; stroke-width: 1.0;" x1="335" x2="335" y1="243.625" y2="273.9766"/><line style="stroke: #A80036; stroke-width: 1.0; stroke-dasharray: 1.0,4.0;" x1="335" x2="335" y1="273.9766" y2="301.9766"/><line style="stroke: #A80036; stroke-width: 1.0;" x1="335" x2="335" y1="301.9766" y2="345.3281"/><line style="stroke: #A80036; stroke-width: 1.0; stroke-dasharray: 1.0,4.0;" x1="335" x2="335" y1="345.3281" y2="373.3281"/><line style="stroke: #A80036; stroke-width: 1.0;" x1="335" x2="335" y1="373.3281" y2="416.6797"/><line style="stroke: #A80036; stroke-width: 1.0; stroke-dasharray: 1.0,4.0;" x1="335" x2="335" y1="416.6797" y2="444.6797"/><line style="stroke: #A80036; stroke-width: 1.0;" x1="335" x2="335" y1="444.6797" y2="548.7344"/><line style="stroke: #A80036; stroke-width: 1.0; stroke-dasharray: 1.0,4.0;" x1="335" x2="335" y1="548.7344" y2="576.7344"/><line style="stroke: #A80036; stroke-width: 1.0;" x1="335" x2="335" y1="576.7344" y2="620.0859"/><line style="stroke: #A80036; stroke-width: 1.0; stroke-dasharray: 1.0,4.0;" x1="335" x2="335" y1="620.0859" y2="648.0859"/><line style="stroke: #A80036; stroke-width: 1.0;" x1="335" x2="335" y1="648.0859" y2="718.7891"/><line style="stroke: #A80036; stroke-width: 1.0;" x1="398" x2="398" y1="71.2188" y2="215.625"/><line style="stroke: #A80036; stroke-width: 1.0; stroke-dasharray: 1.0,4.0;" x1="398" x2="398" y1="215.625" y2="243.625"/><line style="stroke: #A80036; stroke-width: 1.0;" x1="398" x2="398" y1="243.625" y2="273.9766"/><line style="stroke: #A80036; stroke-width: 1.0; stroke-dasharray: 1.0,4.0;" x1="398" x2="398" y1="273.9766" y2="301.9766"/><line style="stroke: #A80036; stroke-width: 1.0;" x1="398" x2="398" y1="301.9766" y2="345.3281"/><line style="stroke: #A80036; stroke-width: 1.0; stroke-dasharray: 1.0,4.0;" x1="398" x2="398" y1="345.3281" y2="373.3281"/><line style="stroke: #A80036; stroke-width: 1.0;" x1="398" x2="398" y1="373.3281" y2="416.6797"/><line style="stroke: #A80036; stroke-width: 1.0; stroke-dasharray: 1.0,4.0;" x1="398" x2="398" y1="416.6797" y2="444.6797"/><line style="stroke: #A80036; stroke-width: 1.0;" x1="398" x2="398" y1="444.6797" y2="548.7344"/><line style="stroke: #A80036; stroke-width: 1.0; stroke-dasharray: 1.0,4.0;" x1="398" x2="398" y1="548.7344" y2="576.7344"/><line style="stroke: #A80036; stroke-width: 1.0;" x1="398" x2="398" y1="576.7344" y2="620.0859"/><line style="stroke: #A80036; stroke-width: 1.0; stroke-dasharray: 1.0,4.0;" x1="398" x2="398" y1="620.0859" y2="648.0859"/><line style="stroke: #A80036; stroke-width: 1.0;" x1="398" x2="398" y1="648.0859" y2="718.7891"/><line style="stroke: #A80036; stroke-width: 1.0;" x1="479" x2="479" y1="71.2188" y2="215.625"/><line style="stroke: #A80036; stroke-width: 1.0; stroke-dasharray: 1.0,4.0;" x1="479" x2="479" y1="215.625" y2="243.625"/><line style="stroke: #A80036; stroke-width: 1.0;" x1="479" x2="479" y1="243.625" y2="273.9766"/><line style="stroke: #A80036; stroke-width: 1.0; stroke-dasharray: 1.0,4.0;" x1="479" x2="479" y1="273.9766" y2="301.9766"/><line style="stroke: #A80036; stroke-width: 1.0;" x1="479" x2="479" y1="301.9766" y2="345.3281"/><line style="stroke: #A80036; stroke-width: 1.0; stroke-dasharray: 1.0,4.0;" x1="479" x2="479" y1="345.3281" y2="373.3281"/><line style="stroke: #A80036; stroke-width: 1.0;" x1="479" x2="479" y1="373.3281" y2="416.6797"/><line style="stroke: #A80036; stroke-width: 1.0; stroke-dasharray: 1.0,4.0;" x1="479" x2="479" y1="416.6797" y2="444.6797"/><line style="stroke: #A80036; stroke-width: 1.0;" x1="479" x2="479" y1="444.6797" y2="548.7344"/><line style="stroke: #A80036; stroke-width: 1.0; stroke-dasharray: 1.0,4.0;" x1="479" x2="479" y1="548.7344" y2="576.7344"/><line style="stroke: #A80036; stroke-width: 1.0;" x1="479" x2="479" y1="576.7344" y2="620.0859"/><line style="stroke: #A80036; stroke-width: 1.0; stroke-dasharray: 1.0,4.0;" x1="479" x2="479" y1="620.0859" y2="648.0859"/><line style="stroke: #A80036; stroke-width: 1.0;" x1="479" x2="479" y1="648.0859" y2="718.7891"/><line style="stroke: #A80036; stroke-width: 1.0;" x1="583" x2="583" y1="71.2188" y2="215.625"/><line style="stroke: #A80036; stroke-width: 1.0; stroke-dasharray: 1.0,4.0;" x1="583" x2="583" y1="215.625" y2="243.625"/><line style="stroke: #A80036; stroke-width: 1.0;" x1="583" x2="583" y1="243.625" y2="273.9766"/><line style="stroke: #A80036; stroke-width: 1.0; stroke-dasharray: 1.0,4.0;" x1="583" x2="583" y1="273.9766" y2="301.9766"/><line style="stroke: #A80036; stroke-width: 1.0;" x1="583" x2="583" y1="301.9766" y2="345.3281"/><line style="stroke: #A80036; stroke-width: 1.0; stroke-dasharray: 1.0,4.0;" x1="583" x2="583" y1="345.3281" y2="373.3281"/><line style="stroke: #A80036; stroke-width: 1.0;" x1="583" x2="583" y1="373.3281" y2="416.6797"/><line style="stroke: #A80036; stroke-width: 1.0; stroke-dasharray: 1.0,4.0;" x1="583" x2="583" y1="416.6797" y2="444.6797"/><line style="stroke: #A80036; stroke-width: 1.0;" x1="583" x2="583" y1="444.6797" y2="548.7344"/><line style="stroke: #A80036; stroke-width: 1.0; stroke-dasharray: 1.0,4.0;" x1="583" x2="583" y1="548.7344" y2="576.7344"/><line style="stroke: #A80036; stroke-width: 1.0;" x1="583" x2="583" y1="576.7344" y2="620.0859"/><line style="stroke: #A80036; stroke-width: 1.0; stroke-dasharray: 1.0,4.0;" x1="583" x2="583" y1="620.0859" y2="648.0859"/><line style="stroke: #A80036; stroke-width: 1.0;" x1="583" x2="583" y1="648.0859" y2="718.7891"/><line style="stroke: #A80036; stroke-width: 1.0;" x1="684" x2="684" y1="71.2188" y2="215.625"/><line style="stroke: #A80036; stroke-width: 1.0; stroke-dasharray: 1.0,4.0;" x1="684" x2="684" y1="215.625" y2="243.625"/><line style="stroke: #A80036; stroke-width: 1.0;" x1="684" x2="684" y1="243.625" y2="273.9766"/><line style="stroke: #A80036; stroke-width: 1.0; stroke-dasharray: 1.0,4.0;" x1="684" x2="684" y1="273.9766" y2="301.9766"/><line style="stroke: #A80036; stroke-width: 1.0;" x1="684" x2="684" y1="301.9766" y2="345.3281"/><line style="stroke: #A80036; stroke-width: 1.0; stroke-dasharray: 1.0,4.0;" x1="684" x2="684" y1="345.3281" y2="373.3281"/><line style="stroke: #A80036; stroke-width: 1.0;" x1="684" x2="684" y1="373.3281" y2="416.6797"/><line style="stroke: #A80036; stroke-width: 1.0; stroke-dasharray: 1.0,4.0;" x1="684" x2="684" y1="416.6797" y2="444.6797"/><line style="stroke: #A80036; stroke-width: 1.0;" x1="684" x2="684" y1="444.6797" y2="548.7344"/><line style="stroke: #A80036; stroke-width: 1.0; stroke-dasharray: 1.0,4.0;" x1="684" x2="684" y1="548.7344" y2="576.7344"/><line style="stroke: #A80036; stroke-width: 1.0;" x1="684" x2="684" y1="576.7344" y2="620.0859"/><line style="stroke: #A80036; stroke-width: 1.0; stroke-dasharray: 1.0,4.0;" x1="684" x2="684" y1="620.0859" y2="648.0859"/><line style="stroke: #A80036; stroke-width: 1.0;" x1="684" x2="684" y1="648.0859" y2="718.7891"/><rect fill="#FEFECE" filter="url(#fok7ej8xnandp)" height="31.6094" style="stroke: #A80036; stroke-width: 1.5;" width="66" x="8" y="34.6094"/><text fill="#000000" font-family="sans-serif" font-size="14" lengthAdjust="spacingAndGlyphs" textLength="52" x="15" y="56.1426">:Agence</text><rect fill="#FEFECE" filter="url(#fok7ej8xnandp)" height="31.6094" style="stroke: #A80036; stroke-width: 1.5;" width="79" x="120.5" y="34.6094"/><text fill="#000000" font-family="sans-serif" font-size="14" lengthAdjust="spacingAndGlyphs" textLength="65" x="127.5" y="56.1426">:Personne</text><rect fill="#FEFECE" filter="url(#fok7ej8xnandp)" height="31.6094" style="stroke: #A80036; stroke-width: 1.5;" width="65" x="213.5" y="34.6094"/><text fill="#000000" font-family="sans-serif" font-size="14" lengthAdjust="spacingAndGlyphs" textLength="51" x="220.5" y="56.1426">:Mandat</text><rect fill="#FEFECE" filter="url(#fok7ej8xnandp)" height="31.6094" style="stroke: #A80036; stroke-width: 1.5;" width="46" x="310" y="34.6094"/><text fill="#000000" font-family="sans-serif" font-size="14" lengthAdjust="spacingAndGlyphs" textLength="32" x="317" y="56.1426">:Bien</text><rect fill="#FEFECE" filter="url(#fok7ej8xnandp)" height="31.6094" style="stroke: #A80036; stroke-width: 1.5;" width="53" x="370" y="34.6094"/><text fill="#000000" font-family="sans-serif" font-size="14" lengthAdjust="spacingAndGlyphs" textLength="39" x="377" y="56.1426">:Envie</text><rect fill="#FEFECE" filter="url(#fok7ej8xnandp)" height="31.6094" style="stroke: #A80036; stroke-width: 1.5;" width="81" x="437" y="34.6094"/><text fill="#000000" font-family="sans-serif" font-size="14" lengthAdjust="spacingAndGlyphs" textLength="67" x="444" y="56.1426">:Promesse</text><rect fill="#FEFECE" filter="url(#fok7ej8xnandp)" height="31.6094" style="stroke: #A80036; stroke-width: 1.5;" width="99" x="532" y="34.6094"/><text fill="#000000" font-family="sans-serif" font-size="14" lengthAdjust="spacingAndGlyphs" textLength="85" x="539" y="56.1426">:AnnoncePub</text><rect fill="#FEFECE" filter="url(#fok7ej8xnandp)" height="31.6094" style="stroke: #A80036; stroke-width: 1.5;" width="75" x="645" y="34.6094"/><text fill="#000000" font-family="sans-serif" font-size="14" lengthAdjust="spacingAndGlyphs" textLength="61" x="652" y="56.1426">:TypePub</text><line style="stroke: #A80036; stroke-width: 1.0;" x1="43" x2="85" y1="103.5703" y2="103.5703"/><line style="stroke: #A80036; stroke-width: 1.0;" x1="85" x2="85" y1="103.5703" y2="116.5703"/><line style="stroke: #A80036; stroke-width: 1.0;" x1="44" x2="85" y1="116.5703" y2="116.5703"/><polygon fill="#A80036" points="54,112.5703,44,116.5703,54,120.5703,50,116.5703" style="stroke: #A80036; stroke-width: 1.0;"/><text fill="#000000" font-family="sans-serif" font-size="13" lengthAdjust="spacingAndGlyphs" textLength="105" x="50" y="98.7139">priseRdvVendeur()</text><polygon fill="#A80036" points="150,142.5703,160,146.5703,150,150.5703,154,146.5703" style="stroke: #A80036; stroke-width: 1.0;"/><line style="stroke: #A80036; stroke-width: 1.0;" x1="43" x2="156" y1="146.5703" y2="146.5703"/><text fill="#000000" font-family="sans-serif" font-size="13" lengthAdjust="spacingAndGlyphs" textLength="92" x="50" y="142.0654">creerPersonne()</text><polygon fill="#A80036" points="236,172.9219,246,176.9219,236,180.9219,240,176.9219" style="stroke: #A80036; stroke-width: 1.0;"/><line style="stroke: #A80036; stroke-width: 1.0;" x1="43" x2="242" y1="176.9219" y2="176.9219"/><text fill="#000000" font-family="sans-serif" font-size="13" lengthAdjust="spacingAndGlyphs" textLength="80" x="50" y="172.417">creerMandat()</text><polygon fill="#A80036" points="323,203.2734,333,207.2734,323,211.2734,327,207.2734" style="stroke: #A80036; stroke-width: 1.0;"/><line style="stroke: #A80036; stroke-width: 1.0;" x1="248" x2="329" y1="207.2734" y2="207.2734"/><text fill="#000000" font-family="sans-serif" font-size="13" lengthAdjust="spacingAndGlyphs" textLength="63" x="255" y="202.7686">creerBien()</text><polygon fill="#A80036" points="386.5,261.625,396.5,265.625,386.5,269.625,390.5,265.625" style="stroke: #A80036; stroke-width: 1.0;"/><line style="stroke: #A80036; stroke-width: 1.0;" x1="43" x2="392.5" y1="265.625" y2="265.625"/><text fill="#000000" font-family="sans-serif" font-size="13" lengthAdjust="spacingAndGlyphs" textLength="68" x="50" y="261.1201">creerEnvie()</text><line style="stroke: #A80036; stroke-width: 1.0;" x1="43" x2="85" y1="324.3281" y2="324.3281"/><line style="stroke: #A80036; stroke-width: 1.0;" x1="85" x2="85" y1="324.3281" y2="337.3281"/><line style="stroke: #A80036; stroke-width: 1.0;" x1="44" x2="85" y1="337.3281" y2="337.3281"/><polygon fill="#A80036" points="54,333.3281,44,337.3281,54,341.3281,50,337.3281" style="stroke: #A80036; stroke-width: 1.0;"/><text fill="#000000" font-family="sans-serif" font-size="13" lengthAdjust="spacingAndGlyphs" textLength="62" x="50" y="319.4717">contacter()</text><line style="stroke: #A80036; stroke-width: 1.0;" x1="43" x2="85" y1="395.6797" y2="395.6797"/><line style="stroke: #A80036; stroke-width: 1.0;" x1="85" x2="85" y1="395.6797" y2="408.6797"/><line style="stroke: #A80036; stroke-width: 1.0;" x1="44" x2="85" y1="408.6797" y2="408.6797"/><polygon fill="#A80036" points="54,404.6797,44,408.6797,54,412.6797,50,408.6797" style="stroke: #A80036; stroke-width: 1.0;"/><text fill="#000000" font-family="sans-serif" font-size="13" lengthAdjust="spacingAndGlyphs" textLength="94" x="50" y="390.8232">organiserVisite()</text><line style="stroke: #A80036; stroke-width: 1.0;" x1="43" x2="85" y1="467.0313" y2="467.0313"/><line style="stroke: #A80036; stroke-width: 1.0;" x1="85" x2="85" y1="467.0313" y2="480.0313"/><line style="stroke: #A80036; stroke-width: 1.0;" x1="44" x2="85" y1="480.0313" y2="480.0313"/><polygon fill="#A80036" points="54,476.0313,44,480.0313,54,484.0313,50,480.0313" style="stroke: #A80036; stroke-width: 1.0;"/><text fill="#000000" font-family="sans-serif" font-size="13" lengthAdjust="spacingAndGlyphs" textLength="95" x="50" y="462.1748">organiserVente()</text><polygon fill="#A80036" points="467.5,506.0313,477.5,510.0313,467.5,514.0313,471.5,510.0313" style="stroke: #A80036; stroke-width: 1.0;"/><line style="stroke: #A80036; stroke-width: 1.0;" x1="43" x2="473.5" y1="510.0313" y2="510.0313"/><text fill="#000000" font-family="sans-serif" font-size="13" lengthAdjust="spacingAndGlyphs" textLength="96" x="50" y="505.5264">creerPromesse()</text><polygon fill="#A80036" points="467.5,536.3828,477.5,540.3828,467.5,544.3828,471.5,540.3828" style="stroke: #A80036; stroke-width: 1.0;"/><line style="stroke: #A80036; stroke-width: 1.0;" x1="43" x2="473.5" y1="540.3828" y2="540.3828"/><text fill="#000000" font-family="sans-serif" font-size="13" lengthAdjust="spacingAndGlyphs" textLength="102" x="50" y="535.8779">signerPromesse()</text><line style="stroke: #A80036; stroke-width: 1.0;" x1="43" x2="85" y1="599.0859" y2="599.0859"/><line style="stroke: #A80036; stroke-width: 1.0;" x1="85" x2="85" y1="599.0859" y2="612.0859"/><line style="stroke: #A80036; stroke-width: 1.0;" x1="44" x2="85" y1="612.0859" y2="612.0859"/><polygon fill="#A80036" points="54,608.0859,44,612.0859,54,616.0859,50,612.0859" style="stroke: #A80036; stroke-width: 1.0;"/><text fill="#000000" font-family="sans-serif" font-size="13" lengthAdjust="spacingAndGlyphs" textLength="58" x="50" y="594.2295">voirStats()</text><polygon fill="#A80036" points="571.5,666.0859,581.5,670.0859,571.5,674.0859,575.5,670.0859" style="stroke: #A80036; stroke-width: 1.0;"/><line style="stroke: #A80036; stroke-width: 1.0;" x1="43" x2="577.5" y1="670.0859" y2="670.0859"/><text fill="#000000" font-family="sans-serif" font-size="13" lengthAdjust="spacingAndGlyphs" textLength="96" x="50" y="665.5811">creerDocument()</text><polygon fill="#A80036" points="672.5,696.4375,682.5,700.4375,672.5,704.4375,676.5,700.4375" style="stroke: #A80036; stroke-width: 1.0;"/><line style="stroke: #A80036; stroke-width: 1.0;" x1="583.5" x2="678.5" y1="700.4375" y2="700.4375"/><text fill="#000000" font-family="sans-serif" font-size="13" lengthAdjust="spacingAndGlyphs" textLength="59" x="590.5" y="695.9326">addElem()</text><!--
@startuml

hide footbox
title Footer removed

participant ":Agence" As A
participant ":Personne" As Per
participant ":Mandat" As M
participant ":Bien" As B
participant ":Envie" As E
participant ":Promesse" As Pro
participant ":AnnoncePub" As AP
participant ":TypePub" As TP

A -> A : priseRdvVendeur()
A -> Per : creerPersonne()
A -> M : creerMandat()
M -> B : creerBien()

...

A -> E : creerEnvie()

...

A -> A : contacter()

...

A -> A : organiserVisite()

...

A -> A : organiserVente()
A -> Pro : creerPromesse()
A -> Pro : signerPromesse()

...

A -> A : voirStats()

...

A -> AP : creerDocument()
AP -> TP : addElem()

@enduml

PlantUML version 1.2017.18(Fri Oct 06 18:56:32 CEST 2017)
(GPL source distribution)
Java Runtime: Java(TM) SE Runtime Environment
JVM: Java HotSpot(TM) 64-Bit Server VM
Java Version: 9.0.1+11
Operating System: Windows 10
OS Version: 10.0
Default Encoding: Cp1252
Language: fr
Country: FR
--></g></svg>