<?xml version="1.0" encoding="UTF-8" standalone="no"?><svg xmlns="http://www.w3.org/2000/svg" xmlns:xlink="http://www.w3.org/1999/xlink" contentScriptType="application/ecmascript" contentStyleType="text/css" height="1415px" preserveAspectRatio="none" style="width:4920px;height:1415px;" version="1.1" viewBox="0 0 4920 1415"
    width="4920px" zoomAndPan="magnify"><defs><filter height="300%" id="f16igj4nkth0f4" width="300%" x="-1" y="-1"><feGaussianBlur result="blurOut" stdDeviation="2.0"/><feColorMatrix in="blurOut" result="blurOut2" type="matrix" values="0 0 0 0 0 0 0 0 0 0 0 0 0 0 0 0 0 0 .4 0"/><feOffset dx="4.0" dy="4.0" in="blurOut2" result="blurOut3"/><feBlend in="SourceGraphic" in2="blurOut3" mode="normal"/></filter></defs><g><!--cluster user--><polygon fill="#FFFFFF" filter="url(#f16igj4nkth0f4)" points="3354.94,981.5,3392.94,981.5,3399.94,1005.1094,4898.94,1005.1094,4898.94,1403,3354.94,1403,3354.94,981.5" style="stroke: #000000; stroke-width: 2.0;"/><line style="stroke: #000000; stroke-width: 2.0;" x1="3354.94" x2="3399.94" y1="1005.1094" y2="1005.1094"/><text fill="#000000" font-family="sans-serif" font-size="14" font-weight="bold" lengthAdjust="spacingAndGlyphs" textLength="32" x="3358.94" y="998.0332">user</text><!--cluster agence--><polygon fill="#FFFFFF" filter="url(#f16igj4nkth0f4)" points="2416.94,356,2474.94,356,2481.94,379.6094,3330.94,379.6094,3330.94,1192,2416.94,1192,2416.94,356" style="stroke: #000000; stroke-width: 2.0;"/><line style="stroke: #000000; stroke-width: 2.0;" x1="2416.94" x2="2481.94" y1="379.6094" y2="379.6094"/><text fill="#000000" font-family="sans-serif" font-size="14" font-weight="bold" lengthAdjust="spacingAndGlyphs" textLength="52" x="2420.94" y="372.5332">agence</text><!--cluster pub--><polygon fill="#FFFFFF" filter="url(#f16igj4nkth0f4)" points="2743.94,24,2776.94,24,2783.94,47.6094,3648.94,47.6094,3648.94,306,2743.94,306,2743.94,24" style="stroke: #000000; stroke-width: 2.0;"/><line style="stroke: #000000; stroke-width: 2.0;" x1="2743.94" x2="2783.94" y1="47.6094" y2="47.6094"/><text fill="#000000" font-family="sans-serif" font-size="14" font-weight="bold" lengthAdjust="spacingAndGlyphs" textLength="27" x="2747.94" y="40.5332">pub</text><!--cluster immo--><polygon fill="#FFFFFF" filter="url(#f16igj4nkth0f4)" points="77.9424,390.5,120.9424,390.5,127.9424,414.1094,2392.94,414.1094,2392.94,900.5,77.9424,900.5,77.9424,390.5" style="stroke: #000000; stroke-width: 2.0;"/><line style="stroke: #000000; stroke-width: 2.0;" x1="77.9424" x2="127.9424" y1="414.1094" y2="414.1094"/><text fill="#000000" font-family="sans-serif" font-size="14" font-weight="bold" lengthAdjust="spacingAndGlyphs" textLength="37" x="81.9424" y="407.0332">immo</text><!--class Client--><rect fill="#FEFECE" filter="url(#f16igj4nkth0f4)" height="131.0156" id="Client" style="stroke: #A80036; stroke-width: 1.5;" width="517" x="3371.44" y="1017.5"/><ellipse cx="3609.69" cy="1033.5" fill="#A9DCDF" rx="11" ry="11" style="stroke: #A80036; stroke-width: 1.0;"/><path d="M3611.8775,1035.2656 L3607.7369,1035.2656 L3607.315,1036.2969 L3607.7369,1036.2969 Q3608.3463,1036.2969 3608.6119,1036.5313 Q3608.8775,1036.7656 3608.8775,1037.1563 Q3608.8775,1037.5313 3608.6119,1037.7656 Q3608.3463,1038 3607.7369,1038 L3605.44,1038 Q3604.8306,1038 3604.5728,1037.7656 Q3604.315,1037.5313 3604.315,1037.1406 Q3604.315,1036.7656 3604.5884,1036.5234 Q3604.8619,1036.2813 3605.4869,1036.2969 L3608.1588,1029.6406 L3607.0494,1029.6406 Q3606.44,1029.6406 3606.1744,1029.4063 Q3605.9088,1029.1719 3605.9088,1028.7813 Q3605.9088,1028.4063 3606.1744,1028.1719 Q3606.44,1027.9375 3607.0494,1027.9375 L3610.7213,1027.9375 L3614.1119,1036.2969 Q3614.7056,1036.2969 3614.8931,1036.4375 Q3615.2838,1036.7031 3615.2838,1037.1563 Q3615.2838,1037.5313 3615.0259,1037.7656 Q3614.7681,1038 3614.1588,1038 L3611.8619,1038 Q3611.2525,1038 3610.9869,1037.7656 Q3610.7213,1037.5313 3610.7213,1037.1406 Q3610.7213,1036.7656 3610.9869,1036.5313 Q3611.2525,1036.2969 3611.8619,1036.2969 L3612.2838,1036.2969 L3611.8775,1035.2656 Z M3611.1588,1033.5625 L3609.7994,1030.1875 L3608.4244,1033.5625 L3611.1588,1033.5625 Z "/><text fill="#000000" font-family="sans-serif" font-size="12" font-style="italic" lengthAdjust="spacingAndGlyphs" textLength="32" x="3630.19" y="1038.4102">Client</text><line style="stroke: #A80036; stroke-width: 1.5;" x1="3372.44" x2="3887.44" y1="1049.5" y2="1049.5"/><rect fill="none" height="6" style="stroke: #C82930; stroke-width: 1.0;" width="6" x="3379.44" y="1058.918"/><text fill="#000000" font-family="sans-serif" font-size="11" lengthAdjust="spacingAndGlyphs" textLength="51" x="3391.44" y="1064.9189">String nom</text><rect fill="none" height="6" style="stroke: #C82930; stroke-width: 1.0;" width="6" x="3379.44" y="1072.7539"/><text fill="#000000" font-family="sans-serif" font-size="11" lengthAdjust="spacingAndGlyphs" textLength="71" x="3391.44" y="1078.7549">String adresse</text><rect fill="none" height="6" style="stroke: #C82930; stroke-width: 1.0;" width="6" x="3379.44" y="1086.5898"/><text fill="#000000" font-family="sans-serif" font-size="11" lengthAdjust="spacingAndGlyphs" textLength="78" x="3391.44" y="1092.5908">String telephone</text><rect fill="none" height="6" style="stroke: #C82930; stroke-width: 1.0;" width="6" x="3379.44" y="1100.4258"/><text fill="#000000" font-family="sans-serif" font-size="11" lengthAdjust="spacingAndGlyphs" textLength="55" x="3391.44" y="1106.4268">String email</text><line style="stroke: #A80036; stroke-width: 1.5;" x1="3372.44" x2="3887.44" y1="1112.8438" y2="1112.8438"/><ellipse cx="3382.44" cy="1125.2617" fill="#84BE84" rx="3" ry="3" style="stroke: #038048; stroke-width: 1.0;"/><text fill="#000000" font-family="sans-serif" font-size="11" lengthAdjust="spacingAndGlyphs" textLength="339" x="3391.44" y="1128.2627">Client(String nomV, String adresseV, String telephoneV, String emailV)</text><ellipse cx="3382.44" cy="1139.0977" fill="#84BE84" rx="3" ry="3" style="stroke: #038048; stroke-width: 1.0;"/><text fill="#000000" font-family="sans-serif" font-size="11" lengthAdjust="spacingAndGlyphs" textLength="491" x="3391.44" y="1142.0986">void ajouterEnvie(String typeV, Double prixV, String localisationV, Double surfaceSolV, int nbPiecesV)</text><!--class Personne--><rect fill="#FEFECE" filter="url(#f16igj4nkth0f4)" height="61.8359" id="Personne" style="stroke: #A80036; stroke-width: 1.5;" width="385" x="3371.44" y="1290.5"/><ellipse cx="3532.69" cy="1306.5" fill="#ADD1B2" rx="11" ry="11" style="stroke: #A80036; stroke-width: 1.0;"/><path d="M3535.4556,1302.375 Q3535.6119,1302.1563 3535.7994,1302.0469 Q3535.9869,1301.9375 3536.2056,1301.9375 Q3536.5806,1301.9375 3536.815,1302.1953 Q3537.0494,1302.4531 3537.0494,1303.0625 L3537.0494,1304.5156 Q3537.0494,1305.125 3536.815,1305.3906 Q3536.5806,1305.6563 3536.2056,1305.6563 Q3535.8619,1305.6563 3535.6588,1305.4531 Q3535.4556,1305.2656 3535.3463,1304.75 Q3535.2994,1304.3906 3535.1119,1304.2031 Q3534.7838,1303.8281 3534.1744,1303.6094 Q3533.565,1303.3906 3532.94,1303.3906 Q3532.1744,1303.3906 3531.5416,1303.7188 Q3530.9088,1304.0469 3530.4166,1304.7969 Q3529.9244,1305.5469 3529.9244,1306.5781 L3529.9244,1307.6719 Q3529.9244,1308.9063 3530.815,1309.7266 Q3531.7056,1310.5469 3533.2994,1310.5469 Q3534.2369,1310.5469 3534.8931,1310.2969 Q3535.2838,1310.1406 3535.7056,1309.7031 Q3535.9713,1309.4375 3536.1197,1309.3594 Q3536.2681,1309.2813 3536.4713,1309.2813 Q3536.7994,1309.2813 3537.0572,1309.5391 Q3537.315,1309.7969 3537.315,1310.1406 Q3537.315,1310.4844 3536.9713,1310.8906 Q3536.4713,1311.4688 3535.6744,1311.7969 Q3534.5963,1312.25 3533.2994,1312.25 Q3531.7838,1312.25 3530.5806,1311.625 Q3529.5963,1311.125 3528.9088,1310.0547 Q3528.2213,1308.9844 3528.2213,1307.7031 L3528.2213,1306.5469 Q3528.2213,1305.2188 3528.8384,1304.0703 Q3529.4556,1302.9219 3530.5494,1302.3047 Q3531.6431,1301.6875 3532.8775,1301.6875 Q3533.6119,1301.6875 3534.2603,1301.8516 Q3534.9088,1302.0156 3535.4556,1302.375 Z "/><text fill="#000000" font-family="sans-serif" font-size="12" lengthAdjust="spacingAndGlyphs" textLength="54" x="3553.19" y="1311.4102">Personne</text><line style="stroke: #A80036; stroke-width: 1.5;" x1="3372.44" x2="3755.44" y1="1322.5" y2="1322.5"/><line style="stroke: #A80036; stroke-width: 1.5;" x1="3372.44" x2="3755.44" y1="1330.5" y2="1330.5"/><ellipse cx="3382.44" cy="1342.918" fill="#84BE84" rx="3" ry="3" style="stroke: #038048; stroke-width: 1.0;"/><text fill="#000000" font-family="sans-serif" font-size="11" lengthAdjust="spacingAndGlyphs" textLength="359" x="3391.44" y="1345.9189">Personne(String nomV, String adresseV, String telephoneV, String emailV)</text><!--class Entreprise--><rect fill="#FEFECE" filter="url(#f16igj4nkth0f4)" height="89.5078" id="Entreprise" style="stroke: #A80036; stroke-width: 1.5;" width="594" x="3791.94" y="1276.5"/><ellipse cx="4056.19" cy="1292.5" fill="#ADD1B2" rx="11" ry="11" style="stroke: #A80036; stroke-width: 1.0;"/><path d="M4058.9556,1288.375 Q4059.1119,1288.1563 4059.2994,1288.0469 Q4059.4869,1287.9375 4059.7056,1287.9375 Q4060.0806,1287.9375 4060.315,1288.1953 Q4060.5494,1288.4531 4060.5494,1289.0625 L4060.5494,1290.5156 Q4060.5494,1291.125 4060.315,1291.3906 Q4060.0806,1291.6563 4059.7056,1291.6563 Q4059.3619,1291.6563 4059.1588,1291.4531 Q4058.9556,1291.2656 4058.8463,1290.75 Q4058.7994,1290.3906 4058.6119,1290.2031 Q4058.2838,1289.8281 4057.6744,1289.6094 Q4057.065,1289.3906 4056.44,1289.3906 Q4055.6744,1289.3906 4055.0416,1289.7188 Q4054.4088,1290.0469 4053.9166,1290.7969 Q4053.4244,1291.5469 4053.4244,1292.5781 L4053.4244,1293.6719 Q4053.4244,1294.9063 4054.315,1295.7266 Q4055.2056,1296.5469 4056.7994,1296.5469 Q4057.7369,1296.5469 4058.3931,1296.2969 Q4058.7838,1296.1406 4059.2056,1295.7031 Q4059.4713,1295.4375 4059.6197,1295.3594 Q4059.7681,1295.2813 4059.9713,1295.2813 Q4060.2994,1295.2813 4060.5572,1295.5391 Q4060.815,1295.7969 4060.815,1296.1406 Q4060.815,1296.4844 4060.4713,1296.8906 Q4059.9713,1297.4688 4059.1744,1297.7969 Q4058.0963,1298.25 4056.7994,1298.25 Q4055.2838,1298.25 4054.0806,1297.625 Q4053.0963,1297.125 4052.4088,1296.0547 Q4051.7213,1294.9844 4051.7213,1293.7031 L4051.7213,1292.5469 Q4051.7213,1291.2188 4052.3384,1290.0703 Q4052.9556,1288.9219 4054.0494,1288.3047 Q4055.1431,1287.6875 4056.3775,1287.6875 Q4057.1119,1287.6875 4057.7603,1287.8516 Q4058.4088,1288.0156 4058.9556,1288.375 Z "/><text fill="#000000" font-family="sans-serif" font-size="12" lengthAdjust="spacingAndGlyphs" textLength="57" x="4076.69" y="1297.4102">Entreprise</text><line style="stroke: #A80036; stroke-width: 1.5;" x1="3792.94" x2="4384.94" y1="1308.5" y2="1308.5"/><rect fill="none" height="6" style="stroke: #C82930; stroke-width: 1.0;" width="6" x="3799.94" y="1317.918"/><text fill="#000000" font-family="sans-serif" font-size="11" lengthAdjust="spacingAndGlyphs" textLength="102" x="3811.94" y="1323.9189">String formeJuridique</text><rect fill="none" height="6" style="stroke: #C82930; stroke-width: 1.0;" width="6" x="3799.94" y="1331.7539"/><text fill="#000000" font-family="sans-serif" font-size="11" lengthAdjust="spacingAndGlyphs" textLength="76" x="3811.94" y="1337.7549">String numSiren</text><line style="stroke: #A80036; stroke-width: 1.5;" x1="3792.94" x2="4384.94" y1="1344.1719" y2="1344.1719"/><ellipse cx="3802.94" cy="1356.5898" fill="#84BE84" rx="3" ry="3" style="stroke: #038048; stroke-width: 1.0;"/><text fill="#000000" font-family="sans-serif" font-size="11" lengthAdjust="spacingAndGlyphs" textLength="568" x="3811.94" y="1359.5908">Entreprise(String nomV, String adresseV, String telephoneV, String emailV, String formeJurisiqueV, String numSirenV)</text><!--class Envie--><rect fill="#FEFECE" filter="url(#f16igj4nkth0f4)" height="131.0156" id="Envie" style="stroke: #A80036; stroke-width: 1.5;" width="461" x="4421.44" y="1256"/><ellipse cx="4632.69" cy="1272" fill="#ADD1B2" rx="11" ry="11" style="stroke: #A80036; stroke-width: 1.0;"/><path d="M4635.4556,1267.875 Q4635.6119,1267.6563 4635.7994,1267.5469 Q4635.9869,1267.4375 4636.2056,1267.4375 Q4636.5806,1267.4375 4636.815,1267.6953 Q4637.0494,1267.9531 4637.0494,1268.5625 L4637.0494,1270.0156 Q4637.0494,1270.625 4636.815,1270.8906 Q4636.5806,1271.1563 4636.2056,1271.1563 Q4635.8619,1271.1563 4635.6588,1270.9531 Q4635.4556,1270.7656 4635.3463,1270.25 Q4635.2994,1269.8906 4635.1119,1269.7031 Q4634.7838,1269.3281 4634.1744,1269.1094 Q4633.565,1268.8906 4632.94,1268.8906 Q4632.1744,1268.8906 4631.5416,1269.2188 Q4630.9088,1269.5469 4630.4166,1270.2969 Q4629.9244,1271.0469 4629.9244,1272.0781 L4629.9244,1273.1719 Q4629.9244,1274.4063 4630.815,1275.2266 Q4631.7056,1276.0469 4633.2994,1276.0469 Q4634.2369,1276.0469 4634.8931,1275.7969 Q4635.2838,1275.6406 4635.7056,1275.2031 Q4635.9713,1274.9375 4636.1197,1274.8594 Q4636.2681,1274.7813 4636.4713,1274.7813 Q4636.7994,1274.7813 4637.0572,1275.0391 Q4637.315,1275.2969 4637.315,1275.6406 Q4637.315,1275.9844 4636.9713,1276.3906 Q4636.4713,1276.9688 4635.6744,1277.2969 Q4634.5963,1277.75 4633.2994,1277.75 Q4631.7838,1277.75 4630.5806,1277.125 Q4629.5963,1276.625 4628.9088,1275.5547 Q4628.2213,1274.4844 4628.2213,1273.2031 L4628.2213,1272.0469 Q4628.2213,1270.7188 4628.8384,1269.5703 Q4629.4556,1268.4219 4630.5494,1267.8047 Q4631.6431,1267.1875 4632.8775,1267.1875 Q4633.6119,1267.1875 4634.2603,1267.3516 Q4634.9088,1267.5156 4635.4556,1267.875 Z "/><text fill="#000000" font-family="sans-serif" font-size="12" lengthAdjust="spacingAndGlyphs" textLength="30" x="4653.19" y="1276.9102">Envie</text><line style="stroke: #A80036; stroke-width: 1.5;" x1="4422.44" x2="4881.44" y1="1288" y2="1288"/><rect fill="none" height="6" style="stroke: #C82930; stroke-width: 1.0;" width="6" x="4429.44" y="1297.418"/><text fill="#000000" font-family="sans-serif" font-size="11" lengthAdjust="spacingAndGlyphs" textLength="52" x="4441.44" y="1303.4189">String type</text><rect fill="none" height="6" style="stroke: #C82930; stroke-width: 1.0;" width="6" x="4429.44" y="1311.2539"/><text fill="#000000" font-family="sans-serif" font-size="11" lengthAdjust="spacingAndGlyphs" textLength="54" x="4441.44" y="1317.2549">Double prix</text><rect fill="none" height="6" style="stroke: #C82930; stroke-width: 1.0;" width="6" x="4429.44" y="1325.0898"/><text fill="#000000" font-family="sans-serif" font-size="11" lengthAdjust="spacingAndGlyphs" textLength="84" x="4441.44" y="1331.0908">String localisation</text><rect fill="none" height="6" style="stroke: #C82930; stroke-width: 1.0;" width="6" x="4429.44" y="1338.9258"/><text fill="#000000" font-family="sans-serif" font-size="11" lengthAdjust="spacingAndGlyphs" textLength="89" x="4441.44" y="1344.9268">Double surfaceSol</text><rect fill="none" height="6" style="stroke: #C82930; stroke-width: 1.0;" width="6" x="4429.44" y="1352.7617"/><text fill="#000000" font-family="sans-serif" font-size="11" lengthAdjust="spacingAndGlyphs" textLength="58" x="4441.44" y="1358.7627">int nbPieces</text><line style="stroke: #A80036; stroke-width: 1.5;" x1="4422.44" x2="4881.44" y1="1365.1797" y2="1365.1797"/><ellipse cx="4432.44" cy="1377.5977" fill="#84BE84" rx="3" ry="3" style="stroke: #038048; stroke-width: 1.0;"/><text fill="#000000" font-family="sans-serif" font-size="11" lengthAdjust="spacingAndGlyphs" textLength="435" x="4441.44" y="1380.5986">Envie(String typeV, Double prixV, String localisationV, Double surfaceSolV, int nbPiecesV)</text><!--class Agence--><rect fill="#FEFECE" filter="url(#f16igj4nkth0f4)" height="241.7031" id="Agence" style="stroke: #A80036; stroke-width: 1.5;" width="845" x="2433.44" y="392"/><ellipse cx="2831.19" cy="408" fill="#ADD1B2" rx="11" ry="11" style="stroke: #A80036; stroke-width: 1.0;"/><path d="M2833.9556,403.875 Q2834.1119,403.6563 2834.2994,403.5469 Q2834.4869,403.4375 2834.7056,403.4375 Q2835.0806,403.4375 2835.315,403.6953 Q2835.5494,403.9531 2835.5494,404.5625 L2835.5494,406.0156 Q2835.5494,406.625 2835.315,406.8906 Q2835.0806,407.1563 2834.7056,407.1563 Q2834.3619,407.1563 2834.1588,406.9531 Q2833.9556,406.7656 2833.8463,406.25 Q2833.7994,405.8906 2833.6119,405.7031 Q2833.2838,405.3281 2832.6744,405.1094 Q2832.065,404.8906 2831.44,404.8906 Q2830.6744,404.8906 2830.0416,405.2188 Q2829.4088,405.5469 2828.9166,406.2969 Q2828.4244,407.0469 2828.4244,408.0781 L2828.4244,409.1719 Q2828.4244,410.4063 2829.315,411.2266 Q2830.2056,412.0469 2831.7994,412.0469 Q2832.7369,412.0469 2833.3931,411.7969 Q2833.7838,411.6406 2834.2056,411.2031 Q2834.4713,410.9375 2834.6197,410.8594 Q2834.7681,410.7813 2834.9713,410.7813 Q2835.2994,410.7813 2835.5572,411.0391 Q2835.815,411.2969 2835.815,411.6406 Q2835.815,411.9844 2835.4713,412.3906 Q2834.9713,412.9688 2834.1744,413.2969 Q2833.0963,413.75 2831.7994,413.75 Q2830.2838,413.75 2829.0806,413.125 Q2828.0963,412.625 2827.4088,411.5547 Q2826.7213,410.4844 2826.7213,409.2031 L2826.7213,408.0469 Q2826.7213,406.7188 2827.3384,405.5703 Q2827.9556,404.4219 2829.0494,403.8047 Q2830.1431,403.1875 2831.3775,403.1875 Q2832.1119,403.1875 2832.7603,403.3516 Q2833.4088,403.5156 2833.9556,403.875 Z "/><text fill="#000000" font-family="sans-serif" font-size="12" lengthAdjust="spacingAndGlyphs" textLength="41" x="2851.69" y="412.9102">Agence</text><line style="stroke: #A80036; stroke-width: 1.5;" x1="2434.44" x2="3277.44" y1="424" y2="424"/><rect fill="none" height="6" style="stroke: #C82930; stroke-width: 1.0;" width="6" x="2441.44" y="433.418"/><text fill="#000000" font-family="sans-serif" font-size="11" lengthAdjust="spacingAndGlyphs" textLength="51" x="2453.44" y="439.4189">String nom</text><rect fill="none" height="6" style="stroke: #C82930; stroke-width: 1.0;" width="6" x="2441.44" y="447.2539"/><text fill="#000000" font-family="sans-serif" font-size="11" lengthAdjust="spacingAndGlyphs" textLength="149" x="2453.44" y="453.2549">HashMap&lt;Date,Client&gt; listeRdv</text><line style="stroke: #A80036; stroke-width: 1.5;" x1="2434.44" x2="3277.44" y1="459.6719" y2="459.6719"/><ellipse cx="2444.44" cy="472.0898" fill="#84BE84" rx="3" ry="3" style="stroke: #038048; stroke-width: 1.0;"/><text fill="#000000" font-family="sans-serif" font-size="11" lengthAdjust="spacingAndGlyphs" textLength="105" x="2453.44" y="475.0908">Agence(String nomV)</text><ellipse cx="2444.44" cy="485.9258" fill="#84BE84" rx="3" ry="3" style="stroke: #038048; stroke-width: 1.0;"/><text fill="#000000" font-family="sans-serif" font-size="11" lengthAdjust="spacingAndGlyphs" textLength="408" x="2453.44" y="488.9268">void creerPersonne(String nomV, String adresseV, String telephoneV, String emailV)</text><ellipse cx="2444.44" cy="499.7617" fill="#84BE84" rx="3" ry="3" style="stroke: #038048; stroke-width: 1.0;"/><text fill="#000000" font-family="sans-serif" font-size="11" lengthAdjust="spacingAndGlyphs" textLength="617" x="2453.44" y="502.7627">void creerEntreprise(String nomV, String adresseV, String telephoneV, String emailV, String formeJuridiqueV, String numSirenV)</text><ellipse cx="2444.44" cy="513.5977" fill="#84BE84" rx="3" ry="3" style="stroke: #038048; stroke-width: 1.0;"/><text fill="#000000" font-family="sans-serif" font-size="11" lengthAdjust="spacingAndGlyphs" textLength="678" x="2453.44" y="516.5986">void creerTerrain(int numV, String adresseV, String orientationV, Double prixV, Date venteV, Double surfaceSolV, Double longueurFacadeV)</text><ellipse cx="2444.44" cy="527.4336" fill="#84BE84" rx="3" ry="3" style="stroke: #038048; stroke-width: 1.0;"/><text fill="#000000" font-family="sans-serif" font-size="11" lengthAdjust="spacingAndGlyphs" textLength="819" x="2453.44" y="530.4346">void creerMaison(int numV, String adresseV, String orientationV, Double prixV, Date venteV, Double surfaceHabitableV, int nbPiecesV, int nbEtagesV, String chauffageV)</text><ellipse cx="2444.44" cy="541.2695" fill="#84BE84" rx="3" ry="3" style="stroke: #038048; stroke-width: 1.0;"/><text fill="#000000" font-family="sans-serif" font-size="11" lengthAdjust="spacingAndGlyphs" textLength="746" x="2453.44" y="544.2705">void creerAppartement(int numV, String adresseV, String orientationV, Double prixV, Date venteV, int nbPiecesV, int etageV, Double chargesMensuellesV)</text><ellipse cx="2444.44" cy="555.1055" fill="#84BE84" rx="3" ry="3" style="stroke: #038048; stroke-width: 1.0;"/><text fill="#000000" font-family="sans-serif" font-size="11" lengthAdjust="spacingAndGlyphs" textLength="502" x="2453.44" y="558.1064">void creerMandat(Double prixV, Date venteV, Date debutV, Date finV, BienImmo bienV, Client vendeurV)</text><ellipse cx="2444.44" cy="568.9414" fill="#84BE84" rx="3" ry="3" style="stroke: #038048; stroke-width: 1.0;"/><text fill="#000000" font-family="sans-serif" font-size="11" lengthAdjust="spacingAndGlyphs" textLength="802" x="2453.44" y="571.9424">void creerPromesse(Double prixVerseVendeurV, Date venteV, Double commissionAgenceV, Double fraisVenteV, BienImmo bienV, Client acheteurV, Notaire notaireV)</text><ellipse cx="2444.44" cy="582.7773" fill="#84BE84" rx="3" ry="3" style="stroke: #038048; stroke-width: 1.0;"/><text fill="#000000" font-family="sans-serif" font-size="11" lengthAdjust="spacingAndGlyphs" textLength="235" x="2453.44" y="585.7783">void creerNotaire(String nomV, String adresseV)</text><ellipse cx="2444.44" cy="596.6133" fill="#84BE84" rx="3" ry="3" style="stroke: #038048; stroke-width: 1.0;"/><text fill="#000000" font-family="sans-serif" font-size="11" lengthAdjust="spacingAndGlyphs" textLength="82" x="2453.44" y="599.6143">String voirStats()</text><ellipse cx="2444.44" cy="610.4492" fill="#84BE84" rx="3" ry="3" style="stroke: #038048; stroke-width: 1.0;"/><text fill="#000000" font-family="sans-serif" font-size="11" lengthAdjust="spacingAndGlyphs" textLength="105" x="2453.44" y="613.4502">void creerDocument()</text><ellipse cx="2444.44" cy="624.2852" fill="#84BE84" rx="3" ry="3" style="stroke: #038048; stroke-width: 1.0;"/><text fill="#000000" font-family="sans-serif" font-size="11" lengthAdjust="spacingAndGlyphs" textLength="174" x="2453.44" y="627.2861">void addRdv(Date date, Client client)</text><!--class Mandat--><rect fill="#FEFECE" filter="url(#f16igj4nkth0f4)" height="200.1953" id="Mandat" style="stroke: #A80036; stroke-width: 1.5;" width="479" x="2835.44" y="712"/><ellipse cx="3050.69" cy="728" fill="#ADD1B2" rx="11" ry="11" style="stroke: #A80036; stroke-width: 1.0;"/><path d="M3053.4556,723.875 Q3053.6119,723.6563 3053.7994,723.5469 Q3053.9869,723.4375 3054.2056,723.4375 Q3054.5806,723.4375 3054.815,723.6953 Q3055.0494,723.9531 3055.0494,724.5625 L3055.0494,726.0156 Q3055.0494,726.625 3054.815,726.8906 Q3054.5806,727.1563 3054.2056,727.1563 Q3053.8619,727.1563 3053.6588,726.9531 Q3053.4556,726.7656 3053.3463,726.25 Q3053.2994,725.8906 3053.1119,725.7031 Q3052.7838,725.3281 3052.1744,725.1094 Q3051.565,724.8906 3050.94,724.8906 Q3050.1744,724.8906 3049.5416,725.2188 Q3048.9088,725.5469 3048.4166,726.2969 Q3047.9244,727.0469 3047.9244,728.0781 L3047.9244,729.1719 Q3047.9244,730.4063 3048.815,731.2266 Q3049.7056,732.0469 3051.2994,732.0469 Q3052.2369,732.0469 3052.8931,731.7969 Q3053.2838,731.6406 3053.7056,731.2031 Q3053.9713,730.9375 3054.1197,730.8594 Q3054.2681,730.7813 3054.4713,730.7813 Q3054.7994,730.7813 3055.0572,731.0391 Q3055.315,731.2969 3055.315,731.6406 Q3055.315,731.9844 3054.9713,732.3906 Q3054.4713,732.9688 3053.6744,733.2969 Q3052.5963,733.75 3051.2994,733.75 Q3049.7838,733.75 3048.5806,733.125 Q3047.5963,732.625 3046.9088,731.5547 Q3046.2213,730.4844 3046.2213,729.2031 L3046.2213,728.0469 Q3046.2213,726.7188 3046.8384,725.5703 Q3047.4556,724.4219 3048.5494,723.8047 Q3049.6431,723.1875 3050.8775,723.1875 Q3051.6119,723.1875 3052.2603,723.3516 Q3052.9088,723.5156 3053.4556,723.875 Z "/><text fill="#000000" font-family="sans-serif" font-size="12" lengthAdjust="spacingAndGlyphs" textLength="40" x="3071.19" y="732.9102">Mandat</text><line style="stroke: #A80036; stroke-width: 1.5;" x1="2836.44" x2="3313.44" y1="744" y2="744"/><rect fill="none" height="6" style="stroke: #C82930; stroke-width: 1.0;" width="6" x="2843.44" y="753.418"/><text fill="#000000" font-family="sans-serif" font-size="11" lengthAdjust="spacingAndGlyphs" textLength="54" x="2855.44" y="759.4189">Double prix</text><rect fill="none" height="6" style="stroke: #C82930; stroke-width: 1.0;" width="6" x="2843.44" y="767.2539"/><text fill="#000000" font-family="sans-serif" font-size="11" lengthAdjust="spacingAndGlyphs" textLength="52" x="2855.44" y="773.2549">Date vente</text><rect fill="none" height="6" style="stroke: #C82930; stroke-width: 1.0;" width="6" x="2843.44" y="781.0898"/><text fill="#000000" font-family="sans-serif" font-size="11" lengthAdjust="spacingAndGlyphs" textLength="52" x="2855.44" y="787.0908">Date debut</text><rect fill="none" height="6" style="stroke: #C82930; stroke-width: 1.0;" width="6" x="2843.44" y="794.9258"/><text fill="#000000" font-family="sans-serif" font-size="11" lengthAdjust="spacingAndGlyphs" textLength="37" x="2855.44" y="800.9268">Date fin</text><rect fill="none" height="6" style="stroke: #C82930; stroke-width: 1.0;" width="6" x="2843.44" y="808.7617"/><text fill="#000000" font-family="sans-serif" font-size="11" lengthAdjust="spacingAndGlyphs" textLength="68" x="2855.44" y="814.7627">BienImmo bien</text><rect fill="none" height="6" style="stroke: #C82930; stroke-width: 1.0;" width="6" x="2843.44" y="822.5977"/><text fill="#000000" font-family="sans-serif" font-size="11" lengthAdjust="spacingAndGlyphs" textLength="69" x="2855.44" y="828.5986">Client vendeur</text><rect fill="none" height="6" style="stroke: #C82930; stroke-width: 1.0;" width="6" x="2843.44" y="836.4336"/><text fill="#000000" font-family="sans-serif" font-size="11" lengthAdjust="spacingAndGlyphs" textLength="176" x="2855.44" y="842.4346">HashMap&lt;Date,Client&gt; listeRdvVisite</text><rect fill="none" height="6" style="stroke: #C82930; stroke-width: 1.0;" width="6" x="2843.44" y="850.2695"/><text fill="#000000" font-family="sans-serif" font-size="11" lengthAdjust="spacingAndGlyphs" textLength="191" x="2855.44" y="856.2705">HashMap&lt;Date,Client&gt; listeRdvVendeur</text><line style="stroke: #A80036; stroke-width: 1.5;" x1="2836.44" x2="3313.44" y1="862.6875" y2="862.6875"/><ellipse cx="2846.44" cy="875.1055" fill="#84BE84" rx="3" ry="3" style="stroke: #038048; stroke-width: 1.0;"/><text fill="#000000" font-family="sans-serif" font-size="11" lengthAdjust="spacingAndGlyphs" textLength="453" x="2855.44" y="878.1064">Mandat(Double prixV, Date venteV, Date debutV, Date finV, BienImmo bienV, Client vendeurV)</text><ellipse cx="2846.44" cy="888.9414" fill="#84BE84" rx="3" ry="3" style="stroke: #038048; stroke-width: 1.0;"/><text fill="#000000" font-family="sans-serif" font-size="11" lengthAdjust="spacingAndGlyphs" textLength="201" x="2855.44" y="891.9424">void addRdvVisite(Date date, Client client)</text><ellipse cx="2846.44" cy="902.7773" fill="#84BE84" rx="3" ry="3" style="stroke: #038048; stroke-width: 1.0;"/><text fill="#000000" font-family="sans-serif" font-size="11" lengthAdjust="spacingAndGlyphs" textLength="216" x="2855.44" y="905.7783">void addRdvVendeur(Date date, Client client)</text><!--class Promesse--><rect fill="#FEFECE" filter="url(#f16igj4nkth0f4)" height="186.3594" id="Promesse" style="stroke: #A80036; stroke-width: 1.5;" width="779" x="2433.44" y="990"/><ellipse cx="2789.69" cy="1006" fill="#ADD1B2" rx="11" ry="11" style="stroke: #A80036; stroke-width: 1.0;"/><path d="M2792.4556,1001.875 Q2792.6119,1001.6563 2792.7994,1001.5469 Q2792.9869,1001.4375 2793.2056,1001.4375 Q2793.5806,1001.4375 2793.815,1001.6953 Q2794.0494,1001.9531 2794.0494,1002.5625 L2794.0494,1004.0156 Q2794.0494,1004.625 2793.815,1004.8906 Q2793.5806,1005.1563 2793.2056,1005.1563 Q2792.8619,1005.1563 2792.6588,1004.9531 Q2792.4556,1004.7656 2792.3463,1004.25 Q2792.2994,1003.8906 2792.1119,1003.7031 Q2791.7838,1003.3281 2791.1744,1003.1094 Q2790.565,1002.8906 2789.94,1002.8906 Q2789.1744,1002.8906 2788.5416,1003.2188 Q2787.9088,1003.5469 2787.4166,1004.2969 Q2786.9244,1005.0469 2786.9244,1006.0781 L2786.9244,1007.1719 Q2786.9244,1008.4063 2787.815,1009.2266 Q2788.7056,1010.0469 2790.2994,1010.0469 Q2791.2369,1010.0469 2791.8931,1009.7969 Q2792.2838,1009.6406 2792.7056,1009.2031 Q2792.9713,1008.9375 2793.1197,1008.8594 Q2793.2681,1008.7813 2793.4713,1008.7813 Q2793.7994,1008.7813 2794.0572,1009.0391 Q2794.315,1009.2969 2794.315,1009.6406 Q2794.315,1009.9844 2793.9713,1010.3906 Q2793.4713,1010.9688 2792.6744,1011.2969 Q2791.5963,1011.75 2790.2994,1011.75 Q2788.7838,1011.75 2787.5806,1011.125 Q2786.5963,1010.625 2785.9088,1009.5547 Q2785.2213,1008.4844 2785.2213,1007.2031 L2785.2213,1006.0469 Q2785.2213,1004.7188 2785.8384,1003.5703 Q2786.4556,1002.4219 2787.5494,1001.8047 Q2788.6431,1001.1875 2789.8775,1001.1875 Q2790.6119,1001.1875 2791.2603,1001.3516 Q2791.9088,1001.5156 2792.4556,1001.875 Z "/><text fill="#000000" font-family="sans-serif" font-size="12" lengthAdjust="spacingAndGlyphs" textLength="58" x="2810.19" y="1010.9102">Promesse</text><line style="stroke: #A80036; stroke-width: 1.5;" x1="2434.44" x2="3211.44" y1="1022" y2="1022"/><rect fill="none" height="6" style="stroke: #C82930; stroke-width: 1.0;" width="6" x="2441.44" y="1031.418"/><text fill="#000000" font-family="sans-serif" font-size="11" lengthAdjust="spacingAndGlyphs" textLength="126" x="2453.44" y="1037.4189">Double prixVerseVendeur</text><rect fill="none" height="6" style="stroke: #C82930; stroke-width: 1.0;" width="6" x="2441.44" y="1045.2539"/><text fill="#000000" font-family="sans-serif" font-size="11" lengthAdjust="spacingAndGlyphs" textLength="52" x="2453.44" y="1051.2549">Date vente</text><rect fill="none" height="6" style="stroke: #C82930; stroke-width: 1.0;" width="6" x="2441.44" y="1059.0898"/><text fill="#000000" font-family="sans-serif" font-size="11" lengthAdjust="spacingAndGlyphs" textLength="130" x="2453.44" y="1065.0908">Double commissionAgence</text><rect fill="none" height="6" style="stroke: #C82930; stroke-width: 1.0;" width="6" x="2441.44" y="1072.9258"/><text fill="#000000" font-family="sans-serif" font-size="11" lengthAdjust="spacingAndGlyphs" textLength="87" x="2453.44" y="1078.9268">Double fraisVente</text><rect fill="none" height="6" style="stroke: #C82930; stroke-width: 1.0;" width="6" x="2441.44" y="1086.7617"/><text fill="#000000" font-family="sans-serif" font-size="11" lengthAdjust="spacingAndGlyphs" textLength="68" x="2453.44" y="1092.7627">BienImmo bien</text><rect fill="none" height="6" style="stroke: #C82930; stroke-width: 1.0;" width="6" x="2441.44" y="1100.5977"/><text fill="#000000" font-family="sans-serif" font-size="11" lengthAdjust="spacingAndGlyphs" textLength="72" x="2453.44" y="1106.5986">Client acheteur</text><rect fill="none" height="6" style="stroke: #C82930; stroke-width: 1.0;" width="6" x="2441.44" y="1114.4336"/><text fill="#000000" font-family="sans-serif" font-size="11" lengthAdjust="spacingAndGlyphs" textLength="70" x="2453.44" y="1120.4346">Notaire notaire</text><rect fill="none" height="6" style="stroke: #C82930; stroke-width: 1.0;" width="6" x="2441.44" y="1128.2695"/><text fill="#000000" font-family="sans-serif" font-size="11" lengthAdjust="spacingAndGlyphs" textLength="78" x="2453.44" y="1134.2705">boolean etatFinit</text><line style="stroke: #A80036; stroke-width: 1.5;" x1="2434.44" x2="3211.44" y1="1140.6875" y2="1140.6875"/><ellipse cx="2444.44" cy="1153.1055" fill="#84BE84" rx="3" ry="3" style="stroke: #038048; stroke-width: 1.0;"/><text fill="#000000" font-family="sans-serif" font-size="11" lengthAdjust="spacingAndGlyphs" textLength="753" x="2453.44" y="1156.1064">Promesse(Double prixVerseVendeurV, Date venteV, Double commissionAgenceV, Double fraisVenteV, BienImmo bienV, Client acheteurV, Notaire notaireV)</text><ellipse cx="2444.44" cy="1166.9414" fill="#84BE84" rx="3" ry="3" style="stroke: #038048; stroke-width: 1.0;"/><text fill="#000000" font-family="sans-serif" font-size="11" lengthAdjust="spacingAndGlyphs" textLength="109" x="2453.44" y="1169.9424">void signerPromesse()</text><!--class Notaire--><rect fill="#FEFECE" filter="url(#f16igj4nkth0f4)" height="103.3438" id="Notaire" style="stroke: #A80036; stroke-width: 1.5;" width="212" x="2587.94" y="760.5"/><ellipse cx="2669.69" cy="776.5" fill="#ADD1B2" rx="11" ry="11" style="stroke: #A80036; stroke-width: 1.0;"/><path d="M2672.4556,772.375 Q2672.6119,772.1563 2672.7994,772.0469 Q2672.9869,771.9375 2673.2056,771.9375 Q2673.5806,771.9375 2673.815,772.1953 Q2674.0494,772.4531 2674.0494,773.0625 L2674.0494,774.5156 Q2674.0494,775.125 2673.815,775.3906 Q2673.5806,775.6563 2673.2056,775.6563 Q2672.8619,775.6563 2672.6588,775.4531 Q2672.4556,775.2656 2672.3463,774.75 Q2672.2994,774.3906 2672.1119,774.2031 Q2671.7838,773.8281 2671.1744,773.6094 Q2670.565,773.3906 2669.94,773.3906 Q2669.1744,773.3906 2668.5416,773.7188 Q2667.9088,774.0469 2667.4166,774.7969 Q2666.9244,775.5469 2666.9244,776.5781 L2666.9244,777.6719 Q2666.9244,778.9063 2667.815,779.7266 Q2668.7056,780.5469 2670.2994,780.5469 Q2671.2369,780.5469 2671.8931,780.2969 Q2672.2838,780.1406 2672.7056,779.7031 Q2672.9713,779.4375 2673.1197,779.3594 Q2673.2681,779.2813 2673.4713,779.2813 Q2673.7994,779.2813 2674.0572,779.5391 Q2674.315,779.7969 2674.315,780.1406 Q2674.315,780.4844 2673.9713,780.8906 Q2673.4713,781.4688 2672.6744,781.7969 Q2671.5963,782.25 2670.2994,782.25 Q2668.7838,782.25 2667.5806,781.625 Q2666.5963,781.125 2665.9088,780.0547 Q2665.2213,778.9844 2665.2213,777.7031 L2665.2213,776.5469 Q2665.2213,775.2188 2665.8384,774.0703 Q2666.4556,772.9219 2667.5494,772.3047 Q2668.6431,771.6875 2669.8775,771.6875 Q2670.6119,771.6875 2671.2603,771.8516 Q2671.9088,772.0156 2672.4556,772.375 Z "/><text fill="#000000" font-family="sans-serif" font-size="12" lengthAdjust="spacingAndGlyphs" textLength="40" x="2690.19" y="781.4102">Notaire</text><line style="stroke: #A80036; stroke-width: 1.5;" x1="2588.94" x2="2798.94" y1="792.5" y2="792.5"/><rect fill="none" height="6" style="stroke: #C82930; stroke-width: 1.0;" width="6" x="2595.94" y="801.918"/><text fill="#000000" font-family="sans-serif" font-size="11" lengthAdjust="spacingAndGlyphs" textLength="51" x="2607.94" y="807.9189">String nom</text><rect fill="none" height="6" style="stroke: #C82930; stroke-width: 1.0;" width="6" x="2595.94" y="815.7539"/><text fill="#000000" font-family="sans-serif" font-size="11" lengthAdjust="spacingAndGlyphs" textLength="71" x="2607.94" y="821.7549">String adresse</text><line style="stroke: #A80036; stroke-width: 1.5;" x1="2588.94" x2="2798.94" y1="828.1719" y2="828.1719"/><ellipse cx="2598.94" cy="840.5898" fill="#84BE84" rx="3" ry="3" style="stroke: #038048; stroke-width: 1.0;"/><text fill="#000000" font-family="sans-serif" font-size="11" lengthAdjust="spacingAndGlyphs" textLength="186" x="2607.94" y="843.5908">Notaire(String nomV, String adresseV)</text><ellipse cx="2598.94" cy="854.4258" fill="#84BE84" rx="3" ry="3" style="stroke: #038048; stroke-width: 1.0;"/><text fill="#000000" font-family="sans-serif" font-size="11" lengthAdjust="spacingAndGlyphs" textLength="96" x="2607.94" y="857.4268">void verserArgent()</text><!--class AnnoncePub--><rect fill="#FEFECE" filter="url(#f16igj4nkth0f4)" height="75.6719" id="AnnoncePub" style="stroke: #A80036; stroke-width: 1.5;" width="192" x="2759.94" y="207"/><ellipse cx="2816.69" cy="223" fill="#ADD1B2" rx="11" ry="11" style="stroke: #A80036; stroke-width: 1.0;"/><path d="M2819.4556,218.875 Q2819.6119,218.6563 2819.7994,218.5469 Q2819.9869,218.4375 2820.2056,218.4375 Q2820.5806,218.4375 2820.815,218.6953 Q2821.0494,218.9531 2821.0494,219.5625 L2821.0494,221.0156 Q2821.0494,221.625 2820.815,221.8906 Q2820.5806,222.1563 2820.2056,222.1563 Q2819.8619,222.1563 2819.6588,221.9531 Q2819.4556,221.7656 2819.3463,221.25 Q2819.2994,220.8906 2819.1119,220.7031 Q2818.7838,220.3281 2818.1744,220.1094 Q2817.565,219.8906 2816.94,219.8906 Q2816.1744,219.8906 2815.5416,220.2188 Q2814.9088,220.5469 2814.4166,221.2969 Q2813.9244,222.0469 2813.9244,223.0781 L2813.9244,224.1719 Q2813.9244,225.4063 2814.815,226.2266 Q2815.7056,227.0469 2817.2994,227.0469 Q2818.2369,227.0469 2818.8931,226.7969 Q2819.2838,226.6406 2819.7056,226.2031 Q2819.9713,225.9375 2820.1197,225.8594 Q2820.2681,225.7813 2820.4713,225.7813 Q2820.7994,225.7813 2821.0572,226.0391 Q2821.315,226.2969 2821.315,226.6406 Q2821.315,226.9844 2820.9713,227.3906 Q2820.4713,227.9688 2819.6744,228.2969 Q2818.5963,228.75 2817.2994,228.75 Q2815.7838,228.75 2814.5806,228.125 Q2813.5963,227.625 2812.9088,226.5547 Q2812.2213,225.4844 2812.2213,224.2031 L2812.2213,223.0469 Q2812.2213,221.7188 2812.8384,220.5703 Q2813.4556,219.4219 2814.5494,218.8047 Q2815.6431,218.1875 2816.8775,218.1875 Q2817.6119,218.1875 2818.2603,218.3516 Q2818.9088,218.5156 2819.4556,218.875 Z "/><text fill="#000000" font-family="sans-serif" font-size="12" lengthAdjust="spacingAndGlyphs" textLength="70" x="2837.19" y="227.9102">AnnoncePub</text><line style="stroke: #A80036; stroke-width: 1.5;" x1="2760.94" x2="2950.94" y1="239" y2="239"/><line style="stroke: #A80036; stroke-width: 1.5;" x1="2760.94" x2="2950.94" y1="247" y2="247"/><ellipse cx="2770.94" cy="259.418" fill="#84BE84" rx="3" ry="3" style="stroke: #038048; stroke-width: 1.0;"/><text fill="#000000" font-family="sans-serif" font-size="11" lengthAdjust="spacingAndGlyphs" textLength="70" x="2779.94" y="262.4189">AnnoncePub()</text><ellipse cx="2770.94" cy="273.2539" fill="#84BE84" rx="3" ry="3" style="stroke: #038048; stroke-width: 1.0;"/><text fill="#000000" font-family="sans-serif" font-size="11" lengthAdjust="spacingAndGlyphs" textLength="166" x="2779.94" y="276.2549">void ajouterPub(TypePub typePub)</text><!--class TypePub--><rect fill="#FEFECE" filter="url(#f16igj4nkth0f4)" height="61.8359" id="TypePub" style="stroke: #A80036; stroke-width: 1.5;" width="102" x="3186.94" y="60"/><ellipse cx="3210.94" cy="76" fill="#A9DCDF" rx="11" ry="11" style="stroke: #A80036; stroke-width: 1.0;"/><path d="M3213.1275,77.7656 L3208.9869,77.7656 L3208.565,78.7969 L3208.9869,78.7969 Q3209.5963,78.7969 3209.8619,79.0313 Q3210.1275,79.2656 3210.1275,79.6563 Q3210.1275,80.0313 3209.8619,80.2656 Q3209.5963,80.5 3208.9869,80.5 L3206.69,80.5 Q3206.0806,80.5 3205.8228,80.2656 Q3205.565,80.0313 3205.565,79.6406 Q3205.565,79.2656 3205.8384,79.0234 Q3206.1119,78.7813 3206.7369,78.7969 L3209.4088,72.1406 L3208.2994,72.1406 Q3207.69,72.1406 3207.4244,71.9063 Q3207.1588,71.6719 3207.1588,71.2813 Q3207.1588,70.9063 3207.4244,70.6719 Q3207.69,70.4375 3208.2994,70.4375 L3211.9713,70.4375 L3215.3619,78.7969 Q3215.9556,78.7969 3216.1431,78.9375 Q3216.5338,79.2031 3216.5338,79.6563 Q3216.5338,80.0313 3216.2759,80.2656 Q3216.0181,80.5 3215.4088,80.5 L3213.1119,80.5 Q3212.5025,80.5 3212.2369,80.2656 Q3211.9713,80.0313 3211.9713,79.6406 Q3211.9713,79.2656 3212.2369,79.0313 Q3212.5025,78.7969 3213.1119,78.7969 L3213.5338,78.7969 L3213.1275,77.7656 Z M3212.4088,76.0625 L3211.0494,72.6875 L3209.6744,76.0625 L3212.4088,76.0625 Z "/><text fill="#000000" font-family="sans-serif" font-size="12" font-style="italic" lengthAdjust="spacingAndGlyphs" textLength="50" x="3226.94" y="80.9102">TypePub</text><line style="stroke: #A80036; stroke-width: 1.5;" x1="3187.94" x2="3287.94" y1="92" y2="92"/><line style="stroke: #A80036; stroke-width: 1.5;" x1="3187.94" x2="3287.94" y1="100" y2="100"/><ellipse cx="3197.94" cy="112.418" fill="#84BE84" rx="3" ry="3" style="stroke: #038048; stroke-width: 1.0;"/><text fill="#000000" font-family="sans-serif" font-size="11" lengthAdjust="spacingAndGlyphs" textLength="76" x="3206.94" y="115.4189">String getElem()</text><!--class TypeTexte--><rect fill="#FEFECE" filter="url(#f16igj4nkth0f4)" height="89.5078" id="TypeTexte" style="stroke: #A80036; stroke-width: 1.5;" width="148" x="2986.94" y="200"/><ellipse cx="3029.39" cy="216" fill="#ADD1B2" rx="11" ry="11" style="stroke: #A80036; stroke-width: 1.0;"/><path d="M3032.1556,211.875 Q3032.3119,211.6563 3032.4994,211.5469 Q3032.6869,211.4375 3032.9056,211.4375 Q3033.2806,211.4375 3033.515,211.6953 Q3033.7494,211.9531 3033.7494,212.5625 L3033.7494,214.0156 Q3033.7494,214.625 3033.515,214.8906 Q3033.2806,215.1563 3032.9056,215.1563 Q3032.5619,215.1563 3032.3588,214.9531 Q3032.1556,214.7656 3032.0463,214.25 Q3031.9994,213.8906 3031.8119,213.7031 Q3031.4838,213.3281 3030.8744,213.1094 Q3030.265,212.8906 3029.64,212.8906 Q3028.8744,212.8906 3028.2416,213.2188 Q3027.6088,213.5469 3027.1166,214.2969 Q3026.6244,215.0469 3026.6244,216.0781 L3026.6244,217.1719 Q3026.6244,218.4063 3027.515,219.2266 Q3028.4056,220.0469 3029.9994,220.0469 Q3030.9369,220.0469 3031.5931,219.7969 Q3031.9838,219.6406 3032.4056,219.2031 Q3032.6713,218.9375 3032.8197,218.8594 Q3032.9681,218.7813 3033.1713,218.7813 Q3033.4994,218.7813 3033.7572,219.0391 Q3034.015,219.2969 3034.015,219.6406 Q3034.015,219.9844 3033.6713,220.3906 Q3033.1713,220.9688 3032.3744,221.2969 Q3031.2963,221.75 3029.9994,221.75 Q3028.4838,221.75 3027.2806,221.125 Q3026.2963,220.625 3025.6088,219.5547 Q3024.9213,218.4844 3024.9213,217.2031 L3024.9213,216.0469 Q3024.9213,214.7188 3025.5384,213.5703 Q3026.1556,212.4219 3027.2494,211.8047 Q3028.3431,211.1875 3029.5775,211.1875 Q3030.3119,211.1875 3030.9603,211.3516 Q3031.6088,211.5156 3032.1556,211.875 Z "/><text fill="#000000" font-family="sans-serif" font-size="12" lengthAdjust="spacingAndGlyphs" textLength="55" x="3049.49" y="220.9102">TypeTexte</text><line style="stroke: #A80036; stroke-width: 1.5;" x1="2987.94" x2="3133.94" y1="232" y2="232"/><rect fill="none" height="6" style="stroke: #C82930; stroke-width: 1.0;" width="6" x="2994.94" y="241.418"/><text fill="#000000" font-family="sans-serif" font-size="11" lengthAdjust="spacingAndGlyphs" textLength="55" x="3006.94" y="247.4189">String texte</text><line style="stroke: #A80036; stroke-width: 1.5;" x1="2987.94" x2="3133.94" y1="253.8359" y2="253.8359"/><ellipse cx="2997.94" cy="266.2539" fill="#84BE84" rx="3" ry="3" style="stroke: #038048; stroke-width: 1.0;"/><text fill="#000000" font-family="sans-serif" font-size="11" lengthAdjust="spacingAndGlyphs" textLength="122" x="3006.94" y="269.2549">TypeTexte(String texteV)</text><ellipse cx="2997.94" cy="280.0898" fill="#84BE84" rx="3" ry="3" style="stroke: #038048; stroke-width: 1.0;"/><text fill="#000000" font-family="sans-serif" font-size="11" lengthAdjust="spacingAndGlyphs" textLength="76" x="3006.94" y="283.0908">String getElem()</text><!--class TypeHtml--><rect fill="#FEFECE" filter="url(#f16igj4nkth0f4)" height="89.5078" id="TypeHtml" style="stroke: #A80036; stroke-width: 1.5;" width="136" x="3169.94" y="200"/><ellipse cx="3208.34" cy="216" fill="#ADD1B2" rx="11" ry="11" style="stroke: #A80036; stroke-width: 1.0;"/><path d="M3211.1056,211.875 Q3211.2619,211.6563 3211.4494,211.5469 Q3211.6369,211.4375 3211.8556,211.4375 Q3212.2306,211.4375 3212.465,211.6953 Q3212.6994,211.9531 3212.6994,212.5625 L3212.6994,214.0156 Q3212.6994,214.625 3212.465,214.8906 Q3212.2306,215.1563 3211.8556,215.1563 Q3211.5119,215.1563 3211.3088,214.9531 Q3211.1056,214.7656 3210.9963,214.25 Q3210.9494,213.8906 3210.7619,213.7031 Q3210.4338,213.3281 3209.8244,213.1094 Q3209.215,212.8906 3208.59,212.8906 Q3207.8244,212.8906 3207.1916,213.2188 Q3206.5588,213.5469 3206.0666,214.2969 Q3205.5744,215.0469 3205.5744,216.0781 L3205.5744,217.1719 Q3205.5744,218.4063 3206.465,219.2266 Q3207.3556,220.0469 3208.9494,220.0469 Q3209.8869,220.0469 3210.5431,219.7969 Q3210.9338,219.6406 3211.3556,219.2031 Q3211.6213,218.9375 3211.7697,218.8594 Q3211.9181,218.7813 3212.1213,218.7813 Q3212.4494,218.7813 3212.7072,219.0391 Q3212.965,219.2969 3212.965,219.6406 Q3212.965,219.9844 3212.6213,220.3906 Q3212.1213,220.9688 3211.3244,221.2969 Q3210.2463,221.75 3208.9494,221.75 Q3207.4338,221.75 3206.2306,221.125 Q3205.2463,220.625 3204.5588,219.5547 Q3203.8713,218.4844 3203.8713,217.2031 L3203.8713,216.0469 Q3203.8713,214.7188 3204.4884,213.5703 Q3205.1056,212.4219 3206.1994,211.8047 Q3207.2931,211.1875 3208.5275,211.1875 Q3209.2619,211.1875 3209.9103,211.3516 Q3210.5588,211.5156 3211.1056,211.875 Z "/><text fill="#000000" font-family="sans-serif" font-size="12" lengthAdjust="spacingAndGlyphs" textLength="52" x="3227.54" y="220.9102">TypeHtml</text><line style="stroke: #A80036; stroke-width: 1.5;" x1="3170.94" x2="3304.94" y1="232" y2="232"/><rect fill="none" height="6" style="stroke: #C82930; stroke-width: 1.0;" width="6" x="3177.94" y="241.418"/><text fill="#000000" font-family="sans-serif" font-size="11" lengthAdjust="spacingAndGlyphs" textLength="50" x="3189.94" y="247.4189">String html</text><line style="stroke: #A80036; stroke-width: 1.5;" x1="3170.94" x2="3304.94" y1="253.8359" y2="253.8359"/><ellipse cx="3180.94" cy="266.2539" fill="#84BE84" rx="3" ry="3" style="stroke: #038048; stroke-width: 1.0;"/><text fill="#000000" font-family="sans-serif" font-size="11" lengthAdjust="spacingAndGlyphs" textLength="110" x="3189.94" y="269.2549">TypeHtml(String htmlV)</text><ellipse cx="3180.94" cy="280.0898" fill="#84BE84" rx="3" ry="3" style="stroke: #038048; stroke-width: 1.0;"/><text fill="#000000" font-family="sans-serif" font-size="11" lengthAdjust="spacingAndGlyphs" textLength="76" x="3189.94" y="283.0908">String getElem()</text><!--class TypeImg--><rect fill="#FEFECE" filter="url(#f16igj4nkth0f4)" height="89.5078" id="TypeImg" style="stroke: #A80036; stroke-width: 1.5;" width="129" x="3341.44" y="200"/><ellipse cx="3378.94" cy="216" fill="#ADD1B2" rx="11" ry="11" style="stroke: #A80036; stroke-width: 1.0;"/><path d="M3381.7056,211.875 Q3381.8619,211.6563 3382.0494,211.5469 Q3382.2369,211.4375 3382.4556,211.4375 Q3382.8306,211.4375 3383.065,211.6953 Q3383.2994,211.9531 3383.2994,212.5625 L3383.2994,214.0156 Q3383.2994,214.625 3383.065,214.8906 Q3382.8306,215.1563 3382.4556,215.1563 Q3382.1119,215.1563 3381.9088,214.9531 Q3381.7056,214.7656 3381.5963,214.25 Q3381.5494,213.8906 3381.3619,213.7031 Q3381.0338,213.3281 3380.4244,213.1094 Q3379.815,212.8906 3379.19,212.8906 Q3378.4244,212.8906 3377.7916,213.2188 Q3377.1588,213.5469 3376.6666,214.2969 Q3376.1744,215.0469 3376.1744,216.0781 L3376.1744,217.1719 Q3376.1744,218.4063 3377.065,219.2266 Q3377.9556,220.0469 3379.5494,220.0469 Q3380.4869,220.0469 3381.1431,219.7969 Q3381.5338,219.6406 3381.9556,219.2031 Q3382.2213,218.9375 3382.3697,218.8594 Q3382.5181,218.7813 3382.7213,218.7813 Q3383.0494,218.7813 3383.3072,219.0391 Q3383.565,219.2969 3383.565,219.6406 Q3383.565,219.9844 3383.2213,220.3906 Q3382.7213,220.9688 3381.9244,221.2969 Q3380.8463,221.75 3379.5494,221.75 Q3378.0338,221.75 3376.8306,221.125 Q3375.8463,220.625 3375.1588,219.5547 Q3374.4713,218.4844 3374.4713,217.2031 L3374.4713,216.0469 Q3374.4713,214.7188 3375.0884,213.5703 Q3375.7056,212.4219 3376.7994,211.8047 Q3377.8931,211.1875 3379.1275,211.1875 Q3379.8619,211.1875 3380.5103,211.3516 Q3381.1588,211.5156 3381.7056,211.875 Z "/><text fill="#000000" font-family="sans-serif" font-size="12" lengthAdjust="spacingAndGlyphs" textLength="47" x="3397.94" y="220.9102">TypeImg</text><line style="stroke: #A80036; stroke-width: 1.5;" x1="3342.44" x2="3469.44" y1="232" y2="232"/><rect fill="none" height="6" style="stroke: #C82930; stroke-width: 1.0;" width="6" x="3349.44" y="241.418"/><text fill="#000000" font-family="sans-serif" font-size="11" lengthAdjust="spacingAndGlyphs" textLength="47" x="3361.44" y="247.4189">String img</text><line style="stroke: #A80036; stroke-width: 1.5;" x1="3342.44" x2="3469.44" y1="253.8359" y2="253.8359"/><ellipse cx="3352.44" cy="266.2539" fill="#84BE84" rx="3" ry="3" style="stroke: #038048; stroke-width: 1.0;"/><text fill="#000000" font-family="sans-serif" font-size="11" lengthAdjust="spacingAndGlyphs" textLength="103" x="3361.44" y="269.2549">TypeImg(String imgV)</text><ellipse cx="3352.44" cy="280.0898" fill="#84BE84" rx="3" ry="3" style="stroke: #038048; stroke-width: 1.0;"/><text fill="#000000" font-family="sans-serif" font-size="11" lengthAdjust="spacingAndGlyphs" textLength="76" x="3361.44" y="283.0908">String getElem()</text><!--class TypeVid--><rect fill="#FEFECE" filter="url(#f16igj4nkth0f4)" height="89.5078" id="TypeVid" style="stroke: #A80036; stroke-width: 1.5;" width="127" x="3505.44" y="200"/><ellipse cx="3543.84" cy="216" fill="#ADD1B2" rx="11" ry="11" style="stroke: #A80036; stroke-width: 1.0;"/><path d="M3546.6056,211.875 Q3546.7619,211.6563 3546.9494,211.5469 Q3547.1369,211.4375 3547.3556,211.4375 Q3547.7306,211.4375 3547.965,211.6953 Q3548.1994,211.9531 3548.1994,212.5625 L3548.1994,214.0156 Q3548.1994,214.625 3547.965,214.8906 Q3547.7306,215.1563 3547.3556,215.1563 Q3547.0119,215.1563 3546.8088,214.9531 Q3546.6056,214.7656 3546.4963,214.25 Q3546.4494,213.8906 3546.2619,213.7031 Q3545.9338,213.3281 3545.3244,213.1094 Q3544.715,212.8906 3544.09,212.8906 Q3543.3244,212.8906 3542.6916,213.2188 Q3542.0588,213.5469 3541.5666,214.2969 Q3541.0744,215.0469 3541.0744,216.0781 L3541.0744,217.1719 Q3541.0744,218.4063 3541.965,219.2266 Q3542.8556,220.0469 3544.4494,220.0469 Q3545.3869,220.0469 3546.0431,219.7969 Q3546.4338,219.6406 3546.8556,219.2031 Q3547.1213,218.9375 3547.2697,218.8594 Q3547.4181,218.7813 3547.6213,218.7813 Q3547.9494,218.7813 3548.2072,219.0391 Q3548.465,219.2969 3548.465,219.6406 Q3548.465,219.9844 3548.1213,220.3906 Q3547.6213,220.9688 3546.8244,221.2969 Q3545.7463,221.75 3544.4494,221.75 Q3542.9338,221.75 3541.7306,221.125 Q3540.7463,220.625 3540.0588,219.5547 Q3539.3713,218.4844 3539.3713,217.2031 L3539.3713,216.0469 Q3539.3713,214.7188 3539.9884,213.5703 Q3540.6056,212.4219 3541.6994,211.8047 Q3542.7931,211.1875 3544.0275,211.1875 Q3544.7619,211.1875 3545.4103,211.3516 Q3546.0588,211.5156 3546.6056,211.875 Z "/><text fill="#000000" font-family="sans-serif" font-size="12" lengthAdjust="spacingAndGlyphs" textLength="43" x="3563.04" y="220.9102">TypeVid</text><line style="stroke: #A80036; stroke-width: 1.5;" x1="3506.44" x2="3631.44" y1="232" y2="232"/><rect fill="none" height="6" style="stroke: #C82930; stroke-width: 1.0;" width="6" x="3513.44" y="241.418"/><text fill="#000000" font-family="sans-serif" font-size="11" lengthAdjust="spacingAndGlyphs" textLength="45" x="3525.44" y="247.4189">String vid</text><line style="stroke: #A80036; stroke-width: 1.5;" x1="3506.44" x2="3631.44" y1="253.8359" y2="253.8359"/><ellipse cx="3516.44" cy="266.2539" fill="#84BE84" rx="3" ry="3" style="stroke: #038048; stroke-width: 1.0;"/><text fill="#000000" font-family="sans-serif" font-size="11" lengthAdjust="spacingAndGlyphs" textLength="101" x="3525.44" y="269.2549">TypeVid(String vidV)</text><ellipse cx="3516.44" cy="280.0898" fill="#84BE84" rx="3" ry="3" style="stroke: #038048; stroke-width: 1.0;"/><text fill="#000000" font-family="sans-serif" font-size="11" lengthAdjust="spacingAndGlyphs" textLength="76" x="3525.44" y="283.0908">String getElem()</text><!--class BienImmo--><rect fill="#FEFECE" filter="url(#f16igj4nkth0f4)" height="172.5234" id="BienImmo" style="stroke: #A80036; stroke-width: 1.5;" width="435" x="1395.44" y="426.5"/><ellipse cx="1579.69" cy="442.5" fill="#A9DCDF" rx="11" ry="11" style="stroke: #A80036; stroke-width: 1.0;"/><path d="M1581.8775,444.2656 L1577.7369,444.2656 L1577.315,445.2969 L1577.7369,445.2969 Q1578.3463,445.2969 1578.6119,445.5313 Q1578.8775,445.7656 1578.8775,446.1563 Q1578.8775,446.5313 1578.6119,446.7656 Q1578.3463,447 1577.7369,447 L1575.44,447 Q1574.8306,447 1574.5728,446.7656 Q1574.315,446.5313 1574.315,446.1406 Q1574.315,445.7656 1574.5884,445.5234 Q1574.8619,445.2813 1575.4869,445.2969 L1578.1588,438.6406 L1577.0494,438.6406 Q1576.44,438.6406 1576.1744,438.4063 Q1575.9088,438.1719 1575.9088,437.7813 Q1575.9088,437.4063 1576.1744,437.1719 Q1576.44,436.9375 1577.0494,436.9375 L1580.7213,436.9375 L1584.1119,445.2969 Q1584.7056,445.2969 1584.8931,445.4375 Q1585.2838,445.7031 1585.2838,446.1563 Q1585.2838,446.5313 1585.0259,446.7656 Q1584.7681,447 1584.1588,447 L1581.8619,447 Q1581.2525,447 1580.9869,446.7656 Q1580.7213,446.5313 1580.7213,446.1406 Q1580.7213,445.7656 1580.9869,445.5313 Q1581.2525,445.2969 1581.8619,445.2969 L1582.2838,445.2969 L1581.8775,444.2656 Z M1581.1588,442.5625 L1579.7994,439.1875 L1578.4244,442.5625 L1581.1588,442.5625 Z "/><text fill="#000000" font-family="sans-serif" font-size="12" font-style="italic" lengthAdjust="spacingAndGlyphs" textLength="58" x="1600.19" y="447.4102">BienImmo</text><line style="stroke: #A80036; stroke-width: 1.5;" x1="1396.44" x2="1829.44" y1="458.5" y2="458.5"/><rect fill="none" height="6" style="stroke: #C82930; stroke-width: 1.0;" width="6" x="1403.44" y="467.918"/><text fill="#000000" font-family="sans-serif" font-size="11" lengthAdjust="spacingAndGlyphs" textLength="34" x="1415.44" y="473.9189">int num</text><rect fill="none" height="6" style="stroke: #C82930; stroke-width: 1.0;" width="6" x="1403.44" y="481.7539"/><text fill="#000000" font-family="sans-serif" font-size="11" lengthAdjust="spacingAndGlyphs" textLength="71" x="1415.44" y="487.7549">String adresse</text><rect fill="none" height="6" style="stroke: #C82930; stroke-width: 1.0;" width="6" x="1403.44" y="495.5898"/><text fill="#000000" font-family="sans-serif" font-size="11" lengthAdjust="spacingAndGlyphs" textLength="81" x="1415.44" y="501.5908">String orientation</text><rect fill="none" height="6" style="stroke: #C82930; stroke-width: 1.0;" width="6" x="1403.44" y="509.4258"/><text fill="#000000" font-family="sans-serif" font-size="11" lengthAdjust="spacingAndGlyphs" textLength="54" x="1415.44" y="515.4268">Double prix</text><rect fill="none" height="6" style="stroke: #C82930; stroke-width: 1.0;" width="6" x="1403.44" y="523.2617"/><text fill="#000000" font-family="sans-serif" font-size="11" lengthAdjust="spacingAndGlyphs" textLength="52" x="1415.44" y="529.2627">Date vente</text><rect fill="none" height="6" style="stroke: #C82930; stroke-width: 1.0;" width="6" x="1403.44" y="537.0977"/><text fill="#000000" font-family="sans-serif" font-size="11" lengthAdjust="spacingAndGlyphs" textLength="108" x="1415.44" y="543.0986">ArrayList&lt;Date&gt; dispo</text><line style="stroke: #A80036; stroke-width: 1.5;" x1="1396.44" x2="1829.44" y1="549.5156" y2="549.5156"/><ellipse cx="1406.44" cy="561.9336" fill="#84BE84" rx="3" ry="3" style="stroke: #038048; stroke-width: 1.0;"/><text fill="#000000" font-family="sans-serif" font-size="11" lengthAdjust="spacingAndGlyphs" textLength="409" x="1415.44" y="564.9346">BienImmo(int numV, String adresseV, String orientationV, Double prixV, Date venteV)</text><ellipse cx="1406.44" cy="575.7695" fill="#84BE84" rx="3" ry="3" style="stroke: #038048; stroke-width: 1.0;"/><text fill="#000000" font-family="sans-serif" font-size="11" lengthAdjust="spacingAndGlyphs" textLength="179" x="1415.44" y="578.7705">Double correspondance(Envie envie)</text><ellipse cx="1406.44" cy="589.6055" fill="#84BE84" rx="3" ry="3" style="stroke: #038048; stroke-width: 1.0;"/><text fill="#000000" font-family="sans-serif" font-size="11" lengthAdjust="spacingAndGlyphs" textLength="135" x="1415.44" y="592.6064">void addDispo(Date dispoV)</text><!--class Terrain--><rect fill="#FEFECE" filter="url(#f16igj4nkth0f4)" height="103.3438" id="Terrain" style="stroke: #A80036; stroke-width: 1.5;" width="655" x="94.4424" y="760.5"/><ellipse cx="398.1924" cy="776.5" fill="#ADD1B2" rx="11" ry="11" style="stroke: #A80036; stroke-width: 1.0;"/><path d="M400.958,772.375 Q401.1143,772.1563 401.3018,772.0469 Q401.4893,771.9375 401.708,771.9375 Q402.083,771.9375 402.3174,772.1953 Q402.5518,772.4531 402.5518,773.0625 L402.5518,774.5156 Q402.5518,775.125 402.3174,775.3906 Q402.083,775.6563 401.708,775.6563 Q401.3643,775.6563 401.1612,775.4531 Q400.958,775.2656 400.8487,774.75 Q400.8018,774.3906 400.6143,774.2031 Q400.2862,773.8281 399.6768,773.6094 Q399.0674,773.3906 398.4424,773.3906 Q397.6768,773.3906 397.044,773.7188 Q396.4112,774.0469 395.919,774.7969 Q395.4268,775.5469 395.4268,776.5781 L395.4268,777.6719 Q395.4268,778.9063 396.3174,779.7266 Q397.208,780.5469 398.8018,780.5469 Q399.7393,780.5469 400.3955,780.2969 Q400.7862,780.1406 401.208,779.7031 Q401.4737,779.4375 401.6221,779.3594 Q401.7705,779.2813 401.9737,779.2813 Q402.3018,779.2813 402.5596,779.5391 Q402.8174,779.7969 402.8174,780.1406 Q402.8174,780.4844 402.4737,780.8906 Q401.9737,781.4688 401.1768,781.7969 Q400.0987,782.25 398.8018,782.25 Q397.2862,782.25 396.083,781.625 Q395.0987,781.125 394.4112,780.0547 Q393.7237,778.9844 393.7237,777.7031 L393.7237,776.5469 Q393.7237,775.2188 394.3408,774.0703 Q394.958,772.9219 396.0518,772.3047 Q397.1455,771.6875 398.3799,771.6875 Q399.1143,771.6875 399.7627,771.8516 Q400.4112,772.0156 400.958,772.375 Z "/><text fill="#000000" font-family="sans-serif" font-size="12" lengthAdjust="spacingAndGlyphs" textLength="39" x="418.6924" y="781.4102">Terrain</text><line style="stroke: #A80036; stroke-width: 1.5;" x1="95.4424" x2="748.4424" y1="792.5" y2="792.5"/><rect fill="none" height="6" style="stroke: #C82930; stroke-width: 1.0;" width="6" x="102.4424" y="801.918"/><text fill="#000000" font-family="sans-serif" font-size="11" lengthAdjust="spacingAndGlyphs" textLength="89" x="114.4424" y="807.9189">Double surfaceSol</text><rect fill="none" height="6" style="stroke: #C82930; stroke-width: 1.0;" width="6" x="102.4424" y="815.7539"/><text fill="#000000" font-family="sans-serif" font-size="11" lengthAdjust="spacingAndGlyphs" textLength="114" x="114.4424" y="821.7549">Double longueurFacade</text><line style="stroke: #A80036; stroke-width: 1.5;" x1="95.4424" x2="748.4424" y1="828.1719" y2="828.1719"/><ellipse cx="105.4424" cy="840.5898" fill="#84BE84" rx="3" ry="3" style="stroke: #038048; stroke-width: 1.0;"/><text fill="#000000" font-family="sans-serif" font-size="11" lengthAdjust="spacingAndGlyphs" textLength="629" x="114.4424" y="843.5908">Terrain(int numV, String adresseV, String orientationV, Double prixV, Date venteV, Double surfaceSolV, Double longueurFacadeV)</text><ellipse cx="105.4424" cy="854.4258" fill="#84BE84" rx="3" ry="3" style="stroke: #038048; stroke-width: 1.0;"/><text fill="#000000" font-family="sans-serif" font-size="11" lengthAdjust="spacingAndGlyphs" textLength="179" x="114.4424" y="857.4268">Double correspondance(Envie envie)</text><!--class Maison--><rect fill="#FEFECE" filter="url(#f16igj4nkth0f4)" height="144.8516" id="Maison" style="stroke: #A80036; stroke-width: 1.5;" width="796" x="821.942" y="739.5"/><ellipse cx="1195.692" cy="755.5" fill="#ADD1B2" rx="11" ry="11" style="stroke: #A80036; stroke-width: 1.0;"/><path d="M1198.4576,751.375 Q1198.6139,751.1563 1198.8014,751.0469 Q1198.9889,750.9375 1199.2076,750.9375 Q1199.5826,750.9375 1199.817,751.1953 Q1200.0514,751.4531 1200.0514,752.0625 L1200.0514,753.5156 Q1200.0514,754.125 1199.817,754.3906 Q1199.5826,754.6563 1199.2076,754.6563 Q1198.8639,754.6563 1198.6608,754.4531 Q1198.4576,754.2656 1198.3483,753.75 Q1198.3014,753.3906 1198.1139,753.2031 Q1197.7858,752.8281 1197.1764,752.6094 Q1196.567,752.3906 1195.942,752.3906 Q1195.1764,752.3906 1194.5436,752.7188 Q1193.9108,753.0469 1193.4186,753.7969 Q1192.9264,754.5469 1192.9264,755.5781 L1192.9264,756.6719 Q1192.9264,757.9063 1193.817,758.7266 Q1194.7076,759.5469 1196.3014,759.5469 Q1197.2389,759.5469 1197.8951,759.2969 Q1198.2858,759.1406 1198.7076,758.7031 Q1198.9733,758.4375 1199.1217,758.3594 Q1199.2701,758.2813 1199.4733,758.2813 Q1199.8014,758.2813 1200.0592,758.5391 Q1200.317,758.7969 1200.317,759.1406 Q1200.317,759.4844 1199.9733,759.8906 Q1199.4733,760.4688 1198.6764,760.7969 Q1197.5983,761.25 1196.3014,761.25 Q1194.7858,761.25 1193.5826,760.625 Q1192.5983,760.125 1191.9108,759.0547 Q1191.2233,757.9844 1191.2233,756.7031 L1191.2233,755.5469 Q1191.2233,754.2188 1191.8404,753.0703 Q1192.4576,751.9219 1193.5514,751.3047 Q1194.6451,750.6875 1195.8795,750.6875 Q1196.6139,750.6875 1197.2623,750.8516 Q1197.9108,751.0156 1198.4576,751.375 Z "/><text fill="#000000" font-family="sans-serif" font-size="12" lengthAdjust="spacingAndGlyphs" textLength="40" x="1216.192" y="760.4102">Maison</text><line style="stroke: #A80036; stroke-width: 1.5;" x1="822.942" x2="1616.942" y1="771.5" y2="771.5"/><rect fill="none" height="6" style="stroke: #C82930; stroke-width: 1.0;" width="6" x="829.942" y="780.918"/><text fill="#000000" font-family="sans-serif" font-size="11" lengthAdjust="spacingAndGlyphs" textLength="118" x="841.942" y="786.9189">Double surfaceHabitable</text><rect fill="none" height="6" style="stroke: #C82930; stroke-width: 1.0;" width="6" x="829.942" y="794.7539"/><text fill="#000000" font-family="sans-serif" font-size="11" lengthAdjust="spacingAndGlyphs" textLength="58" x="841.942" y="800.7549">int nbPieces</text><rect fill="none" height="6" style="stroke: #C82930; stroke-width: 1.0;" width="6" x="829.942" y="808.5898"/><text fill="#000000" font-family="sans-serif" font-size="11" lengthAdjust="spacingAndGlyphs" textLength="59" x="841.942" y="814.5908">int nbEtages</text><rect fill="none" height="6" style="stroke: #C82930; stroke-width: 1.0;" width="6" x="829.942" y="822.4258"/><text fill="#000000" font-family="sans-serif" font-size="11" lengthAdjust="spacingAndGlyphs" textLength="81" x="841.942" y="828.4268">String chauffage</text><rect fill="none" height="6" style="stroke: #C82930; stroke-width: 1.0;" width="6" x="829.942" y="836.2617"/><text fill="#000000" font-family="sans-serif" font-size="11" lengthAdjust="spacingAndGlyphs" textLength="68" x="841.942" y="842.2627">Terrain terrain</text><line style="stroke: #A80036; stroke-width: 1.5;" x1="822.942" x2="1616.942" y1="848.6797" y2="848.6797"/><ellipse cx="832.942" cy="861.0977" fill="#84BE84" rx="3" ry="3" style="stroke: #038048; stroke-width: 1.0;"/><text fill="#000000" font-family="sans-serif" font-size="11" lengthAdjust="spacingAndGlyphs" textLength="770" x="841.942" y="864.0986">Maison(int numV, String adresseV, String orientationV, Double prixV, Date venteV, Double surfaceHabitableV, int nbPiecesV, int nbEtagesV, String chauffageV)</text><ellipse cx="832.942" cy="874.9336" fill="#84BE84" rx="3" ry="3" style="stroke: #038048; stroke-width: 1.0;"/><text fill="#000000" font-family="sans-serif" font-size="11" lengthAdjust="spacingAndGlyphs" textLength="179" x="841.942" y="877.9346">Double correspondance(Envie envie)</text><!--class Appartement--><rect fill="#FEFECE" filter="url(#f16igj4nkth0f4)" height="117.1797" id="Appartement" style="stroke: #A80036; stroke-width: 1.5;" width="723" x="1653.44" y="753.5"/><ellipse cx="1975.69" cy="769.5" fill="#ADD1B2" rx="11" ry="11" style="stroke: #A80036; stroke-width: 1.0;"/><path d="M1978.4556,765.375 Q1978.6119,765.1563 1978.7994,765.0469 Q1978.9869,764.9375 1979.2056,764.9375 Q1979.5806,764.9375 1979.815,765.1953 Q1980.0494,765.4531 1980.0494,766.0625 L1980.0494,767.5156 Q1980.0494,768.125 1979.815,768.3906 Q1979.5806,768.6563 1979.2056,768.6563 Q1978.8619,768.6563 1978.6588,768.4531 Q1978.4556,768.2656 1978.3463,767.75 Q1978.2994,767.3906 1978.1119,767.2031 Q1977.7838,766.8281 1977.1744,766.6094 Q1976.565,766.3906 1975.94,766.3906 Q1975.1744,766.3906 1974.5416,766.7188 Q1973.9088,767.0469 1973.4166,767.7969 Q1972.9244,768.5469 1972.9244,769.5781 L1972.9244,770.6719 Q1972.9244,771.9063 1973.815,772.7266 Q1974.7056,773.5469 1976.2994,773.5469 Q1977.2369,773.5469 1977.8931,773.2969 Q1978.2838,773.1406 1978.7056,772.7031 Q1978.9713,772.4375 1979.1197,772.3594 Q1979.2681,772.2813 1979.4713,772.2813 Q1979.7994,772.2813 1980.0572,772.5391 Q1980.315,772.7969 1980.315,773.1406 Q1980.315,773.4844 1979.9713,773.8906 Q1979.4713,774.4688 1978.6744,774.7969 Q1977.5963,775.25 1976.2994,775.25 Q1974.7838,775.25 1973.5806,774.625 Q1972.5963,774.125 1971.9088,773.0547 Q1971.2213,771.9844 1971.2213,770.7031 L1971.2213,769.5469 Q1971.2213,768.2188 1971.8384,767.0703 Q1972.4556,765.9219 1973.5494,765.3047 Q1974.6431,764.6875 1975.8775,764.6875 Q1976.6119,764.6875 1977.2603,764.8516 Q1977.9088,765.0156 1978.4556,765.375 Z "/><text fill="#000000" font-family="sans-serif" font-size="12" lengthAdjust="spacingAndGlyphs" textLength="70" x="1996.19" y="774.4102">Appartement</text><line style="stroke: #A80036; stroke-width: 1.5;" x1="1654.44" x2="2375.44" y1="785.5" y2="785.5"/><rect fill="none" height="6" style="stroke: #C82930; stroke-width: 1.0;" width="6" x="1661.44" y="794.918"/><text fill="#000000" font-family="sans-serif" font-size="11" lengthAdjust="spacingAndGlyphs" textLength="58" x="1673.44" y="800.9189">int nbPieces</text><rect fill="none" height="6" style="stroke: #C82930; stroke-width: 1.0;" width="6" x="1661.44" y="808.7539"/><text fill="#000000" font-family="sans-serif" font-size="11" lengthAdjust="spacingAndGlyphs" textLength="41" x="1673.44" y="814.7549">int etage</text><rect fill="none" height="6" style="stroke: #C82930; stroke-width: 1.0;" width="6" x="1661.44" y="822.5898"/><text fill="#000000" font-family="sans-serif" font-size="11" lengthAdjust="spacingAndGlyphs" textLength="130" x="1673.44" y="828.5908">Double chargesMensuelles</text><line style="stroke: #A80036; stroke-width: 1.5;" x1="1654.44" x2="2375.44" y1="835.0078" y2="835.0078"/><ellipse cx="1664.44" cy="847.4258" fill="#84BE84" rx="3" ry="3" style="stroke: #038048; stroke-width: 1.0;"/><text fill="#000000" font-family="sans-serif" font-size="11" lengthAdjust="spacingAndGlyphs" textLength="697" x="1673.44" y="850.4268">Appartement(int numV, String adresseV, String orientationV, Double prixV, Date venteV, int nbPiecesV, int etageV, Double chargesMensuellesV)</text><ellipse cx="1664.44" cy="861.2617" fill="#84BE84" rx="3" ry="3" style="stroke: #038048; stroke-width: 1.0;"/><text fill="#000000" font-family="sans-serif" font-size="11" lengthAdjust="spacingAndGlyphs" textLength="179" x="1673.44" y="864.2627">Double correspondance(Envie envie)</text><!--link Client to Personne--><path d="M3606.51,1167.975 C3594.61,1210.603 3580.9,1259.734 3572.33,1290.457 " fill="none" id="Client-Personne" style="stroke: #A80036; stroke-width: 1.0;"/><polygon fill="none" points="3599.79,1166.007,3611.91,1148.625,3613.27,1169.77,3599.79,1166.007" style="stroke: #A80036; stroke-width: 1.0;"/><!--link Client to Entreprise--><path d="M3773.21,1157.819 C3848.66,1196.695 3938.66,1243.067 4003.23,1276.337 " fill="none" id="Client-Entreprise" style="stroke: #A80036; stroke-width: 1.0;"/><polygon fill="none" points="3769.94,1164.008,3755.37,1148.625,3776.35,1151.563,3769.94,1164.008" style="stroke: #A80036; stroke-width: 1.0;"/><!--link Client to Envie--><path d="M3901.38,1141.831 C4050.1,1174.142 4237.5,1215.877 4403.94,1256 C4409.67,1257.381 4415.47,1258.793 4421.32,1260.227 " fill="none" id="Client-Envie" style="stroke: #A80036; stroke-width: 1.0;"/><polygon fill="#A80036" points="3888.48,1139.031,3893.4896,1144.2179,3900.2043,1141.5886,3895.1947,1136.4017,3888.48,1139.031" style="stroke: #A80036; stroke-width: 1.0;"/><text fill="#000000" font-family="sans-serif" font-size="13" lengthAdjust="spacingAndGlyphs" textLength="55" x="4256.94" y="1222.4951">listeEnvie</text><text fill="#000000" font-family="sans-serif" font-size="13" lengthAdjust="spacingAndGlyphs" textLength="5" x="4408.6707" y="1255.4546">*</text><!--link Client to Agence--><path d="M3592.06,1017.185 C3541.78,936.084 3445.93,797.488 3331.94,712 C3296.03,685.064 3255.91,661.083 3214.62,639.931 " fill="none" id="Client-Agence" style="stroke: #A80036; stroke-width: 1.0;"/><polygon fill="#A80036" points="3202.95,634.041,3206.5043,640.3153,3213.663,639.4476,3210.1087,633.1733,3202.95,634.041" style="stroke: #A80036; stroke-width: 1.0;"/><text fill="#000000" font-family="sans-serif" font-size="13" lengthAdjust="spacingAndGlyphs" textLength="57" x="3517.94" y="817.4951">listeClient</text><text fill="#000000" font-family="sans-serif" font-size="13" lengthAdjust="spacingAndGlyphs" textLength="5" x="3582.6434" y="1006.625">*</text><!--link Agence to Mandat--><path d="M2952.53,644.983 C2969.07,667.416 2986.01,690.391 3001.81,711.819 " fill="none" id="Agence-Mandat" style="stroke: #A80036; stroke-width: 1.0;"/><polygon fill="#A80036" points="2944.7,634.373,2945.0436,641.5759,2951.8246,644.0291,2951.481,636.8261,2944.7,634.373" style="stroke: #A80036; stroke-width: 1.0;"/><text fill="#000000" font-family="sans-serif" font-size="13" lengthAdjust="spacingAndGlyphs" textLength="67" x="2979.94" y="678.4951">listeMandat</text><text fill="#000000" font-family="sans-serif" font-size="13" lengthAdjust="spacingAndGlyphs" textLength="5" x="2991.0196" y="701.0375">*</text><!--link Agence to Promesse--><path d="M2544.69,642.634 C2521.3,662.707 2500.72,685.704 2484.94,712 C2439.22,788.228 2438.3,836.331 2484.94,912 C2504.16,943.173 2531.03,968.831 2561.32,989.897 " fill="none" id="Agence-Promesse" style="stroke: #A80036; stroke-width: 1.0;"/><polygon fill="#A80036" points="2554.88,634.209,2547.7071,634.9505,2545.6328,641.8568,2552.8056,641.1153,2554.88,634.209" style="stroke: #A80036; stroke-width: 1.0;"/><text fill="#000000" font-family="sans-serif" font-size="13" lengthAdjust="spacingAndGlyphs" textLength="83" x="2485.94" y="817.4951">listePromesse</text><text fill="#000000" font-family="sans-serif" font-size="13" lengthAdjust="spacingAndGlyphs" textLength="5" x="2534.4476" y="979.0192">*</text><!--link Mandat to Client--><path d="M3279.24,912.02 C3350.17,946.399 3427.97,984.109 3492.24,1015.257 " fill="none" id="Mandat-Client" style="stroke: #A80036; stroke-width: 1.0;"/><polygon fill="#A80036" points="3496.84,1017.488,3490.493,1009.957,3492.3427,1015.3029,3486.9969,1017.1527,3496.84,1017.488" style="stroke: #A80036; stroke-width: 1.0;"/><text fill="#000000" font-family="sans-serif" font-size="13" lengthAdjust="spacingAndGlyphs" textLength="44" x="3370.94" y="956.4951">vendeur</text><text fill="#000000" font-family="sans-serif" font-size="13" lengthAdjust="spacingAndGlyphs" textLength="7" x="3474.0456" y="1006.5027">1</text><!--link Promesse to Client--><path d="M3212.55,1083 C3264.65,1083 3317.05,1083 3366.29,1083 " fill="none" id="Promesse-Client" style="stroke: #A80036; stroke-width: 1.0;"/><polygon fill="#A80036" points="3371.35,1083,3362.35,1079,3366.35,1083,3362.35,1087,3371.35,1083" style="stroke: #A80036; stroke-width: 1.0;"/><text fill="#000000" font-family="sans-serif" font-size="13" lengthAdjust="spacingAndGlyphs" textLength="50" x="3266.94" y="1076.4951">acheteur</text><text fill="#000000" font-family="sans-serif" font-size="13" lengthAdjust="spacingAndGlyphs" textLength="7" x="3356.5692" y="1080.2626">1</text><!--link Agence to Notaire--><path d="M2783.93,646.016 C2761.86,686.487 2738.88,728.612 2721.67,760.166 " fill="none" id="Agence-Notaire" style="stroke: #A80036; stroke-width: 1.0;"/><polygon fill="#A80036" points="2790.28,634.373,2783.8954,637.7251,2784.534,644.9078,2790.9186,641.5558,2790.28,634.373" style="stroke: #A80036; stroke-width: 1.0;"/><text fill="#000000" font-family="sans-serif" font-size="13" lengthAdjust="spacingAndGlyphs" textLength="65" x="2771.94" y="678.4951">listeNotaire</text><text fill="#000000" font-family="sans-serif" font-size="13" lengthAdjust="spacingAndGlyphs" textLength="5" x="2720.0603" y="749.6214">*</text><!--link Notaire to Promesse--><path d="M2720.44,868.248 C2737.24,903.294 2759.4,949.5 2778.82,989.983 " fill="none" id="Notaire-Promesse" style="stroke: #A80036; stroke-width: 1.0;"/><polygon fill="#A80036" points="2718.21,863.597,2718.4889,873.4419,2720.3692,868.1067,2725.7044,869.9871,2718.21,863.597" style="stroke: #A80036; stroke-width: 1.0;"/><text fill="#000000" font-family="sans-serif" font-size="13" lengthAdjust="spacingAndGlyphs" textLength="39" x="2763.94" y="956.4951">notaire</text><text fill="#000000" font-family="sans-serif" font-size="13" lengthAdjust="spacingAndGlyphs" textLength="7" x="2714.1308" y="885.4735">1</text><!--link AnnoncePub to Agence--><path d="M2855.94,283.27 C2855.94,308.5 2855.94,343.5 2855.94,378.55 " fill="none" id="AnnoncePub-Agence" style="stroke: #A80036; stroke-width: 1.0;"/><polygon fill="#A80036" points="2855.94,391.97,2859.94,385.97,2855.94,379.97,2851.94,385.97,2855.94,391.97" style="stroke: #A80036; stroke-width: 1.0;"/><text fill="#000000" font-family="sans-serif" font-size="13" lengthAdjust="spacingAndGlyphs" textLength="75" x="2856.94" y="336.4951">listeAnnonce</text><text fill="#000000" font-family="sans-serif" font-size="13" lengthAdjust="spacingAndGlyphs" textLength="5" x="2850.5416" y="304.1936">*</text><!--link TypePub to AnnoncePub--><path d="M3186.82,112.34 C3129.55,135.13 3035.14,172.7 2961.79,201.88 " fill="none" id="TypePub-AnnoncePub" style="stroke: #A80036; stroke-width: 1.0;"/><polygon fill="#A80036" points="2949.28,206.86,2956.3334,208.36,2960.4308,202.4261,2953.3774,200.9261,2949.28,206.86" style="stroke: #A80036; stroke-width: 1.0;"/><text fill="#000000" font-family="sans-serif" font-size="13" lengthAdjust="spacingAndGlyphs" textLength="47" x="3082.94" y="166.4951">listePub</text><text fill="#000000" font-family="sans-serif" font-size="13" lengthAdjust="spacingAndGlyphs" textLength="5" x="3173.9446" y="111.8323">*</text><!--link TypePub to TypeTexte--><path d="M3187.48,135.33 C3163.93,155.56 3135.94,179.6 3112.27,199.92 " fill="none" id="TypePub-TypeTexte" style="stroke: #A80036; stroke-width: 1.0;"/><polygon fill="none" points="3183.24,129.75,3202.97,122.03,3192.36,140.37,3183.24,129.75" style="stroke: #A80036; stroke-width: 1.0;"/><!--link TypePub to TypeHtml--><path d="M3237.94,142.17 C3237.94,160.83 3237.94,181.85 3237.94,199.92 " fill="none" id="TypePub-TypeHtml" style="stroke: #A80036; stroke-width: 1.0;"/><polygon fill="none" points="3230.94,142.03,3237.94,122.03,3244.94,142.03,3230.94,142.03" style="stroke: #A80036; stroke-width: 1.0;"/><!--link TypePub to TypeImg--><path d="M3286.16,135.62 C3308.45,155.79 3334.87,179.7 3357.22,199.92 " fill="none" id="TypePub-TypeImg" style="stroke: #A80036; stroke-width: 1.0;"/><polygon fill="none" points="3281.27,140.64,3271.13,122.03,3290.66,130.26,3281.27,140.64" style="stroke: #A80036; stroke-width: 1.0;"/><!--link TypePub to TypeVid--><path d="M3308.02,120.29 C3358.56,141.18 3428.13,170.91 3487.94,200 C3493.56,202.73 3499.34,205.65 3505.11,208.64 " fill="none" id="TypePub-TypeVid" style="stroke: #A80036; stroke-width: 1.0;"/><polygon fill="none" points="3305.14,126.68,3289.3,112.6,3310.46,113.73,3305.14,126.68" style="stroke: #A80036; stroke-width: 1.0;"/><!--link BienImmo to Agence--><path d="M1830.52,513 C1993.06,513 2220.61,513 2420.08,513 " fill="none" id="BienImmo-Agence" style="stroke: #A80036; stroke-width: 1.0;"/><polygon fill="#A80036" points="2433.18,513,2427.18,509,2421.18,513,2427.18,517,2433.18,513" style="stroke: #A80036; stroke-width: 1.0;"/><text fill="#000000" font-family="sans-serif" font-size="13" lengthAdjust="spacingAndGlyphs" textLength="50" x="2106.94" y="506.4951">listeBien</text><text fill="#000000" font-family="sans-serif" font-size="13" lengthAdjust="spacingAndGlyphs" textLength="5" x="1838.4291" y="510.2225">*</text><!--link BienImmo to Mandat--><path d="M1835.82,548.141 C2157.62,597.818 2724.16,686.851 2816.94,712 C2822.96,713.632 2829.04,715.353 2835.14,717.15 " fill="none" id="BienImmo-Mandat" style="stroke: #A80036; stroke-width: 1.0;"/><polygon fill="#A80036" points="1830.63,547.34,1838.9053,552.6803,1835.5702,548.1112,1840.1393,544.7761,1830.63,547.34" style="stroke: #A80036; stroke-width: 1.0;"/><text fill="#000000" font-family="sans-serif" font-size="13" lengthAdjust="spacingAndGlyphs" textLength="24" x="2642.94" y="678.4951">bien</text><text fill="#000000" font-family="sans-serif" font-size="13" lengthAdjust="spacingAndGlyphs" textLength="7" x="1838.579" y="545.7966">1</text><!--link BienImmo to Promesse--><path d="M1390.01,526.186 C979.558,550.914 138.034,613.172 50.9424,712 C-7.8267,778.689 -9.9574,847.251 50.9424,912 C131.242,997.375 1689.15,1051.141 2433.42,1072.055 " fill="none" id="BienImmo-Promesse" style="stroke: #A80036; stroke-width: 1.0;"/><polygon fill="#A80036" points="1395.12,525.879,1385.8962,522.4262,1390.129,526.179,1386.3762,530.4117,1395.12,525.879" style="stroke: #A80036; stroke-width: 1.0;"/><text fill="#000000" font-family="sans-serif" font-size="13" lengthAdjust="spacingAndGlyphs" textLength="24" x="51.9424" y="817.4951">bien</text><text fill="#000000" font-family="sans-serif" font-size="13" lengthAdjust="spacingAndGlyphs" textLength="7" x="1380.1663" y="523.5643">1</text><!--link BienImmo to Appartement--><path d="M1745,611.567 C1808.5,658.48 1882.44,713.109 1936.87,753.317 " fill="none" id="BienImmo-Appartement" style="stroke: #A80036; stroke-width: 1.0;"/><polygon fill="none" points="1740.6,617.021,1728.68,599.506,1748.92,605.761,1740.6,617.021" style="stroke: #A80036; stroke-width: 1.0;"/><!--link BienImmo to Maison--><path d="M1483.72,611.653 C1428.59,653.322 1365.41,701.065 1314.71,739.38 " fill="none" id="BienImmo-Maison" style="stroke: #A80036; stroke-width: 1.0;"/><polygon fill="none" points="1479.62,605.98,1499.8,599.506,1488.06,617.149,1479.62,605.98" style="stroke: #A80036; stroke-width: 1.0;"/><!--link BienImmo to Terrain--><path d="M1375.26,571.276 C1213.95,610.367 995.917,663.633 803.942,712 C742.491,727.482 675.574,744.701 615.165,760.381 " fill="none" id="BienImmo-Terrain" style="stroke: #A80036; stroke-width: 1.0;"/><polygon fill="none" points="1374.05,564.366,1395.14,566.46,1377.35,577.972,1374.05,564.366" style="stroke: #A80036; stroke-width: 1.0;"/><!--link Terrain to Maison--><path d="M749.686,812 C769.083,812 788.711,812 808.381,812 " fill="none" id="Terrain-Maison" style="stroke: #A80036; stroke-width: 1.0;"/><polygon fill="#A80036" points="821.655,812,815.655,808,809.655,812,815.655,816,821.655,812" style="stroke: #A80036; stroke-width: 1.0;"/><text fill="#000000" font-family="sans-serif" font-size="13" lengthAdjust="spacingAndGlyphs" textLength="36" x="767.692" y="805.4951">terrain</text><text fill="#000000" font-family="sans-serif" font-size="13" lengthAdjust="spacingAndGlyphs" textLength="7" x="757.4495" y="809.3077">1</text><!--
@startuml

package user {

  abstract class Client {
    -String nom
  	-String adresse
  	-String telephone
  	-String email
  	+Client(String nomV, String adresseV, String telephoneV, String emailV)
  	+void ajouterEnvie(String typeV, Double prixV, String localisationV, Double surfaceSolV, int nbPiecesV)
  }

  class Personne {
    +Personne(String nomV, String adresseV, String telephoneV, String emailV)
  }

  class Entreprise {
    -String formeJuridique
  	-String numSiren
  	+Entreprise(String nomV, String adresseV, String telephoneV, String emailV, String formeJurisiqueV, String numSirenV)
  }

  Personne -up-|> Client
  Entreprise -up-|> Client

  class Envie {
    -String type
  	-Double prix
  	-String localisation
  	-Double surfaceSol
  	-int nbPieces
  	+Envie(String typeV, Double prixV, String localisationV, Double surfaceSolV, int nbPiecesV)
  }

  Client *- -"*" Envie : "listeEnvie"

}

package agence {

  class Agence {
    -String nom
  	-HashMap<Date,Client> listeRdv
  	+Agence(String nomV)
  	+void creerPersonne(String nomV, String adresseV, String telephoneV, String emailV)
  	+void creerEntreprise(String nomV, String adresseV, String telephoneV, String emailV, String formeJuridiqueV, String numSirenV)
  	+void creerTerrain(int numV, String adresseV, String orientationV, Double prixV, Date venteV, Double surfaceSolV, Double longueurFacadeV)
  	+void creerMaison(int numV, String adresseV, String orientationV, Double prixV, Date venteV, Double surfaceHabitableV, int nbPiecesV, int nbEtagesV, String chauffageV)
  	+void creerAppartement(int numV, String adresseV, String orientationV, Double prixV, Date venteV, int nbPiecesV, int etageV, Double chargesMensuellesV)
  	+void creerMandat(Double prixV, Date venteV, Date debutV, Date finV, BienImmo bienV, Client vendeurV)
  	+void creerPromesse(Double prixVerseVendeurV, Date venteV, Double commissionAgenceV, Double fraisVenteV, BienImmo bienV, Client acheteurV, Notaire notaireV)
  	+void creerNotaire(String nomV, String adresseV)
  	+String voirStats()
  	+void creerDocument()
  	+void addRdv(Date date, Client client)
  }

  Client "*"-left-* Agence : "listeClient"

  class Mandat {
    -Double prix
  	-Date vente
  	-Date debut
  	-Date fin
  	-BienImmo bien
  	-Client vendeur
  	-HashMap<Date,Client> listeRdvVisite
  	-HashMap<Date,Client> listeRdvVendeur
  	+Mandat(Double prixV, Date venteV, Date debutV, Date finV, BienImmo bienV, Client vendeurV)
  	+void addRdvVisite(Date date, Client client)
  	+void addRdvVendeur(Date date, Client client)
  }

  class Promesse {
    -Double prixVerseVendeur
  	-Date vente
  	-Double commissionAgence
  	-Double fraisVente
  	-BienImmo bien
  	-Client acheteur
  	-Notaire notaire
  	-boolean etatFinit
  	+Promesse(Double prixVerseVendeurV, Date venteV, Double commissionAgenceV, Double fraisVenteV, BienImmo bienV, Client acheteurV, Notaire notaireV)
  	+void signerPromesse()
  }

  Agence *- -"*" Mandat : "listeMandat"
  Agence *- -"*" Promesse : "listePromesse"

  Mandat - ->"1" Client : "vendeur"
  Promesse - ->"1" Client : "acheteur"

  class Notaire {
    -String nom
  	-String adresse
  	+Notaire(String nomV, String adresseV)
  	+void verserArgent()
  }

  Agence *- -"*" Notaire : "listeNotaire"

  Notaire "1"<- - Promesse : "notaire"

}

package pub {

  class AnnoncePub {
    +AnnoncePub()
    +void ajouterPub(TypePub typePub)
  }

  AnnoncePub "*"- -* Agence : "listeAnnonce"
  TypePub "*"- -* AnnoncePub : "listePub"

  abstract class TypePub {
    +String getElem()
  }

  class TypeTexte {
    -String texte
  	+TypeTexte(String texteV)
  	+String getElem()
  }

  class TypeHtml {
    -String html
  	+TypeHtml(String htmlV)
  	+String getElem()
  }

  class TypeImg {
    -String img
  	+TypeImg(String imgV)
  	+String getElem()
  }

  class TypeVid {
  	-String vid
  	+TypeVid(String vidV)
  	+String getElem()
  }

  TypeTexte -up-|> TypePub
  TypeHtml -up-|> TypePub
  TypeImg -up-|> TypePub
  TypeVid -up-|> TypePub

}

package immo {

  abstract class BienImmo {
  	-int num
  	-String adresse
  	-String orientation
  	-Double prix
  	-Date vente
  	-ArrayList<Date> dispo
  	+BienImmo(int numV, String adresseV, String orientationV, Double prixV, Date venteV)
  	+Double correspondance(Envie envie)
  	+void addDispo(Date dispoV)
  }

  BienImmo "*"-left-* Agence : "listeBien"
  Mandat -up->"1" BienImmo : "bien"
  Promesse -up->"1" BienImmo : "bien"

  class Terrain {
  	-Double surfaceSol
  	-Double longueurFacade
  	+Terrain(int numV, String adresseV, String orientationV, Double prixV, Date venteV, Double surfaceSolV, Double longueurFacadeV)
  	+Double correspondance(Envie envie)
  }

  class Maison {
  	-Double surfaceHabitable
  	-int nbPieces
  	-int nbEtages
  	-String chauffage
  	-Terrain terrain
  	+Maison(int numV, String adresseV, String orientationV, Double prixV, Date venteV, Double surfaceHabitableV, int nbPiecesV, int nbEtagesV, String chauffageV)
  	+Double correspondance(Envie envie)
  }

  class Appartement {
  	-int nbPieces
  	-int etage
  	-Double chargesMensuelles
  	+Appartement(int numV, String adresseV, String orientationV, Double prixV, Date venteV, int nbPiecesV, int etageV, Double chargesMensuellesV)
  	+Double correspondance(Envie envie)
  }

  Appartement -up-|> BienImmo
  Maison -up-|> BienImmo
  Terrain -up-|> BienImmo

  Maison *-left-"1" Terrain : "terrain"

}

@enduml

PlantUML version 1.2017.18(Fri Oct 06 18:56:32 CEST 2017)
(GPL source distribution)
Java Runtime: Java(TM) SE Runtime Environment
JVM: Java HotSpot(TM) 64-Bit Server VM
Java Version: 9.0.1+11
Operating System: Windows 10
OS Version: 10.0
Default Encoding: Cp1252
Language: fr
Country: FR
--></g></svg>