<?xml version="1.0" encoding="UTF-8" standalone="no"?><svg xmlns="http://www.w3.org/2000/svg" xmlns:xlink="http://www.w3.org/1999/xlink" contentScriptType="application/ecmascript" contentStyleType="text/css" height="778px" preserveAspectRatio="none" style="width:731px;height:778px;" version="1.1" viewBox="0 0 731 778"
    width="731px" zoomAndPan="magnify"><defs><filter height="300%" id="f1iamsllm4omfs" width="300%" x="-1" y="-1"><feGaussianBlur result="blurOut" stdDeviation="2.0"/><feColorMatrix in="blurOut" result="blurOut2" type="matrix" values="0 0 0 0 0 0 0 0 0 0 0 0 0 0 0 0 0 0 .4 0"/><feOffset dx="4.0" dy="4.0" in="blurOut2" result="blurOut3"/><feBlend in="SourceGraphic" in2="blurOut3" mode="normal"/></filter></defs><g><!--cluster Logiciel--><rect fill="#FFFFFF" filter="url(#f1iamsllm4omfs)" height="689" style="stroke: #000000; stroke-width: 2.0;" width="698" x="22" y="24"/><text fill="#000000" font-family="sans-serif" font-size="14" font-weight="bold" lengthAdjust="spacingAndGlyphs" textLength="55" x="343.5" y="40.5332">Logiciel</text><!--cluster LogiVente--><rect fill="#FFFFFF" filter="url(#f1iamsllm4omfs)" height="228" style="stroke: #000000; stroke-width: 2.0;" width="222" x="465" y="412"/><text fill="#000000" font-family="sans-serif" font-size="14" font-weight="bold" lengthAdjust="spacingAndGlyphs" textLength="71" x="540.5" y="428.5332">LogiVente</text><!--cluster LogiAchat--><rect fill="#FFFFFF" filter="url(#f1iamsllm4omfs)" height="250" style="stroke: #000000; stroke-width: 2.0;" width="240" x="456" y="138"/><text fill="#000000" font-family="sans-serif" font-size="14" font-weight="bold" lengthAdjust="spacingAndGlyphs" textLength="69" x="541.5" y="154.5332">LogiAchat</text><!--cluster LogiPub--><rect fill="#FFFFFF" filter="url(#f1iamsllm4omfs)" height="86" style="stroke: #000000; stroke-width: 2.0;" width="173" x="170.5" y="176"/><text fill="#000000" font-family="sans-serif" font-size="14" font-weight="bold" lengthAdjust="spacingAndGlyphs" textLength="57" x="228.5" y="192.5332">LogiPub</text><!--cluster LogiStat--><rect fill="#FFFFFF" filter="url(#f1iamsllm4omfs)" height="84" style="stroke: #000000; stroke-width: 2.0;" width="121" x="196.5" y="68"/><text fill="#000000" font-family="sans-serif" font-size="14" font-weight="bold" lengthAdjust="spacingAndGlyphs" textLength="57" x="228.5" y="84.5332">LogiStat</text><ellipse cx="256.8193" cy="411.9639" fill="#FEFECE" filter="url(#f1iamsllm4omfs)" rx="87.8193" ry="19.9639" style="stroke: #A80036; stroke-width: 1.5;"/><text fill="#000000" font-family="sans-serif" font-size="14" lengthAdjust="spacingAndGlyphs" textLength="145" x="184.3193" y="417.2685">Organiser rendez-vous</text><!--entity Agence--><ellipse cx="62" cy="379.5" fill="#FEFECE" filter="url(#f1iamsllm4omfs)" rx="8" ry="8" style="stroke: #A80036; stroke-width: 2.0;"/><path d="M62,387.5 L62,414.5 M49,395.5 L75,395.5 M62,414.5 L49,429.5 M62,414.5 L75,429.5 " fill="#FEFECE" filter="url(#f1iamsllm4omfs)" style="stroke: #A80036; stroke-width: 2.0;"/><text fill="#000000" font-family="sans-serif" font-size="14" lengthAdjust="spacingAndGlyphs" textLength="48" x="38" y="451.0332">Agence</text><ellipse cx="257.0594" cy="643.0119" fill="#FEFECE" filter="url(#f1iamsllm4omfs)" rx="73.0594" ry="17.0119" style="stroke: #A80036; stroke-width: 1.5;"/><text fill="#000000" font-family="sans-serif" font-size="14" lengthAdjust="spacingAndGlyphs" textLength="109" x="202.5594" y="648.3166">Ajouter personne</text><ellipse cx="256.9781" cy="565.8956" fill="#FEFECE" filter="url(#f1iamsllm4omfs)" rx="109.9781" ry="24.3956" style="stroke: #A80036; stroke-width: 1.5;"/><text fill="#000000" font-family="sans-serif" font-size="14" lengthAdjust="spacingAndGlyphs" textLength="195" x="159.4781" y="571.2003">Modifier informations personne</text><ellipse cx="576.2401" cy="529.9517" fill="#FEFECE" filter="url(#f1iamsllm4omfs)" rx="56.7401" ry="15.4517" style="stroke: #A80036; stroke-width: 1.5;"/><text fill="#000000" font-family="sans-serif" font-size="14" lengthAdjust="spacingAndGlyphs" textLength="76" x="538.2401" y="535.2564">Ajouter bien</text><ellipse cx="576.1904" cy="601.9381" fill="#FEFECE" filter="url(#f1iamsllm4omfs)" rx="95.1904" ry="21.4381" style="stroke: #A80036; stroke-width: 1.5;"/><text fill="#000000" font-family="sans-serif" font-size="14" lengthAdjust="spacingAndGlyphs" textLength="162" x="495.1904" y="607.2428">Modifier informations bien</text><ellipse cx="576.0183" cy="463.9517" fill="#FEFECE" filter="url(#f1iamsllm4omfs)" rx="64.5183" ry="15.4517" style="stroke: #A80036; stroke-width: 1.5;"/><text fill="#000000" font-family="sans-serif" font-size="14" lengthAdjust="spacingAndGlyphs" textLength="87" x="532.5183" y="469.2564">Créer mandat</text><ellipse cx="575.9197" cy="273.7839" fill="#FEFECE" filter="url(#f1iamsllm4omfs)" rx="81.9197" ry="18.7839" style="stroke: #A80036; stroke-width: 1.5;"/><text fill="#000000" font-family="sans-serif" font-size="14" lengthAdjust="spacingAndGlyphs" textLength="131" x="510.4197" y="279.0886">Créer fiche de voeux</text><ellipse cx="575.7514" cy="349.8503" fill="#FEFECE" filter="url(#f1iamsllm4omfs)" rx="94.7514" ry="21.3503" style="stroke: #A80036; stroke-width: 1.5;"/><text fill="#000000" font-family="sans-serif" font-size="14" lengthAdjust="spacingAndGlyphs" textLength="161" x="495.2514" y="355.155">Créer promesse de vente</text><ellipse cx="576.0894" cy="197.2179" fill="#FEFECE" filter="url(#f1iamsllm4omfs)" rx="104.0894" ry="23.2179" style="stroke: #A80036; stroke-width: 1.5;"/><text fill="#000000" font-family="sans-serif" font-size="14" lengthAdjust="spacingAndGlyphs" textLength="182" x="485.0894" y="202.5226">Conclure promesse de vente</text><ellipse cx="256.8726" cy="228.9745" fill="#FEFECE" filter="url(#f1iamsllm4omfs)" rx="70.3726" ry="16.4745" style="stroke: #A80036; stroke-width: 1.5;"/><text fill="#000000" font-family="sans-serif" font-size="14" lengthAdjust="spacingAndGlyphs" textLength="102" x="205.8726" y="234.2792">Créer document</text><ellipse cx="257.2193" cy="119.9517" fill="#FEFECE" filter="url(#f1iamsllm4omfs)" rx="44.7193" ry="15.4517" style="stroke: #A80036; stroke-width: 1.5;"/><text fill="#000000" font-family="sans-serif" font-size="14" lengthAdjust="spacingAndGlyphs" textLength="59" x="227.7193" y="125.2564">Voir stats</text><!--link Agence to Ajouter personne--><path d="M70.5323,454.727 C80.518,499.031 102.3686,567.386 147,608 C159.323,619.213 175.263,626.836 191.13,632.0171 " fill="none" id="Agence-Ajouter personne" style="stroke: #A80036; stroke-width: 1.0;"/><polygon fill="#A80036" points="196.048,633.5479,188.6431,627.0543,191.2738,632.0622,186.2659,634.6929,196.048,633.5479" style="stroke: #A80036; stroke-width: 1.0;"/><!--link Agence to Modifier informations personne--><path d="M76.8925,454.606 C85.3926,474.936 98.1281,498.211 116,514 C132.46,528.542 153.355,539.154 173.949,546.844 " fill="none" id="Agence-Modifier informations personne" style="stroke: #A80036; stroke-width: 1.0;"/><polygon fill="#A80036" points="178.894,548.638,171.796,541.8102,174.1933,546.934,169.0696,549.3313,178.894,548.638" style="stroke: #A80036; stroke-width: 1.0;"/><!--link Agence to Organiser rendez-vous--><path d="M86.2803,412 C105.7233,412 134.787,412 163.393,412 " fill="none" id="Agence-Organiser rendez-vous" style="stroke: #A80036; stroke-width: 1.0;"/><polygon fill="#A80036" points="168.726,412,159.726,408,163.726,412,159.726,416,168.726,412" style="stroke: #A80036; stroke-width: 1.0;"/><!--link Agence to Ajouter bien--><path d="M86.3017,446.929 C101.2047,466.157 122.341,488.412 147,500 C179.393,515.223 404.396,524.498 514.535,528.175 " fill="none" id="Agence-Ajouter bien" style="stroke: #A80036; stroke-width: 1.0;"/><polygon fill="#A80036" points="519.692,528.346,510.8295,524.0499,514.6947,528.1803,510.5644,532.0455,519.692,528.346" style="stroke: #A80036; stroke-width: 1.0;"/><!--link Organiser rendez-vous to Ajouter bien--><path d="M298.566,432.524 C336.499,451.14 395.082,478.433 448,497 C475.193,506.541 506.521,514.71 531.259,520.534 " fill="none" id="Organiser rendez-vous-Ajouter bien" style="stroke: #A80036; stroke-width: 1.0; stroke-dasharray: 7.0,7.0;"/><polygon fill="#A80036" points="294.045,430.298,300.3544,437.8605,298.5313,432.5054,303.8864,430.6823,294.045,430.298" style="stroke: #A80036; stroke-width: 1.0;"/><text fill="#000000" font-family="sans-serif" font-size="13" lengthAdjust="spacingAndGlyphs" textLength="41" x="398" y="475.4951">include</text><!--link Agence to Modifier informations bien--><path d="M62.2177,454.533 C63.689,515.591 76.5921,626.399 147,678 C268.005,766.6829 459.163,671.8099 538.558,624.977 " fill="none" id="Agence-Modifier informations bien" style="stroke: #A80036; stroke-width: 1.0;"/><polygon fill="#A80036" points="543.168,622.237,533.3876,623.3958,538.8696,624.7912,537.4742,630.2732,543.168,622.237" style="stroke: #A80036; stroke-width: 1.0;"/><!--link Agence to Créer mandat--><path d="M86.0241,423.714 C102.6236,431.767 125.754,442.194 147,449 C160.51,453.327 382.888,499.548 397,501 C416.011,502.956 421.4,505.391 440,501 C443.869,500.087 444.278,498.396 448,497 C471.597,488.147 498.517,480.782 521.482,475.274 " fill="none" id="Agence-Créer mandat" style="stroke: #A80036; stroke-width: 1.0;"/><polygon fill="#A80036" points="526.621,474.056,516.9411,472.2394,521.7558,475.2091,518.7861,480.0237,526.621,474.056" style="stroke: #A80036; stroke-width: 1.0;"/><!--link Organiser rendez-vous to Créer mandat--><path d="M333.953,424.459 C392.096,433.997 470.795,446.906 522.214,455.341 " fill="none" id="Organiser rendez-vous-Créer mandat" style="stroke: #A80036; stroke-width: 1.0; stroke-dasharray: 7.0,7.0;"/><polygon fill="#A80036" points="328.746,423.605,336.9789,429.0105,333.6799,424.4152,338.2752,421.1162,328.746,423.605" style="stroke: #A80036; stroke-width: 1.0;"/><text fill="#000000" font-family="sans-serif" font-size="13" lengthAdjust="spacingAndGlyphs" textLength="41" x="398" y="431.4951">include</text><!--link Agence to Créer fiche de voeux--><path d="M86.0403,400.1 C102.6474,391.891 125.78,381.202 147,374 C269.921,332.284 418.467,301.852 504.306,286.129 " fill="none" id="Agence-Créer fiche de voeux" style="stroke: #A80036; stroke-width: 1.0;"/><polygon fill="#A80036" points="509.36,285.206,499.7884,282.8854,504.4411,286.1029,501.2235,290.7556,509.36,285.206" style="stroke: #A80036; stroke-width: 1.0;"/><!--link Agence to Créer promesse de vente--><path d="M86.0222,372.544 C94.0977,362.324 104.1626,352.622 116,347 C244.354,286.044 416.586,311.458 509.302,332.497 " fill="none" id="Agence-Créer promesse de vente" style="stroke: #A80036; stroke-width: 1.0;"/><polygon fill="#A80036" points="514.201,333.621,506.3241,327.7088,509.3277,332.5023,504.5342,335.506,514.201,333.621" style="stroke: #A80036; stroke-width: 1.0;"/><!--link Organiser rendez-vous to Créer promesse de vente--><path d="M329.432,398.029 C381.47,387.851 451.662,374.123 503.675,363.95 " fill="none" id="Organiser rendez-vous-Créer promesse de vente" style="stroke: #A80036; stroke-width: 1.0; stroke-dasharray: 7.0,7.0;"/><polygon fill="#A80036" points="324.454,399.003,334.0545,401.2006,329.361,398.043,332.5186,393.3495,324.454,399.003" style="stroke: #A80036; stroke-width: 1.0;"/><text fill="#000000" font-family="sans-serif" font-size="13" lengthAdjust="spacingAndGlyphs" textLength="41" x="398" y="374.4951">include</text><!--link Agence to Conclure promesse de vente--><path d="M86.0586,371.215 C100.5537,349.805 121.365,325.485 147,313 C237.237,269.051 270.142,288.321 367,262 C374.224,260.037 452.047,235.648 510.395,217.318 " fill="none" id="Agence-Conclure promesse de vente" style="stroke: #A80036; stroke-width: 1.0;"/><polygon fill="#A80036" points="515.268,215.787,505.4829,214.6684,510.4979,217.2856,507.8807,222.3006,515.268,215.787" style="stroke: #A80036; stroke-width: 1.0;"/><!--link Agence to Créer document--><path d="M72.7799,369.19 C80.9269,340.059 94.6919,301.731 116,273 C131.865,251.609 158.116,240.351 183.626,234.517 " fill="none" id="Agence-Créer document" style="stroke: #A80036; stroke-width: 1.0;"/><polygon fill="#A80036" points="188.715,233.421,179.0746,231.4056,183.8271,234.4737,180.7589,239.2262,188.715,233.421" style="stroke: #A80036; stroke-width: 1.0;"/><!--link Agence to Voir stats--><path d="M71.0864,369.281 C81.7488,322.442 104.3653,247.152 147,196 C168.878,169.751 201.931,148.433 225.902,135.129 " fill="none" id="Agence-Voir stats" style="stroke: #A80036; stroke-width: 1.0;"/><polygon fill="#A80036" points="230.569,132.576,220.7533,133.3837,226.1819,134.9746,224.591,140.4031,230.569,132.576" style="stroke: #A80036; stroke-width: 1.0;"/><!--
@startuml

left to right direction

rectangle "Logiciel" {

  (Organiser rendez-vous)

    Agence - -> (Ajouter personne)
    Agence - -> (Modifier informations personne)
    Agence - -> (Organiser rendez-vous)


    rectangle "LogiVente"{
        Agence - -> (Ajouter bien)
        (Ajouter bien) .up.> (Organiser rendez-vous) : include
        Agence - -> (Modifier informations bien)
        Agence - -> (Créer mandat)
        (Créer mandat) .up.> (Organiser rendez-vous) : include

    }
    rectangle "LogiAchat"{
        Agence - -> (Créer fiche de voeux)
        Agence - -> (Créer promesse de vente)
        (Créer promesse de vente) .up.> (Organiser rendez-vous) : include
        Agence - -> (Conclure promesse de vente)
    }

    rectangle "LogiPub"{
        Agence - -> (Créer document)
    }
    rectangle "LogiStat"{
        Agence - -> (Voir stats)
    }

}


@enduml

PlantUML version 1.2017.18(Fri Oct 06 18:56:32 CEST 2017)
(GPL source distribution)
Java Runtime: Java(TM) SE Runtime Environment
JVM: Java HotSpot(TM) 64-Bit Server VM
Java Version: 9.0.1+11
Operating System: Windows 10
OS Version: 10.0
Default Encoding: Cp1252
Language: fr
Country: FR
--></g></svg>