<?xml version="1.0" encoding="UTF-8" standalone="no"?><svg xmlns="http://www.w3.org/2000/svg" xmlns:xlink="http://www.w3.org/1999/xlink" contentScriptType="application/ecmascript" contentStyleType="text/css" height="757px" preserveAspectRatio="none" style="width:673px;height:757px;" version="1.1" viewBox="0 0 673 757"
    width="673px" zoomAndPan="magnify"><defs><filter height="300%" id="f1v4sysmmihnr3" width="300%" x="-1" y="-1"><feGaussianBlur result="blurOut" stdDeviation="2.0"/><feColorMatrix in="blurOut" result="blurOut2" type="matrix" values="0 0 0 0 0 0 0 0 0 0 0 0 0 0 0 0 0 0 .4 0"/><feOffset dx="4.0" dy="4.0" in="blurOut2" result="blurOut3"/><feBlend in="SourceGraphic" in2="blurOut3" mode="normal"/></filter></defs><g><!--cluster Logiciel--><rect fill="#FFFFFF" filter="url(#f1v4sysmmihnr3)" height="675" style="stroke: #000000; stroke-width: 2.0;" width="640" x="22" y="24"/><text fill="#000000" font-family="sans-serif" font-size="14" font-weight="bold" lengthAdjust="spacingAndGlyphs" textLength="55" x="314.5" y="40.5332">Logiciel</text><!--cluster LogiVente--><rect fill="#FFFFFF" filter="url(#f1v4sysmmihnr3)" height="216" style="stroke: #000000; stroke-width: 2.0;" width="161" x="444.5" y="414"/><text fill="#000000" font-family="sans-serif" font-size="14" font-weight="bold" lengthAdjust="spacingAndGlyphs" textLength="71" x="489.5" y="430.5332">LogiVente</text><!--cluster LogiAchat--><rect fill="#FFFFFF" filter="url(#f1v4sysmmihnr3)" height="241" style="stroke: #000000; stroke-width: 2.0;" width="226" x="412" y="149"/><text fill="#000000" font-family="sans-serif" font-size="14" font-weight="bold" lengthAdjust="spacingAndGlyphs" textLength="69" x="490.5" y="165.5332">LogiAchat</text><!--cluster LogiPub--><rect fill="#FFFFFF" filter="url(#f1v4sysmmihnr3)" height="86" style="stroke: #000000; stroke-width: 2.0;" width="173" x="148.5" y="176"/><text fill="#000000" font-family="sans-serif" font-size="14" font-weight="bold" lengthAdjust="spacingAndGlyphs" textLength="57" x="206.5" y="192.5332">LogiPub</text><!--cluster LogiStat--><rect fill="#FFFFFF" filter="url(#f1v4sysmmihnr3)" height="84" style="stroke: #000000; stroke-width: 2.0;" width="121" x="174.5" y="68"/><text fill="#000000" font-family="sans-serif" font-size="14" font-weight="bold" lengthAdjust="spacingAndGlyphs" textLength="57" x="206.5" y="84.5332">LogiStat</text><ellipse cx="234.8193" cy="411.9639" fill="#FEFECE" filter="url(#f1v4sysmmihnr3)" rx="87.8193" ry="19.9639" style="stroke: #A80036; stroke-width: 1.5;"/><text fill="#000000" font-family="sans-serif" font-size="14" lengthAdjust="spacingAndGlyphs" textLength="145" x="162.3193" y="417.2685">Organiser rendez-vous</text><!--entity Agence--><ellipse cx="62" cy="379.5" fill="#FEFECE" filter="url(#f1v4sysmmihnr3)" rx="8" ry="8" style="stroke: #A80036; stroke-width: 2.0;"/><path d="M62,387.5 L62,414.5 M49,395.5 L75,395.5 M62,414.5 L49,429.5 M62,414.5 L75,429.5 " fill="#FEFECE" filter="url(#f1v4sysmmihnr3)" style="stroke: #A80036; stroke-width: 2.0;"/><text fill="#000000" font-family="sans-serif" font-size="14" lengthAdjust="spacingAndGlyphs" textLength="48" x="38" y="451.0332">Agence</text><ellipse cx="235.0594" cy="629.0119" fill="#FEFECE" filter="url(#f1v4sysmmihnr3)" rx="73.0594" ry="17.0119" style="stroke: #A80036; stroke-width: 1.5;"/><text fill="#000000" font-family="sans-serif" font-size="14" lengthAdjust="spacingAndGlyphs" textLength="109" x="180.5594" y="634.3166">Ajouter personne</text><ellipse cx="235.0213" cy="558.9043" fill="#FEFECE" filter="url(#f1v4sysmmihnr3)" rx="75.0213" ry="17.4043" style="stroke: #A80036; stroke-width: 1.5;"/><text fill="#000000" font-family="sans-serif" font-size="14" lengthAdjust="spacingAndGlyphs" textLength="114" x="178.0213" y="564.2089">Modifier personne</text><ellipse cx="525.2401" cy="531.9517" fill="#FEFECE" filter="url(#f1v4sysmmihnr3)" rx="56.7401" ry="15.4517" style="stroke: #A80036; stroke-width: 1.5;"/><text fill="#000000" font-family="sans-serif" font-size="14" lengthAdjust="spacingAndGlyphs" textLength="76" x="487.2401" y="537.2564">Ajouter bien</text><ellipse cx="524.7756" cy="597.9517" fill="#FEFECE" filter="url(#f1v4sysmmihnr3)" rx="60.2756" ry="15.4517" style="stroke: #A80036; stroke-width: 1.5;"/><text fill="#000000" font-family="sans-serif" font-size="14" lengthAdjust="spacingAndGlyphs" textLength="81" x="484.2756" y="603.2564">Modifier bien</text><ellipse cx="525.0183" cy="465.9517" fill="#FEFECE" filter="url(#f1v4sysmmihnr3)" rx="64.5183" ry="15.4517" style="stroke: #A80036; stroke-width: 1.5;"/><text fill="#000000" font-family="sans-serif" font-size="14" lengthAdjust="spacingAndGlyphs" textLength="87" x="481.5183" y="471.2564">Créer mandat</text><ellipse cx="524.7514" cy="351.8503" fill="#FEFECE" filter="url(#f1v4sysmmihnr3)" rx="94.7514" ry="21.3503" style="stroke: #A80036; stroke-width: 1.5;"/><text fill="#000000" font-family="sans-serif" font-size="14" lengthAdjust="spacingAndGlyphs" textLength="161" x="444.2514" y="357.155">Créer promesse de vente</text><ellipse cx="524.8259" cy="279.9517" fill="#FEFECE" filter="url(#f1v4sysmmihnr3)" rx="55.3259" ry="15.4517" style="stroke: #A80036; stroke-width: 1.5;"/><text fill="#000000" font-family="sans-serif" font-size="14" lengthAdjust="spacingAndGlyphs" textLength="74" x="487.8259" y="285.2564">Créer envie</text><ellipse cx="524.9525" cy="206.7905" fill="#FEFECE" filter="url(#f1v4sysmmihnr3)" rx="96.9525" ry="21.7905" style="stroke: #A80036; stroke-width: 1.5;"/><text fill="#000000" font-family="sans-serif" font-size="14" lengthAdjust="spacingAndGlyphs" textLength="166" x="441.9525" y="212.0952">Signer promesse de vente</text><ellipse cx="234.8726" cy="228.9745" fill="#FEFECE" filter="url(#f1v4sysmmihnr3)" rx="70.3726" ry="16.4745" style="stroke: #A80036; stroke-width: 1.5;"/><text fill="#000000" font-family="sans-serif" font-size="14" lengthAdjust="spacingAndGlyphs" textLength="102" x="183.8726" y="234.2792">Créer document</text><ellipse cx="235.2193" cy="119.9517" fill="#FEFECE" filter="url(#f1v4sysmmihnr3)" rx="44.7193" ry="15.4517" style="stroke: #A80036; stroke-width: 1.5;"/><text fill="#000000" font-family="sans-serif" font-size="14" lengthAdjust="spacingAndGlyphs" textLength="59" x="205.7193" y="125.2564">Voir stats</text><!--link Agence to Ajouter personne--><path d="M71.0451,454.717 C80.8296,495.572 101.1654,556.374 140.5,594 C150.428,603.497 163.172,610.468 176.036,615.5674 " fill="none" id="Agence-Ajouter personne" style="stroke: #A80036; stroke-width: 1.0;"/><polygon fill="#A80036" points="180.776,617.3626,173.7768,610.4336,176.1003,615.5913,170.9426,617.9148,180.776,617.3626" style="stroke: #A80036; stroke-width: 1.0;"/><!--link Agence to Modifier personne--><path d="M76.9512,454.539 C85.466,474.854 98.1969,498.133 116,514 C132.441,528.653 154.147,538.735 174.455,545.578 " fill="none" id="Agence-Modifier personne" style="stroke: #A80036; stroke-width: 1.0;"/><polygon fill="#A80036" points="179.309,547.161,171.9945,540.5657,174.5558,545.6095,169.512,548.1708,179.309,547.161" style="stroke: #A80036; stroke-width: 1.0;"/><!--link Agence to Organiser rendez-vous--><path d="M86.0618,412 C100.8314,412 121.067,412 141.83,412 " fill="none" id="Agence-Organiser rendez-vous" style="stroke: #A80036; stroke-width: 1.0;"/><polygon fill="#A80036" points="146.831,412,137.831,408,141.831,412,137.831,416,146.831,412" style="stroke: #A80036; stroke-width: 1.0;"/><!--link Agence to Ajouter bien--><path d="M86.2347,449.919 C99.6704,468.331 118.312,488.84 140.5,500 C168.638,514.152 363.396,524.817 464.047,529.454 " fill="none" id="Agence-Ajouter bien" style="stroke: #A80036; stroke-width: 1.0;"/><polygon fill="#A80036" points="469.063,529.684,460.2552,525.2768,464.0682,529.4555,459.8896,533.2685,469.063,529.684" style="stroke: #A80036; stroke-width: 1.0;"/><!--link Organiser rendez-vous to Ajouter bien--><path d="M271.653,433.26 C304.979,452.45 356.58,480.438 404,499 C428.748,508.687 457.417,516.684 480.525,522.378 " fill="none" id="Organiser rendez-vous-Ajouter bien" style="stroke: #A80036; stroke-width: 1.0; stroke-dasharray: 7.0,7.0;"/><polygon fill="#A80036" points="267.277,430.731,273.068,438.6974,271.6061,433.2327,277.0708,431.7708,267.277,430.731" style="stroke: #A80036; stroke-width: 1.0;"/><text fill="#000000" font-family="sans-serif" font-size="13" lengthAdjust="spacingAndGlyphs" textLength="41" x="354" y="474.4951">include</text><!--link Agence to Modifier bien--><path d="M69.9049,454.651 C81.4107,519.743 106.629,638.9797 140.5,664 C251.41,745.9274 429.238,655.2656 496.781,615.1391 " fill="none" id="Agence-Modifier bien" style="stroke: #A80036; stroke-width: 1.0;"/><polygon fill="#A80036" points="501.451,612.34,491.675,613.5357,497.1623,614.9104,495.7876,620.3976,501.451,612.34" style="stroke: #A80036; stroke-width: 1.0;"/><!--link Agence to Créer mandat--><path d="M86.2152,424.602 C101.343,432.43 121.696,442.251 140.5,449 C221.97,478.239 246,473.194 329.5,496 C340.013,498.871 342.216,501.428 353,503 C371.911,505.757 377.4,507.391 396,503 C399.869,502.087 400.288,500.423 404,499 C425.947,490.588 450.909,483.367 472.362,477.843 " fill="none" id="Agence-Créer mandat" style="stroke: #A80036; stroke-width: 1.0;"/><polygon fill="#A80036" points="477.45,476.547,467.7411,474.8923,472.6047,477.7812,469.7158,482.6447,477.45,476.547" style="stroke: #A80036; stroke-width: 1.0;"/><!--link Organiser rendez-vous to Créer mandat--><path d="M308.456,425.585 C359.965,435.243 427.847,447.971 473.555,456.542 " fill="none" id="Organiser rendez-vous-Créer mandat" style="stroke: #A80036; stroke-width: 1.0; stroke-dasharray: 7.0,7.0;"/><polygon fill="#A80036" points="303.523,424.661,311.6317,430.2511,308.4374,425.5824,313.106,422.3881,303.523,424.661" style="stroke: #A80036; stroke-width: 1.0;"/><text fill="#000000" font-family="sans-serif" font-size="13" lengthAdjust="spacingAndGlyphs" textLength="41" x="354" y="431.4951">include</text><!--link Agence to Créer promesse de vente--><path d="M86.1873,397.828 C101.1368,389.412 121.305,379.365 140.5,374 C235.715,347.389 349.257,344.221 427.971,346.268 " fill="none" id="Agence-Créer promesse de vente" style="stroke: #A80036; stroke-width: 1.0;"/><polygon fill="#A80036" points="433.105,346.41,424.2193,342.1621,428.1069,346.2714,423.9976,350.1591,433.105,346.41" style="stroke: #A80036; stroke-width: 1.0;"/><!--link Agence to Créer envie--><path d="M86.1774,389.29 C100.6518,376.395 120.322,361.064 140.5,352 C198.495,325.948 377.613,299.392 469.059,287.077 " fill="none" id="Agence-Créer envie" style="stroke: #A80036; stroke-width: 1.0;"/><polygon fill="#A80036" points="474.15,286.394,464.6984,283.6252,469.1943,287.0583,465.7612,291.5542,474.15,286.394" style="stroke: #A80036; stroke-width: 1.0;"/><!--link Organiser rendez-vous to Créer promesse de vente--><path d="M305.791,397.46 C350.938,388.055 409.475,375.859 454.553,366.468 " fill="none" id="Organiser rendez-vous-Créer promesse de vente" style="stroke: #A80036; stroke-width: 1.0; stroke-dasharray: 7.0,7.0;"/><polygon fill="#A80036" points="300.633,398.535,310.2598,400.6147,305.5278,397.5149,308.6276,392.7829,300.633,398.535" style="stroke: #A80036; stroke-width: 1.0;"/><text fill="#000000" font-family="sans-serif" font-size="13" lengthAdjust="spacingAndGlyphs" textLength="41" x="354" y="377.4951">include</text><!--link Agence to Signer promesse de vente--><path d="M86.127,376.44 C99.8945,357.817 118.879,336.03 140.5,322 C154.15,313.142 353.066,255.7 458.879,225.498 " fill="none" id="Agence-Signer promesse de vente" style="stroke: #A80036; stroke-width: 1.0;"/><polygon fill="#A80036" points="463.846,224.08,454.0939,222.7026,459.0378,225.4517,456.2887,230.3956,463.846,224.08" style="stroke: #A80036; stroke-width: 1.0;"/><!--link Agence to Créer document--><path d="M74.0456,369.317 C82.6936,340.599 96.539,302.704 116,273 C124.353,260.25 127.072,256.213 140.5,249 C148.968,244.452 158.389,240.937 167.899,238.223 " fill="none" id="Agence-Créer document" style="stroke: #A80036; stroke-width: 1.0;"/><polygon fill="#A80036" points="172.875,236.874,163.1422,235.3662,168.0489,238.1812,165.2338,243.0879,172.875,236.874" style="stroke: #A80036; stroke-width: 1.0;"/><!--link Agence to Voir stats--><path d="M71.0908,369.429 C81.3913,323.398 102.5778,249.452 140.5,196 C158.242,170.993 186.318,149.707 207.079,136.08 " fill="none" id="Agence-Voir stats" style="stroke: #A80036; stroke-width: 1.0;"/><polygon fill="#A80036" points="211.392,133.289,201.663,134.8207,207.1943,136.0056,206.0095,141.5369,211.392,133.289" style="stroke: #A80036; stroke-width: 1.0;"/><!--
@startuml

left to right direction

rectangle "Logiciel" {

  (Organiser rendez-vous)

  Agence - -> (Ajouter personne)
  Agence - -> (Modifier personne)
  Agence - -> (Organiser rendez-vous)

  rectangle "LogiVente"{
    Agence - -> (Ajouter bien)
    (Ajouter bien) .up.> (Organiser rendez-vous) : include
    Agence - -> (Modifier bien)
    Agence - -> (Créer mandat)
    (Créer mandat) .up.> (Organiser rendez-vous) : include
  }

  rectangle "LogiAchat"{
    Agence - -> (Créer promesse de vente)
    Agence - -> (Créer envie)
    (Créer promesse de vente) .up.> (Organiser rendez-vous) : include
    Agence - -> (Signer promesse de vente)
  }

  rectangle "LogiPub"{
    Agence - -> (Créer document)
  }

  rectangle "LogiStat"{
    Agence - -> (Voir stats)
  }

}


@enduml

PlantUML version 1.2017.18(Fri Oct 06 18:56:32 CEST 2017)
(GPL source distribution)
Java Runtime: Java(TM) SE Runtime Environment
JVM: Java HotSpot(TM) 64-Bit Server VM
Java Version: 9.0.1+11
Operating System: Windows 10
OS Version: 10.0
Default Encoding: Cp1252
Language: fr
Country: FR
--></g></svg>