<?xml version="1.0" encoding="UTF-8" standalone="no"?><svg xmlns="http://www.w3.org/2000/svg" xmlns:xlink="http://www.w3.org/1999/xlink" contentScriptType="application/ecmascript" contentStyleType="text/css" height="943px" preserveAspectRatio="none" style="width:1364px;height:943px;" version="1.1" viewBox="0 0 1364 943"
    width="1364px" zoomAndPan="magnify"><defs><filter height="300%" id="f19w7topdxqpux" width="300%" x="-1" y="-1"><feGaussianBlur result="blurOut" stdDeviation="2.0"/><feColorMatrix in="blurOut" result="blurOut2" type="matrix" values="0 0 0 0 0 0 0 0 0 0 0 0 0 0 0 0 0 0 .4 0"/><feOffset dx="4.0" dy="4.0" in="blurOut2" result="blurOut3"/><feBlend in="SourceGraphic" in2="blurOut3" mode="normal"/></filter></defs><g><!--cluster pub--><polygon fill="#FFFFFF" filter="url(#f19w7topdxqpux)" points="226,517.5,259,517.5,266,541.1094,776,541.1094,776,931,226,931,226,517.5" style="stroke: #000000; stroke-width: 2.0;"/><line style="stroke: #000000; stroke-width: 2.0;" x1="226" x2="266" y1="541.1094" y2="541.1094"/><text fill="#000000" font-family="sans-serif" font-size="14" font-weight="bold" lengthAdjust="spacingAndGlyphs" textLength="27" x="230" y="534.0332">pub</text><!--cluster immo--><polygon fill="#FFFFFF" filter="url(#f19w7topdxqpux)" points="800,271,843,271,850,294.6094,1342,294.6094,1342,652,800,652,800,271" style="stroke: #000000; stroke-width: 2.0;"/><line style="stroke: #000000; stroke-width: 2.0;" x1="800" x2="850" y1="294.6094" y2="294.6094"/><text fill="#000000" font-family="sans-serif" font-size="14" font-weight="bold" lengthAdjust="spacingAndGlyphs" textLength="37" x="804" y="287.5332">immo</text><!--class AnnoncePub--><rect fill="#FEFECE" filter="url(#f19w7topdxqpux)" height="61.8359" id="AnnoncePub" style="stroke: #A80036; stroke-width: 1.5;" width="114" x="318" y="553.5"/><ellipse cx="338.4" cy="569.5" fill="#ADD1B2" rx="11" ry="11" style="stroke: #A80036; stroke-width: 1.0;"/><path d="M341.1656,565.375 Q341.3219,565.1563 341.5094,565.0469 Q341.6969,564.9375 341.9156,564.9375 Q342.2906,564.9375 342.525,565.1953 Q342.7594,565.4531 342.7594,566.0625 L342.7594,567.5156 Q342.7594,568.125 342.525,568.3906 Q342.2906,568.6563 341.9156,568.6563 Q341.5719,568.6563 341.3688,568.4531 Q341.1656,568.2656 341.0563,567.75 Q341.0094,567.3906 340.8219,567.2031 Q340.4938,566.8281 339.8844,566.6094 Q339.275,566.3906 338.65,566.3906 Q337.8844,566.3906 337.2516,566.7188 Q336.6188,567.0469 336.1266,567.7969 Q335.6344,568.5469 335.6344,569.5781 L335.6344,570.6719 Q335.6344,571.9063 336.525,572.7266 Q337.4156,573.5469 339.0094,573.5469 Q339.9469,573.5469 340.6031,573.2969 Q340.9938,573.1406 341.4156,572.7031 Q341.6813,572.4375 341.8297,572.3594 Q341.9781,572.2813 342.1813,572.2813 Q342.5094,572.2813 342.7672,572.5391 Q343.025,572.7969 343.025,573.1406 Q343.025,573.4844 342.6813,573.8906 Q342.1813,574.4688 341.3844,574.7969 Q340.3063,575.25 339.0094,575.25 Q337.4938,575.25 336.2906,574.625 Q335.3063,574.125 334.6188,573.0547 Q333.9313,571.9844 333.9313,570.7031 L333.9313,569.5469 Q333.9313,568.2188 334.5484,567.0703 Q335.1656,565.9219 336.2594,565.3047 Q337.3531,564.6875 338.5875,564.6875 Q339.3219,564.6875 339.9703,564.8516 Q340.6188,565.0156 341.1656,565.375 Z "/><text fill="#000000" font-family="sans-serif" font-size="12" lengthAdjust="spacingAndGlyphs" textLength="70" x="353.6" y="574.4102">AnnoncePub</text><line style="stroke: #A80036; stroke-width: 1.5;" x1="319" x2="431" y1="585.5" y2="585.5"/><ellipse cx="329" cy="597.918" fill="none" rx="3" ry="3" style="stroke: #038048; stroke-width: 1.0;"/><text fill="#000000" font-family="sans-serif" font-size="11" lengthAdjust="spacingAndGlyphs" textLength="88" x="338" y="600.9189">TypePub[] listePub</text><line style="stroke: #A80036; stroke-width: 1.5;" x1="319" x2="431" y1="607.3359" y2="607.3359"/><!--class TypePub--><rect fill="#FEFECE" filter="url(#f19w7topdxqpux)" height="61.8359" id="TypePub" style="stroke: #A80036; stroke-width: 1.5;" width="103" x="380.5" y="731"/><ellipse cx="404.95" cy="747" fill="#A9DCDF" rx="11" ry="11" style="stroke: #A80036; stroke-width: 1.0;"/><path d="M407.1375,748.7656 L402.9969,748.7656 L402.575,749.7969 L402.9969,749.7969 Q403.6063,749.7969 403.8719,750.0313 Q404.1375,750.2656 404.1375,750.6563 Q404.1375,751.0313 403.8719,751.2656 Q403.6063,751.5 402.9969,751.5 L400.7,751.5 Q400.0906,751.5 399.8328,751.2656 Q399.575,751.0313 399.575,750.6406 Q399.575,750.2656 399.8484,750.0234 Q400.1219,749.7813 400.7469,749.7969 L403.4188,743.1406 L402.3094,743.1406 Q401.7,743.1406 401.4344,742.9063 Q401.1688,742.6719 401.1688,742.2813 Q401.1688,741.9063 401.4344,741.6719 Q401.7,741.4375 402.3094,741.4375 L405.9813,741.4375 L409.3719,749.7969 Q409.9656,749.7969 410.1531,749.9375 Q410.5438,750.2031 410.5438,750.6563 Q410.5438,751.0313 410.2859,751.2656 Q410.0281,751.5 409.4188,751.5 L407.1219,751.5 Q406.5125,751.5 406.2469,751.2656 Q405.9813,751.0313 405.9813,750.6406 Q405.9813,750.2656 406.2469,750.0313 Q406.5125,749.7969 407.1219,749.7969 L407.5438,749.7969 L407.1375,748.7656 Z M406.4188,747.0625 L405.0594,743.6875 L403.6844,747.0625 L406.4188,747.0625 Z "/><text fill="#000000" font-family="sans-serif" font-size="12" font-style="italic" lengthAdjust="spacingAndGlyphs" textLength="50" x="421.05" y="751.9102">TypePub</text><line style="stroke: #A80036; stroke-width: 1.5;" x1="381.5" x2="482.5" y1="763" y2="763"/><line style="stroke: #A80036; stroke-width: 1.5;" x1="381.5" x2="482.5" y1="771" y2="771"/><ellipse cx="391.5" cy="783.418" fill="#84BE84" rx="3" ry="3" style="stroke: #038048; stroke-width: 1.0;"/><text fill="#000000" font-family="sans-serif" font-size="11" lengthAdjust="spacingAndGlyphs" textLength="77" x="400.5" y="786.4189">addElem() : void</text><!--class TypeTexte--><rect fill="#FEFECE" filter="url(#f19w7topdxqpux)" height="61.8359" id="TypeTexte" style="stroke: #A80036; stroke-width: 1.5;" width="103" x="242.5" y="853"/><ellipse cx="264.7" cy="869" fill="#ADD1B2" rx="11" ry="11" style="stroke: #A80036; stroke-width: 1.0;"/><path d="M267.4656,864.875 Q267.6219,864.6563 267.8094,864.5469 Q267.9969,864.4375 268.2156,864.4375 Q268.5906,864.4375 268.825,864.6953 Q269.0594,864.9531 269.0594,865.5625 L269.0594,867.0156 Q269.0594,867.625 268.825,867.8906 Q268.5906,868.1563 268.2156,868.1563 Q267.8719,868.1563 267.6688,867.9531 Q267.4656,867.7656 267.3563,867.25 Q267.3094,866.8906 267.1219,866.7031 Q266.7938,866.3281 266.1844,866.1094 Q265.575,865.8906 264.95,865.8906 Q264.1844,865.8906 263.5516,866.2188 Q262.9188,866.5469 262.4266,867.2969 Q261.9344,868.0469 261.9344,869.0781 L261.9344,870.1719 Q261.9344,871.4063 262.825,872.2266 Q263.7156,873.0469 265.3094,873.0469 Q266.2469,873.0469 266.9031,872.7969 Q267.2938,872.6406 267.7156,872.2031 Q267.9813,871.9375 268.1297,871.8594 Q268.2781,871.7813 268.4813,871.7813 Q268.8094,871.7813 269.0672,872.0391 Q269.325,872.2969 269.325,872.6406 Q269.325,872.9844 268.9813,873.3906 Q268.4813,873.9688 267.6844,874.2969 Q266.6063,874.75 265.3094,874.75 Q263.7938,874.75 262.5906,874.125 Q261.6063,873.625 260.9188,872.5547 Q260.2313,871.4844 260.2313,870.2031 L260.2313,869.0469 Q260.2313,867.7188 260.8484,866.5703 Q261.4656,865.4219 262.5594,864.8047 Q263.6531,864.1875 264.8875,864.1875 Q265.6219,864.1875 266.2703,864.3516 Q266.9188,864.5156 267.4656,864.875 Z "/><text fill="#000000" font-family="sans-serif" font-size="12" lengthAdjust="spacingAndGlyphs" textLength="55" x="280.3" y="873.9102">TypeTexte</text><line style="stroke: #A80036; stroke-width: 1.5;" x1="243.5" x2="344.5" y1="885" y2="885"/><line style="stroke: #A80036; stroke-width: 1.5;" x1="243.5" x2="344.5" y1="893" y2="893"/><ellipse cx="253.5" cy="905.418" fill="#84BE84" rx="3" ry="3" style="stroke: #038048; stroke-width: 1.0;"/><text fill="#000000" font-family="sans-serif" font-size="11" lengthAdjust="spacingAndGlyphs" textLength="77" x="262.5" y="908.4189">addElem() : void</text><!--class TypeHtml--><rect fill="#FEFECE" filter="url(#f19w7topdxqpux)" height="61.8359" id="TypeHtml" style="stroke: #A80036; stroke-width: 1.5;" width="103" x="380.5" y="853"/><ellipse cx="404.05" cy="869" fill="#ADD1B2" rx="11" ry="11" style="stroke: #A80036; stroke-width: 1.0;"/><path d="M406.8156,864.875 Q406.9719,864.6563 407.1594,864.5469 Q407.3469,864.4375 407.5656,864.4375 Q407.9406,864.4375 408.175,864.6953 Q408.4094,864.9531 408.4094,865.5625 L408.4094,867.0156 Q408.4094,867.625 408.175,867.8906 Q407.9406,868.1563 407.5656,868.1563 Q407.2219,868.1563 407.0188,867.9531 Q406.8156,867.7656 406.7063,867.25 Q406.6594,866.8906 406.4719,866.7031 Q406.1438,866.3281 405.5344,866.1094 Q404.925,865.8906 404.3,865.8906 Q403.5344,865.8906 402.9016,866.2188 Q402.2688,866.5469 401.7766,867.2969 Q401.2844,868.0469 401.2844,869.0781 L401.2844,870.1719 Q401.2844,871.4063 402.175,872.2266 Q403.0656,873.0469 404.6594,873.0469 Q405.5969,873.0469 406.2531,872.7969 Q406.6438,872.6406 407.0656,872.2031 Q407.3313,871.9375 407.4797,871.8594 Q407.6281,871.7813 407.8313,871.7813 Q408.1594,871.7813 408.4172,872.0391 Q408.675,872.2969 408.675,872.6406 Q408.675,872.9844 408.3313,873.3906 Q407.8313,873.9688 407.0344,874.2969 Q405.9563,874.75 404.6594,874.75 Q403.1438,874.75 401.9406,874.125 Q400.9563,873.625 400.2688,872.5547 Q399.5813,871.4844 399.5813,870.2031 L399.5813,869.0469 Q399.5813,867.7188 400.1984,866.5703 Q400.8156,865.4219 401.9094,864.8047 Q403.0031,864.1875 404.2375,864.1875 Q404.9719,864.1875 405.6203,864.3516 Q406.2688,864.5156 406.8156,864.875 Z "/><text fill="#000000" font-family="sans-serif" font-size="12" lengthAdjust="spacingAndGlyphs" textLength="52" x="419.95" y="873.9102">TypeHtml</text><line style="stroke: #A80036; stroke-width: 1.5;" x1="381.5" x2="482.5" y1="885" y2="885"/><line style="stroke: #A80036; stroke-width: 1.5;" x1="381.5" x2="482.5" y1="893" y2="893"/><ellipse cx="391.5" cy="905.418" fill="#84BE84" rx="3" ry="3" style="stroke: #038048; stroke-width: 1.0;"/><text fill="#000000" font-family="sans-serif" font-size="11" lengthAdjust="spacingAndGlyphs" textLength="77" x="400.5" y="908.4189">addElem() : void</text><!--class TypeImg--><rect fill="#FEFECE" filter="url(#f19w7topdxqpux)" height="61.8359" id="TypeImg" style="stroke: #A80036; stroke-width: 1.5;" width="103" x="518.5" y="853"/><ellipse cx="544.3" cy="869" fill="#ADD1B2" rx="11" ry="11" style="stroke: #A80036; stroke-width: 1.0;"/><path d="M547.0656,864.875 Q547.2219,864.6563 547.4094,864.5469 Q547.5969,864.4375 547.8156,864.4375 Q548.1906,864.4375 548.425,864.6953 Q548.6594,864.9531 548.6594,865.5625 L548.6594,867.0156 Q548.6594,867.625 548.425,867.8906 Q548.1906,868.1563 547.8156,868.1563 Q547.4719,868.1563 547.2688,867.9531 Q547.0656,867.7656 546.9563,867.25 Q546.9094,866.8906 546.7219,866.7031 Q546.3938,866.3281 545.7844,866.1094 Q545.175,865.8906 544.55,865.8906 Q543.7844,865.8906 543.1516,866.2188 Q542.5188,866.5469 542.0266,867.2969 Q541.5344,868.0469 541.5344,869.0781 L541.5344,870.1719 Q541.5344,871.4063 542.425,872.2266 Q543.3156,873.0469 544.9094,873.0469 Q545.8469,873.0469 546.5031,872.7969 Q546.8938,872.6406 547.3156,872.2031 Q547.5813,871.9375 547.7297,871.8594 Q547.8781,871.7813 548.0813,871.7813 Q548.4094,871.7813 548.6672,872.0391 Q548.925,872.2969 548.925,872.6406 Q548.925,872.9844 548.5813,873.3906 Q548.0813,873.9688 547.2844,874.2969 Q546.2063,874.75 544.9094,874.75 Q543.3938,874.75 542.1906,874.125 Q541.2063,873.625 540.5188,872.5547 Q539.8313,871.4844 539.8313,870.2031 L539.8313,869.0469 Q539.8313,867.7188 540.4484,866.5703 Q541.0656,865.4219 542.1594,864.8047 Q543.2531,864.1875 544.4875,864.1875 Q545.2219,864.1875 545.8703,864.3516 Q546.5188,864.5156 547.0656,864.875 Z "/><text fill="#000000" font-family="sans-serif" font-size="12" lengthAdjust="spacingAndGlyphs" textLength="47" x="560.7" y="873.9102">TypeImg</text><line style="stroke: #A80036; stroke-width: 1.5;" x1="519.5" x2="620.5" y1="885" y2="885"/><line style="stroke: #A80036; stroke-width: 1.5;" x1="519.5" x2="620.5" y1="893" y2="893"/><ellipse cx="529.5" cy="905.418" fill="#84BE84" rx="3" ry="3" style="stroke: #038048; stroke-width: 1.0;"/><text fill="#000000" font-family="sans-serif" font-size="11" lengthAdjust="spacingAndGlyphs" textLength="77" x="538.5" y="908.4189">addElem() : void</text><!--class TypeVid--><rect fill="#FEFECE" filter="url(#f19w7topdxqpux)" height="61.8359" id="TypeVid" style="stroke: #A80036; stroke-width: 1.5;" width="103" x="656.5" y="853"/><ellipse cx="684.1" cy="869" fill="#ADD1B2" rx="11" ry="11" style="stroke: #A80036; stroke-width: 1.0;"/><path d="M686.8656,864.875 Q687.0219,864.6563 687.2094,864.5469 Q687.3969,864.4375 687.6156,864.4375 Q687.9906,864.4375 688.225,864.6953 Q688.4594,864.9531 688.4594,865.5625 L688.4594,867.0156 Q688.4594,867.625 688.225,867.8906 Q687.9906,868.1563 687.6156,868.1563 Q687.2719,868.1563 687.0688,867.9531 Q686.8656,867.7656 686.7563,867.25 Q686.7094,866.8906 686.5219,866.7031 Q686.1938,866.3281 685.5844,866.1094 Q684.975,865.8906 684.35,865.8906 Q683.5844,865.8906 682.9516,866.2188 Q682.3188,866.5469 681.8266,867.2969 Q681.3344,868.0469 681.3344,869.0781 L681.3344,870.1719 Q681.3344,871.4063 682.225,872.2266 Q683.1156,873.0469 684.7094,873.0469 Q685.6469,873.0469 686.3031,872.7969 Q686.6938,872.6406 687.1156,872.2031 Q687.3813,871.9375 687.5297,871.8594 Q687.6781,871.7813 687.8813,871.7813 Q688.2094,871.7813 688.4672,872.0391 Q688.725,872.2969 688.725,872.6406 Q688.725,872.9844 688.3813,873.3906 Q687.8813,873.9688 687.0844,874.2969 Q686.0063,874.75 684.7094,874.75 Q683.1938,874.75 681.9906,874.125 Q681.0063,873.625 680.3188,872.5547 Q679.6313,871.4844 679.6313,870.2031 L679.6313,869.0469 Q679.6313,867.7188 680.2484,866.5703 Q680.8656,865.4219 681.9594,864.8047 Q683.0531,864.1875 684.2875,864.1875 Q685.0219,864.1875 685.6703,864.3516 Q686.3188,864.5156 686.8656,864.875 Z "/><text fill="#000000" font-family="sans-serif" font-size="12" lengthAdjust="spacingAndGlyphs" textLength="43" x="700.9" y="873.9102">TypeVid</text><line style="stroke: #A80036; stroke-width: 1.5;" x1="657.5" x2="758.5" y1="885" y2="885"/><line style="stroke: #A80036; stroke-width: 1.5;" x1="657.5" x2="758.5" y1="893" y2="893"/><ellipse cx="667.5" cy="905.418" fill="#84BE84" rx="3" ry="3" style="stroke: #038048; stroke-width: 1.0;"/><text fill="#000000" font-family="sans-serif" font-size="11" lengthAdjust="spacingAndGlyphs" textLength="77" x="676.5" y="908.4189">addElem() : void</text><!--class BienImmo--><rect fill="#FEFECE" filter="url(#f19w7topdxqpux)" height="131.0156" id="BienImmo" style="stroke: #A80036; stroke-width: 1.5;" width="107" x="926.5" y="307"/><ellipse cx="949.15" cy="323" fill="#A9DCDF" rx="11" ry="11" style="stroke: #A80036; stroke-width: 1.0;"/><path d="M951.3375,324.7656 L947.1969,324.7656 L946.775,325.7969 L947.1969,325.7969 Q947.8063,325.7969 948.0719,326.0313 Q948.3375,326.2656 948.3375,326.6563 Q948.3375,327.0313 948.0719,327.2656 Q947.8063,327.5 947.1969,327.5 L944.9,327.5 Q944.2906,327.5 944.0328,327.2656 Q943.775,327.0313 943.775,326.6406 Q943.775,326.2656 944.0484,326.0234 Q944.3219,325.7813 944.9469,325.7969 L947.6188,319.1406 L946.5094,319.1406 Q945.9,319.1406 945.6344,318.9063 Q945.3688,318.6719 945.3688,318.2813 Q945.3688,317.9063 945.6344,317.6719 Q945.9,317.4375 946.5094,317.4375 L950.1813,317.4375 L953.5719,325.7969 Q954.1656,325.7969 954.3531,325.9375 Q954.7438,326.2031 954.7438,326.6563 Q954.7438,327.0313 954.4859,327.2656 Q954.2281,327.5 953.6188,327.5 L951.3219,327.5 Q950.7125,327.5 950.4469,327.2656 Q950.1813,327.0313 950.1813,326.6406 Q950.1813,326.2656 950.4469,326.0313 Q950.7125,325.7969 951.3219,325.7969 L951.7438,325.7969 L951.3375,324.7656 Z M950.6188,323.0625 L949.2594,319.6875 L947.8844,323.0625 L950.6188,323.0625 Z "/><text fill="#000000" font-family="sans-serif" font-size="12" font-style="italic" lengthAdjust="spacingAndGlyphs" textLength="58" x="964.85" y="327.9102">BienImmo</text><line style="stroke: #A80036; stroke-width: 1.5;" x1="927.5" x2="1032.5" y1="339" y2="339"/><ellipse cx="937.5" cy="351.418" fill="none" rx="3" ry="3" style="stroke: #038048; stroke-width: 1.0;"/><text fill="#000000" font-family="sans-serif" font-size="11" lengthAdjust="spacingAndGlyphs" textLength="34" x="946.5" y="354.4189">Int num</text><ellipse cx="937.5" cy="365.2539" fill="none" rx="3" ry="3" style="stroke: #038048; stroke-width: 1.0;"/><text fill="#000000" font-family="sans-serif" font-size="11" lengthAdjust="spacingAndGlyphs" textLength="71" x="946.5" y="368.2549">String adresse</text><ellipse cx="937.5" cy="379.0898" fill="none" rx="3" ry="3" style="stroke: #038048; stroke-width: 1.0;"/><text fill="#000000" font-family="sans-serif" font-size="11" lengthAdjust="spacingAndGlyphs" textLength="81" x="946.5" y="382.0908">String orientation</text><ellipse cx="937.5" cy="392.9258" fill="none" rx="3" ry="3" style="stroke: #038048; stroke-width: 1.0;"/><text fill="#000000" font-family="sans-serif" font-size="11" lengthAdjust="spacingAndGlyphs" textLength="54" x="946.5" y="395.9268">Double prix</text><ellipse cx="937.5" cy="406.7617" fill="none" rx="3" ry="3" style="stroke: #038048; stroke-width: 1.0;"/><text fill="#000000" font-family="sans-serif" font-size="11" lengthAdjust="spacingAndGlyphs" textLength="52" x="946.5" y="409.7627">Date vente</text><ellipse cx="937.5" cy="420.5977" fill="none" rx="3" ry="3" style="stroke: #038048; stroke-width: 1.0;"/><text fill="#000000" font-family="sans-serif" font-size="11" lengthAdjust="spacingAndGlyphs" textLength="57" x="946.5" y="423.5986">Date[] dispo</text><line style="stroke: #A80036; stroke-width: 1.5;" x1="927.5" x2="1032.5" y1="430.0156" y2="430.0156"/><!--class Terrain--><rect fill="#FEFECE" filter="url(#f19w7topdxqpux)" height="75.6719" id="Terrain" style="stroke: #A80036; stroke-width: 1.5;" width="140" x="1186" y="546.5"/><ellipse cx="1232.25" cy="562.5" fill="#ADD1B2" rx="11" ry="11" style="stroke: #A80036; stroke-width: 1.0;"/><path d="M1235.0156,558.375 Q1235.1719,558.1563 1235.3594,558.0469 Q1235.5469,557.9375 1235.7656,557.9375 Q1236.1406,557.9375 1236.375,558.1953 Q1236.6094,558.4531 1236.6094,559.0625 L1236.6094,560.5156 Q1236.6094,561.125 1236.375,561.3906 Q1236.1406,561.6563 1235.7656,561.6563 Q1235.4219,561.6563 1235.2188,561.4531 Q1235.0156,561.2656 1234.9063,560.75 Q1234.8594,560.3906 1234.6719,560.2031 Q1234.3438,559.8281 1233.7344,559.6094 Q1233.125,559.3906 1232.5,559.3906 Q1231.7344,559.3906 1231.1016,559.7188 Q1230.4688,560.0469 1229.9766,560.7969 Q1229.4844,561.5469 1229.4844,562.5781 L1229.4844,563.6719 Q1229.4844,564.9063 1230.375,565.7266 Q1231.2656,566.5469 1232.8594,566.5469 Q1233.7969,566.5469 1234.4531,566.2969 Q1234.8438,566.1406 1235.2656,565.7031 Q1235.5313,565.4375 1235.6797,565.3594 Q1235.8281,565.2813 1236.0313,565.2813 Q1236.3594,565.2813 1236.6172,565.5391 Q1236.875,565.7969 1236.875,566.1406 Q1236.875,566.4844 1236.5313,566.8906 Q1236.0313,567.4688 1235.2344,567.7969 Q1234.1563,568.25 1232.8594,568.25 Q1231.3438,568.25 1230.1406,567.625 Q1229.1563,567.125 1228.4688,566.0547 Q1227.7813,564.9844 1227.7813,563.7031 L1227.7813,562.5469 Q1227.7813,561.2188 1228.3984,560.0703 Q1229.0156,558.9219 1230.1094,558.3047 Q1231.2031,557.6875 1232.4375,557.6875 Q1233.1719,557.6875 1233.8203,557.8516 Q1234.4688,558.0156 1235.0156,558.375 Z "/><text fill="#000000" font-family="sans-serif" font-size="12" lengthAdjust="spacingAndGlyphs" textLength="39" x="1252.75" y="567.4102">Terrain</text><line style="stroke: #A80036; stroke-width: 1.5;" x1="1187" x2="1325" y1="578.5" y2="578.5"/><ellipse cx="1197" cy="590.918" fill="none" rx="3" ry="3" style="stroke: #038048; stroke-width: 1.0;"/><text fill="#000000" font-family="sans-serif" font-size="11" lengthAdjust="spacingAndGlyphs" textLength="89" x="1206" y="593.9189">Double surfaceSol</text><ellipse cx="1197" cy="604.7539" fill="none" rx="3" ry="3" style="stroke: #038048; stroke-width: 1.0;"/><text fill="#000000" font-family="sans-serif" font-size="11" lengthAdjust="spacingAndGlyphs" textLength="114" x="1206" y="607.7549">Double longueurFacade</text><line style="stroke: #A80036; stroke-width: 1.5;" x1="1187" x2="1325" y1="614.1719" y2="614.1719"/><!--class Maison--><rect fill="#FEFECE" filter="url(#f19w7topdxqpux)" height="103.3438" id="Maison" style="stroke: #A80036; stroke-width: 1.5;" width="144" x="816" y="533"/><ellipse cx="863.75" cy="549" fill="#ADD1B2" rx="11" ry="11" style="stroke: #A80036; stroke-width: 1.0;"/><path d="M866.5156,544.875 Q866.6719,544.6563 866.8594,544.5469 Q867.0469,544.4375 867.2656,544.4375 Q867.6406,544.4375 867.875,544.6953 Q868.1094,544.9531 868.1094,545.5625 L868.1094,547.0156 Q868.1094,547.625 867.875,547.8906 Q867.6406,548.1563 867.2656,548.1563 Q866.9219,548.1563 866.7188,547.9531 Q866.5156,547.7656 866.4063,547.25 Q866.3594,546.8906 866.1719,546.7031 Q865.8438,546.3281 865.2344,546.1094 Q864.625,545.8906 864,545.8906 Q863.2344,545.8906 862.6016,546.2188 Q861.9688,546.5469 861.4766,547.2969 Q860.9844,548.0469 860.9844,549.0781 L860.9844,550.1719 Q860.9844,551.4063 861.875,552.2266 Q862.7656,553.0469 864.3594,553.0469 Q865.2969,553.0469 865.9531,552.7969 Q866.3438,552.6406 866.7656,552.2031 Q867.0313,551.9375 867.1797,551.8594 Q867.3281,551.7813 867.5313,551.7813 Q867.8594,551.7813 868.1172,552.0391 Q868.375,552.2969 868.375,552.6406 Q868.375,552.9844 868.0313,553.3906 Q867.5313,553.9688 866.7344,554.2969 Q865.6563,554.75 864.3594,554.75 Q862.8438,554.75 861.6406,554.125 Q860.6563,553.625 859.9688,552.5547 Q859.2813,551.4844 859.2813,550.2031 L859.2813,549.0469 Q859.2813,547.7188 859.8984,546.5703 Q860.5156,545.4219 861.6094,544.8047 Q862.7031,544.1875 863.9375,544.1875 Q864.6719,544.1875 865.3203,544.3516 Q865.9688,544.5156 866.5156,544.875 Z "/><text fill="#000000" font-family="sans-serif" font-size="12" lengthAdjust="spacingAndGlyphs" textLength="40" x="884.25" y="553.9102">Maison</text><line style="stroke: #A80036; stroke-width: 1.5;" x1="817" x2="959" y1="565" y2="565"/><ellipse cx="827" cy="577.418" fill="none" rx="3" ry="3" style="stroke: #038048; stroke-width: 1.0;"/><text fill="#000000" font-family="sans-serif" font-size="11" lengthAdjust="spacingAndGlyphs" textLength="118" x="836" y="580.4189">Double surfaceHabitable</text><ellipse cx="827" cy="591.2539" fill="none" rx="3" ry="3" style="stroke: #038048; stroke-width: 1.0;"/><text fill="#000000" font-family="sans-serif" font-size="11" lengthAdjust="spacingAndGlyphs" textLength="58" x="836" y="594.2549">Int nbPieces</text><ellipse cx="827" cy="605.0898" fill="none" rx="3" ry="3" style="stroke: #038048; stroke-width: 1.0;"/><text fill="#000000" font-family="sans-serif" font-size="11" lengthAdjust="spacingAndGlyphs" textLength="59" x="836" y="608.0908">Int nbEtages</text><ellipse cx="827" cy="618.9258" fill="none" rx="3" ry="3" style="stroke: #038048; stroke-width: 1.0;"/><text fill="#000000" font-family="sans-serif" font-size="11" lengthAdjust="spacingAndGlyphs" textLength="81" x="836" y="621.9268">String chauffage</text><line style="stroke: #A80036; stroke-width: 1.5;" x1="817" x2="959" y1="628.3438" y2="628.3438"/><!--class Appartement--><rect fill="#FEFECE" filter="url(#f19w7topdxqpux)" height="89.5078" id="Appartement" style="stroke: #A80036; stroke-width: 1.5;" width="156" x="995" y="539.5"/><ellipse cx="1034.3" cy="555.5" fill="#ADD1B2" rx="11" ry="11" style="stroke: #A80036; stroke-width: 1.0;"/><path d="M1037.0656,551.375 Q1037.2219,551.1563 1037.4094,551.0469 Q1037.5969,550.9375 1037.8156,550.9375 Q1038.1906,550.9375 1038.425,551.1953 Q1038.6594,551.4531 1038.6594,552.0625 L1038.6594,553.5156 Q1038.6594,554.125 1038.425,554.3906 Q1038.1906,554.6563 1037.8156,554.6563 Q1037.4719,554.6563 1037.2688,554.4531 Q1037.0656,554.2656 1036.9563,553.75 Q1036.9094,553.3906 1036.7219,553.2031 Q1036.3938,552.8281 1035.7844,552.6094 Q1035.175,552.3906 1034.55,552.3906 Q1033.7844,552.3906 1033.1516,552.7188 Q1032.5188,553.0469 1032.0266,553.7969 Q1031.5344,554.5469 1031.5344,555.5781 L1031.5344,556.6719 Q1031.5344,557.9063 1032.425,558.7266 Q1033.3156,559.5469 1034.9094,559.5469 Q1035.8469,559.5469 1036.5031,559.2969 Q1036.8938,559.1406 1037.3156,558.7031 Q1037.5813,558.4375 1037.7297,558.3594 Q1037.8781,558.2813 1038.0813,558.2813 Q1038.4094,558.2813 1038.6672,558.5391 Q1038.925,558.7969 1038.925,559.1406 Q1038.925,559.4844 1038.5813,559.8906 Q1038.0813,560.4688 1037.2844,560.7969 Q1036.2063,561.25 1034.9094,561.25 Q1033.3938,561.25 1032.1906,560.625 Q1031.2063,560.125 1030.5188,559.0547 Q1029.8313,557.9844 1029.8313,556.7031 L1029.8313,555.5469 Q1029.8313,554.2188 1030.4484,553.0703 Q1031.0656,551.9219 1032.1594,551.3047 Q1033.2531,550.6875 1034.4875,550.6875 Q1035.2219,550.6875 1035.8703,550.8516 Q1036.5188,551.0156 1037.0656,551.375 Z "/><text fill="#000000" font-family="sans-serif" font-size="12" lengthAdjust="spacingAndGlyphs" textLength="70" x="1053.7" y="560.4102">Appartement</text><line style="stroke: #A80036; stroke-width: 1.5;" x1="996" x2="1150" y1="571.5" y2="571.5"/><ellipse cx="1006" cy="583.918" fill="none" rx="3" ry="3" style="stroke: #038048; stroke-width: 1.0;"/><text fill="#000000" font-family="sans-serif" font-size="11" lengthAdjust="spacingAndGlyphs" textLength="58" x="1015" y="586.9189">Int nbPieces</text><ellipse cx="1006" cy="597.7539" fill="none" rx="3" ry="3" style="stroke: #038048; stroke-width: 1.0;"/><text fill="#000000" font-family="sans-serif" font-size="11" lengthAdjust="spacingAndGlyphs" textLength="41" x="1015" y="600.7549">Int etage</text><ellipse cx="1006" cy="611.5898" fill="none" rx="3" ry="3" style="stroke: #038048; stroke-width: 1.0;"/><text fill="#000000" font-family="sans-serif" font-size="11" lengthAdjust="spacingAndGlyphs" textLength="130" x="1015" y="614.5908">Double chargesMensuelles</text><line style="stroke: #A80036; stroke-width: 1.5;" x1="996" x2="1150" y1="621.0078" y2="621.0078"/><!--class Personne--><rect fill="#FEFECE" filter="url(#f19w7topdxqpux)" height="172.5234" id="Personne" style="stroke: #A80036; stroke-width: 1.5;" width="204" x="6" y="498"/><ellipse cx="76.75" cy="514" fill="#ADD1B2" rx="11" ry="11" style="stroke: #A80036; stroke-width: 1.0;"/><path d="M79.5156,509.875 Q79.6719,509.6563 79.8594,509.5469 Q80.0469,509.4375 80.2656,509.4375 Q80.6406,509.4375 80.875,509.6953 Q81.1094,509.9531 81.1094,510.5625 L81.1094,512.0156 Q81.1094,512.625 80.875,512.8906 Q80.6406,513.1563 80.2656,513.1563 Q79.9219,513.1563 79.7188,512.9531 Q79.5156,512.7656 79.4063,512.25 Q79.3594,511.8906 79.1719,511.7031 Q78.8438,511.3281 78.2344,511.1094 Q77.625,510.8906 77,510.8906 Q76.2344,510.8906 75.6016,511.2188 Q74.9688,511.5469 74.4766,512.2969 Q73.9844,513.0469 73.9844,514.0781 L73.9844,515.1719 Q73.9844,516.4063 74.875,517.2266 Q75.7656,518.0469 77.3594,518.0469 Q78.2969,518.0469 78.9531,517.7969 Q79.3438,517.6406 79.7656,517.2031 Q80.0313,516.9375 80.1797,516.8594 Q80.3281,516.7813 80.5313,516.7813 Q80.8594,516.7813 81.1172,517.0391 Q81.375,517.2969 81.375,517.6406 Q81.375,517.9844 81.0313,518.3906 Q80.5313,518.9688 79.7344,519.2969 Q78.6563,519.75 77.3594,519.75 Q75.8438,519.75 74.6406,519.125 Q73.6563,518.625 72.9688,517.5547 Q72.2813,516.4844 72.2813,515.2031 L72.2813,514.0469 Q72.2813,512.7188 72.8984,511.5703 Q73.5156,510.4219 74.6094,509.8047 Q75.7031,509.1875 76.9375,509.1875 Q77.6719,509.1875 78.3203,509.3516 Q78.9688,509.5156 79.5156,509.875 Z "/><text fill="#000000" font-family="sans-serif" font-size="12" lengthAdjust="spacingAndGlyphs" textLength="54" x="97.25" y="518.9102">Personne</text><line style="stroke: #A80036; stroke-width: 1.5;" x1="7" x2="209" y1="530" y2="530"/><ellipse cx="17" cy="542.418" fill="none" rx="3" ry="3" style="stroke: #038048; stroke-width: 1.0;"/><text fill="#000000" font-family="sans-serif" font-size="11" lengthAdjust="spacingAndGlyphs" textLength="51" x="26" y="545.4189">String nom</text><ellipse cx="17" cy="556.2539" fill="none" rx="3" ry="3" style="stroke: #038048; stroke-width: 1.0;"/><text fill="#000000" font-family="sans-serif" font-size="11" lengthAdjust="spacingAndGlyphs" textLength="71" x="26" y="559.2549">String adresse</text><ellipse cx="17" cy="570.0898" fill="none" rx="3" ry="3" style="stroke: #038048; stroke-width: 1.0;"/><text fill="#000000" font-family="sans-serif" font-size="11" lengthAdjust="spacingAndGlyphs" textLength="61" x="26" y="573.0908">Int telephone</text><ellipse cx="17" cy="583.9258" fill="none" rx="3" ry="3" style="stroke: #038048; stroke-width: 1.0;"/><text fill="#000000" font-family="sans-serif" font-size="11" lengthAdjust="spacingAndGlyphs" textLength="55" x="26" y="586.9268">String email</text><ellipse cx="17" cy="597.7617" fill="none" rx="3" ry="3" style="stroke: #038048; stroke-width: 1.0;"/><text fill="#000000" font-family="sans-serif" font-size="11" lengthAdjust="spacingAndGlyphs" textLength="102" x="26" y="600.7627">String formeJuridique</text><ellipse cx="17" cy="611.5977" fill="none" rx="3" ry="3" style="stroke: #038048; stroke-width: 1.0;"/><text fill="#000000" font-family="sans-serif" font-size="11" lengthAdjust="spacingAndGlyphs" textLength="59" x="26" y="614.5986">Int numSiren</text><line style="stroke: #A80036; stroke-width: 1.5;" x1="7" x2="209" y1="621.0156" y2="621.0156"/><ellipse cx="17" cy="633.4336" fill="#84BE84" rx="3" ry="3" style="stroke: #038048; stroke-width: 1.0;"/><text fill="#000000" font-family="sans-serif" font-size="11" lengthAdjust="spacingAndGlyphs" textLength="149" x="26" y="636.4346">PriseRDV(Agence, Date) : void</text><ellipse cx="17" cy="647.2695" fill="#84BE84" rx="3" ry="3" style="stroke: #038048; stroke-width: 1.0;"/><text fill="#000000" font-family="sans-serif" font-size="11" lengthAdjust="spacingAndGlyphs" textLength="178" x="26" y="650.2705">CreerMandat(Agence, Mandat) : void</text><ellipse cx="17" cy="661.1055" fill="#84BE84" rx="3" ry="3" style="stroke: #038048; stroke-width: 1.0;"/><text fill="#000000" font-family="sans-serif" font-size="11" lengthAdjust="spacingAndGlyphs" textLength="166" x="26" y="664.1064">InteretAchat(Agence, Envie) : void</text><!--class Agence--><rect fill="#FEFECE" filter="url(#f19w7topdxqpux)" height="131.0156" id="Agence" style="stroke: #A80036; stroke-width: 1.5;" width="236" x="201" y="307"/><ellipse cx="294.25" cy="323" fill="#ADD1B2" rx="11" ry="11" style="stroke: #A80036; stroke-width: 1.0;"/><path d="M297.0156,318.875 Q297.1719,318.6563 297.3594,318.5469 Q297.5469,318.4375 297.7656,318.4375 Q298.1406,318.4375 298.375,318.6953 Q298.6094,318.9531 298.6094,319.5625 L298.6094,321.0156 Q298.6094,321.625 298.375,321.8906 Q298.1406,322.1563 297.7656,322.1563 Q297.4219,322.1563 297.2188,321.9531 Q297.0156,321.7656 296.9063,321.25 Q296.8594,320.8906 296.6719,320.7031 Q296.3438,320.3281 295.7344,320.1094 Q295.125,319.8906 294.5,319.8906 Q293.7344,319.8906 293.1016,320.2188 Q292.4688,320.5469 291.9766,321.2969 Q291.4844,322.0469 291.4844,323.0781 L291.4844,324.1719 Q291.4844,325.4063 292.375,326.2266 Q293.2656,327.0469 294.8594,327.0469 Q295.7969,327.0469 296.4531,326.7969 Q296.8438,326.6406 297.2656,326.2031 Q297.5313,325.9375 297.6797,325.8594 Q297.8281,325.7813 298.0313,325.7813 Q298.3594,325.7813 298.6172,326.0391 Q298.875,326.2969 298.875,326.6406 Q298.875,326.9844 298.5313,327.3906 Q298.0313,327.9688 297.2344,328.2969 Q296.1563,328.75 294.8594,328.75 Q293.3438,328.75 292.1406,328.125 Q291.1563,327.625 290.4688,326.5547 Q289.7813,325.4844 289.7813,324.2031 L289.7813,323.0469 Q289.7813,321.7188 290.3984,320.5703 Q291.0156,319.4219 292.1094,318.8047 Q293.2031,318.1875 294.4375,318.1875 Q295.1719,318.1875 295.8203,318.3516 Q296.4688,318.5156 297.0156,318.875 Z "/><text fill="#000000" font-family="sans-serif" font-size="12" lengthAdjust="spacingAndGlyphs" textLength="41" x="314.75" y="327.9102">Agence</text><line style="stroke: #A80036; stroke-width: 1.5;" x1="202" x2="436" y1="339" y2="339"/><ellipse cx="212" cy="351.418" fill="none" rx="3" ry="3" style="stroke: #038048; stroke-width: 1.0;"/><text fill="#000000" font-family="sans-serif" font-size="11" lengthAdjust="spacingAndGlyphs" textLength="51" x="221" y="354.4189">String nom</text><ellipse cx="212" cy="365.2539" fill="none" rx="3" ry="3" style="stroke: #038048; stroke-width: 1.0;"/><text fill="#000000" font-family="sans-serif" font-size="11" lengthAdjust="spacingAndGlyphs" textLength="210" x="221" y="368.2549">HashSet&lt;Date, Personne&gt; listeRdvVendeur</text><line style="stroke: #A80036; stroke-width: 1.5;" x1="202" x2="436" y1="374.6719" y2="374.6719"/><ellipse cx="212" cy="387.0898" fill="#84BE84" rx="3" ry="3" style="stroke: #038048; stroke-width: 1.0;"/><text fill="#000000" font-family="sans-serif" font-size="11" lengthAdjust="spacingAndGlyphs" textLength="151" x="221" y="390.0908">Contacter(Envie, Mandat) : void</text><ellipse cx="212" cy="400.9258" fill="#84BE84" rx="3" ry="3" style="stroke: #038048; stroke-width: 1.0;"/><text fill="#000000" font-family="sans-serif" font-size="11" lengthAdjust="spacingAndGlyphs" textLength="207" x="221" y="403.9268">OrganiserVisite(Envie, Mandat, Date) : void</text><ellipse cx="212" cy="414.7617" fill="#84BE84" rx="3" ry="3" style="stroke: #038048; stroke-width: 1.0;"/><text fill="#000000" font-family="sans-serif" font-size="11" lengthAdjust="spacingAndGlyphs" textLength="209" x="221" y="417.7627">OrganiserVente(Envie, Mandat, Date) : void</text><ellipse cx="212" cy="428.5977" fill="#84BE84" rx="3" ry="3" style="stroke: #038048; stroke-width: 1.0;"/><text fill="#000000" font-family="sans-serif" font-size="11" lengthAdjust="spacingAndGlyphs" textLength="164" x="221" y="431.5986">SignerPromesse(Promesse) : void</text><!--class Envie--><rect fill="#FEFECE" filter="url(#f19w7topdxqpux)" height="117.1797" id="Envie" style="stroke: #A80036; stroke-width: 1.5;" width="115" x="50.5" y="314"/><ellipse cx="89.35" cy="330" fill="#ADD1B2" rx="11" ry="11" style="stroke: #A80036; stroke-width: 1.0;"/><path d="M92.1156,325.875 Q92.2719,325.6563 92.4594,325.5469 Q92.6469,325.4375 92.8656,325.4375 Q93.2406,325.4375 93.475,325.6953 Q93.7094,325.9531 93.7094,326.5625 L93.7094,328.0156 Q93.7094,328.625 93.475,328.8906 Q93.2406,329.1563 92.8656,329.1563 Q92.5219,329.1563 92.3188,328.9531 Q92.1156,328.7656 92.0063,328.25 Q91.9594,327.8906 91.7719,327.7031 Q91.4438,327.3281 90.8344,327.1094 Q90.225,326.8906 89.6,326.8906 Q88.8344,326.8906 88.2016,327.2188 Q87.5688,327.5469 87.0766,328.2969 Q86.5844,329.0469 86.5844,330.0781 L86.5844,331.1719 Q86.5844,332.4063 87.475,333.2266 Q88.3656,334.0469 89.9594,334.0469 Q90.8969,334.0469 91.5531,333.7969 Q91.9438,333.6406 92.3656,333.2031 Q92.6313,332.9375 92.7797,332.8594 Q92.9281,332.7813 93.1313,332.7813 Q93.4594,332.7813 93.7172,333.0391 Q93.975,333.2969 93.975,333.6406 Q93.975,333.9844 93.6313,334.3906 Q93.1313,334.9688 92.3344,335.2969 Q91.2563,335.75 89.9594,335.75 Q88.4438,335.75 87.2406,335.125 Q86.2563,334.625 85.5688,333.5547 Q84.8813,332.4844 84.8813,331.2031 L84.8813,330.0469 Q84.8813,328.7188 85.4984,327.5703 Q86.1156,326.4219 87.2094,325.8047 Q88.3031,325.1875 89.5375,325.1875 Q90.2719,325.1875 90.9203,325.3516 Q91.5688,325.5156 92.1156,325.875 Z "/><text fill="#000000" font-family="sans-serif" font-size="12" lengthAdjust="spacingAndGlyphs" textLength="30" x="108.65" y="334.9102">Envie</text><line style="stroke: #A80036; stroke-width: 1.5;" x1="51.5" x2="164.5" y1="346" y2="346"/><ellipse cx="61.5" cy="358.418" fill="none" rx="3" ry="3" style="stroke: #038048; stroke-width: 1.0;"/><text fill="#000000" font-family="sans-serif" font-size="11" lengthAdjust="spacingAndGlyphs" textLength="52" x="70.5" y="361.4189">String type</text><ellipse cx="61.5" cy="372.2539" fill="none" rx="3" ry="3" style="stroke: #038048; stroke-width: 1.0;"/><text fill="#000000" font-family="sans-serif" font-size="11" lengthAdjust="spacingAndGlyphs" textLength="54" x="70.5" y="375.2549">Double prix</text><ellipse cx="61.5" cy="386.0898" fill="none" rx="3" ry="3" style="stroke: #038048; stroke-width: 1.0;"/><text fill="#000000" font-family="sans-serif" font-size="11" lengthAdjust="spacingAndGlyphs" textLength="84" x="70.5" y="389.0908">String localisation</text><ellipse cx="61.5" cy="399.9258" fill="none" rx="3" ry="3" style="stroke: #038048; stroke-width: 1.0;"/><text fill="#000000" font-family="sans-serif" font-size="11" lengthAdjust="spacingAndGlyphs" textLength="89" x="70.5" y="402.9268">Double surfaceSol</text><ellipse cx="61.5" cy="413.7617" fill="none" rx="3" ry="3" style="stroke: #038048; stroke-width: 1.0;"/><text fill="#000000" font-family="sans-serif" font-size="11" lengthAdjust="spacingAndGlyphs" textLength="58" x="70.5" y="416.7627">Int nbPieces</text><line style="stroke: #A80036; stroke-width: 1.5;" x1="51.5" x2="164.5" y1="423.1797" y2="423.1797"/><!--class Mandat--><rect fill="#FEFECE" filter="url(#f19w7topdxqpux)" height="117.1797" id="Mandat" style="stroke: #A80036; stroke-width: 1.5;" width="221" x="472.5" y="314"/><ellipse cx="558.75" cy="330" fill="#ADD1B2" rx="11" ry="11" style="stroke: #A80036; stroke-width: 1.0;"/><path d="M561.5156,325.875 Q561.6719,325.6563 561.8594,325.5469 Q562.0469,325.4375 562.2656,325.4375 Q562.6406,325.4375 562.875,325.6953 Q563.1094,325.9531 563.1094,326.5625 L563.1094,328.0156 Q563.1094,328.625 562.875,328.8906 Q562.6406,329.1563 562.2656,329.1563 Q561.9219,329.1563 561.7188,328.9531 Q561.5156,328.7656 561.4063,328.25 Q561.3594,327.8906 561.1719,327.7031 Q560.8438,327.3281 560.2344,327.1094 Q559.625,326.8906 559,326.8906 Q558.2344,326.8906 557.6016,327.2188 Q556.9688,327.5469 556.4766,328.2969 Q555.9844,329.0469 555.9844,330.0781 L555.9844,331.1719 Q555.9844,332.4063 556.875,333.2266 Q557.7656,334.0469 559.3594,334.0469 Q560.2969,334.0469 560.9531,333.7969 Q561.3438,333.6406 561.7656,333.2031 Q562.0313,332.9375 562.1797,332.8594 Q562.3281,332.7813 562.5313,332.7813 Q562.8594,332.7813 563.1172,333.0391 Q563.375,333.2969 563.375,333.6406 Q563.375,333.9844 563.0313,334.3906 Q562.5313,334.9688 561.7344,335.2969 Q560.6563,335.75 559.3594,335.75 Q557.8438,335.75 556.6406,335.125 Q555.6563,334.625 554.9688,333.5547 Q554.2813,332.4844 554.2813,331.2031 L554.2813,330.0469 Q554.2813,328.7188 554.8984,327.5703 Q555.5156,326.4219 556.6094,325.8047 Q557.7031,325.1875 558.9375,325.1875 Q559.6719,325.1875 560.3203,325.3516 Q560.9688,325.5156 561.5156,325.875 Z "/><text fill="#000000" font-family="sans-serif" font-size="12" lengthAdjust="spacingAndGlyphs" textLength="40" x="579.25" y="334.9102">Mandat</text><line style="stroke: #A80036; stroke-width: 1.5;" x1="473.5" x2="692.5" y1="346" y2="346"/><ellipse cx="483.5" cy="358.418" fill="none" rx="3" ry="3" style="stroke: #038048; stroke-width: 1.0;"/><text fill="#000000" font-family="sans-serif" font-size="11" lengthAdjust="spacingAndGlyphs" textLength="195" x="492.5" y="361.4189">HashSet&lt;Date, Personne&gt; listeRdvVisite</text><ellipse cx="483.5" cy="372.2539" fill="none" rx="3" ry="3" style="stroke: #038048; stroke-width: 1.0;"/><text fill="#000000" font-family="sans-serif" font-size="11" lengthAdjust="spacingAndGlyphs" textLength="22" x="492.5" y="375.2549">Date</text><ellipse cx="483.5" cy="386.0898" fill="none" rx="3" ry="3" style="stroke: #038048; stroke-width: 1.0;"/><text fill="#000000" font-family="sans-serif" font-size="11" lengthAdjust="spacingAndGlyphs" textLength="32" x="492.5" y="389.0908">Int prix</text><ellipse cx="483.5" cy="399.9258" fill="none" rx="3" ry="3" style="stroke: #038048; stroke-width: 1.0;"/><text fill="#000000" font-family="sans-serif" font-size="11" lengthAdjust="spacingAndGlyphs" textLength="52" x="492.5" y="402.9268">Date debut</text><ellipse cx="483.5" cy="413.7617" fill="none" rx="3" ry="3" style="stroke: #038048; stroke-width: 1.0;"/><text fill="#000000" font-family="sans-serif" font-size="11" lengthAdjust="spacingAndGlyphs" textLength="37" x="492.5" y="416.7627">Date fin</text><line style="stroke: #A80036; stroke-width: 1.5;" x1="473.5" x2="692.5" y1="423.1797" y2="423.1797"/><!--class Promesse--><rect fill="#FEFECE" filter="url(#f19w7topdxqpux)" height="117.1797" id="Promesse" style="stroke: #A80036; stroke-width: 1.5;" width="156" x="241" y="130"/><ellipse cx="285.75" cy="146" fill="#ADD1B2" rx="11" ry="11" style="stroke: #A80036; stroke-width: 1.0;"/><path d="M288.5156,141.875 Q288.6719,141.6563 288.8594,141.5469 Q289.0469,141.4375 289.2656,141.4375 Q289.6406,141.4375 289.875,141.6953 Q290.1094,141.9531 290.1094,142.5625 L290.1094,144.0156 Q290.1094,144.625 289.875,144.8906 Q289.6406,145.1563 289.2656,145.1563 Q288.9219,145.1563 288.7188,144.9531 Q288.5156,144.7656 288.4063,144.25 Q288.3594,143.8906 288.1719,143.7031 Q287.8438,143.3281 287.2344,143.1094 Q286.625,142.8906 286,142.8906 Q285.2344,142.8906 284.6016,143.2188 Q283.9688,143.5469 283.4766,144.2969 Q282.9844,145.0469 282.9844,146.0781 L282.9844,147.1719 Q282.9844,148.4063 283.875,149.2266 Q284.7656,150.0469 286.3594,150.0469 Q287.2969,150.0469 287.9531,149.7969 Q288.3438,149.6406 288.7656,149.2031 Q289.0313,148.9375 289.1797,148.8594 Q289.3281,148.7813 289.5313,148.7813 Q289.8594,148.7813 290.1172,149.0391 Q290.375,149.2969 290.375,149.6406 Q290.375,149.9844 290.0313,150.3906 Q289.5313,150.9688 288.7344,151.2969 Q287.6563,151.75 286.3594,151.75 Q284.8438,151.75 283.6406,151.125 Q282.6563,150.625 281.9688,149.5547 Q281.2813,148.4844 281.2813,147.2031 L281.2813,146.0469 Q281.2813,144.7188 281.8984,143.5703 Q282.5156,142.4219 283.6094,141.8047 Q284.7031,141.1875 285.9375,141.1875 Q286.6719,141.1875 287.3203,141.3516 Q287.9688,141.5156 288.5156,141.875 Z "/><text fill="#000000" font-family="sans-serif" font-size="12" lengthAdjust="spacingAndGlyphs" textLength="58" x="306.25" y="150.9102">Promesse</text><line style="stroke: #A80036; stroke-width: 1.5;" x1="242" x2="396" y1="162" y2="162"/><ellipse cx="252" cy="174.418" fill="none" rx="3" ry="3" style="stroke: #038048; stroke-width: 1.0;"/><text fill="#000000" font-family="sans-serif" font-size="11" lengthAdjust="spacingAndGlyphs" textLength="126" x="261" y="177.4189">Double prixVerseVendeur</text><ellipse cx="252" cy="188.2539" fill="none" rx="3" ry="3" style="stroke: #038048; stroke-width: 1.0;"/><text fill="#000000" font-family="sans-serif" font-size="11" lengthAdjust="spacingAndGlyphs" textLength="105" x="261" y="191.2549">String adresseNotaire</text><ellipse cx="252" cy="202.0898" fill="none" rx="3" ry="3" style="stroke: #038048; stroke-width: 1.0;"/><text fill="#000000" font-family="sans-serif" font-size="11" lengthAdjust="spacingAndGlyphs" textLength="52" x="261" y="205.0908">Date vente</text><ellipse cx="252" cy="215.9258" fill="none" rx="3" ry="3" style="stroke: #038048; stroke-width: 1.0;"/><text fill="#000000" font-family="sans-serif" font-size="11" lengthAdjust="spacingAndGlyphs" textLength="130" x="261" y="218.9268">Double commissionAgence</text><ellipse cx="252" cy="229.7617" fill="none" rx="3" ry="3" style="stroke: #038048; stroke-width: 1.0;"/><text fill="#000000" font-family="sans-serif" font-size="11" lengthAdjust="spacingAndGlyphs" textLength="87" x="261" y="232.7627">Double fraisVente</text><line style="stroke: #A80036; stroke-width: 1.5;" x1="242" x2="396" y1="239.1797" y2="239.1797"/><!--class Notaire--><rect fill="#FEFECE" filter="url(#f19w7topdxqpux)" height="61.8359" id="Notaire" style="stroke: #A80036; stroke-width: 1.5;" width="101" x="268.5" y="8"/><ellipse cx="296.55" cy="24" fill="#ADD1B2" rx="11" ry="11" style="stroke: #A80036; stroke-width: 1.0;"/><path d="M299.3156,19.875 Q299.4719,19.6563 299.6594,19.5469 Q299.8469,19.4375 300.0656,19.4375 Q300.4406,19.4375 300.675,19.6953 Q300.9094,19.9531 300.9094,20.5625 L300.9094,22.0156 Q300.9094,22.625 300.675,22.8906 Q300.4406,23.1563 300.0656,23.1563 Q299.7219,23.1563 299.5188,22.9531 Q299.3156,22.7656 299.2063,22.25 Q299.1594,21.8906 298.9719,21.7031 Q298.6438,21.3281 298.0344,21.1094 Q297.425,20.8906 296.8,20.8906 Q296.0344,20.8906 295.4016,21.2188 Q294.7688,21.5469 294.2766,22.2969 Q293.7844,23.0469 293.7844,24.0781 L293.7844,25.1719 Q293.7844,26.4063 294.675,27.2266 Q295.5656,28.0469 297.1594,28.0469 Q298.0969,28.0469 298.7531,27.7969 Q299.1438,27.6406 299.5656,27.2031 Q299.8313,26.9375 299.9797,26.8594 Q300.1281,26.7813 300.3313,26.7813 Q300.6594,26.7813 300.9172,27.0391 Q301.175,27.2969 301.175,27.6406 Q301.175,27.9844 300.8313,28.3906 Q300.3313,28.9688 299.5344,29.2969 Q298.4563,29.75 297.1594,29.75 Q295.6438,29.75 294.4406,29.125 Q293.4563,28.625 292.7688,27.5547 Q292.0813,26.4844 292.0813,25.2031 L292.0813,24.0469 Q292.0813,22.7188 292.6984,21.5703 Q293.3156,20.4219 294.4094,19.8047 Q295.5031,19.1875 296.7375,19.1875 Q297.4719,19.1875 298.1203,19.3516 Q298.7688,19.5156 299.3156,19.875 Z "/><text fill="#000000" font-family="sans-serif" font-size="12" lengthAdjust="spacingAndGlyphs" textLength="40" x="313.45" y="28.9102">Notaire</text><line style="stroke: #A80036; stroke-width: 1.5;" x1="269.5" x2="368.5" y1="40" y2="40"/><line style="stroke: #A80036; stroke-width: 1.5;" x1="269.5" x2="368.5" y1="48" y2="48"/><ellipse cx="279.5" cy="60.418" fill="#84BE84" rx="3" ry="3" style="stroke: #038048; stroke-width: 1.0;"/><text fill="#000000" font-family="sans-serif" font-size="11" lengthAdjust="spacingAndGlyphs" textLength="75" x="288.5" y="63.4189">VerserArgent()</text><!--link Agence to Personne--><path d="M253.971,438.22 C235.082,457.021 214.152,477.851 194.178,497.73 " fill="none" id="Agence-Personne" style="stroke: #A80036; stroke-width: 1.0;"/><text fill="#000000" font-family="sans-serif" font-size="13" lengthAdjust="spacingAndGlyphs" textLength="5" x="242.0071" y="459.3348">*</text><text fill="#000000" font-family="sans-serif" font-size="13" lengthAdjust="spacingAndGlyphs" textLength="5" x="196.3691" y="487.1164">*</text><!--link Agence to Mandat--><path d="M437.078,372.5 C448.858,372.5 460.638,372.5 472.419,372.5 " fill="none" id="Agence-Mandat" style="stroke: #A80036; stroke-width: 1.0;"/><text fill="#000000" font-family="sans-serif" font-size="13" lengthAdjust="spacingAndGlyphs" textLength="7" x="444.8666" y="369.4934">1</text><text fill="#000000" font-family="sans-serif" font-size="13" lengthAdjust="spacingAndGlyphs" textLength="5" x="459.468" y="369.4387">*</text><!--link Envie to Agence--><path d="M165.695,372.5 C177.373,372.5 189.05,372.5 200.728,372.5 " fill="none" id="Envie-Agence" style="stroke: #A80036; stroke-width: 1.0;"/><text fill="#000000" font-family="sans-serif" font-size="13" lengthAdjust="spacingAndGlyphs" textLength="5" x="173.4075" y="368.9811">*</text><text fill="#000000" font-family="sans-serif" font-size="13" lengthAdjust="spacingAndGlyphs" textLength="7" x="185.927" y="369.4934">1</text><!--link Envie to Personne--><path d="M108,436.517 C108,455.724 108,477.176 108,497.625 " fill="none" id="Envie-Personne" style="stroke: #A80036; stroke-width: 1.0;"/><polygon fill="#A80036" points="108,431.161,104,440.161,108,436.161,112,440.161,108,431.161" style="stroke: #A80036; stroke-width: 1.0;"/><!--link Mandat to Personne--><path d="M467.829,432.525 C463.19,434.444 458.569,436.278 454,438 C355.952,474.96 320.706,453.162 226,498 C220.741,500.49 215.474,503.222 210.244,506.134 " fill="none" id="Mandat-Personne" style="stroke: #A80036; stroke-width: 1.0;"/><polygon fill="#A80036" points="472.473,430.578,462.6264,430.368,467.8617,432.5108,465.7189,437.7461,472.473,430.578" style="stroke: #A80036; stroke-width: 1.0;"/><!--link Promesse to Agence--><path d="M319,247.086 C319,266.04 319,287.239 319,306.693 " fill="none" id="Promesse-Agence" style="stroke: #A80036; stroke-width: 1.0;"/><text fill="#000000" font-family="sans-serif" font-size="13" lengthAdjust="spacingAndGlyphs" textLength="5" x="313.6953" y="268.7068">*</text><text fill="#000000" font-family="sans-serif" font-size="13" lengthAdjust="spacingAndGlyphs" textLength="7" x="311.6172" y="296.1338">1</text><!--link Promesse to Mandat--><path d="M401.799,231.162 C419.425,240.967 437.643,251.835 454,263 C476.358,278.261 499.4,296.659 519.714,313.934 " fill="none" id="Promesse-Mandat" style="stroke: #A80036; stroke-width: 1.0;"/><polygon fill="#A80036" points="397.332,228.692,403.2719,236.5481,401.7074,231.1118,407.1436,229.5474,397.332,228.692" style="stroke: #A80036; stroke-width: 1.0;"/><!--link Promesse to Envie--><path d="M236.049,226.281 C217.477,236.634 198.661,248.964 183,263 C166.8,277.519 152.295,296.204 140.458,313.963 " fill="none" id="Promesse-Envie" style="stroke: #A80036; stroke-width: 1.0;"/><polygon fill="#A80036" points="240.763,223.692,230.9489,224.5185,236.3805,226.099,234.8,231.5306,240.763,223.692" style="stroke: #A80036; stroke-width: 1.0;"/><!--link Notaire to Promesse--><path d="M319,70.205 C319,85.921 319,105.748 319,124.606 " fill="none" id="Notaire-Promesse" style="stroke: #A80036; stroke-width: 1.0;"/><polygon fill="#A80036" points="319,129.895,323,120.895,319,124.895,315,120.895,319,129.895" style="stroke: #A80036; stroke-width: 1.0;"/><!--link Agence to AnnoncePub--><path d="M336.259,438.22 C346.478,476.544 358.948,523.305 366.93,553.239 " fill="none" id="Agence-AnnoncePub" style="stroke: #A80036; stroke-width: 1.0;"/><text fill="#000000" font-family="sans-serif" font-size="13" lengthAdjust="spacingAndGlyphs" textLength="7" x="330.6779" y="459.3348">1</text><text fill="#000000" font-family="sans-serif" font-size="13" lengthAdjust="spacingAndGlyphs" textLength="5" x="359.7499" y="542.6897">*</text><!--link AnnoncePub to TypePub--><path d="M386.439,620.72 C396.931,653.026 412.306,700.362 422.234,730.931 " fill="none" id="AnnoncePub-TypePub" style="stroke: #A80036; stroke-width: 1.0;"/><polygon fill="#A80036" points="384.799,615.67,383.7768,625.4657,386.3445,620.4251,391.3851,622.9928,384.799,615.67" style="stroke: #A80036; stroke-width: 1.0;"/><!--link TypePub to TypeTexte--><path d="M393.191,796.747 C372.963,814.336 348.422,835.676 328.812,852.7286 " fill="none" id="TypePub-TypeTexte" style="stroke: #A80036; stroke-width: 1.0;"/><polygon fill="#A80036" points="397.177,793.281,387.7606,796.1674,393.4037,796.5616,393.0095,802.2047,397.177,793.281" style="stroke: #A80036; stroke-width: 1.0;"/><!--link TypePub to TypeHtml--><path d="M432,798.518 C432,815.754 432,836.245 432,852.7286 " fill="none" id="TypePub-TypeHtml" style="stroke: #A80036; stroke-width: 1.0;"/><polygon fill="#A80036" points="432,793.281,428,802.281,432,798.281,436,802.281,432,793.281" style="stroke: #A80036; stroke-width: 1.0;"/><!--link TypePub to TypeImg--><path d="M470.809,796.747 C491.037,814.336 515.578,835.676 535.188,852.7286 " fill="none" id="TypePub-TypeImg" style="stroke: #A80036; stroke-width: 1.0;"/><polygon fill="#A80036" points="466.823,793.281,470.9905,802.2047,470.5963,796.5616,476.2394,796.1674,466.823,793.281" style="stroke: #A80036; stroke-width: 1.0;"/><!--link TypePub to TypeVid--><path d="M488.283,787.471 C537.49,808.865 608.363,839.68 656.195,860.4762 " fill="none" id="TypePub-TypeVid" style="stroke: #A80036; stroke-width: 1.0;"/><polygon fill="#A80036" points="483.59,785.43,490.2481,792.6874,488.1752,787.424,493.4385,785.3512,483.59,785.43" style="stroke: #A80036; stroke-width: 1.0;"/><!--link Mandat to BienImmo--><path d="M699.329,372.5 C775.004,372.5 850.678,372.5 926.353,372.5 " fill="none" id="Mandat-BienImmo" style="stroke: #A80036; stroke-width: 1.0;"/><polygon fill="#A80036" points="693.881,372.5,702.881,376.5,698.881,372.5,702.881,368.5,693.881,372.5" style="stroke: #A80036; stroke-width: 1.0;"/><!--link BienImmo to Terrain--><path d="M1038.28,407.798 C1076.71,431.391 1127.44,464.423 1169,498 C1187.12,512.64 1205.73,530.485 1221.07,546.077 " fill="none" id="BienImmo-Terrain" style="stroke: #A80036; stroke-width: 1.0;"/><polygon fill="#A80036" points="1033.65,404.968,1039.2334,413.0813,1037.9131,407.5807,1043.4137,406.2603,1033.65,404.968" style="stroke: #A80036; stroke-width: 1.0;"/><!--link BienImmo to Maison--><path d="M949.594,442.905 C936.703,472.33 921.959,505.986 910.128,532.99 " fill="none" id="BienImmo-Maison" style="stroke: #A80036; stroke-width: 1.0;"/><polygon fill="#A80036" points="951.646,438.22,944.3699,444.8576,949.6391,442.7995,951.6971,448.0687,951.646,438.22" style="stroke: #A80036; stroke-width: 1.0;"/><!--link BienImmo to Appartement--><path d="M1010.72,442.869 C1024.79,474.631 1041.04,511.327 1053.41,539.269 " fill="none" id="BienImmo-Appartement" style="stroke: #A80036; stroke-width: 1.0;"/><polygon fill="#A80036" points="1008.66,438.22,1008.6466,448.0688,1010.6845,442.7918,1015.9615,444.8297,1008.66,438.22" style="stroke: #A80036; stroke-width: 1.0;"/><!--
@startuml

class Personne {
  +String nom
  +String adresse
  +Int telephone
  +String email
  +PriseRDV(Agence, Date) : void
  +CreerMandat(Agence, Mandat) : void
  +InteretAchat(Agence, Envie) : void
  +String formeJuridique
  +Int numSiren
}

class Agence {
  +String nom
  +HashSet<Date, Personne> listeRdvVendeur
  +Contacter(Envie, Mandat) : void
  +OrganiserVisite(Envie, Mandat, Date) : void
  +OrganiserVente(Envie, Mandat, Date) : void
  +SignerPromesse(Promesse) : void
}

Personne "*"-up-"*" Agence

class Envie {
  +String type
  +Double prix
  +String localisation
  +Double surfaceSol
  +Int nbPieces
}

class Mandat {
  +HashSet<Date, Personne> listeRdvVisite
  +Date
  +Int prix
  +Date debut
  +Date fin
}

Agence "1"-right-"*" Mandat
Agence "1"-left-"*" Envie

Personne -up-> Envie
Personne -up-> Mandat

class Promesse {
  +Double prixVerseVendeur
  +String adresseNotaire
  +Date vente
  +Double commissionAgence
  +Double fraisVente
}

Agence "1"-up-"*" Promesse
Mandat -up-> Promesse
Envie -up-> Promesse

class Notaire {
  +VerserArgent()
}

Notaire -down-> Promesse

package pub {

  class AnnoncePub {
    +TypePub[] listePub
  }

  Agence "1"-down-"*" AnnoncePub

  abstract class TypePub {
    +addElem() : void
  }

  TypePub -up-> AnnoncePub

  class TypeTexte {
    +addElem() : void
  }

  class TypeHtml {
    +addElem() : void
  }

  class TypeImg {
    +addElem() : void
  }

  class TypeVid {
    +addElem() : void
  }

  TypeTexte -up-> TypePub
  TypeHtml -up-> TypePub
  TypeImg -up-> TypePub
  TypeVid -up-> TypePub

}

package immo {

  abstract class BienImmo {
    +Int num
    +String adresse
    +String orientation
    +Double prix
    +Date vente
    +Date[] dispo
  }

  class Terrain {
    +Double surfaceSol
    +Double longueurFacade
  }

  class Maison {
    +Double surfaceHabitable
    +Int nbPieces
    +Int nbEtages
    +String chauffage
  }

  class Appartement {
    +Int nbPieces
    +Int etage
    +Double chargesMensuelles
  }

  BienImmo -left-> Mandat

  Terrain -up-> BienImmo
  Maison -up-> BienImmo
  Appartement -up-> BienImmo

}

@enduml

PlantUML version 1.2017.18(Fri Oct 06 18:56:32 CEST 2017)
(GPL source distribution)
Java Runtime: Java(TM) SE Runtime Environment
JVM: Java HotSpot(TM) 64-Bit Server VM
Java Version: 9.0.1+11
Operating System: Windows 10
OS Version: 10.0
Default Encoding: Cp1252
Language: fr
Country: FR
--></g></svg>