<?xml version="1.0" encoding="UTF-8" standalone="no"?><svg xmlns="http://www.w3.org/2000/svg" xmlns:xlink="http://www.w3.org/1999/xlink" contentScriptType="application/ecmascript" contentStyleType="text/css" height="1091px" preserveAspectRatio="none" style="width:2021px;height:1091px;" version="1.1" viewBox="0 0 2021 1091"
    width="2021px" zoomAndPan="magnify"><defs><filter height="300%" id="f1pqpzmv4hgby4" width="300%" x="-1" y="-1"><feGaussianBlur result="blurOut" stdDeviation="2.0"/><feColorMatrix in="blurOut" result="blurOut2" type="matrix" values="0 0 0 0 0 0 0 0 0 0 0 0 0 0 0 0 0 0 .4 0"/><feOffset dx="4.0" dy="4.0" in="blurOut2" result="blurOut3"/><feBlend in="SourceGraphic" in2="blurOut3" mode="normal"/></filter></defs><g><!--cluster user--><polygon fill="#FFFFFF" filter="url(#f1pqpzmv4hgby4)" points="22,499,60,499,67,522.6094,182,522.6094,182,863.5,22,863.5,22,499" style="stroke: #000000; stroke-width: 2.0;"/><line style="stroke: #000000; stroke-width: 2.0;" x1="22" x2="67" y1="522.6094" y2="522.6094"/><text fill="#000000" font-family="sans-serif" font-size="14" font-weight="bold" lengthAdjust="spacingAndGlyphs" textLength="32" x="26" y="515.5332">user</text><!--cluster agence--><polygon fill="#FFFFFF" filter="url(#f1pqpzmv4hgby4)" points="206,269,264,269,271,292.6094,683,292.6094,683,1079,206,1079,206,269" style="stroke: #000000; stroke-width: 2.0;"/><line style="stroke: #000000; stroke-width: 2.0;" x1="206" x2="271" y1="292.6094" y2="292.6094"/><text fill="#000000" font-family="sans-serif" font-size="14" font-weight="bold" lengthAdjust="spacingAndGlyphs" textLength="52" x="210" y="285.5332">agence</text><!--cluster pub--><polygon fill="#FFFFFF" filter="url(#f1pqpzmv4hgby4)" points="1311,65.5,1344,65.5,1351,89.1094,1999,89.1094,1999,410.5,1311,410.5,1311,65.5" style="stroke: #000000; stroke-width: 2.0;"/><line style="stroke: #000000; stroke-width: 2.0;" x1="1311" x2="1351" y1="89.1094" y2="89.1094"/><text fill="#000000" font-family="sans-serif" font-size="14" font-weight="bold" lengthAdjust="spacingAndGlyphs" textLength="27" x="1315" y="82.0332">pub</text><!--cluster immo--><polygon fill="#FFFFFF" filter="url(#f1pqpzmv4hgby4)" points="707,24,750,24,757,47.6094,1287,47.6094,1287,431,707,431,707,24" style="stroke: #000000; stroke-width: 2.0;"/><line style="stroke: #000000; stroke-width: 2.0;" x1="707" x2="757" y1="47.6094" y2="47.6094"/><text fill="#000000" font-family="sans-serif" font-size="14" font-weight="bold" lengthAdjust="spacingAndGlyphs" textLength="37" x="711" y="40.5332">immo</text><!--class Personne--><rect fill="#FEFECE" filter="url(#f1pqpzmv4hgby4)" height="103.3438" id="Personne" style="stroke: #A80036; stroke-width: 1.5;" width="97" x="68.5" y="535"/><ellipse cx="88.45" cy="551" fill="#ADD1B2" rx="11" ry="11" style="stroke: #A80036; stroke-width: 1.0;"/><path d="M91.2156,546.875 Q91.3719,546.6563 91.5594,546.5469 Q91.7469,546.4375 91.9656,546.4375 Q92.3406,546.4375 92.575,546.6953 Q92.8094,546.9531 92.8094,547.5625 L92.8094,549.0156 Q92.8094,549.625 92.575,549.8906 Q92.3406,550.1563 91.9656,550.1563 Q91.6219,550.1563 91.4188,549.9531 Q91.2156,549.7656 91.1063,549.25 Q91.0594,548.8906 90.8719,548.7031 Q90.5438,548.3281 89.9344,548.1094 Q89.325,547.8906 88.7,547.8906 Q87.9344,547.8906 87.3016,548.2188 Q86.6688,548.5469 86.1766,549.2969 Q85.6844,550.0469 85.6844,551.0781 L85.6844,552.1719 Q85.6844,553.4063 86.575,554.2266 Q87.4656,555.0469 89.0594,555.0469 Q89.9969,555.0469 90.6531,554.7969 Q91.0438,554.6406 91.4656,554.2031 Q91.7313,553.9375 91.8797,553.8594 Q92.0281,553.7813 92.2313,553.7813 Q92.5594,553.7813 92.8172,554.0391 Q93.075,554.2969 93.075,554.6406 Q93.075,554.9844 92.7313,555.3906 Q92.2313,555.9688 91.4344,556.2969 Q90.3563,556.75 89.0594,556.75 Q87.5438,556.75 86.3406,556.125 Q85.3563,555.625 84.6688,554.5547 Q83.9813,553.4844 83.9813,552.2031 L83.9813,551.0469 Q83.9813,549.7188 84.5984,548.5703 Q85.2156,547.4219 86.3094,546.8047 Q87.4031,546.1875 88.6375,546.1875 Q89.3719,546.1875 90.0203,546.3516 Q90.6688,546.5156 91.2156,546.875 Z "/><text fill="#000000" font-family="sans-serif" font-size="12" lengthAdjust="spacingAndGlyphs" textLength="54" x="103.55" y="555.9102">Personne</text><line style="stroke: #A80036; stroke-width: 1.5;" x1="69.5" x2="164.5" y1="567" y2="567"/><rect fill="none" height="6" style="stroke: #C82930; stroke-width: 1.0;" width="6" x="76.5" y="576.418"/><text fill="#000000" font-family="sans-serif" font-size="11" lengthAdjust="spacingAndGlyphs" textLength="51" x="88.5" y="582.4189">String nom</text><rect fill="none" height="6" style="stroke: #C82930; stroke-width: 1.0;" width="6" x="76.5" y="590.2539"/><text fill="#000000" font-family="sans-serif" font-size="11" lengthAdjust="spacingAndGlyphs" textLength="71" x="88.5" y="596.2549">String adresse</text><rect fill="none" height="6" style="stroke: #C82930; stroke-width: 1.0;" width="6" x="76.5" y="604.0898"/><text fill="#000000" font-family="sans-serif" font-size="11" lengthAdjust="spacingAndGlyphs" textLength="61" x="88.5" y="610.0908">Int telephone</text><rect fill="none" height="6" style="stroke: #C82930; stroke-width: 1.0;" width="6" x="76.5" y="617.9258"/><text fill="#000000" font-family="sans-serif" font-size="11" lengthAdjust="spacingAndGlyphs" textLength="55" x="88.5" y="623.9268">String email</text><line style="stroke: #A80036; stroke-width: 1.5;" x1="69.5" x2="164.5" y1="630.3438" y2="630.3438"/><!--class Entreprise--><rect fill="#FEFECE" filter="url(#f1pqpzmv4hgby4)" height="75.6719" id="Entreprise" style="stroke: #A80036; stroke-width: 1.5;" width="128" x="38" y="771.5"/><ellipse cx="70.55" cy="787.5" fill="#ADD1B2" rx="11" ry="11" style="stroke: #A80036; stroke-width: 1.0;"/><path d="M73.3156,783.375 Q73.4719,783.1563 73.6594,783.0469 Q73.8469,782.9375 74.0656,782.9375 Q74.4406,782.9375 74.675,783.1953 Q74.9094,783.4531 74.9094,784.0625 L74.9094,785.5156 Q74.9094,786.125 74.675,786.3906 Q74.4406,786.6563 74.0656,786.6563 Q73.7219,786.6563 73.5188,786.4531 Q73.3156,786.2656 73.2063,785.75 Q73.1594,785.3906 72.9719,785.2031 Q72.6438,784.8281 72.0344,784.6094 Q71.425,784.3906 70.8,784.3906 Q70.0344,784.3906 69.4016,784.7188 Q68.7688,785.0469 68.2766,785.7969 Q67.7844,786.5469 67.7844,787.5781 L67.7844,788.6719 Q67.7844,789.9063 68.675,790.7266 Q69.5656,791.5469 71.1594,791.5469 Q72.0969,791.5469 72.7531,791.2969 Q73.1438,791.1406 73.5656,790.7031 Q73.8313,790.4375 73.9797,790.3594 Q74.1281,790.2813 74.3313,790.2813 Q74.6594,790.2813 74.9172,790.5391 Q75.175,790.7969 75.175,791.1406 Q75.175,791.4844 74.8313,791.8906 Q74.3313,792.4688 73.5344,792.7969 Q72.4563,793.25 71.1594,793.25 Q69.6438,793.25 68.4406,792.625 Q67.4563,792.125 66.7688,791.0547 Q66.0813,789.9844 66.0813,788.7031 L66.0813,787.5469 Q66.0813,786.2188 66.6984,785.0703 Q67.3156,783.9219 68.4094,783.3047 Q69.5031,782.6875 70.7375,782.6875 Q71.4719,782.6875 72.1203,782.8516 Q72.7688,783.0156 73.3156,783.375 Z "/><text fill="#000000" font-family="sans-serif" font-size="12" lengthAdjust="spacingAndGlyphs" textLength="57" x="88.45" y="792.4102">Entreprise</text><line style="stroke: #A80036; stroke-width: 1.5;" x1="39" x2="165" y1="803.5" y2="803.5"/><rect fill="none" height="6" style="stroke: #C82930; stroke-width: 1.0;" width="6" x="46" y="812.918"/><text fill="#000000" font-family="sans-serif" font-size="11" lengthAdjust="spacingAndGlyphs" textLength="102" x="58" y="818.9189">String formeJuridique</text><rect fill="none" height="6" style="stroke: #C82930; stroke-width: 1.0;" width="6" x="46" y="826.7539"/><text fill="#000000" font-family="sans-serif" font-size="11" lengthAdjust="spacingAndGlyphs" textLength="59" x="58" y="832.7549">Int numSiren</text><line style="stroke: #A80036; stroke-width: 1.5;" x1="39" x2="165" y1="839.1719" y2="839.1719"/><!--class Agence--><rect fill="#FEFECE" filter="url(#f1pqpzmv4hgby4)" height="172.5234" id="Agence" style="stroke: #A80036; stroke-width: 1.5;" width="236" x="413" y="500"/><ellipse cx="506.25" cy="516" fill="#ADD1B2" rx="11" ry="11" style="stroke: #A80036; stroke-width: 1.0;"/><path d="M509.0156,511.875 Q509.1719,511.6563 509.3594,511.5469 Q509.5469,511.4375 509.7656,511.4375 Q510.1406,511.4375 510.375,511.6953 Q510.6094,511.9531 510.6094,512.5625 L510.6094,514.0156 Q510.6094,514.625 510.375,514.8906 Q510.1406,515.1563 509.7656,515.1563 Q509.4219,515.1563 509.2188,514.9531 Q509.0156,514.7656 508.9063,514.25 Q508.8594,513.8906 508.6719,513.7031 Q508.3438,513.3281 507.7344,513.1094 Q507.125,512.8906 506.5,512.8906 Q505.7344,512.8906 505.1016,513.2188 Q504.4688,513.5469 503.9766,514.2969 Q503.4844,515.0469 503.4844,516.0781 L503.4844,517.1719 Q503.4844,518.4063 504.375,519.2266 Q505.2656,520.0469 506.8594,520.0469 Q507.7969,520.0469 508.4531,519.7969 Q508.8438,519.6406 509.2656,519.2031 Q509.5313,518.9375 509.6797,518.8594 Q509.8281,518.7813 510.0313,518.7813 Q510.3594,518.7813 510.6172,519.0391 Q510.875,519.2969 510.875,519.6406 Q510.875,519.9844 510.5313,520.3906 Q510.0313,520.9688 509.2344,521.2969 Q508.1563,521.75 506.8594,521.75 Q505.3438,521.75 504.1406,521.125 Q503.1563,520.625 502.4688,519.5547 Q501.7813,518.4844 501.7813,517.2031 L501.7813,516.0469 Q501.7813,514.7188 502.3984,513.5703 Q503.0156,512.4219 504.1094,511.8047 Q505.2031,511.1875 506.4375,511.1875 Q507.1719,511.1875 507.8203,511.3516 Q508.4688,511.5156 509.0156,511.875 Z "/><text fill="#000000" font-family="sans-serif" font-size="12" lengthAdjust="spacingAndGlyphs" textLength="41" x="526.75" y="520.9102">Agence</text><line style="stroke: #A80036; stroke-width: 1.5;" x1="414" x2="648" y1="532" y2="532"/><rect fill="none" height="6" style="stroke: #C82930; stroke-width: 1.0;" width="6" x="421" y="541.418"/><text fill="#000000" font-family="sans-serif" font-size="11" lengthAdjust="spacingAndGlyphs" textLength="51" x="433" y="547.4189">String nom</text><rect fill="none" height="6" style="stroke: #C82930; stroke-width: 1.0;" width="6" x="421" y="555.2539"/><text fill="#000000" font-family="sans-serif" font-size="11" lengthAdjust="spacingAndGlyphs" textLength="210" x="433" y="561.2549">HashSet&lt;Date, Personne&gt; listeRdvVendeur</text><line style="stroke: #A80036; stroke-width: 1.5;" x1="414" x2="648" y1="567.6719" y2="567.6719"/><ellipse cx="424" cy="580.0898" fill="#84BE84" rx="3" ry="3" style="stroke: #038048; stroke-width: 1.0;"/><text fill="#000000" font-family="sans-serif" font-size="11" lengthAdjust="spacingAndGlyphs" textLength="186" x="433" y="583.0908">CreerMandat(Personne, Mandat) : void</text><ellipse cx="424" cy="593.9258" fill="#84BE84" rx="3" ry="3" style="stroke: #038048; stroke-width: 1.0;"/><text fill="#000000" font-family="sans-serif" font-size="11" lengthAdjust="spacingAndGlyphs" textLength="168" x="433" y="596.9268">CreerEnvie(Personne, Envie) : void</text><ellipse cx="424" cy="607.7617" fill="#84BE84" rx="3" ry="3" style="stroke: #038048; stroke-width: 1.0;"/><text fill="#000000" font-family="sans-serif" font-size="11" lengthAdjust="spacingAndGlyphs" textLength="151" x="433" y="610.7627">Contacter(Envie, Mandat) : void</text><ellipse cx="424" cy="621.5977" fill="#84BE84" rx="3" ry="3" style="stroke: #038048; stroke-width: 1.0;"/><text fill="#000000" font-family="sans-serif" font-size="11" lengthAdjust="spacingAndGlyphs" textLength="196" x="433" y="624.5986">PriseRdvVendeur(Personne, Date) : void</text><ellipse cx="424" cy="635.4336" fill="#84BE84" rx="3" ry="3" style="stroke: #038048; stroke-width: 1.0;"/><text fill="#000000" font-family="sans-serif" font-size="11" lengthAdjust="spacingAndGlyphs" textLength="207" x="433" y="638.4346">OrganiserVisite(Envie, Mandat, Date) : void</text><ellipse cx="424" cy="649.2695" fill="#84BE84" rx="3" ry="3" style="stroke: #038048; stroke-width: 1.0;"/><text fill="#000000" font-family="sans-serif" font-size="11" lengthAdjust="spacingAndGlyphs" textLength="209" x="433" y="652.2705">OrganiserVente(Envie, Mandat, Date) : void</text><ellipse cx="424" cy="663.1055" fill="#84BE84" rx="3" ry="3" style="stroke: #038048; stroke-width: 1.0;"/><text fill="#000000" font-family="sans-serif" font-size="11" lengthAdjust="spacingAndGlyphs" textLength="164" x="433" y="666.1064">SignerPromesse(Promesse) : void</text><!--class Envie--><rect fill="#FEFECE" filter="url(#f1pqpzmv4hgby4)" height="117.1797" id="Envie" style="stroke: #A80036; stroke-width: 1.5;" width="115" x="396.5" y="751"/><ellipse cx="435.35" cy="767" fill="#ADD1B2" rx="11" ry="11" style="stroke: #A80036; stroke-width: 1.0;"/><path d="M438.1156,762.875 Q438.2719,762.6563 438.4594,762.5469 Q438.6469,762.4375 438.8656,762.4375 Q439.2406,762.4375 439.475,762.6953 Q439.7094,762.9531 439.7094,763.5625 L439.7094,765.0156 Q439.7094,765.625 439.475,765.8906 Q439.2406,766.1563 438.8656,766.1563 Q438.5219,766.1563 438.3188,765.9531 Q438.1156,765.7656 438.0063,765.25 Q437.9594,764.8906 437.7719,764.7031 Q437.4438,764.3281 436.8344,764.1094 Q436.225,763.8906 435.6,763.8906 Q434.8344,763.8906 434.2016,764.2188 Q433.5688,764.5469 433.0766,765.2969 Q432.5844,766.0469 432.5844,767.0781 L432.5844,768.1719 Q432.5844,769.4063 433.475,770.2266 Q434.3656,771.0469 435.9594,771.0469 Q436.8969,771.0469 437.5531,770.7969 Q437.9438,770.6406 438.3656,770.2031 Q438.6313,769.9375 438.7797,769.8594 Q438.9281,769.7813 439.1313,769.7813 Q439.4594,769.7813 439.7172,770.0391 Q439.975,770.2969 439.975,770.6406 Q439.975,770.9844 439.6313,771.3906 Q439.1313,771.9688 438.3344,772.2969 Q437.2563,772.75 435.9594,772.75 Q434.4438,772.75 433.2406,772.125 Q432.2563,771.625 431.5688,770.5547 Q430.8813,769.4844 430.8813,768.2031 L430.8813,767.0469 Q430.8813,765.7188 431.4984,764.5703 Q432.1156,763.4219 433.2094,762.8047 Q434.3031,762.1875 435.5375,762.1875 Q436.2719,762.1875 436.9203,762.3516 Q437.5688,762.5156 438.1156,762.875 Z "/><text fill="#000000" font-family="sans-serif" font-size="12" lengthAdjust="spacingAndGlyphs" textLength="30" x="454.65" y="771.9102">Envie</text><line style="stroke: #A80036; stroke-width: 1.5;" x1="397.5" x2="510.5" y1="783" y2="783"/><rect fill="none" height="6" style="stroke: #C82930; stroke-width: 1.0;" width="6" x="404.5" y="792.418"/><text fill="#000000" font-family="sans-serif" font-size="11" lengthAdjust="spacingAndGlyphs" textLength="52" x="416.5" y="798.4189">String type</text><rect fill="none" height="6" style="stroke: #C82930; stroke-width: 1.0;" width="6" x="404.5" y="806.2539"/><text fill="#000000" font-family="sans-serif" font-size="11" lengthAdjust="spacingAndGlyphs" textLength="54" x="416.5" y="812.2549">Double prix</text><rect fill="none" height="6" style="stroke: #C82930; stroke-width: 1.0;" width="6" x="404.5" y="820.0898"/><text fill="#000000" font-family="sans-serif" font-size="11" lengthAdjust="spacingAndGlyphs" textLength="84" x="416.5" y="826.0908">String localisation</text><rect fill="none" height="6" style="stroke: #C82930; stroke-width: 1.0;" width="6" x="404.5" y="833.9258"/><text fill="#000000" font-family="sans-serif" font-size="11" lengthAdjust="spacingAndGlyphs" textLength="89" x="416.5" y="839.9268">Double surfaceSol</text><rect fill="none" height="6" style="stroke: #C82930; stroke-width: 1.0;" width="6" x="404.5" y="847.7617"/><text fill="#000000" font-family="sans-serif" font-size="11" lengthAdjust="spacingAndGlyphs" textLength="58" x="416.5" y="853.7627">Int nbPieces</text><line style="stroke: #A80036; stroke-width: 1.5;" x1="397.5" x2="510.5" y1="860.1797" y2="860.1797"/><!--class Mandat--><rect fill="#FEFECE" filter="url(#f1pqpzmv4hgby4)" height="117.1797" id="Mandat" style="stroke: #A80036; stroke-width: 1.5;" width="221" x="318.5" y="305"/><ellipse cx="404.75" cy="321" fill="#ADD1B2" rx="11" ry="11" style="stroke: #A80036; stroke-width: 1.0;"/><path d="M407.5156,316.875 Q407.6719,316.6563 407.8594,316.5469 Q408.0469,316.4375 408.2656,316.4375 Q408.6406,316.4375 408.875,316.6953 Q409.1094,316.9531 409.1094,317.5625 L409.1094,319.0156 Q409.1094,319.625 408.875,319.8906 Q408.6406,320.1563 408.2656,320.1563 Q407.9219,320.1563 407.7188,319.9531 Q407.5156,319.7656 407.4063,319.25 Q407.3594,318.8906 407.1719,318.7031 Q406.8438,318.3281 406.2344,318.1094 Q405.625,317.8906 405,317.8906 Q404.2344,317.8906 403.6016,318.2188 Q402.9688,318.5469 402.4766,319.2969 Q401.9844,320.0469 401.9844,321.0781 L401.9844,322.1719 Q401.9844,323.4063 402.875,324.2266 Q403.7656,325.0469 405.3594,325.0469 Q406.2969,325.0469 406.9531,324.7969 Q407.3438,324.6406 407.7656,324.2031 Q408.0313,323.9375 408.1797,323.8594 Q408.3281,323.7813 408.5313,323.7813 Q408.8594,323.7813 409.1172,324.0391 Q409.375,324.2969 409.375,324.6406 Q409.375,324.9844 409.0313,325.3906 Q408.5313,325.9688 407.7344,326.2969 Q406.6563,326.75 405.3594,326.75 Q403.8438,326.75 402.6406,326.125 Q401.6563,325.625 400.9688,324.5547 Q400.2813,323.4844 400.2813,322.2031 L400.2813,321.0469 Q400.2813,319.7188 400.8984,318.5703 Q401.5156,317.4219 402.6094,316.8047 Q403.7031,316.1875 404.9375,316.1875 Q405.6719,316.1875 406.3203,316.3516 Q406.9688,316.5156 407.5156,316.875 Z "/><text fill="#000000" font-family="sans-serif" font-size="12" lengthAdjust="spacingAndGlyphs" textLength="40" x="425.25" y="325.9102">Mandat</text><line style="stroke: #A80036; stroke-width: 1.5;" x1="319.5" x2="538.5" y1="337" y2="337"/><rect fill="none" height="6" style="stroke: #C82930; stroke-width: 1.0;" width="6" x="326.5" y="346.418"/><text fill="#000000" font-family="sans-serif" font-size="11" lengthAdjust="spacingAndGlyphs" textLength="195" x="338.5" y="352.4189">HashSet&lt;Date, Personne&gt; listeRdvVisite</text><rect fill="none" height="6" style="stroke: #C82930; stroke-width: 1.0;" width="6" x="326.5" y="360.2539"/><text fill="#000000" font-family="sans-serif" font-size="11" lengthAdjust="spacingAndGlyphs" textLength="32" x="338.5" y="366.2549">Int prix</text><rect fill="none" height="6" style="stroke: #C82930; stroke-width: 1.0;" width="6" x="326.5" y="374.0898"/><text fill="#000000" font-family="sans-serif" font-size="11" lengthAdjust="spacingAndGlyphs" textLength="52" x="338.5" y="380.0908">Date vente</text><rect fill="none" height="6" style="stroke: #C82930; stroke-width: 1.0;" width="6" x="326.5" y="387.9258"/><text fill="#000000" font-family="sans-serif" font-size="11" lengthAdjust="spacingAndGlyphs" textLength="52" x="338.5" y="393.9268">Date debut</text><rect fill="none" height="6" style="stroke: #C82930; stroke-width: 1.0;" width="6" x="326.5" y="401.7617"/><text fill="#000000" font-family="sans-serif" font-size="11" lengthAdjust="spacingAndGlyphs" textLength="37" x="338.5" y="407.7627">Date fin</text><line style="stroke: #A80036; stroke-width: 1.5;" x1="319.5" x2="538.5" y1="414.1797" y2="414.1797"/><!--class Promesse--><rect fill="#FEFECE" filter="url(#f1pqpzmv4hgby4)" height="117.1797" id="Promesse" style="stroke: #A80036; stroke-width: 1.5;" width="156" x="316" y="946"/><ellipse cx="360.75" cy="962" fill="#ADD1B2" rx="11" ry="11" style="stroke: #A80036; stroke-width: 1.0;"/><path d="M363.5156,957.875 Q363.6719,957.6563 363.8594,957.5469 Q364.0469,957.4375 364.2656,957.4375 Q364.6406,957.4375 364.875,957.6953 Q365.1094,957.9531 365.1094,958.5625 L365.1094,960.0156 Q365.1094,960.625 364.875,960.8906 Q364.6406,961.1563 364.2656,961.1563 Q363.9219,961.1563 363.7188,960.9531 Q363.5156,960.7656 363.4063,960.25 Q363.3594,959.8906 363.1719,959.7031 Q362.8438,959.3281 362.2344,959.1094 Q361.625,958.8906 361,958.8906 Q360.2344,958.8906 359.6016,959.2188 Q358.9688,959.5469 358.4766,960.2969 Q357.9844,961.0469 357.9844,962.0781 L357.9844,963.1719 Q357.9844,964.4063 358.875,965.2266 Q359.7656,966.0469 361.3594,966.0469 Q362.2969,966.0469 362.9531,965.7969 Q363.3438,965.6406 363.7656,965.2031 Q364.0313,964.9375 364.1797,964.8594 Q364.3281,964.7813 364.5313,964.7813 Q364.8594,964.7813 365.1172,965.0391 Q365.375,965.2969 365.375,965.6406 Q365.375,965.9844 365.0313,966.3906 Q364.5313,966.9688 363.7344,967.2969 Q362.6563,967.75 361.3594,967.75 Q359.8438,967.75 358.6406,967.125 Q357.6563,966.625 356.9688,965.5547 Q356.2813,964.4844 356.2813,963.2031 L356.2813,962.0469 Q356.2813,960.7188 356.8984,959.5703 Q357.5156,958.4219 358.6094,957.8047 Q359.7031,957.1875 360.9375,957.1875 Q361.6719,957.1875 362.3203,957.3516 Q362.9688,957.5156 363.5156,957.875 Z "/><text fill="#000000" font-family="sans-serif" font-size="12" lengthAdjust="spacingAndGlyphs" textLength="58" x="381.25" y="966.9102">Promesse</text><line style="stroke: #A80036; stroke-width: 1.5;" x1="317" x2="471" y1="978" y2="978"/><rect fill="none" height="6" style="stroke: #C82930; stroke-width: 1.0;" width="6" x="324" y="987.418"/><text fill="#000000" font-family="sans-serif" font-size="11" lengthAdjust="spacingAndGlyphs" textLength="126" x="336" y="993.4189">Double prixVerseVendeur</text><rect fill="none" height="6" style="stroke: #C82930; stroke-width: 1.0;" width="6" x="324" y="1001.2539"/><text fill="#000000" font-family="sans-serif" font-size="11" lengthAdjust="spacingAndGlyphs" textLength="105" x="336" y="1007.2549">String adresseNotaire</text><rect fill="none" height="6" style="stroke: #C82930; stroke-width: 1.0;" width="6" x="324" y="1015.0898"/><text fill="#000000" font-family="sans-serif" font-size="11" lengthAdjust="spacingAndGlyphs" textLength="52" x="336" y="1021.0908">Date vente</text><rect fill="none" height="6" style="stroke: #C82930; stroke-width: 1.0;" width="6" x="324" y="1028.9258"/><text fill="#000000" font-family="sans-serif" font-size="11" lengthAdjust="spacingAndGlyphs" textLength="130" x="336" y="1034.9268">Double commissionAgence</text><rect fill="none" height="6" style="stroke: #C82930; stroke-width: 1.0;" width="6" x="324" y="1042.7617"/><text fill="#000000" font-family="sans-serif" font-size="11" lengthAdjust="spacingAndGlyphs" textLength="87" x="336" y="1048.7627">Double fraisVente</text><line style="stroke: #A80036; stroke-width: 1.5;" x1="317" x2="471" y1="1055.1797" y2="1055.1797"/><!--class Notaire--><rect fill="#FEFECE" filter="url(#f1pqpzmv4hgby4)" height="61.8359" id="Notaire" style="stroke: #A80036; stroke-width: 1.5;" width="101" x="222.5" y="778.5"/><ellipse cx="250.55" cy="794.5" fill="#ADD1B2" rx="11" ry="11" style="stroke: #A80036; stroke-width: 1.0;"/><path d="M253.3156,790.375 Q253.4719,790.1563 253.6594,790.0469 Q253.8469,789.9375 254.0656,789.9375 Q254.4406,789.9375 254.675,790.1953 Q254.9094,790.4531 254.9094,791.0625 L254.9094,792.5156 Q254.9094,793.125 254.675,793.3906 Q254.4406,793.6563 254.0656,793.6563 Q253.7219,793.6563 253.5188,793.4531 Q253.3156,793.2656 253.2063,792.75 Q253.1594,792.3906 252.9719,792.2031 Q252.6438,791.8281 252.0344,791.6094 Q251.425,791.3906 250.8,791.3906 Q250.0344,791.3906 249.4016,791.7188 Q248.7688,792.0469 248.2766,792.7969 Q247.7844,793.5469 247.7844,794.5781 L247.7844,795.6719 Q247.7844,796.9063 248.675,797.7266 Q249.5656,798.5469 251.1594,798.5469 Q252.0969,798.5469 252.7531,798.2969 Q253.1438,798.1406 253.5656,797.7031 Q253.8313,797.4375 253.9797,797.3594 Q254.1281,797.2813 254.3313,797.2813 Q254.6594,797.2813 254.9172,797.5391 Q255.175,797.7969 255.175,798.1406 Q255.175,798.4844 254.8313,798.8906 Q254.3313,799.4688 253.5344,799.7969 Q252.4563,800.25 251.1594,800.25 Q249.6438,800.25 248.4406,799.625 Q247.4563,799.125 246.7688,798.0547 Q246.0813,796.9844 246.0813,795.7031 L246.0813,794.5469 Q246.0813,793.2188 246.6984,792.0703 Q247.3156,790.9219 248.4094,790.3047 Q249.5031,789.6875 250.7375,789.6875 Q251.4719,789.6875 252.1203,789.8516 Q252.7688,790.0156 253.3156,790.375 Z "/><text fill="#000000" font-family="sans-serif" font-size="12" lengthAdjust="spacingAndGlyphs" textLength="40" x="267.45" y="799.4102">Notaire</text><line style="stroke: #A80036; stroke-width: 1.5;" x1="223.5" x2="322.5" y1="810.5" y2="810.5"/><line style="stroke: #A80036; stroke-width: 1.5;" x1="223.5" x2="322.5" y1="818.5" y2="818.5"/><ellipse cx="233.5" cy="830.918" fill="#84BE84" rx="3" ry="3" style="stroke: #038048; stroke-width: 1.0;"/><text fill="#000000" font-family="sans-serif" font-size="11" lengthAdjust="spacingAndGlyphs" textLength="75" x="242.5" y="833.9189">VerserArgent()</text><!--class AnnoncePub--><rect fill="#FEFECE" filter="url(#f1pqpzmv4hgby4)" height="48" id="AnnoncePub" style="stroke: #A80036; stroke-width: 1.5;" width="102" x="1604" y="339.5"/><ellipse cx="1619" cy="355.5" fill="#ADD1B2" rx="11" ry="11" style="stroke: #A80036; stroke-width: 1.0;"/><path d="M1621.7656,351.375 Q1621.9219,351.1563 1622.1094,351.0469 Q1622.2969,350.9375 1622.5156,350.9375 Q1622.8906,350.9375 1623.125,351.1953 Q1623.3594,351.4531 1623.3594,352.0625 L1623.3594,353.5156 Q1623.3594,354.125 1623.125,354.3906 Q1622.8906,354.6563 1622.5156,354.6563 Q1622.1719,354.6563 1621.9688,354.4531 Q1621.7656,354.2656 1621.6563,353.75 Q1621.6094,353.3906 1621.4219,353.2031 Q1621.0938,352.8281 1620.4844,352.6094 Q1619.875,352.3906 1619.25,352.3906 Q1618.4844,352.3906 1617.8516,352.7188 Q1617.2188,353.0469 1616.7266,353.7969 Q1616.2344,354.5469 1616.2344,355.5781 L1616.2344,356.6719 Q1616.2344,357.9063 1617.125,358.7266 Q1618.0156,359.5469 1619.6094,359.5469 Q1620.5469,359.5469 1621.2031,359.2969 Q1621.5938,359.1406 1622.0156,358.7031 Q1622.2813,358.4375 1622.4297,358.3594 Q1622.5781,358.2813 1622.7813,358.2813 Q1623.1094,358.2813 1623.3672,358.5391 Q1623.625,358.7969 1623.625,359.1406 Q1623.625,359.4844 1623.2813,359.8906 Q1622.7813,360.4688 1621.9844,360.7969 Q1620.9063,361.25 1619.6094,361.25 Q1618.0938,361.25 1616.8906,360.625 Q1615.9063,360.125 1615.2188,359.0547 Q1614.5313,357.9844 1614.5313,356.7031 L1614.5313,355.5469 Q1614.5313,354.2188 1615.1484,353.0703 Q1615.7656,351.9219 1616.8594,351.3047 Q1617.9531,350.6875 1619.1875,350.6875 Q1619.9219,350.6875 1620.5703,350.8516 Q1621.2188,351.0156 1621.7656,351.375 Z "/><text fill="#000000" font-family="sans-serif" font-size="12" lengthAdjust="spacingAndGlyphs" textLength="70" x="1633" y="360.4102">AnnoncePub</text><line style="stroke: #A80036; stroke-width: 1.5;" x1="1605" x2="1705" y1="371.5" y2="371.5"/><line style="stroke: #A80036; stroke-width: 1.5;" x1="1605" x2="1705" y1="379.5" y2="379.5"/><!--class TypePub--><rect fill="#FEFECE" filter="url(#f1pqpzmv4hgby4)" height="61.8359" id="TypePub" style="stroke: #A80036; stroke-width: 1.5;" width="103" x="1603.5" y="101.5"/><ellipse cx="1627.95" cy="117.5" fill="#A9DCDF" rx="11" ry="11" style="stroke: #A80036; stroke-width: 1.0;"/><path d="M1630.1375,119.2656 L1625.9969,119.2656 L1625.575,120.2969 L1625.9969,120.2969 Q1626.6063,120.2969 1626.8719,120.5313 Q1627.1375,120.7656 1627.1375,121.1563 Q1627.1375,121.5313 1626.8719,121.7656 Q1626.6063,122 1625.9969,122 L1623.7,122 Q1623.0906,122 1622.8328,121.7656 Q1622.575,121.5313 1622.575,121.1406 Q1622.575,120.7656 1622.8484,120.5234 Q1623.1219,120.2813 1623.7469,120.2969 L1626.4188,113.6406 L1625.3094,113.6406 Q1624.7,113.6406 1624.4344,113.4063 Q1624.1688,113.1719 1624.1688,112.7813 Q1624.1688,112.4063 1624.4344,112.1719 Q1624.7,111.9375 1625.3094,111.9375 L1628.9813,111.9375 L1632.3719,120.2969 Q1632.9656,120.2969 1633.1531,120.4375 Q1633.5438,120.7031 1633.5438,121.1563 Q1633.5438,121.5313 1633.2859,121.7656 Q1633.0281,122 1632.4188,122 L1630.1219,122 Q1629.5125,122 1629.2469,121.7656 Q1628.9813,121.5313 1628.9813,121.1406 Q1628.9813,120.7656 1629.2469,120.5313 Q1629.5125,120.2969 1630.1219,120.2969 L1630.5438,120.2969 L1630.1375,119.2656 Z M1629.4188,117.5625 L1628.0594,114.1875 L1626.6844,117.5625 L1629.4188,117.5625 Z "/><text fill="#000000" font-family="sans-serif" font-size="12" font-style="italic" lengthAdjust="spacingAndGlyphs" textLength="50" x="1644.05" y="122.4102">TypePub</text><line style="stroke: #A80036; stroke-width: 1.5;" x1="1604.5" x2="1705.5" y1="133.5" y2="133.5"/><line style="stroke: #A80036; stroke-width: 1.5;" x1="1604.5" x2="1705.5" y1="141.5" y2="141.5"/><ellipse cx="1614.5" cy="153.918" fill="#84BE84" rx="3" ry="3" style="stroke: #038048; stroke-width: 1.0;"/><text fill="#000000" font-family="sans-serif" font-size="11" lengthAdjust="spacingAndGlyphs" textLength="77" x="1623.5" y="156.9189">addElem() : void</text><!--class TypeTexte--><rect fill="#FEFECE" filter="url(#f1pqpzmv4hgby4)" height="61.8359" id="TypeTexte" style="stroke: #A80036; stroke-width: 1.5;" width="103" x="1741.5" y="332.5"/><ellipse cx="1763.7" cy="348.5" fill="#ADD1B2" rx="11" ry="11" style="stroke: #A80036; stroke-width: 1.0;"/><path d="M1766.4656,344.375 Q1766.6219,344.1563 1766.8094,344.0469 Q1766.9969,343.9375 1767.2156,343.9375 Q1767.5906,343.9375 1767.825,344.1953 Q1768.0594,344.4531 1768.0594,345.0625 L1768.0594,346.5156 Q1768.0594,347.125 1767.825,347.3906 Q1767.5906,347.6563 1767.2156,347.6563 Q1766.8719,347.6563 1766.6688,347.4531 Q1766.4656,347.2656 1766.3563,346.75 Q1766.3094,346.3906 1766.1219,346.2031 Q1765.7938,345.8281 1765.1844,345.6094 Q1764.575,345.3906 1763.95,345.3906 Q1763.1844,345.3906 1762.5516,345.7188 Q1761.9188,346.0469 1761.4266,346.7969 Q1760.9344,347.5469 1760.9344,348.5781 L1760.9344,349.6719 Q1760.9344,350.9063 1761.825,351.7266 Q1762.7156,352.5469 1764.3094,352.5469 Q1765.2469,352.5469 1765.9031,352.2969 Q1766.2938,352.1406 1766.7156,351.7031 Q1766.9813,351.4375 1767.1297,351.3594 Q1767.2781,351.2813 1767.4813,351.2813 Q1767.8094,351.2813 1768.0672,351.5391 Q1768.325,351.7969 1768.325,352.1406 Q1768.325,352.4844 1767.9813,352.8906 Q1767.4813,353.4688 1766.6844,353.7969 Q1765.6063,354.25 1764.3094,354.25 Q1762.7938,354.25 1761.5906,353.625 Q1760.6063,353.125 1759.9188,352.0547 Q1759.2313,350.9844 1759.2313,349.7031 L1759.2313,348.5469 Q1759.2313,347.2188 1759.8484,346.0703 Q1760.4656,344.9219 1761.5594,344.3047 Q1762.6531,343.6875 1763.8875,343.6875 Q1764.6219,343.6875 1765.2703,343.8516 Q1765.9188,344.0156 1766.4656,344.375 Z "/><text fill="#000000" font-family="sans-serif" font-size="12" lengthAdjust="spacingAndGlyphs" textLength="55" x="1779.3" y="353.4102">TypeTexte</text><line style="stroke: #A80036; stroke-width: 1.5;" x1="1742.5" x2="1843.5" y1="364.5" y2="364.5"/><line style="stroke: #A80036; stroke-width: 1.5;" x1="1742.5" x2="1843.5" y1="372.5" y2="372.5"/><ellipse cx="1752.5" cy="384.918" fill="#84BE84" rx="3" ry="3" style="stroke: #038048; stroke-width: 1.0;"/><text fill="#000000" font-family="sans-serif" font-size="11" lengthAdjust="spacingAndGlyphs" textLength="77" x="1761.5" y="387.9189">addElem() : void</text><!--class TypeHtml--><rect fill="#FEFECE" filter="url(#f1pqpzmv4hgby4)" height="61.8359" id="TypeHtml" style="stroke: #A80036; stroke-width: 1.5;" width="103" x="1879.5" y="332.5"/><ellipse cx="1903.05" cy="348.5" fill="#ADD1B2" rx="11" ry="11" style="stroke: #A80036; stroke-width: 1.0;"/><path d="M1905.8156,344.375 Q1905.9719,344.1563 1906.1594,344.0469 Q1906.3469,343.9375 1906.5656,343.9375 Q1906.9406,343.9375 1907.175,344.1953 Q1907.4094,344.4531 1907.4094,345.0625 L1907.4094,346.5156 Q1907.4094,347.125 1907.175,347.3906 Q1906.9406,347.6563 1906.5656,347.6563 Q1906.2219,347.6563 1906.0188,347.4531 Q1905.8156,347.2656 1905.7063,346.75 Q1905.6594,346.3906 1905.4719,346.2031 Q1905.1438,345.8281 1904.5344,345.6094 Q1903.925,345.3906 1903.3,345.3906 Q1902.5344,345.3906 1901.9016,345.7188 Q1901.2688,346.0469 1900.7766,346.7969 Q1900.2844,347.5469 1900.2844,348.5781 L1900.2844,349.6719 Q1900.2844,350.9063 1901.175,351.7266 Q1902.0656,352.5469 1903.6594,352.5469 Q1904.5969,352.5469 1905.2531,352.2969 Q1905.6438,352.1406 1906.0656,351.7031 Q1906.3313,351.4375 1906.4797,351.3594 Q1906.6281,351.2813 1906.8313,351.2813 Q1907.1594,351.2813 1907.4172,351.5391 Q1907.675,351.7969 1907.675,352.1406 Q1907.675,352.4844 1907.3313,352.8906 Q1906.8313,353.4688 1906.0344,353.7969 Q1904.9563,354.25 1903.6594,354.25 Q1902.1438,354.25 1900.9406,353.625 Q1899.9563,353.125 1899.2688,352.0547 Q1898.5813,350.9844 1898.5813,349.7031 L1898.5813,348.5469 Q1898.5813,347.2188 1899.1984,346.0703 Q1899.8156,344.9219 1900.9094,344.3047 Q1902.0031,343.6875 1903.2375,343.6875 Q1903.9719,343.6875 1904.6203,343.8516 Q1905.2688,344.0156 1905.8156,344.375 Z "/><text fill="#000000" font-family="sans-serif" font-size="12" lengthAdjust="spacingAndGlyphs" textLength="52" x="1918.95" y="353.4102">TypeHtml</text><line style="stroke: #A80036; stroke-width: 1.5;" x1="1880.5" x2="1981.5" y1="364.5" y2="364.5"/><line style="stroke: #A80036; stroke-width: 1.5;" x1="1880.5" x2="1981.5" y1="372.5" y2="372.5"/><ellipse cx="1890.5" cy="384.918" fill="#84BE84" rx="3" ry="3" style="stroke: #038048; stroke-width: 1.0;"/><text fill="#000000" font-family="sans-serif" font-size="11" lengthAdjust="spacingAndGlyphs" textLength="77" x="1899.5" y="387.9189">addElem() : void</text><!--class TypeImg--><rect fill="#FEFECE" filter="url(#f1pqpzmv4hgby4)" height="61.8359" id="TypeImg" style="stroke: #A80036; stroke-width: 1.5;" width="103" x="1327.5" y="332.5"/><ellipse cx="1353.3" cy="348.5" fill="#ADD1B2" rx="11" ry="11" style="stroke: #A80036; stroke-width: 1.0;"/><path d="M1356.0656,344.375 Q1356.2219,344.1563 1356.4094,344.0469 Q1356.5969,343.9375 1356.8156,343.9375 Q1357.1906,343.9375 1357.425,344.1953 Q1357.6594,344.4531 1357.6594,345.0625 L1357.6594,346.5156 Q1357.6594,347.125 1357.425,347.3906 Q1357.1906,347.6563 1356.8156,347.6563 Q1356.4719,347.6563 1356.2688,347.4531 Q1356.0656,347.2656 1355.9563,346.75 Q1355.9094,346.3906 1355.7219,346.2031 Q1355.3938,345.8281 1354.7844,345.6094 Q1354.175,345.3906 1353.55,345.3906 Q1352.7844,345.3906 1352.1516,345.7188 Q1351.5188,346.0469 1351.0266,346.7969 Q1350.5344,347.5469 1350.5344,348.5781 L1350.5344,349.6719 Q1350.5344,350.9063 1351.425,351.7266 Q1352.3156,352.5469 1353.9094,352.5469 Q1354.8469,352.5469 1355.5031,352.2969 Q1355.8938,352.1406 1356.3156,351.7031 Q1356.5813,351.4375 1356.7297,351.3594 Q1356.8781,351.2813 1357.0813,351.2813 Q1357.4094,351.2813 1357.6672,351.5391 Q1357.925,351.7969 1357.925,352.1406 Q1357.925,352.4844 1357.5813,352.8906 Q1357.0813,353.4688 1356.2844,353.7969 Q1355.2063,354.25 1353.9094,354.25 Q1352.3938,354.25 1351.1906,353.625 Q1350.2063,353.125 1349.5188,352.0547 Q1348.8313,350.9844 1348.8313,349.7031 L1348.8313,348.5469 Q1348.8313,347.2188 1349.4484,346.0703 Q1350.0656,344.9219 1351.1594,344.3047 Q1352.2531,343.6875 1353.4875,343.6875 Q1354.2219,343.6875 1354.8703,343.8516 Q1355.5188,344.0156 1356.0656,344.375 Z "/><text fill="#000000" font-family="sans-serif" font-size="12" lengthAdjust="spacingAndGlyphs" textLength="47" x="1369.7" y="353.4102">TypeImg</text><line style="stroke: #A80036; stroke-width: 1.5;" x1="1328.5" x2="1429.5" y1="364.5" y2="364.5"/><line style="stroke: #A80036; stroke-width: 1.5;" x1="1328.5" x2="1429.5" y1="372.5" y2="372.5"/><ellipse cx="1338.5" cy="384.918" fill="#84BE84" rx="3" ry="3" style="stroke: #038048; stroke-width: 1.0;"/><text fill="#000000" font-family="sans-serif" font-size="11" lengthAdjust="spacingAndGlyphs" textLength="77" x="1347.5" y="387.9189">addElem() : void</text><!--class TypeVid--><rect fill="#FEFECE" filter="url(#f1pqpzmv4hgby4)" height="61.8359" id="TypeVid" style="stroke: #A80036; stroke-width: 1.5;" width="103" x="1465.5" y="332.5"/><ellipse cx="1493.1" cy="348.5" fill="#ADD1B2" rx="11" ry="11" style="stroke: #A80036; stroke-width: 1.0;"/><path d="M1495.8656,344.375 Q1496.0219,344.1563 1496.2094,344.0469 Q1496.3969,343.9375 1496.6156,343.9375 Q1496.9906,343.9375 1497.225,344.1953 Q1497.4594,344.4531 1497.4594,345.0625 L1497.4594,346.5156 Q1497.4594,347.125 1497.225,347.3906 Q1496.9906,347.6563 1496.6156,347.6563 Q1496.2719,347.6563 1496.0688,347.4531 Q1495.8656,347.2656 1495.7563,346.75 Q1495.7094,346.3906 1495.5219,346.2031 Q1495.1938,345.8281 1494.5844,345.6094 Q1493.975,345.3906 1493.35,345.3906 Q1492.5844,345.3906 1491.9516,345.7188 Q1491.3188,346.0469 1490.8266,346.7969 Q1490.3344,347.5469 1490.3344,348.5781 L1490.3344,349.6719 Q1490.3344,350.9063 1491.225,351.7266 Q1492.1156,352.5469 1493.7094,352.5469 Q1494.6469,352.5469 1495.3031,352.2969 Q1495.6938,352.1406 1496.1156,351.7031 Q1496.3813,351.4375 1496.5297,351.3594 Q1496.6781,351.2813 1496.8813,351.2813 Q1497.2094,351.2813 1497.4672,351.5391 Q1497.725,351.7969 1497.725,352.1406 Q1497.725,352.4844 1497.3813,352.8906 Q1496.8813,353.4688 1496.0844,353.7969 Q1495.0063,354.25 1493.7094,354.25 Q1492.1938,354.25 1490.9906,353.625 Q1490.0063,353.125 1489.3188,352.0547 Q1488.6313,350.9844 1488.6313,349.7031 L1488.6313,348.5469 Q1488.6313,347.2188 1489.2484,346.0703 Q1489.8656,344.9219 1490.9594,344.3047 Q1492.0531,343.6875 1493.2875,343.6875 Q1494.0219,343.6875 1494.6703,343.8516 Q1495.3188,344.0156 1495.8656,344.375 Z "/><text fill="#000000" font-family="sans-serif" font-size="12" lengthAdjust="spacingAndGlyphs" textLength="43" x="1509.9" y="353.4102">TypeVid</text><line style="stroke: #A80036; stroke-width: 1.5;" x1="1466.5" x2="1567.5" y1="364.5" y2="364.5"/><line style="stroke: #A80036; stroke-width: 1.5;" x1="1466.5" x2="1567.5" y1="372.5" y2="372.5"/><ellipse cx="1476.5" cy="384.918" fill="#84BE84" rx="3" ry="3" style="stroke: #038048; stroke-width: 1.0;"/><text fill="#000000" font-family="sans-serif" font-size="11" lengthAdjust="spacingAndGlyphs" textLength="77" x="1485.5" y="387.9189">addElem() : void</text><!--class BienImmo--><rect fill="#FEFECE" filter="url(#f1pqpzmv4hgby4)" height="144.8516" id="BienImmo" style="stroke: #A80036; stroke-width: 1.5;" width="183" x="819.5" y="60"/><ellipse cx="877.75" cy="76" fill="#A9DCDF" rx="11" ry="11" style="stroke: #A80036; stroke-width: 1.0;"/><path d="M879.9375,77.7656 L875.7969,77.7656 L875.375,78.7969 L875.7969,78.7969 Q876.4063,78.7969 876.6719,79.0313 Q876.9375,79.2656 876.9375,79.6563 Q876.9375,80.0313 876.6719,80.2656 Q876.4063,80.5 875.7969,80.5 L873.5,80.5 Q872.8906,80.5 872.6328,80.2656 Q872.375,80.0313 872.375,79.6406 Q872.375,79.2656 872.6484,79.0234 Q872.9219,78.7813 873.5469,78.7969 L876.2188,72.1406 L875.1094,72.1406 Q874.5,72.1406 874.2344,71.9063 Q873.9688,71.6719 873.9688,71.2813 Q873.9688,70.9063 874.2344,70.6719 Q874.5,70.4375 875.1094,70.4375 L878.7813,70.4375 L882.1719,78.7969 Q882.7656,78.7969 882.9531,78.9375 Q883.3438,79.2031 883.3438,79.6563 Q883.3438,80.0313 883.0859,80.2656 Q882.8281,80.5 882.2188,80.5 L879.9219,80.5 Q879.3125,80.5 879.0469,80.2656 Q878.7813,80.0313 878.7813,79.6406 Q878.7813,79.2656 879.0469,79.0313 Q879.3125,78.7969 879.9219,78.7969 L880.3438,78.7969 L879.9375,77.7656 Z M879.2188,76.0625 L877.8594,72.6875 L876.4844,76.0625 L879.2188,76.0625 Z "/><text fill="#000000" font-family="sans-serif" font-size="12" font-style="italic" lengthAdjust="spacingAndGlyphs" textLength="58" x="898.25" y="80.9102">BienImmo</text><line style="stroke: #A80036; stroke-width: 1.5;" x1="820.5" x2="1001.5" y1="92" y2="92"/><rect fill="none" height="6" style="stroke: #C82930; stroke-width: 1.0;" width="6" x="827.5" y="101.418"/><text fill="#000000" font-family="sans-serif" font-size="11" lengthAdjust="spacingAndGlyphs" textLength="34" x="839.5" y="107.4189">Int num</text><rect fill="none" height="6" style="stroke: #C82930; stroke-width: 1.0;" width="6" x="827.5" y="115.2539"/><text fill="#000000" font-family="sans-serif" font-size="11" lengthAdjust="spacingAndGlyphs" textLength="71" x="839.5" y="121.2549">String adresse</text><rect fill="none" height="6" style="stroke: #C82930; stroke-width: 1.0;" width="6" x="827.5" y="129.0898"/><text fill="#000000" font-family="sans-serif" font-size="11" lengthAdjust="spacingAndGlyphs" textLength="81" x="839.5" y="135.0908">String orientation</text><rect fill="none" height="6" style="stroke: #C82930; stroke-width: 1.0;" width="6" x="827.5" y="142.9258"/><text fill="#000000" font-family="sans-serif" font-size="11" lengthAdjust="spacingAndGlyphs" textLength="54" x="839.5" y="148.9268">Double prix</text><rect fill="none" height="6" style="stroke: #C82930; stroke-width: 1.0;" width="6" x="827.5" y="156.7617"/><text fill="#000000" font-family="sans-serif" font-size="11" lengthAdjust="spacingAndGlyphs" textLength="52" x="839.5" y="162.7627">Date vente</text><rect fill="none" height="6" style="stroke: #C82930; stroke-width: 1.0;" width="6" x="827.5" y="170.5977"/><text fill="#000000" font-family="sans-serif" font-size="11" lengthAdjust="spacingAndGlyphs" textLength="57" x="839.5" y="176.5986">Date[] dispo</text><line style="stroke: #A80036; stroke-width: 1.5;" x1="820.5" x2="1001.5" y1="183.0156" y2="183.0156"/><ellipse cx="830.5" cy="195.4336" fill="#84BE84" rx="3" ry="3" style="stroke: #038048; stroke-width: 1.0;"/><text fill="#000000" font-family="sans-serif" font-size="11" lengthAdjust="spacingAndGlyphs" textLength="157" x="839.5" y="198.4346">Correspondance(Envie) : Double</text><!--class Terrain--><rect fill="#FEFECE" filter="url(#f1pqpzmv4hgby4)" height="75.6719" id="Terrain" style="stroke: #A80036; stroke-width: 1.5;" width="140" x="723" y="325.5"/><ellipse cx="769.25" cy="341.5" fill="#ADD1B2" rx="11" ry="11" style="stroke: #A80036; stroke-width: 1.0;"/><path d="M772.0156,337.375 Q772.1719,337.1563 772.3594,337.0469 Q772.5469,336.9375 772.7656,336.9375 Q773.1406,336.9375 773.375,337.1953 Q773.6094,337.4531 773.6094,338.0625 L773.6094,339.5156 Q773.6094,340.125 773.375,340.3906 Q773.1406,340.6563 772.7656,340.6563 Q772.4219,340.6563 772.2188,340.4531 Q772.0156,340.2656 771.9063,339.75 Q771.8594,339.3906 771.6719,339.2031 Q771.3438,338.8281 770.7344,338.6094 Q770.125,338.3906 769.5,338.3906 Q768.7344,338.3906 768.1016,338.7188 Q767.4688,339.0469 766.9766,339.7969 Q766.4844,340.5469 766.4844,341.5781 L766.4844,342.6719 Q766.4844,343.9063 767.375,344.7266 Q768.2656,345.5469 769.8594,345.5469 Q770.7969,345.5469 771.4531,345.2969 Q771.8438,345.1406 772.2656,344.7031 Q772.5313,344.4375 772.6797,344.3594 Q772.8281,344.2813 773.0313,344.2813 Q773.3594,344.2813 773.6172,344.5391 Q773.875,344.7969 773.875,345.1406 Q773.875,345.4844 773.5313,345.8906 Q773.0313,346.4688 772.2344,346.7969 Q771.1563,347.25 769.8594,347.25 Q768.3438,347.25 767.1406,346.625 Q766.1563,346.125 765.4688,345.0547 Q764.7813,343.9844 764.7813,342.7031 L764.7813,341.5469 Q764.7813,340.2188 765.3984,339.0703 Q766.0156,337.9219 767.1094,337.3047 Q768.2031,336.6875 769.4375,336.6875 Q770.1719,336.6875 770.8203,336.8516 Q771.4688,337.0156 772.0156,337.375 Z "/><text fill="#000000" font-family="sans-serif" font-size="12" lengthAdjust="spacingAndGlyphs" textLength="39" x="789.75" y="346.4102">Terrain</text><line style="stroke: #A80036; stroke-width: 1.5;" x1="724" x2="862" y1="357.5" y2="357.5"/><rect fill="none" height="6" style="stroke: #C82930; stroke-width: 1.0;" width="6" x="731" y="366.918"/><text fill="#000000" font-family="sans-serif" font-size="11" lengthAdjust="spacingAndGlyphs" textLength="89" x="743" y="372.9189">Double surfaceSol</text><rect fill="none" height="6" style="stroke: #C82930; stroke-width: 1.0;" width="6" x="731" y="380.7539"/><text fill="#000000" font-family="sans-serif" font-size="11" lengthAdjust="spacingAndGlyphs" textLength="114" x="743" y="386.7549">Double longueurFacade</text><line style="stroke: #A80036; stroke-width: 1.5;" x1="724" x2="862" y1="393.1719" y2="393.1719"/><!--class Maison--><rect fill="#FEFECE" filter="url(#f1pqpzmv4hgby4)" height="103.3438" id="Maison" style="stroke: #A80036; stroke-width: 1.5;" width="144" x="936" y="312"/><ellipse cx="983.75" cy="328" fill="#ADD1B2" rx="11" ry="11" style="stroke: #A80036; stroke-width: 1.0;"/><path d="M986.5156,323.875 Q986.6719,323.6563 986.8594,323.5469 Q987.0469,323.4375 987.2656,323.4375 Q987.6406,323.4375 987.875,323.6953 Q988.1094,323.9531 988.1094,324.5625 L988.1094,326.0156 Q988.1094,326.625 987.875,326.8906 Q987.6406,327.1563 987.2656,327.1563 Q986.9219,327.1563 986.7188,326.9531 Q986.5156,326.7656 986.4063,326.25 Q986.3594,325.8906 986.1719,325.7031 Q985.8438,325.3281 985.2344,325.1094 Q984.625,324.8906 984,324.8906 Q983.2344,324.8906 982.6016,325.2188 Q981.9688,325.5469 981.4766,326.2969 Q980.9844,327.0469 980.9844,328.0781 L980.9844,329.1719 Q980.9844,330.4063 981.875,331.2266 Q982.7656,332.0469 984.3594,332.0469 Q985.2969,332.0469 985.9531,331.7969 Q986.3438,331.6406 986.7656,331.2031 Q987.0313,330.9375 987.1797,330.8594 Q987.3281,330.7813 987.5313,330.7813 Q987.8594,330.7813 988.1172,331.0391 Q988.375,331.2969 988.375,331.6406 Q988.375,331.9844 988.0313,332.3906 Q987.5313,332.9688 986.7344,333.2969 Q985.6563,333.75 984.3594,333.75 Q982.8438,333.75 981.6406,333.125 Q980.6563,332.625 979.9688,331.5547 Q979.2813,330.4844 979.2813,329.2031 L979.2813,328.0469 Q979.2813,326.7188 979.8984,325.5703 Q980.5156,324.4219 981.6094,323.8047 Q982.7031,323.1875 983.9375,323.1875 Q984.6719,323.1875 985.3203,323.3516 Q985.9688,323.5156 986.5156,323.875 Z "/><text fill="#000000" font-family="sans-serif" font-size="12" lengthAdjust="spacingAndGlyphs" textLength="40" x="1004.25" y="332.9102">Maison</text><line style="stroke: #A80036; stroke-width: 1.5;" x1="937" x2="1079" y1="344" y2="344"/><rect fill="none" height="6" style="stroke: #C82930; stroke-width: 1.0;" width="6" x="944" y="353.418"/><text fill="#000000" font-family="sans-serif" font-size="11" lengthAdjust="spacingAndGlyphs" textLength="118" x="956" y="359.4189">Double surfaceHabitable</text><rect fill="none" height="6" style="stroke: #C82930; stroke-width: 1.0;" width="6" x="944" y="367.2539"/><text fill="#000000" font-family="sans-serif" font-size="11" lengthAdjust="spacingAndGlyphs" textLength="58" x="956" y="373.2549">Int nbPieces</text><rect fill="none" height="6" style="stroke: #C82930; stroke-width: 1.0;" width="6" x="944" y="381.0898"/><text fill="#000000" font-family="sans-serif" font-size="11" lengthAdjust="spacingAndGlyphs" textLength="59" x="956" y="387.0908">Int nbEtages</text><rect fill="none" height="6" style="stroke: #C82930; stroke-width: 1.0;" width="6" x="944" y="394.9258"/><text fill="#000000" font-family="sans-serif" font-size="11" lengthAdjust="spacingAndGlyphs" textLength="81" x="956" y="400.9268">String chauffage</text><line style="stroke: #A80036; stroke-width: 1.5;" x1="937" x2="1079" y1="407.3438" y2="407.3438"/><!--class Appartement--><rect fill="#FEFECE" filter="url(#f1pqpzmv4hgby4)" height="89.5078" id="Appartement" style="stroke: #A80036; stroke-width: 1.5;" width="156" x="1115" y="318.5"/><ellipse cx="1154.3" cy="334.5" fill="#ADD1B2" rx="11" ry="11" style="stroke: #A80036; stroke-width: 1.0;"/><path d="M1157.0656,330.375 Q1157.2219,330.1563 1157.4094,330.0469 Q1157.5969,329.9375 1157.8156,329.9375 Q1158.1906,329.9375 1158.425,330.1953 Q1158.6594,330.4531 1158.6594,331.0625 L1158.6594,332.5156 Q1158.6594,333.125 1158.425,333.3906 Q1158.1906,333.6563 1157.8156,333.6563 Q1157.4719,333.6563 1157.2688,333.4531 Q1157.0656,333.2656 1156.9563,332.75 Q1156.9094,332.3906 1156.7219,332.2031 Q1156.3938,331.8281 1155.7844,331.6094 Q1155.175,331.3906 1154.55,331.3906 Q1153.7844,331.3906 1153.1516,331.7188 Q1152.5188,332.0469 1152.0266,332.7969 Q1151.5344,333.5469 1151.5344,334.5781 L1151.5344,335.6719 Q1151.5344,336.9063 1152.425,337.7266 Q1153.3156,338.5469 1154.9094,338.5469 Q1155.8469,338.5469 1156.5031,338.2969 Q1156.8938,338.1406 1157.3156,337.7031 Q1157.5813,337.4375 1157.7297,337.3594 Q1157.8781,337.2813 1158.0813,337.2813 Q1158.4094,337.2813 1158.6672,337.5391 Q1158.925,337.7969 1158.925,338.1406 Q1158.925,338.4844 1158.5813,338.8906 Q1158.0813,339.4688 1157.2844,339.7969 Q1156.2063,340.25 1154.9094,340.25 Q1153.3938,340.25 1152.1906,339.625 Q1151.2063,339.125 1150.5188,338.0547 Q1149.8313,336.9844 1149.8313,335.7031 L1149.8313,334.5469 Q1149.8313,333.2188 1150.4484,332.0703 Q1151.0656,330.9219 1152.1594,330.3047 Q1153.2531,329.6875 1154.4875,329.6875 Q1155.2219,329.6875 1155.8703,329.8516 Q1156.5188,330.0156 1157.0656,330.375 Z "/><text fill="#000000" font-family="sans-serif" font-size="12" lengthAdjust="spacingAndGlyphs" textLength="70" x="1173.7" y="339.4102">Appartement</text><line style="stroke: #A80036; stroke-width: 1.5;" x1="1116" x2="1270" y1="350.5" y2="350.5"/><rect fill="none" height="6" style="stroke: #C82930; stroke-width: 1.0;" width="6" x="1123" y="359.918"/><text fill="#000000" font-family="sans-serif" font-size="11" lengthAdjust="spacingAndGlyphs" textLength="58" x="1135" y="365.9189">Int nbPieces</text><rect fill="none" height="6" style="stroke: #C82930; stroke-width: 1.0;" width="6" x="1123" y="373.7539"/><text fill="#000000" font-family="sans-serif" font-size="11" lengthAdjust="spacingAndGlyphs" textLength="41" x="1135" y="379.7549">Int etage</text><rect fill="none" height="6" style="stroke: #C82930; stroke-width: 1.0;" width="6" x="1123" y="387.5898"/><text fill="#000000" font-family="sans-serif" font-size="11" lengthAdjust="spacingAndGlyphs" textLength="130" x="1135" y="393.5908">Double chargesMensuelles</text><line style="stroke: #A80036; stroke-width: 1.5;" x1="1116" x2="1270" y1="400.0078" y2="400.0078"/><!--link Personne to Entreprise--><path d="M112.198,658.255 C109.642,695.908 106.604,740.663 104.5128,771.477 " fill="none" id="Personne-Entreprise" style="stroke: #A80036; stroke-width: 1.0;"/><polygon fill="none" points="105.2203,657.682,113.559,638.202,119.188,658.63,105.2203,657.682" style="stroke: #A80036; stroke-width: 1.0;"/><!--link Personne to Agence--><path d="M170.751,586.5 C231.693,586.5 332.917,586.5 412.574,586.5 " fill="none" id="Personne-Agence" style="stroke: #A80036; stroke-width: 1.0;"/><polygon fill="#A80036" points="165.708,586.5,174.708,590.5,170.708,586.5,174.708,582.5,165.708,586.5" style="stroke: #A80036; stroke-width: 1.0;"/><text fill="#000000" font-family="sans-serif" font-size="13" lengthAdjust="spacingAndGlyphs" textLength="79" x="249.75" y="579.9951">listePersonne</text><text fill="#000000" font-family="sans-serif" font-size="13" lengthAdjust="spacingAndGlyphs" textLength="5" x="173.5492" y="582.7707">*</text><!--link Mandat to Agence--><path d="M457.866,427.044 C468.291,449.63 480.245,475.532 491.428,499.76 " fill="none" id="Mandat-Agence" style="stroke: #A80036; stroke-width: 1.0;"/><polygon fill="#A80036" points="455.666,422.276,455.8063,432.1239,457.7616,426.8157,463.0697,428.771,455.666,422.276" style="stroke: #A80036; stroke-width: 1.0;"/><text fill="#000000" font-family="sans-serif" font-size="13" lengthAdjust="spacingAndGlyphs" textLength="43" x="478" y="466.4951">mandat</text><text fill="#000000" font-family="sans-serif" font-size="13" lengthAdjust="spacingAndGlyphs" textLength="5" x="453.4602" y="443.502">*</text><!--link Agence to Envie--><path d="M501.12,673.261 C492.674,697.501 483.645,723.416 475.773,746.008 " fill="none" id="Agence-Envie" style="stroke: #A80036; stroke-width: 1.0;"/><polygon fill="#A80036" points="474.112,750.776,480.8507,743.5934,475.7573,746.0544,473.2962,740.961,474.112,750.776" style="stroke: #A80036; stroke-width: 1.0;"/><text fill="#000000" font-family="sans-serif" font-size="13" lengthAdjust="spacingAndGlyphs" textLength="29" x="492" y="717.4951">envie</text><text fill="#000000" font-family="sans-serif" font-size="13" lengthAdjust="spacingAndGlyphs" textLength="5" x="471.2585" y="740.1496">*</text><!--link Envie to Personne--><path d="M396.444,777.886 C378.82,768.873 359.263,759.229 341,751 C307.891,736.082 296.342,739.341 265,721 C235.824,703.927 231.321,695.395 206,673 C193.928,662.323 181.266,650.539 169.404,639.22 " fill="none" id="Envie-Personne" style="stroke: #A80036; stroke-width: 1.0;"/><polygon fill="#A80036" points="165.749,635.724,169.488,644.8355,169.3622,639.1801,175.0177,639.0544,165.749,635.724" style="stroke: #A80036; stroke-width: 1.0;"/><text fill="#000000" font-family="sans-serif" font-size="13" lengthAdjust="spacingAndGlyphs" textLength="50" x="266" y="717.4951">acheteur</text><text fill="#000000" font-family="sans-serif" font-size="13" lengthAdjust="spacingAndGlyphs" textLength="7" x="173.4231" y="639.2745">1</text><!--link Mandat to Personne--><path d="M318.224,418.793 C281.028,439.208 240.307,464.06 206,491 C191.094,502.705 176.378,516.917 163.334,530.726 " fill="none" id="Mandat-Personne" style="stroke: #A80036; stroke-width: 1.0;"/><polygon fill="#A80036" points="159.701,534.608,168.7712,530.7699,163.1175,530.9573,162.9301,525.3035,159.701,534.608" style="stroke: #A80036; stroke-width: 1.0;"/><text fill="#000000" font-family="sans-serif" font-size="13" lengthAdjust="spacingAndGlyphs" textLength="44" x="259" y="466.4951">vendeur</text><text fill="#000000" font-family="sans-serif" font-size="13" lengthAdjust="spacingAndGlyphs" textLength="7" x="157.9686" y="524.0557">1</text><!--link Agence to Promesse--><path d="M547.118,673.295 C554.12,731.523 555.564,808.99 529,871.5 C517.426,898.735 497.227,923.177 475.925,943.409 " fill="none" id="Agence-Promesse" style="stroke: #A80036; stroke-width: 1.0;"/><polygon fill="#A80036" points="472.218,946.877,481.5231,943.6499,475.8694,943.4613,476.058,937.8076,472.218,946.877" style="stroke: #A80036; stroke-width: 1.0;"/><text fill="#000000" font-family="sans-serif" font-size="13" lengthAdjust="spacingAndGlyphs" textLength="83" x="553" y="814.9951">listePromesse</text><text fill="#000000" font-family="sans-serif" font-size="13" lengthAdjust="spacingAndGlyphs" textLength="5" x="479.9114" y="938.1256">*</text><!--link Mandat to Promesse--><path d="M409.452,427.291 C403.898,447.451 398.432,470 395,491 C367.697,658.044 369.429,702.51 379,871.5 C380.382,895.909 383.192,922.735 386.009,945.792 " fill="none" id="Mandat-Promesse" style="stroke: #A80036; stroke-width: 1.0;"/><polygon fill="#A80036" points="410.865,422.22,404.5973,429.8171,409.5237,427.0367,412.304,431.9632,410.865,422.22" style="stroke: #A80036; stroke-width: 1.0;"/><text fill="#000000" font-family="sans-serif" font-size="13" lengthAdjust="spacingAndGlyphs" textLength="43" x="374" y="717.4951">mandat</text><text fill="#000000" font-family="sans-serif" font-size="13" lengthAdjust="spacingAndGlyphs" textLength="7" x="401.2282" y="443.8571">1</text><!--link Envie to Promesse--><path d="M434.543,873.086 C427.274,896.47 419.058,922.898 411.932,945.819 " fill="none" id="Envie-Promesse" style="stroke: #A80036; stroke-width: 1.0;"/><polygon fill="#A80036" points="436.079,868.145,429.5875,875.5517,434.5946,872.9196,437.2268,877.9267,436.079,868.145" style="stroke: #A80036; stroke-width: 1.0;"/><text fill="#000000" font-family="sans-serif" font-size="13" lengthAdjust="spacingAndGlyphs" textLength="29" x="427" y="912.4951">envie</text><text fill="#000000" font-family="sans-serif" font-size="13" lengthAdjust="spacingAndGlyphs" textLength="7" x="426.4683" y="889.773">1</text><!--link Notaire to Promesse--><path d="M281.263,845.677 C287.242,867.029 296.638,894.262 310,916 C316.286,926.226 323.937,936.236 332.033,945.619 " fill="none" id="Notaire-Promesse" style="stroke: #A80036; stroke-width: 1.0;"/><polygon fill="#A80036" points="279.89,840.661,278.4078,850.3977,281.2099,845.4836,286.124,848.2858,279.89,840.661" style="stroke: #A80036; stroke-width: 1.0;"/><text fill="#000000" font-family="sans-serif" font-size="13" lengthAdjust="spacingAndGlyphs" textLength="39" x="311" y="912.4951">notaire</text><text fill="#000000" font-family="sans-serif" font-size="13" lengthAdjust="spacingAndGlyphs" textLength="7" x="273.5574" y="861.9167">1</text><!--link AnnoncePub to Agence--><path d="M1637.1,391.809 C1624.78,408.271 1606.89,428.1 1586,439 C1424.92,523.032 889.542,564.376 649.377,579.055 " fill="none" id="AnnoncePub-Agence" style="stroke: #A80036; stroke-width: 1.0;"/><polygon fill="#A80036" points="1640.12,387.704,1631.5699,392.5922,1637.1613,391.7347,1638.0189,397.3261,1640.12,387.704" style="stroke: #A80036; stroke-width: 1.0;"/><text fill="#000000" font-family="sans-serif" font-size="13" lengthAdjust="spacingAndGlyphs" textLength="75" x="1542" y="466.4951">listeAnnonce</text><text fill="#000000" font-family="sans-serif" font-size="13" lengthAdjust="spacingAndGlyphs" textLength="5" x="1630.8836" y="409.0917">*</text><!--link TypePub to AnnoncePub--><path d="M1655,168.947 C1655,216.348 1655,299.063 1655,339.255 " fill="none" id="TypePub-AnnoncePub" style="stroke: #A80036; stroke-width: 1.0;"/><polygon fill="#A80036" points="1655,163.909,1651,172.909,1655,168.909,1659,172.909,1655,163.909" style="stroke: #A80036; stroke-width: 1.0;"/><text fill="#000000" font-family="sans-serif" font-size="13" lengthAdjust="spacingAndGlyphs" textLength="47" x="1656" y="249.4951">listePub</text><text fill="#000000" font-family="sans-serif" font-size="13" lengthAdjust="spacingAndGlyphs" textLength="5" x="1649.5391" y="184.7177">*</text><!--link TypePub to TypeTexte--><path d="M1683.65,181.05 C1711.07,226.538 1751.58,293.759 1774.82,332.33 " fill="none" id="TypePub-TypeTexte" style="stroke: #A80036; stroke-width: 1.0;"/><polygon fill="none" points="1677.65,184.653,1673.33,163.909,1689.64,177.426,1677.65,184.653" style="stroke: #A80036; stroke-width: 1.0;"/><!--link TypePub to TypeHtml--><path d="M1724.62,166.803 C1767.38,189.457 1821.51,222.295 1862,261 C1883.87,281.908 1902.71,310.851 1915.15,332.482 " fill="none" id="TypePub-TypeHtml" style="stroke: #A80036; stroke-width: 1.0;"/><polygon fill="none" points="1721.33,172.979,1706.77,157.58,1727.75,160.541,1721.33,172.979" style="stroke: #A80036; stroke-width: 1.0;"/><!--link TypePub to TypeImg--><path d="M1585.38,166.803 C1542.62,189.457 1488.49,222.295 1448,261 C1426.13,281.908 1407.29,310.851 1394.85,332.482 " fill="none" id="TypePub-TypeImg" style="stroke: #A80036; stroke-width: 1.0;"/><polygon fill="none" points="1582.25,160.541,1603.23,157.58,1588.67,172.979,1582.25,160.541" style="stroke: #A80036; stroke-width: 1.0;"/><!--link TypePub to TypeVid--><path d="M1626.35,181.05 C1598.93,226.538 1558.42,293.759 1535.18,332.33 " fill="none" id="TypePub-TypeVid" style="stroke: #A80036; stroke-width: 1.0;"/><polygon fill="none" points="1620.36,177.426,1636.67,163.909,1632.35,184.653,1620.36,177.426" style="stroke: #A80036; stroke-width: 1.0;"/><!--link BienImmo to Mandat--><path d="M814.785,179.212 C735.399,216.929 622.707,270.469 539.608,309.95 " fill="none" id="BienImmo-Mandat" style="stroke: #A80036; stroke-width: 1.0;"/><polygon fill="#A80036" points="819.489,176.977,809.6433,177.2255,814.9726,179.1223,813.0758,184.4517,819.489,176.977" style="stroke: #A80036; stroke-width: 1.0;"/><text fill="#000000" font-family="sans-serif" font-size="13" lengthAdjust="spacingAndGlyphs" textLength="56" x="686" y="249.4951">bienImmo</text><text fill="#000000" font-family="sans-serif" font-size="13" lengthAdjust="spacingAndGlyphs" textLength="7" x="804.6209" y="177.5136">1</text><!--link BienImmo to Terrain--><path d="M864.758,223.241 C846.421,258.828 826.357,297.766 812.119,325.397 " fill="none" id="BienImmo-Terrain" style="stroke: #A80036; stroke-width: 1.0;"/><polygon fill="none" points="858.766,219.587,874.149,205.015,871.211,226,858.766,219.587" style="stroke: #A80036; stroke-width: 1.0;"/><!--link BienImmo to Maison--><path d="M949.237,223.77 C961.918,253.709 975.581,285.965 986.538,311.833 " fill="none" id="BienImmo-Maison" style="stroke: #A80036; stroke-width: 1.0;"/><polygon fill="none" points="942.648,226.161,941.292,205.015,955.539,220.701,942.648,226.161" style="stroke: #A80036; stroke-width: 1.0;"/><!--link BienImmo to Appartement--><path d="M1019.34,202.057 C1045.57,220.185 1072.96,240.457 1097,261 C1117.38,278.411 1138.05,299.702 1154.96,318.28 " fill="none" id="BienImmo-Appartement" style="stroke: #A80036; stroke-width: 1.0;"/><polygon fill="none" points="1015.36,207.811,1002.763,190.77,1023.24,196.239,1015.36,207.811" style="stroke: #A80036; stroke-width: 1.0;"/><!--link Terrain to Maison--><path d="M868.328,363.5 C890.223,363.5 914.081,363.5 935.781,363.5 " fill="none" id="Terrain-Maison" style="stroke: #A80036; stroke-width: 1.0;"/><polygon fill="#A80036" points="863.102,363.5,872.102,367.5,868.102,363.5,872.102,359.5,863.102,363.5" style="stroke: #A80036; stroke-width: 1.0;"/><text fill="#000000" font-family="sans-serif" font-size="13" lengthAdjust="spacingAndGlyphs" textLength="36" x="881.5" y="356.9951">terrain</text><text fill="#000000" font-family="sans-serif" font-size="13" lengthAdjust="spacingAndGlyphs" textLength="7" x="871.1522" y="360.1573">1</text><!--
@startuml

package user {

  class Personne {
    -String nom
    -String adresse
    -Int telephone
    -String email
  }

  class Entreprise {
    -String formeJuridique
    -Int numSiren
  }

  Entreprise -up-|> Personne

}

package agence {

  class Agence {
    -String nom
    -HashSet<Date, Personne> listeRdvVendeur
    +CreerMandat(Personne, Mandat) : void
    +CreerEnvie(Personne, Envie) : void
    +Contacter(Envie, Mandat) : void
    +PriseRdvVendeur(Personne, Date) : void
    +OrganiserVisite(Envie, Mandat, Date) : void
    +OrganiserVente(Envie, Mandat, Date) : void
    +SignerPromesse(Promesse) : void
  }

  Personne "*"<- - Agence : "listePersonne"

  class Envie {
    -String type
    -Double prix
    -String localisation
    -Double surfaceSol
    -Int nbPieces
  }

  class Mandat {
    -HashSet<Date, Personne> listeRdvVisite
    -Int prix
    -Date vente
    -Date debut
    -Date fin
  }

  Agence -up->"*" Mandat : "mandat"
  Agence - ->"*" Envie : "envie"

  Envie - ->"1" Personne : "acheteur"
  Mandat - ->"1" Personne : "vendeur"

  class Promesse {
    -Double prixVerseVendeur
    -String adresseNotaire
    -Date vente
    -Double commissionAgence
    -Double fraisVente
  }

  Agence - ->"*" Promesse : "listePromesse"
  Mandat "1"<- - Promesse : "mandat"
  Envie "1"<- - Promesse : "envie"

  class Notaire {
    +VerserArgent()
  }

  Notaire "1"<- - Promesse : "notaire"

}

package pub {

  class AnnoncePub {
  }

  AnnoncePub "*"<- - Agence : "listeAnnonce"
  TypePub "*"<- - AnnoncePub : "listePub"

  abstract class TypePub {
    +addElem() : void
  }

  class TypeTexte {
    +addElem() : void
  }

  class TypeHtml {
    +addElem() : void
  }

  class TypeImg {
    +addElem() : void
  }

  class TypeVid {
    +addElem() : void
  }

  TypeTexte -up-|> TypePub
  TypeHtml -up-|> TypePub
  TypeImg -up-|> TypePub
  TypeVid -up-|> TypePub

}

package immo {

  abstract class BienImmo {
    -Int num
    -String adresse
    -String orientation
    -Double prix
    -Date vente
    -Date[] dispo
    +Correspondance(Envie) : Double
  }

  class Terrain {
    -Double surfaceSol
    -Double longueurFacade
  }

  class Maison {
    -Double surfaceHabitable
    -Int nbPieces
    -Int nbEtages
    -String chauffage
  }

  class Appartement {
    -Int nbPieces
    -Int etage
    -Double chargesMensuelles
  }

  BienImmo "1"<- - Mandat : "bienImmo"

  Terrain -up-|> BienImmo
  Maison -up-|> BienImmo
  Appartement -up-|> BienImmo

  Maison -left->"1" Terrain : "terrain"

}

@enduml

PlantUML version 1.2017.18(Fri Oct 06 18:56:32 CEST 2017)
(GPL source distribution)
Java Runtime: Java(TM) SE Runtime Environment
JVM: Java HotSpot(TM) 64-Bit Server VM
Java Version: 9.0.1+11
Operating System: Windows 10
OS Version: 10.0
Default Encoding: Cp1252
Language: fr
Country: FR
--></g></svg>