<?xml version="1.0" encoding="UTF-8" standalone="no"?><svg xmlns="http://www.w3.org/2000/svg" xmlns:xlink="http://www.w3.org/1999/xlink" contentScriptType="application/ecmascript" contentStyleType="text/css" height="1224px" preserveAspectRatio="none" style="width:1773px;height:1224px;" version="1.1" viewBox="0 0 1773 1224"
    width="1773px" zoomAndPan="magnify"><defs><filter height="300%" id="f13jsz46q2rdow" width="300%" x="-1" y="-1"><feGaussianBlur result="blurOut" stdDeviation="2.0"/><feColorMatrix in="blurOut" result="blurOut2" type="matrix" values="0 0 0 0 0 0 0 0 0 0 0 0 0 0 0 0 0 0 .4 0"/><feOffset dx="4.0" dy="4.0" in="blurOut2" result="blurOut3"/><feBlend in="SourceGraphic" in2="blurOut3" mode="normal"/></filter></defs><g><!--cluster user--><polygon fill="#FFFFFF" filter="url(#f13jsz46q2rdow)" points="1319.97,839,1357.97,839,1364.97,862.6094,1751.97,862.6094,1751.97,1212,1319.97,1212,1319.97,839" style="stroke: #000000; stroke-width: 2.0;"/><line style="stroke: #000000; stroke-width: 2.0;" x1="1319.97" x2="1364.97" y1="862.6094" y2="862.6094"/><text fill="#000000" font-family="sans-serif" font-size="14" font-weight="bold" lengthAdjust="spacingAndGlyphs" textLength="32" x="1323.97" y="855.5332">user</text><!--cluster agence--><polygon fill="#FFFFFF" filter="url(#f13jsz46q2rdow)" points="772.971,342,830.971,342,837.971,365.6094,1295.97,365.6094,1295.97,1015,772.971,1015,772.971,342" style="stroke: #000000; stroke-width: 2.0;"/><line style="stroke: #000000; stroke-width: 2.0;" x1="772.971" x2="837.971" y1="365.6094" y2="365.6094"/><text fill="#000000" font-family="sans-serif" font-size="14" font-weight="bold" lengthAdjust="spacingAndGlyphs" textLength="52" x="776.971" y="358.5332">agence</text><!--cluster pub--><polygon fill="#FFFFFF" filter="url(#f13jsz46q2rdow)" points="904.971,24,937.971,24,944.971,47.6094,1548.97,47.6094,1548.97,292,904.971,292,904.971,24" style="stroke: #000000; stroke-width: 2.0;"/><line style="stroke: #000000; stroke-width: 2.0;" x1="904.971" x2="944.971" y1="47.6094" y2="47.6094"/><text fill="#000000" font-family="sans-serif" font-size="14" font-weight="bold" lengthAdjust="spacingAndGlyphs" textLength="27" x="908.971" y="40.5332">pub</text><!--cluster immo--><polygon fill="#FFFFFF" filter="url(#f13jsz46q2rdow)" points="62.971,369.5,105.971,369.5,112.971,393.1094,748.971,393.1094,748.971,789,62.971,789,62.971,369.5" style="stroke: #000000; stroke-width: 2.0;"/><line style="stroke: #000000; stroke-width: 2.0;" x1="62.971" x2="112.971" y1="393.1094" y2="393.1094"/><text fill="#000000" font-family="sans-serif" font-size="14" font-weight="bold" lengthAdjust="spacingAndGlyphs" textLength="37" x="66.971" y="386.0332">immo</text><!--class Client--><rect fill="#FEFECE" filter="url(#f13jsz46q2rdow)" height="117.1797" id="Client" style="stroke: #A80036; stroke-width: 1.5;" width="141" x="1336.47" y="875"/><ellipse cx="1386.72" cy="891" fill="#A9DCDF" rx="11" ry="11" style="stroke: #A80036; stroke-width: 1.0;"/><path d="M1388.9075,892.7656 L1384.7669,892.7656 L1384.345,893.7969 L1384.7669,893.7969 Q1385.3763,893.7969 1385.6419,894.0313 Q1385.9075,894.2656 1385.9075,894.6563 Q1385.9075,895.0313 1385.6419,895.2656 Q1385.3763,895.5 1384.7669,895.5 L1382.47,895.5 Q1381.8606,895.5 1381.6028,895.2656 Q1381.345,895.0313 1381.345,894.6406 Q1381.345,894.2656 1381.6184,894.0234 Q1381.8919,893.7813 1382.5169,893.7969 L1385.1888,887.1406 L1384.0794,887.1406 Q1383.47,887.1406 1383.2044,886.9063 Q1382.9388,886.6719 1382.9388,886.2813 Q1382.9388,885.9063 1383.2044,885.6719 Q1383.47,885.4375 1384.0794,885.4375 L1387.7513,885.4375 L1391.1419,893.7969 Q1391.7356,893.7969 1391.9231,893.9375 Q1392.3138,894.2031 1392.3138,894.6563 Q1392.3138,895.0313 1392.0559,895.2656 Q1391.7981,895.5 1391.1888,895.5 L1388.8919,895.5 Q1388.2825,895.5 1388.0169,895.2656 Q1387.7513,895.0313 1387.7513,894.6406 Q1387.7513,894.2656 1388.0169,894.0313 Q1388.2825,893.7969 1388.8919,893.7969 L1389.3138,893.7969 L1388.9075,892.7656 Z M1388.1888,891.0625 L1386.8294,887.6875 L1385.4544,891.0625 L1388.1888,891.0625 Z "/><text fill="#000000" font-family="sans-serif" font-size="12" font-style="italic" lengthAdjust="spacingAndGlyphs" textLength="32" x="1407.22" y="895.9102">Client</text><line style="stroke: #A80036; stroke-width: 1.5;" x1="1337.47" x2="1476.47" y1="907" y2="907"/><rect fill="none" height="6" style="stroke: #C82930; stroke-width: 1.0;" width="6" x="1344.47" y="916.418"/><text fill="#000000" font-family="sans-serif" font-size="11" lengthAdjust="spacingAndGlyphs" textLength="51" x="1356.47" y="922.4189">String nom</text><rect fill="none" height="6" style="stroke: #C82930; stroke-width: 1.0;" width="6" x="1344.47" y="930.2539"/><text fill="#000000" font-family="sans-serif" font-size="11" lengthAdjust="spacingAndGlyphs" textLength="71" x="1356.47" y="936.2549">String adresse</text><rect fill="none" height="6" style="stroke: #C82930; stroke-width: 1.0;" width="6" x="1344.47" y="944.0898"/><text fill="#000000" font-family="sans-serif" font-size="11" lengthAdjust="spacingAndGlyphs" textLength="61" x="1356.47" y="950.0908">Int telephone</text><rect fill="none" height="6" style="stroke: #C82930; stroke-width: 1.0;" width="6" x="1344.47" y="957.9258"/><text fill="#000000" font-family="sans-serif" font-size="11" lengthAdjust="spacingAndGlyphs" textLength="55" x="1356.47" y="963.9268">String email</text><line style="stroke: #A80036; stroke-width: 1.5;" x1="1337.47" x2="1476.47" y1="970.3438" y2="970.3438"/><ellipse cx="1347.47" cy="982.7617" fill="#84BE84" rx="3" ry="3" style="stroke: #038048; stroke-width: 1.0;"/><text fill="#000000" font-family="sans-serif" font-size="11" lengthAdjust="spacingAndGlyphs" textLength="115" x="1356.47" y="985.7627">creerEnvie(Envie) : void</text><!--class Personne--><rect fill="#FEFECE" filter="url(#f13jsz46q2rdow)" height="48" id="Personne" style="stroke: #A80036; stroke-width: 1.5;" width="86" x="1335.97" y="1113.5"/><ellipse cx="1350.97" cy="1129.5" fill="#ADD1B2" rx="11" ry="11" style="stroke: #A80036; stroke-width: 1.0;"/><path d="M1353.7356,1125.375 Q1353.8919,1125.1563 1354.0794,1125.0469 Q1354.2669,1124.9375 1354.4856,1124.9375 Q1354.8606,1124.9375 1355.095,1125.1953 Q1355.3294,1125.4531 1355.3294,1126.0625 L1355.3294,1127.5156 Q1355.3294,1128.125 1355.095,1128.3906 Q1354.8606,1128.6563 1354.4856,1128.6563 Q1354.1419,1128.6563 1353.9388,1128.4531 Q1353.7356,1128.2656 1353.6263,1127.75 Q1353.5794,1127.3906 1353.3919,1127.2031 Q1353.0638,1126.8281 1352.4544,1126.6094 Q1351.845,1126.3906 1351.22,1126.3906 Q1350.4544,1126.3906 1349.8216,1126.7188 Q1349.1888,1127.0469 1348.6966,1127.7969 Q1348.2044,1128.5469 1348.2044,1129.5781 L1348.2044,1130.6719 Q1348.2044,1131.9063 1349.095,1132.7266 Q1349.9856,1133.5469 1351.5794,1133.5469 Q1352.5169,1133.5469 1353.1731,1133.2969 Q1353.5638,1133.1406 1353.9856,1132.7031 Q1354.2513,1132.4375 1354.3997,1132.3594 Q1354.5481,1132.2813 1354.7513,1132.2813 Q1355.0794,1132.2813 1355.3372,1132.5391 Q1355.595,1132.7969 1355.595,1133.1406 Q1355.595,1133.4844 1355.2513,1133.8906 Q1354.7513,1134.4688 1353.9544,1134.7969 Q1352.8763,1135.25 1351.5794,1135.25 Q1350.0638,1135.25 1348.8606,1134.625 Q1347.8763,1134.125 1347.1888,1133.0547 Q1346.5013,1131.9844 1346.5013,1130.7031 L1346.5013,1129.5469 Q1346.5013,1128.2188 1347.1184,1127.0703 Q1347.7356,1125.9219 1348.8294,1125.3047 Q1349.9231,1124.6875 1351.1575,1124.6875 Q1351.8919,1124.6875 1352.5403,1124.8516 Q1353.1888,1125.0156 1353.7356,1125.375 Z "/><text fill="#000000" font-family="sans-serif" font-size="12" lengthAdjust="spacingAndGlyphs" textLength="54" x="1364.97" y="1134.4102">Personne</text><line style="stroke: #A80036; stroke-width: 1.5;" x1="1336.97" x2="1420.97" y1="1145.5" y2="1145.5"/><line style="stroke: #A80036; stroke-width: 1.5;" x1="1336.97" x2="1420.97" y1="1153.5" y2="1153.5"/><!--class Entreprise--><rect fill="#FEFECE" filter="url(#f13jsz46q2rdow)" height="75.6719" id="Entreprise" style="stroke: #A80036; stroke-width: 1.5;" width="128" x="1456.97" y="1099.5"/><ellipse cx="1489.52" cy="1115.5" fill="#ADD1B2" rx="11" ry="11" style="stroke: #A80036; stroke-width: 1.0;"/><path d="M1492.2856,1111.375 Q1492.4419,1111.1563 1492.6294,1111.0469 Q1492.8169,1110.9375 1493.0356,1110.9375 Q1493.4106,1110.9375 1493.645,1111.1953 Q1493.8794,1111.4531 1493.8794,1112.0625 L1493.8794,1113.5156 Q1493.8794,1114.125 1493.645,1114.3906 Q1493.4106,1114.6563 1493.0356,1114.6563 Q1492.6919,1114.6563 1492.4888,1114.4531 Q1492.2856,1114.2656 1492.1763,1113.75 Q1492.1294,1113.3906 1491.9419,1113.2031 Q1491.6138,1112.8281 1491.0044,1112.6094 Q1490.395,1112.3906 1489.77,1112.3906 Q1489.0044,1112.3906 1488.3716,1112.7188 Q1487.7388,1113.0469 1487.2466,1113.7969 Q1486.7544,1114.5469 1486.7544,1115.5781 L1486.7544,1116.6719 Q1486.7544,1117.9063 1487.645,1118.7266 Q1488.5356,1119.5469 1490.1294,1119.5469 Q1491.0669,1119.5469 1491.7231,1119.2969 Q1492.1138,1119.1406 1492.5356,1118.7031 Q1492.8013,1118.4375 1492.9497,1118.3594 Q1493.0981,1118.2813 1493.3013,1118.2813 Q1493.6294,1118.2813 1493.8872,1118.5391 Q1494.145,1118.7969 1494.145,1119.1406 Q1494.145,1119.4844 1493.8013,1119.8906 Q1493.3013,1120.4688 1492.5044,1120.7969 Q1491.4263,1121.25 1490.1294,1121.25 Q1488.6138,1121.25 1487.4106,1120.625 Q1486.4263,1120.125 1485.7388,1119.0547 Q1485.0513,1117.9844 1485.0513,1116.7031 L1485.0513,1115.5469 Q1485.0513,1114.2188 1485.6684,1113.0703 Q1486.2856,1111.9219 1487.3794,1111.3047 Q1488.4731,1110.6875 1489.7075,1110.6875 Q1490.4419,1110.6875 1491.0903,1110.8516 Q1491.7388,1111.0156 1492.2856,1111.375 Z "/><text fill="#000000" font-family="sans-serif" font-size="12" lengthAdjust="spacingAndGlyphs" textLength="57" x="1507.42" y="1120.4102">Entreprise</text><line style="stroke: #A80036; stroke-width: 1.5;" x1="1457.97" x2="1583.97" y1="1131.5" y2="1131.5"/><rect fill="none" height="6" style="stroke: #C82930; stroke-width: 1.0;" width="6" x="1464.97" y="1140.918"/><text fill="#000000" font-family="sans-serif" font-size="11" lengthAdjust="spacingAndGlyphs" textLength="102" x="1476.97" y="1146.9189">String formeJuridique</text><rect fill="none" height="6" style="stroke: #C82930; stroke-width: 1.0;" width="6" x="1464.97" y="1154.7539"/><text fill="#000000" font-family="sans-serif" font-size="11" lengthAdjust="spacingAndGlyphs" textLength="59" x="1476.97" y="1160.7549">Int numSiren</text><line style="stroke: #A80036; stroke-width: 1.5;" x1="1457.97" x2="1583.97" y1="1167.1719" y2="1167.1719"/><!--class Envie--><rect fill="#FEFECE" filter="url(#f13jsz46q2rdow)" height="117.1797" id="Envie" style="stroke: #A80036; stroke-width: 1.5;" width="115" x="1620.47" y="1079"/><ellipse cx="1659.32" cy="1095" fill="#ADD1B2" rx="11" ry="11" style="stroke: #A80036; stroke-width: 1.0;"/><path d="M1662.0856,1090.875 Q1662.2419,1090.6563 1662.4294,1090.5469 Q1662.6169,1090.4375 1662.8356,1090.4375 Q1663.2106,1090.4375 1663.445,1090.6953 Q1663.6794,1090.9531 1663.6794,1091.5625 L1663.6794,1093.0156 Q1663.6794,1093.625 1663.445,1093.8906 Q1663.2106,1094.1563 1662.8356,1094.1563 Q1662.4919,1094.1563 1662.2888,1093.9531 Q1662.0856,1093.7656 1661.9763,1093.25 Q1661.9294,1092.8906 1661.7419,1092.7031 Q1661.4138,1092.3281 1660.8044,1092.1094 Q1660.195,1091.8906 1659.57,1091.8906 Q1658.8044,1091.8906 1658.1716,1092.2188 Q1657.5388,1092.5469 1657.0466,1093.2969 Q1656.5544,1094.0469 1656.5544,1095.0781 L1656.5544,1096.1719 Q1656.5544,1097.4063 1657.445,1098.2266 Q1658.3356,1099.0469 1659.9294,1099.0469 Q1660.8669,1099.0469 1661.5231,1098.7969 Q1661.9138,1098.6406 1662.3356,1098.2031 Q1662.6013,1097.9375 1662.7497,1097.8594 Q1662.8981,1097.7813 1663.1013,1097.7813 Q1663.4294,1097.7813 1663.6872,1098.0391 Q1663.945,1098.2969 1663.945,1098.6406 Q1663.945,1098.9844 1663.6013,1099.3906 Q1663.1013,1099.9688 1662.3044,1100.2969 Q1661.2263,1100.75 1659.9294,1100.75 Q1658.4138,1100.75 1657.2106,1100.125 Q1656.2263,1099.625 1655.5388,1098.5547 Q1654.8513,1097.4844 1654.8513,1096.2031 L1654.8513,1095.0469 Q1654.8513,1093.7188 1655.4684,1092.5703 Q1656.0856,1091.4219 1657.1794,1090.8047 Q1658.2731,1090.1875 1659.5075,1090.1875 Q1660.2419,1090.1875 1660.8903,1090.3516 Q1661.5388,1090.5156 1662.0856,1090.875 Z "/><text fill="#000000" font-family="sans-serif" font-size="12" lengthAdjust="spacingAndGlyphs" textLength="30" x="1678.62" y="1099.9102">Envie</text><line style="stroke: #A80036; stroke-width: 1.5;" x1="1621.47" x2="1734.47" y1="1111" y2="1111"/><rect fill="none" height="6" style="stroke: #C82930; stroke-width: 1.0;" width="6" x="1628.47" y="1120.418"/><text fill="#000000" font-family="sans-serif" font-size="11" lengthAdjust="spacingAndGlyphs" textLength="52" x="1640.47" y="1126.4189">String type</text><rect fill="none" height="6" style="stroke: #C82930; stroke-width: 1.0;" width="6" x="1628.47" y="1134.2539"/><text fill="#000000" font-family="sans-serif" font-size="11" lengthAdjust="spacingAndGlyphs" textLength="54" x="1640.47" y="1140.2549">Double prix</text><rect fill="none" height="6" style="stroke: #C82930; stroke-width: 1.0;" width="6" x="1628.47" y="1148.0898"/><text fill="#000000" font-family="sans-serif" font-size="11" lengthAdjust="spacingAndGlyphs" textLength="84" x="1640.47" y="1154.0908">String localisation</text><rect fill="none" height="6" style="stroke: #C82930; stroke-width: 1.0;" width="6" x="1628.47" y="1161.9258"/><text fill="#000000" font-family="sans-serif" font-size="11" lengthAdjust="spacingAndGlyphs" textLength="89" x="1640.47" y="1167.9268">Double surfaceSol</text><rect fill="none" height="6" style="stroke: #C82930; stroke-width: 1.0;" width="6" x="1628.47" y="1175.7617"/><text fill="#000000" font-family="sans-serif" font-size="11" lengthAdjust="spacingAndGlyphs" textLength="58" x="1640.47" y="1181.7627">Int nbPieces</text><line style="stroke: #A80036; stroke-width: 1.5;" x1="1621.47" x2="1734.47" y1="1188.1797" y2="1188.1797"/><!--class Agence--><rect fill="#FEFECE" filter="url(#f13jsz46q2rdow)" height="200.1953" id="Agence" style="stroke: #A80036; stroke-width: 1.5;" width="233" x="877.471" y="378"/><ellipse cx="969.221" cy="394" fill="#ADD1B2" rx="11" ry="11" style="stroke: #A80036; stroke-width: 1.0;"/><path d="M971.9866,389.875 Q972.1429,389.6563 972.3304,389.5469 Q972.5179,389.4375 972.7366,389.4375 Q973.1116,389.4375 973.346,389.6953 Q973.5804,389.9531 973.5804,390.5625 L973.5804,392.0156 Q973.5804,392.625 973.346,392.8906 Q973.1116,393.1563 972.7366,393.1563 Q972.3929,393.1563 972.1898,392.9531 Q971.9866,392.7656 971.8773,392.25 Q971.8304,391.8906 971.6429,391.7031 Q971.3148,391.3281 970.7054,391.1094 Q970.096,390.8906 969.471,390.8906 Q968.7054,390.8906 968.0726,391.2188 Q967.4398,391.5469 966.9476,392.2969 Q966.4554,393.0469 966.4554,394.0781 L966.4554,395.1719 Q966.4554,396.4063 967.346,397.2266 Q968.2366,398.0469 969.8304,398.0469 Q970.7679,398.0469 971.4241,397.7969 Q971.8148,397.6406 972.2366,397.2031 Q972.5023,396.9375 972.6507,396.8594 Q972.7991,396.7813 973.0023,396.7813 Q973.3304,396.7813 973.5882,397.0391 Q973.846,397.2969 973.846,397.6406 Q973.846,397.9844 973.5023,398.3906 Q973.0023,398.9688 972.2054,399.2969 Q971.1273,399.75 969.8304,399.75 Q968.3148,399.75 967.1116,399.125 Q966.1273,398.625 965.4398,397.5547 Q964.7523,396.4844 964.7523,395.2031 L964.7523,394.0469 Q964.7523,392.7188 965.3694,391.5703 Q965.9866,390.4219 967.0804,389.8047 Q968.1741,389.1875 969.4085,389.1875 Q970.1429,389.1875 970.7913,389.3516 Q971.4398,389.5156 971.9866,389.875 Z "/><text fill="#000000" font-family="sans-serif" font-size="12" lengthAdjust="spacingAndGlyphs" textLength="41" x="989.721" y="398.9102">Agence</text><line style="stroke: #A80036; stroke-width: 1.5;" x1="878.471" x2="1109.471" y1="410" y2="410"/><rect fill="none" height="6" style="stroke: #C82930; stroke-width: 1.0;" width="6" x="885.471" y="419.418"/><text fill="#000000" font-family="sans-serif" font-size="11" lengthAdjust="spacingAndGlyphs" textLength="51" x="897.471" y="425.4189">String nom</text><rect fill="none" height="6" style="stroke: #C82930; stroke-width: 1.0;" width="6" x="885.471" y="433.2539"/><text fill="#000000" font-family="sans-serif" font-size="11" lengthAdjust="spacingAndGlyphs" textLength="190" x="897.471" y="439.2549">HashSet&lt;Date, Client&gt; listeRdvVendeur</text><line style="stroke: #A80036; stroke-width: 1.5;" x1="878.471" x2="1109.471" y1="445.6719" y2="445.6719"/><ellipse cx="888.471" cy="458.0898" fill="#84BE84" rx="3" ry="3" style="stroke: #038048; stroke-width: 1.0;"/><text fill="#000000" font-family="sans-serif" font-size="11" lengthAdjust="spacingAndGlyphs" textLength="202" x="897.471" y="461.0908">creerClient(String, String, Int, String) : void</text><ellipse cx="888.471" cy="471.9258" fill="#84BE84" rx="3" ry="3" style="stroke: #038048; stroke-width: 1.0;"/><text fill="#000000" font-family="sans-serif" font-size="11" lengthAdjust="spacingAndGlyphs" textLength="176" x="897.471" y="474.9268">priseRdvVendeur(Client, Date) : void</text><ellipse cx="888.471" cy="485.7617" fill="#84BE84" rx="3" ry="3" style="stroke: #038048; stroke-width: 1.0;"/><text fill="#000000" font-family="sans-serif" font-size="11" lengthAdjust="spacingAndGlyphs" textLength="84" x="897.471" y="488.7627">creerBien() : void</text><ellipse cx="888.471" cy="499.5977" fill="#84BE84" rx="3" ry="3" style="stroke: #038048; stroke-width: 1.0;"/><text fill="#000000" font-family="sans-serif" font-size="11" lengthAdjust="spacingAndGlyphs" textLength="165" x="897.471" y="502.5986">creerMandat(Client, Mandat) : void</text><ellipse cx="888.471" cy="513.4336" fill="#84BE84" rx="3" ry="3" style="stroke: #038048; stroke-width: 1.0;"/><text fill="#000000" font-family="sans-serif" font-size="11" lengthAdjust="spacingAndGlyphs" textLength="205" x="897.471" y="516.4346">organiserVisite(Client, Mandat, Date) : void</text><ellipse cx="888.471" cy="527.2695" fill="#84BE84" rx="3" ry="3" style="stroke: #038048; stroke-width: 1.0;"/><text fill="#000000" font-family="sans-serif" font-size="11" lengthAdjust="spacingAndGlyphs" textLength="207" x="897.471" y="530.2705">organiserVente(Client, Mandat, Date) : void</text><rect fill="#F24D5C" height="6" style="stroke: #C82930; stroke-width: 1.0;" width="6" x="885.471" y="538.1055"/><text fill="#000000" font-family="sans-serif" font-size="11" lengthAdjust="spacingAndGlyphs" textLength="159" x="897.471" y="544.1064">creerPromesse(Promesse) : void</text><ellipse cx="888.471" cy="554.9414" fill="#84BE84" rx="3" ry="3" style="stroke: #038048; stroke-width: 1.0;"/><text fill="#000000" font-family="sans-serif" font-size="11" lengthAdjust="spacingAndGlyphs" textLength="80" x="897.471" y="557.9424">voirStats() : void</text><ellipse cx="888.471" cy="568.7773" fill="#84BE84" rx="3" ry="3" style="stroke: #038048; stroke-width: 1.0;"/><text fill="#000000" font-family="sans-serif" font-size="11" lengthAdjust="spacingAndGlyphs" textLength="111" x="897.471" y="571.7783">creerDocument() : void</text><!--class Mandat--><rect fill="#FEFECE" filter="url(#f13jsz46q2rdow)" height="117.1797" id="Mandat" style="stroke: #A80036; stroke-width: 1.5;" width="201" x="1078.47" y="656"/><ellipse cx="1154.72" cy="672" fill="#ADD1B2" rx="11" ry="11" style="stroke: #A80036; stroke-width: 1.0;"/><path d="M1157.4856,667.875 Q1157.6419,667.6563 1157.8294,667.5469 Q1158.0169,667.4375 1158.2356,667.4375 Q1158.6106,667.4375 1158.845,667.6953 Q1159.0794,667.9531 1159.0794,668.5625 L1159.0794,670.0156 Q1159.0794,670.625 1158.845,670.8906 Q1158.6106,671.1563 1158.2356,671.1563 Q1157.8919,671.1563 1157.6888,670.9531 Q1157.4856,670.7656 1157.3763,670.25 Q1157.3294,669.8906 1157.1419,669.7031 Q1156.8138,669.3281 1156.2044,669.1094 Q1155.595,668.8906 1154.97,668.8906 Q1154.2044,668.8906 1153.5716,669.2188 Q1152.9388,669.5469 1152.4466,670.2969 Q1151.9544,671.0469 1151.9544,672.0781 L1151.9544,673.1719 Q1151.9544,674.4063 1152.845,675.2266 Q1153.7356,676.0469 1155.3294,676.0469 Q1156.2669,676.0469 1156.9231,675.7969 Q1157.3138,675.6406 1157.7356,675.2031 Q1158.0013,674.9375 1158.1497,674.8594 Q1158.2981,674.7813 1158.5013,674.7813 Q1158.8294,674.7813 1159.0872,675.0391 Q1159.345,675.2969 1159.345,675.6406 Q1159.345,675.9844 1159.0013,676.3906 Q1158.5013,676.9688 1157.7044,677.2969 Q1156.6263,677.75 1155.3294,677.75 Q1153.8138,677.75 1152.6106,677.125 Q1151.6263,676.625 1150.9388,675.5547 Q1150.2513,674.4844 1150.2513,673.2031 L1150.2513,672.0469 Q1150.2513,670.7188 1150.8684,669.5703 Q1151.4856,668.4219 1152.5794,667.8047 Q1153.6731,667.1875 1154.9075,667.1875 Q1155.6419,667.1875 1156.2903,667.3516 Q1156.9388,667.5156 1157.4856,667.875 Z "/><text fill="#000000" font-family="sans-serif" font-size="12" lengthAdjust="spacingAndGlyphs" textLength="40" x="1175.22" y="676.9102">Mandat</text><line style="stroke: #A80036; stroke-width: 1.5;" x1="1079.47" x2="1278.47" y1="688" y2="688"/><rect fill="none" height="6" style="stroke: #C82930; stroke-width: 1.0;" width="6" x="1086.47" y="697.418"/><text fill="#000000" font-family="sans-serif" font-size="11" lengthAdjust="spacingAndGlyphs" textLength="175" x="1098.47" y="703.4189">HashSet&lt;Date, Client&gt; listeRdvVisite</text><rect fill="none" height="6" style="stroke: #C82930; stroke-width: 1.0;" width="6" x="1086.47" y="711.2539"/><text fill="#000000" font-family="sans-serif" font-size="11" lengthAdjust="spacingAndGlyphs" textLength="32" x="1098.47" y="717.2549">Int prix</text><rect fill="none" height="6" style="stroke: #C82930; stroke-width: 1.0;" width="6" x="1086.47" y="725.0898"/><text fill="#000000" font-family="sans-serif" font-size="11" lengthAdjust="spacingAndGlyphs" textLength="52" x="1098.47" y="731.0908">Date vente</text><rect fill="none" height="6" style="stroke: #C82930; stroke-width: 1.0;" width="6" x="1086.47" y="738.9258"/><text fill="#000000" font-family="sans-serif" font-size="11" lengthAdjust="spacingAndGlyphs" textLength="52" x="1098.47" y="744.9268">Date debut</text><rect fill="none" height="6" style="stroke: #C82930; stroke-width: 1.0;" width="6" x="1086.47" y="752.7617"/><text fill="#000000" font-family="sans-serif" font-size="11" lengthAdjust="spacingAndGlyphs" textLength="37" x="1098.47" y="758.7627">Date fin</text><line style="stroke: #A80036; stroke-width: 1.5;" x1="1079.47" x2="1278.47" y1="765.1797" y2="765.1797"/><!--class Promesse--><rect fill="#FEFECE" filter="url(#f13jsz46q2rdow)" height="131.0156" id="Promesse" style="stroke: #A80036; stroke-width: 1.5;" width="156" x="820.971" y="868"/><ellipse cx="865.721" cy="884" fill="#ADD1B2" rx="11" ry="11" style="stroke: #A80036; stroke-width: 1.0;"/><path d="M868.4866,879.875 Q868.6429,879.6563 868.8304,879.5469 Q869.0179,879.4375 869.2366,879.4375 Q869.6116,879.4375 869.846,879.6953 Q870.0804,879.9531 870.0804,880.5625 L870.0804,882.0156 Q870.0804,882.625 869.846,882.8906 Q869.6116,883.1563 869.2366,883.1563 Q868.8929,883.1563 868.6898,882.9531 Q868.4866,882.7656 868.3773,882.25 Q868.3304,881.8906 868.1429,881.7031 Q867.8148,881.3281 867.2054,881.1094 Q866.596,880.8906 865.971,880.8906 Q865.2054,880.8906 864.5726,881.2188 Q863.9398,881.5469 863.4476,882.2969 Q862.9554,883.0469 862.9554,884.0781 L862.9554,885.1719 Q862.9554,886.4063 863.846,887.2266 Q864.7366,888.0469 866.3304,888.0469 Q867.2679,888.0469 867.9241,887.7969 Q868.3148,887.6406 868.7366,887.2031 Q869.0023,886.9375 869.1507,886.8594 Q869.2991,886.7813 869.5023,886.7813 Q869.8304,886.7813 870.0882,887.0391 Q870.346,887.2969 870.346,887.6406 Q870.346,887.9844 870.0023,888.3906 Q869.5023,888.9688 868.7054,889.2969 Q867.6273,889.75 866.3304,889.75 Q864.8148,889.75 863.6116,889.125 Q862.6273,888.625 861.9398,887.5547 Q861.2523,886.4844 861.2523,885.2031 L861.2523,884.0469 Q861.2523,882.7188 861.8694,881.5703 Q862.4866,880.4219 863.5804,879.8047 Q864.6741,879.1875 865.9085,879.1875 Q866.6429,879.1875 867.2913,879.3516 Q867.9398,879.5156 868.4866,879.875 Z "/><text fill="#000000" font-family="sans-serif" font-size="12" lengthAdjust="spacingAndGlyphs" textLength="58" x="886.221" y="888.9102">Promesse</text><line style="stroke: #A80036; stroke-width: 1.5;" x1="821.971" x2="975.971" y1="900" y2="900"/><rect fill="none" height="6" style="stroke: #C82930; stroke-width: 1.0;" width="6" x="828.971" y="909.418"/><text fill="#000000" font-family="sans-serif" font-size="11" lengthAdjust="spacingAndGlyphs" textLength="126" x="840.971" y="915.4189">Double prixVerseVendeur</text><rect fill="none" height="6" style="stroke: #C82930; stroke-width: 1.0;" width="6" x="828.971" y="923.2539"/><text fill="#000000" font-family="sans-serif" font-size="11" lengthAdjust="spacingAndGlyphs" textLength="105" x="840.971" y="929.2549">String adresseNotaire</text><rect fill="none" height="6" style="stroke: #C82930; stroke-width: 1.0;" width="6" x="828.971" y="937.0898"/><text fill="#000000" font-family="sans-serif" font-size="11" lengthAdjust="spacingAndGlyphs" textLength="52" x="840.971" y="943.0908">Date vente</text><rect fill="none" height="6" style="stroke: #C82930; stroke-width: 1.0;" width="6" x="828.971" y="950.9258"/><text fill="#000000" font-family="sans-serif" font-size="11" lengthAdjust="spacingAndGlyphs" textLength="130" x="840.971" y="956.9268">Double commissionAgence</text><rect fill="none" height="6" style="stroke: #C82930; stroke-width: 1.0;" width="6" x="828.971" y="964.7617"/><text fill="#000000" font-family="sans-serif" font-size="11" lengthAdjust="spacingAndGlyphs" textLength="87" x="840.971" y="970.7627">Double fraisVente</text><line style="stroke: #A80036; stroke-width: 1.5;" x1="821.971" x2="975.971" y1="977.1797" y2="977.1797"/><ellipse cx="831.971" cy="989.5977" fill="#84BE84" rx="3" ry="3" style="stroke: #038048; stroke-width: 1.0;"/><text fill="#000000" font-family="sans-serif" font-size="11" lengthAdjust="spacingAndGlyphs" textLength="115" x="840.971" y="992.5986">signerPromesse() : void</text><!--class Notaire--><rect fill="#FEFECE" filter="url(#f13jsz46q2rdow)" height="61.8359" id="Notaire" style="stroke: #A80036; stroke-width: 1.5;" width="99" x="944.471" y="683.5"/><ellipse cx="971.621" cy="699.5" fill="#ADD1B2" rx="11" ry="11" style="stroke: #A80036; stroke-width: 1.0;"/><path d="M974.3866,695.375 Q974.5429,695.1563 974.7304,695.0469 Q974.9179,694.9375 975.1366,694.9375 Q975.5116,694.9375 975.746,695.1953 Q975.9804,695.4531 975.9804,696.0625 L975.9804,697.5156 Q975.9804,698.125 975.746,698.3906 Q975.5116,698.6563 975.1366,698.6563 Q974.7929,698.6563 974.5898,698.4531 Q974.3866,698.2656 974.2773,697.75 Q974.2304,697.3906 974.0429,697.2031 Q973.7148,696.8281 973.1054,696.6094 Q972.496,696.3906 971.871,696.3906 Q971.1054,696.3906 970.4726,696.7188 Q969.8398,697.0469 969.3476,697.7969 Q968.8554,698.5469 968.8554,699.5781 L968.8554,700.6719 Q968.8554,701.9063 969.746,702.7266 Q970.6366,703.5469 972.2304,703.5469 Q973.1679,703.5469 973.8241,703.2969 Q974.2148,703.1406 974.6366,702.7031 Q974.9023,702.4375 975.0507,702.3594 Q975.1991,702.2813 975.4023,702.2813 Q975.7304,702.2813 975.9882,702.5391 Q976.246,702.7969 976.246,703.1406 Q976.246,703.4844 975.9023,703.8906 Q975.4023,704.4688 974.6054,704.7969 Q973.5273,705.25 972.2304,705.25 Q970.7148,705.25 969.5116,704.625 Q968.5273,704.125 967.8398,703.0547 Q967.1523,701.9844 967.1523,700.7031 L967.1523,699.5469 Q967.1523,698.2188 967.7694,697.0703 Q968.3866,695.9219 969.4804,695.3047 Q970.5741,694.6875 971.8085,694.6875 Q972.5429,694.6875 973.1913,694.8516 Q973.8398,695.0156 974.3866,695.375 Z "/><text fill="#000000" font-family="sans-serif" font-size="12" lengthAdjust="spacingAndGlyphs" textLength="40" x="988.321" y="704.4102">Notaire</text><line style="stroke: #A80036; stroke-width: 1.5;" x1="945.471" x2="1042.471" y1="715.5" y2="715.5"/><line style="stroke: #A80036; stroke-width: 1.5;" x1="945.471" x2="1042.471" y1="723.5" y2="723.5"/><ellipse cx="955.471" cy="735.918" fill="#84BE84" rx="3" ry="3" style="stroke: #038048; stroke-width: 1.0;"/><text fill="#000000" font-family="sans-serif" font-size="11" lengthAdjust="spacingAndGlyphs" textLength="73" x="964.471" y="738.9189">verserArgent()</text><!--class AnnoncePub--><rect fill="#FEFECE" filter="url(#f13jsz46q2rdow)" height="61.8359" id="AnnoncePub" style="stroke: #A80036; stroke-width: 1.5;" width="145" x="921.471" y="207"/><ellipse cx="955.821" cy="223" fill="#ADD1B2" rx="11" ry="11" style="stroke: #A80036; stroke-width: 1.0;"/><path d="M958.5866,218.875 Q958.7429,218.6563 958.9304,218.5469 Q959.1179,218.4375 959.3366,218.4375 Q959.7116,218.4375 959.946,218.6953 Q960.1804,218.9531 960.1804,219.5625 L960.1804,221.0156 Q960.1804,221.625 959.946,221.8906 Q959.7116,222.1563 959.3366,222.1563 Q958.9929,222.1563 958.7898,221.9531 Q958.5866,221.7656 958.4773,221.25 Q958.4304,220.8906 958.2429,220.7031 Q957.9148,220.3281 957.3054,220.1094 Q956.696,219.8906 956.071,219.8906 Q955.3054,219.8906 954.6726,220.2188 Q954.0398,220.5469 953.5476,221.2969 Q953.0554,222.0469 953.0554,223.0781 L953.0554,224.1719 Q953.0554,225.4063 953.946,226.2266 Q954.8366,227.0469 956.4304,227.0469 Q957.3679,227.0469 958.0241,226.7969 Q958.4148,226.6406 958.8366,226.2031 Q959.1023,225.9375 959.2507,225.8594 Q959.3991,225.7813 959.6023,225.7813 Q959.9304,225.7813 960.1882,226.0391 Q960.446,226.2969 960.446,226.6406 Q960.446,226.9844 960.1023,227.3906 Q959.6023,227.9688 958.8054,228.2969 Q957.7273,228.75 956.4304,228.75 Q954.9148,228.75 953.7116,228.125 Q952.7273,227.625 952.0398,226.5547 Q951.3523,225.4844 951.3523,224.2031 L951.3523,223.0469 Q951.3523,221.7188 951.9694,220.5703 Q952.5866,219.4219 953.6804,218.8047 Q954.7741,218.1875 956.0085,218.1875 Q956.7429,218.1875 957.3913,218.3516 Q958.0398,218.5156 958.5866,218.875 Z "/><text fill="#000000" font-family="sans-serif" font-size="12" lengthAdjust="spacingAndGlyphs" textLength="70" x="974.121" y="227.9102">AnnoncePub</text><line style="stroke: #A80036; stroke-width: 1.5;" x1="922.471" x2="1065.471" y1="239" y2="239"/><line style="stroke: #A80036; stroke-width: 1.5;" x1="922.471" x2="1065.471" y1="247" y2="247"/><ellipse cx="932.471" cy="259.418" fill="#84BE84" rx="3" ry="3" style="stroke: #038048; stroke-width: 1.0;"/><text fill="#000000" font-family="sans-serif" font-size="11" lengthAdjust="spacingAndGlyphs" textLength="119" x="941.471" y="262.4189">addElem(TypePub) : void</text><!--class TypePub--><rect fill="#FEFECE" filter="url(#f13jsz46q2rdow)" height="61.8359" id="TypePub" style="stroke: #A80036; stroke-width: 1.5;" width="82" x="1224.97" y="60"/><ellipse cx="1239.97" cy="76" fill="#A9DCDF" rx="11" ry="11" style="stroke: #A80036; stroke-width: 1.0;"/><path d="M1242.1575,77.7656 L1238.0169,77.7656 L1237.595,78.7969 L1238.0169,78.7969 Q1238.6263,78.7969 1238.8919,79.0313 Q1239.1575,79.2656 1239.1575,79.6563 Q1239.1575,80.0313 1238.8919,80.2656 Q1238.6263,80.5 1238.0169,80.5 L1235.72,80.5 Q1235.1106,80.5 1234.8528,80.2656 Q1234.595,80.0313 1234.595,79.6406 Q1234.595,79.2656 1234.8684,79.0234 Q1235.1419,78.7813 1235.7669,78.7969 L1238.4388,72.1406 L1237.3294,72.1406 Q1236.72,72.1406 1236.4544,71.9063 Q1236.1888,71.6719 1236.1888,71.2813 Q1236.1888,70.9063 1236.4544,70.6719 Q1236.72,70.4375 1237.3294,70.4375 L1241.0013,70.4375 L1244.3919,78.7969 Q1244.9856,78.7969 1245.1731,78.9375 Q1245.5638,79.2031 1245.5638,79.6563 Q1245.5638,80.0313 1245.3059,80.2656 Q1245.0481,80.5 1244.4388,80.5 L1242.1419,80.5 Q1241.5325,80.5 1241.2669,80.2656 Q1241.0013,80.0313 1241.0013,79.6406 Q1241.0013,79.2656 1241.2669,79.0313 Q1241.5325,78.7969 1242.1419,78.7969 L1242.5638,78.7969 L1242.1575,77.7656 Z M1241.4388,76.0625 L1240.0794,72.6875 L1238.7044,76.0625 L1241.4388,76.0625 Z "/><text fill="#000000" font-family="sans-serif" font-size="12" font-style="italic" lengthAdjust="spacingAndGlyphs" textLength="50" x="1253.97" y="80.9102">TypePub</text><line style="stroke: #A80036; stroke-width: 1.5;" x1="1225.97" x2="1305.97" y1="92" y2="92"/><line style="stroke: #A80036; stroke-width: 1.5;" x1="1225.97" x2="1305.97" y1="100" y2="100"/><ellipse cx="1235.97" cy="112.418" fill="#84BE84" rx="3" ry="3" style="stroke: #038048; stroke-width: 1.0;"/><text fill="#000000" font-family="sans-serif" font-size="11" lengthAdjust="spacingAndGlyphs" textLength="45" x="1244.97" y="115.4189">getElem()</text><!--class TypeTexte--><rect fill="#FEFECE" filter="url(#f13jsz46q2rdow)" height="75.6719" id="TypeTexte" style="stroke: #A80036; stroke-width: 1.5;" width="87" x="1101.47" y="200"/><ellipse cx="1116.47" cy="216" fill="#ADD1B2" rx="11" ry="11" style="stroke: #A80036; stroke-width: 1.0;"/><path d="M1119.2356,211.875 Q1119.3919,211.6563 1119.5794,211.5469 Q1119.7669,211.4375 1119.9856,211.4375 Q1120.3606,211.4375 1120.595,211.6953 Q1120.8294,211.9531 1120.8294,212.5625 L1120.8294,214.0156 Q1120.8294,214.625 1120.595,214.8906 Q1120.3606,215.1563 1119.9856,215.1563 Q1119.6419,215.1563 1119.4388,214.9531 Q1119.2356,214.7656 1119.1263,214.25 Q1119.0794,213.8906 1118.8919,213.7031 Q1118.5638,213.3281 1117.9544,213.1094 Q1117.345,212.8906 1116.72,212.8906 Q1115.9544,212.8906 1115.3216,213.2188 Q1114.6888,213.5469 1114.1966,214.2969 Q1113.7044,215.0469 1113.7044,216.0781 L1113.7044,217.1719 Q1113.7044,218.4063 1114.595,219.2266 Q1115.4856,220.0469 1117.0794,220.0469 Q1118.0169,220.0469 1118.6731,219.7969 Q1119.0638,219.6406 1119.4856,219.2031 Q1119.7513,218.9375 1119.8997,218.8594 Q1120.0481,218.7813 1120.2513,218.7813 Q1120.5794,218.7813 1120.8372,219.0391 Q1121.095,219.2969 1121.095,219.6406 Q1121.095,219.9844 1120.7513,220.3906 Q1120.2513,220.9688 1119.4544,221.2969 Q1118.3763,221.75 1117.0794,221.75 Q1115.5638,221.75 1114.3606,221.125 Q1113.3763,220.625 1112.6888,219.5547 Q1112.0013,218.4844 1112.0013,217.2031 L1112.0013,216.0469 Q1112.0013,214.7188 1112.6184,213.5703 Q1113.2356,212.4219 1114.3294,211.8047 Q1115.4231,211.1875 1116.6575,211.1875 Q1117.3919,211.1875 1118.0403,211.3516 Q1118.6888,211.5156 1119.2356,211.875 Z "/><text fill="#000000" font-family="sans-serif" font-size="12" lengthAdjust="spacingAndGlyphs" textLength="55" x="1130.47" y="220.9102">TypeTexte</text><line style="stroke: #A80036; stroke-width: 1.5;" x1="1102.47" x2="1187.47" y1="232" y2="232"/><rect fill="none" height="6" style="stroke: #C82930; stroke-width: 1.0;" width="6" x="1109.47" y="241.418"/><text fill="#000000" font-family="sans-serif" font-size="11" lengthAdjust="spacingAndGlyphs" textLength="55" x="1121.47" y="247.4189">String texte</text><line style="stroke: #A80036; stroke-width: 1.5;" x1="1102.47" x2="1187.47" y1="253.8359" y2="253.8359"/><ellipse cx="1112.47" cy="266.2539" fill="#84BE84" rx="3" ry="3" style="stroke: #038048; stroke-width: 1.0;"/><text fill="#000000" font-family="sans-serif" font-size="11" lengthAdjust="spacingAndGlyphs" textLength="45" x="1121.47" y="269.2549">getElem()</text><!--class TypeHtml--><rect fill="#FEFECE" filter="url(#f13jsz46q2rdow)" height="75.6719" id="TypeHtml" style="stroke: #A80036; stroke-width: 1.5;" width="84" x="1223.97" y="200"/><ellipse cx="1238.97" cy="216" fill="#ADD1B2" rx="11" ry="11" style="stroke: #A80036; stroke-width: 1.0;"/><path d="M1241.7356,211.875 Q1241.8919,211.6563 1242.0794,211.5469 Q1242.2669,211.4375 1242.4856,211.4375 Q1242.8606,211.4375 1243.095,211.6953 Q1243.3294,211.9531 1243.3294,212.5625 L1243.3294,214.0156 Q1243.3294,214.625 1243.095,214.8906 Q1242.8606,215.1563 1242.4856,215.1563 Q1242.1419,215.1563 1241.9388,214.9531 Q1241.7356,214.7656 1241.6263,214.25 Q1241.5794,213.8906 1241.3919,213.7031 Q1241.0638,213.3281 1240.4544,213.1094 Q1239.845,212.8906 1239.22,212.8906 Q1238.4544,212.8906 1237.8216,213.2188 Q1237.1888,213.5469 1236.6966,214.2969 Q1236.2044,215.0469 1236.2044,216.0781 L1236.2044,217.1719 Q1236.2044,218.4063 1237.095,219.2266 Q1237.9856,220.0469 1239.5794,220.0469 Q1240.5169,220.0469 1241.1731,219.7969 Q1241.5638,219.6406 1241.9856,219.2031 Q1242.2513,218.9375 1242.3997,218.8594 Q1242.5481,218.7813 1242.7513,218.7813 Q1243.0794,218.7813 1243.3372,219.0391 Q1243.595,219.2969 1243.595,219.6406 Q1243.595,219.9844 1243.2513,220.3906 Q1242.7513,220.9688 1241.9544,221.2969 Q1240.8763,221.75 1239.5794,221.75 Q1238.0638,221.75 1236.8606,221.125 Q1235.8763,220.625 1235.1888,219.5547 Q1234.5013,218.4844 1234.5013,217.2031 L1234.5013,216.0469 Q1234.5013,214.7188 1235.1184,213.5703 Q1235.7356,212.4219 1236.8294,211.8047 Q1237.9231,211.1875 1239.1575,211.1875 Q1239.8919,211.1875 1240.5403,211.3516 Q1241.1888,211.5156 1241.7356,211.875 Z "/><text fill="#000000" font-family="sans-serif" font-size="12" lengthAdjust="spacingAndGlyphs" textLength="52" x="1252.97" y="220.9102">TypeHtml</text><line style="stroke: #A80036; stroke-width: 1.5;" x1="1224.97" x2="1306.97" y1="232" y2="232"/><rect fill="none" height="6" style="stroke: #C82930; stroke-width: 1.0;" width="6" x="1231.97" y="241.418"/><text fill="#000000" font-family="sans-serif" font-size="11" lengthAdjust="spacingAndGlyphs" textLength="50" x="1243.97" y="247.4189">String html</text><line style="stroke: #A80036; stroke-width: 1.5;" x1="1224.97" x2="1306.97" y1="253.8359" y2="253.8359"/><ellipse cx="1234.97" cy="266.2539" fill="#84BE84" rx="3" ry="3" style="stroke: #038048; stroke-width: 1.0;"/><text fill="#000000" font-family="sans-serif" font-size="11" lengthAdjust="spacingAndGlyphs" textLength="45" x="1243.97" y="269.2549">getElem()</text><!--class TypeImg--><rect fill="#FEFECE" filter="url(#f13jsz46q2rdow)" height="75.6719" id="TypeImg" style="stroke: #A80036; stroke-width: 1.5;" width="79" x="1343.47" y="200"/><ellipse cx="1358.47" cy="216" fill="#ADD1B2" rx="11" ry="11" style="stroke: #A80036; stroke-width: 1.0;"/><path d="M1361.2356,211.875 Q1361.3919,211.6563 1361.5794,211.5469 Q1361.7669,211.4375 1361.9856,211.4375 Q1362.3606,211.4375 1362.595,211.6953 Q1362.8294,211.9531 1362.8294,212.5625 L1362.8294,214.0156 Q1362.8294,214.625 1362.595,214.8906 Q1362.3606,215.1563 1361.9856,215.1563 Q1361.6419,215.1563 1361.4388,214.9531 Q1361.2356,214.7656 1361.1263,214.25 Q1361.0794,213.8906 1360.8919,213.7031 Q1360.5638,213.3281 1359.9544,213.1094 Q1359.345,212.8906 1358.72,212.8906 Q1357.9544,212.8906 1357.3216,213.2188 Q1356.6888,213.5469 1356.1966,214.2969 Q1355.7044,215.0469 1355.7044,216.0781 L1355.7044,217.1719 Q1355.7044,218.4063 1356.595,219.2266 Q1357.4856,220.0469 1359.0794,220.0469 Q1360.0169,220.0469 1360.6731,219.7969 Q1361.0638,219.6406 1361.4856,219.2031 Q1361.7513,218.9375 1361.8997,218.8594 Q1362.0481,218.7813 1362.2513,218.7813 Q1362.5794,218.7813 1362.8372,219.0391 Q1363.095,219.2969 1363.095,219.6406 Q1363.095,219.9844 1362.7513,220.3906 Q1362.2513,220.9688 1361.4544,221.2969 Q1360.3763,221.75 1359.0794,221.75 Q1357.5638,221.75 1356.3606,221.125 Q1355.3763,220.625 1354.6888,219.5547 Q1354.0013,218.4844 1354.0013,217.2031 L1354.0013,216.0469 Q1354.0013,214.7188 1354.6184,213.5703 Q1355.2356,212.4219 1356.3294,211.8047 Q1357.4231,211.1875 1358.6575,211.1875 Q1359.3919,211.1875 1360.0403,211.3516 Q1360.6888,211.5156 1361.2356,211.875 Z "/><text fill="#000000" font-family="sans-serif" font-size="12" lengthAdjust="spacingAndGlyphs" textLength="47" x="1372.47" y="220.9102">TypeImg</text><line style="stroke: #A80036; stroke-width: 1.5;" x1="1344.47" x2="1421.47" y1="232" y2="232"/><rect fill="none" height="6" style="stroke: #C82930; stroke-width: 1.0;" width="6" x="1351.47" y="241.418"/><text fill="#000000" font-family="sans-serif" font-size="11" lengthAdjust="spacingAndGlyphs" textLength="47" x="1363.47" y="247.4189">String img</text><line style="stroke: #A80036; stroke-width: 1.5;" x1="1344.47" x2="1421.47" y1="253.8359" y2="253.8359"/><ellipse cx="1354.47" cy="266.2539" fill="#84BE84" rx="3" ry="3" style="stroke: #038048; stroke-width: 1.0;"/><text fill="#000000" font-family="sans-serif" font-size="11" lengthAdjust="spacingAndGlyphs" textLength="45" x="1363.47" y="269.2549">getElem()</text><!--class TypeVid--><rect fill="#FEFECE" filter="url(#f13jsz46q2rdow)" height="75.6719" id="TypeVid" style="stroke: #A80036; stroke-width: 1.5;" width="75" x="1457.47" y="200"/><ellipse cx="1472.47" cy="216" fill="#ADD1B2" rx="11" ry="11" style="stroke: #A80036; stroke-width: 1.0;"/><path d="M1475.2356,211.875 Q1475.3919,211.6563 1475.5794,211.5469 Q1475.7669,211.4375 1475.9856,211.4375 Q1476.3606,211.4375 1476.595,211.6953 Q1476.8294,211.9531 1476.8294,212.5625 L1476.8294,214.0156 Q1476.8294,214.625 1476.595,214.8906 Q1476.3606,215.1563 1475.9856,215.1563 Q1475.6419,215.1563 1475.4388,214.9531 Q1475.2356,214.7656 1475.1263,214.25 Q1475.0794,213.8906 1474.8919,213.7031 Q1474.5638,213.3281 1473.9544,213.1094 Q1473.345,212.8906 1472.72,212.8906 Q1471.9544,212.8906 1471.3216,213.2188 Q1470.6888,213.5469 1470.1966,214.2969 Q1469.7044,215.0469 1469.7044,216.0781 L1469.7044,217.1719 Q1469.7044,218.4063 1470.595,219.2266 Q1471.4856,220.0469 1473.0794,220.0469 Q1474.0169,220.0469 1474.6731,219.7969 Q1475.0638,219.6406 1475.4856,219.2031 Q1475.7513,218.9375 1475.8997,218.8594 Q1476.0481,218.7813 1476.2513,218.7813 Q1476.5794,218.7813 1476.8372,219.0391 Q1477.095,219.2969 1477.095,219.6406 Q1477.095,219.9844 1476.7513,220.3906 Q1476.2513,220.9688 1475.4544,221.2969 Q1474.3763,221.75 1473.0794,221.75 Q1471.5638,221.75 1470.3606,221.125 Q1469.3763,220.625 1468.6888,219.5547 Q1468.0013,218.4844 1468.0013,217.2031 L1468.0013,216.0469 Q1468.0013,214.7188 1468.6184,213.5703 Q1469.2356,212.4219 1470.3294,211.8047 Q1471.4231,211.1875 1472.6575,211.1875 Q1473.3919,211.1875 1474.0403,211.3516 Q1474.6888,211.5156 1475.2356,211.875 Z "/><text fill="#000000" font-family="sans-serif" font-size="12" lengthAdjust="spacingAndGlyphs" textLength="43" x="1486.47" y="220.9102">TypeVid</text><line style="stroke: #A80036; stroke-width: 1.5;" x1="1458.47" x2="1531.47" y1="232" y2="232"/><rect fill="none" height="6" style="stroke: #C82930; stroke-width: 1.0;" width="6" x="1465.47" y="241.418"/><text fill="#000000" font-family="sans-serif" font-size="11" lengthAdjust="spacingAndGlyphs" textLength="45" x="1477.47" y="247.4189">String vid</text><line style="stroke: #A80036; stroke-width: 1.5;" x1="1458.47" x2="1531.47" y1="253.8359" y2="253.8359"/><ellipse cx="1468.47" cy="266.2539" fill="#84BE84" rx="3" ry="3" style="stroke: #038048; stroke-width: 1.0;"/><text fill="#000000" font-family="sans-serif" font-size="11" lengthAdjust="spacingAndGlyphs" textLength="45" x="1477.47" y="269.2549">getElem()</text><!--class BienImmo--><rect fill="#FEFECE" filter="url(#f13jsz46q2rdow)" height="144.8516" id="BienImmo" style="stroke: #A80036; stroke-width: 1.5;" width="182" x="441.971" y="405.5"/><ellipse cx="499.721" cy="421.5" fill="#A9DCDF" rx="11" ry="11" style="stroke: #A80036; stroke-width: 1.0;"/><path d="M501.9085,423.2656 L497.7679,423.2656 L497.346,424.2969 L497.7679,424.2969 Q498.3773,424.2969 498.6429,424.5313 Q498.9085,424.7656 498.9085,425.1563 Q498.9085,425.5313 498.6429,425.7656 Q498.3773,426 497.7679,426 L495.471,426 Q494.8616,426 494.6038,425.7656 Q494.346,425.5313 494.346,425.1406 Q494.346,424.7656 494.6194,424.5234 Q494.8929,424.2813 495.5179,424.2969 L498.1898,417.6406 L497.0804,417.6406 Q496.471,417.6406 496.2054,417.4063 Q495.9398,417.1719 495.9398,416.7813 Q495.9398,416.4063 496.2054,416.1719 Q496.471,415.9375 497.0804,415.9375 L500.7523,415.9375 L504.1429,424.2969 Q504.7366,424.2969 504.9241,424.4375 Q505.3148,424.7031 505.3148,425.1563 Q505.3148,425.5313 505.0569,425.7656 Q504.7991,426 504.1898,426 L501.8929,426 Q501.2835,426 501.0179,425.7656 Q500.7523,425.5313 500.7523,425.1406 Q500.7523,424.7656 501.0179,424.5313 Q501.2835,424.2969 501.8929,424.2969 L502.3148,424.2969 L501.9085,423.2656 Z M501.1898,421.5625 L499.8304,418.1875 L498.4554,421.5625 L501.1898,421.5625 Z "/><text fill="#000000" font-family="sans-serif" font-size="12" font-style="italic" lengthAdjust="spacingAndGlyphs" textLength="58" x="520.221" y="426.4102">BienImmo</text><line style="stroke: #A80036; stroke-width: 1.5;" x1="442.971" x2="622.971" y1="437.5" y2="437.5"/><rect fill="none" height="6" style="stroke: #C82930; stroke-width: 1.0;" width="6" x="449.971" y="446.918"/><text fill="#000000" font-family="sans-serif" font-size="11" lengthAdjust="spacingAndGlyphs" textLength="34" x="461.971" y="452.9189">Int num</text><rect fill="none" height="6" style="stroke: #C82930; stroke-width: 1.0;" width="6" x="449.971" y="460.7539"/><text fill="#000000" font-family="sans-serif" font-size="11" lengthAdjust="spacingAndGlyphs" textLength="71" x="461.971" y="466.7549">String adresse</text><rect fill="none" height="6" style="stroke: #C82930; stroke-width: 1.0;" width="6" x="449.971" y="474.5898"/><text fill="#000000" font-family="sans-serif" font-size="11" lengthAdjust="spacingAndGlyphs" textLength="81" x="461.971" y="480.5908">String orientation</text><rect fill="none" height="6" style="stroke: #C82930; stroke-width: 1.0;" width="6" x="449.971" y="488.4258"/><text fill="#000000" font-family="sans-serif" font-size="11" lengthAdjust="spacingAndGlyphs" textLength="54" x="461.971" y="494.4268">Double prix</text><rect fill="none" height="6" style="stroke: #C82930; stroke-width: 1.0;" width="6" x="449.971" y="502.2617"/><text fill="#000000" font-family="sans-serif" font-size="11" lengthAdjust="spacingAndGlyphs" textLength="52" x="461.971" y="508.2627">Date vente</text><rect fill="none" height="6" style="stroke: #C82930; stroke-width: 1.0;" width="6" x="449.971" y="516.0977"/><text fill="#000000" font-family="sans-serif" font-size="11" lengthAdjust="spacingAndGlyphs" textLength="57" x="461.971" y="522.0986">Date[] dispo</text><line style="stroke: #A80036; stroke-width: 1.5;" x1="442.971" x2="622.971" y1="528.5156" y2="528.5156"/><ellipse cx="452.971" cy="540.9336" fill="#84BE84" rx="3" ry="3" style="stroke: #038048; stroke-width: 1.0;"/><text fill="#000000" font-family="sans-serif" font-size="11" lengthAdjust="spacingAndGlyphs" textLength="156" x="461.971" y="543.9346">correspondance(Envie) : Double</text><!--class Terrain--><rect fill="#FEFECE" filter="url(#f13jsz46q2rdow)" height="89.5078" id="Terrain" style="stroke: #A80036; stroke-width: 1.5;" width="182" x="78.971" y="669.5"/><ellipse cx="146.221" cy="685.5" fill="#ADD1B2" rx="11" ry="11" style="stroke: #A80036; stroke-width: 1.0;"/><path d="M148.9866,681.375 Q149.1429,681.1563 149.3304,681.0469 Q149.5179,680.9375 149.7366,680.9375 Q150.1116,680.9375 150.346,681.1953 Q150.5804,681.4531 150.5804,682.0625 L150.5804,683.5156 Q150.5804,684.125 150.346,684.3906 Q150.1116,684.6563 149.7366,684.6563 Q149.3929,684.6563 149.1898,684.4531 Q148.9866,684.2656 148.8773,683.75 Q148.8304,683.3906 148.6429,683.2031 Q148.3148,682.8281 147.7054,682.6094 Q147.096,682.3906 146.471,682.3906 Q145.7054,682.3906 145.0726,682.7188 Q144.4398,683.0469 143.9476,683.7969 Q143.4554,684.5469 143.4554,685.5781 L143.4554,686.6719 Q143.4554,687.9063 144.346,688.7266 Q145.2366,689.5469 146.8304,689.5469 Q147.7679,689.5469 148.4241,689.2969 Q148.8148,689.1406 149.2366,688.7031 Q149.5023,688.4375 149.6507,688.3594 Q149.7991,688.2813 150.0023,688.2813 Q150.3304,688.2813 150.5882,688.5391 Q150.846,688.7969 150.846,689.1406 Q150.846,689.4844 150.5023,689.8906 Q150.0023,690.4688 149.2054,690.7969 Q148.1273,691.25 146.8304,691.25 Q145.3148,691.25 144.1116,690.625 Q143.1273,690.125 142.4398,689.0547 Q141.7523,687.9844 141.7523,686.7031 L141.7523,685.5469 Q141.7523,684.2188 142.3694,683.0703 Q142.9866,681.9219 144.0804,681.3047 Q145.1741,680.6875 146.4085,680.6875 Q147.1429,680.6875 147.7913,680.8516 Q148.4398,681.0156 148.9866,681.375 Z "/><text fill="#000000" font-family="sans-serif" font-size="12" lengthAdjust="spacingAndGlyphs" textLength="39" x="166.721" y="690.4102">Terrain</text><line style="stroke: #A80036; stroke-width: 1.5;" x1="79.971" x2="259.971" y1="701.5" y2="701.5"/><rect fill="none" height="6" style="stroke: #C82930; stroke-width: 1.0;" width="6" x="86.971" y="710.918"/><text fill="#000000" font-family="sans-serif" font-size="11" lengthAdjust="spacingAndGlyphs" textLength="89" x="98.971" y="716.9189">Double surfaceSol</text><rect fill="none" height="6" style="stroke: #C82930; stroke-width: 1.0;" width="6" x="86.971" y="724.7539"/><text fill="#000000" font-family="sans-serif" font-size="11" lengthAdjust="spacingAndGlyphs" textLength="114" x="98.971" y="730.7549">Double longueurFacade</text><line style="stroke: #A80036; stroke-width: 1.5;" x1="79.971" x2="259.971" y1="737.1719" y2="737.1719"/><ellipse cx="89.971" cy="749.5898" fill="#84BE84" rx="3" ry="3" style="stroke: #038048; stroke-width: 1.0;"/><text fill="#000000" font-family="sans-serif" font-size="11" lengthAdjust="spacingAndGlyphs" textLength="156" x="98.971" y="752.5908">correspondance(Envie) : Double</text><!--class Maison--><rect fill="#FEFECE" filter="url(#f13jsz46q2rdow)" height="117.1797" id="Maison" style="stroke: #A80036; stroke-width: 1.5;" width="182" x="333.971" y="656"/><ellipse cx="400.721" cy="672" fill="#ADD1B2" rx="11" ry="11" style="stroke: #A80036; stroke-width: 1.0;"/><path d="M403.4866,667.875 Q403.6429,667.6563 403.8304,667.5469 Q404.0179,667.4375 404.2366,667.4375 Q404.6116,667.4375 404.846,667.6953 Q405.0804,667.9531 405.0804,668.5625 L405.0804,670.0156 Q405.0804,670.625 404.846,670.8906 Q404.6116,671.1563 404.2366,671.1563 Q403.8929,671.1563 403.6898,670.9531 Q403.4866,670.7656 403.3773,670.25 Q403.3304,669.8906 403.1429,669.7031 Q402.8148,669.3281 402.2054,669.1094 Q401.596,668.8906 400.971,668.8906 Q400.2054,668.8906 399.5726,669.2188 Q398.9398,669.5469 398.4476,670.2969 Q397.9554,671.0469 397.9554,672.0781 L397.9554,673.1719 Q397.9554,674.4063 398.846,675.2266 Q399.7366,676.0469 401.3304,676.0469 Q402.2679,676.0469 402.9241,675.7969 Q403.3148,675.6406 403.7366,675.2031 Q404.0023,674.9375 404.1507,674.8594 Q404.2991,674.7813 404.5023,674.7813 Q404.8304,674.7813 405.0882,675.0391 Q405.346,675.2969 405.346,675.6406 Q405.346,675.9844 405.0023,676.3906 Q404.5023,676.9688 403.7054,677.2969 Q402.6273,677.75 401.3304,677.75 Q399.8148,677.75 398.6116,677.125 Q397.6273,676.625 396.9398,675.5547 Q396.2523,674.4844 396.2523,673.2031 L396.2523,672.0469 Q396.2523,670.7188 396.8694,669.5703 Q397.4866,668.4219 398.5804,667.8047 Q399.6741,667.1875 400.9085,667.1875 Q401.6429,667.1875 402.2913,667.3516 Q402.9398,667.5156 403.4866,667.875 Z "/><text fill="#000000" font-family="sans-serif" font-size="12" lengthAdjust="spacingAndGlyphs" textLength="40" x="421.221" y="676.9102">Maison</text><line style="stroke: #A80036; stroke-width: 1.5;" x1="334.971" x2="514.971" y1="688" y2="688"/><rect fill="none" height="6" style="stroke: #C82930; stroke-width: 1.0;" width="6" x="341.971" y="697.418"/><text fill="#000000" font-family="sans-serif" font-size="11" lengthAdjust="spacingAndGlyphs" textLength="118" x="353.971" y="703.4189">Double surfaceHabitable</text><rect fill="none" height="6" style="stroke: #C82930; stroke-width: 1.0;" width="6" x="341.971" y="711.2539"/><text fill="#000000" font-family="sans-serif" font-size="11" lengthAdjust="spacingAndGlyphs" textLength="58" x="353.971" y="717.2549">Int nbPieces</text><rect fill="none" height="6" style="stroke: #C82930; stroke-width: 1.0;" width="6" x="341.971" y="725.0898"/><text fill="#000000" font-family="sans-serif" font-size="11" lengthAdjust="spacingAndGlyphs" textLength="59" x="353.971" y="731.0908">Int nbEtages</text><rect fill="none" height="6" style="stroke: #C82930; stroke-width: 1.0;" width="6" x="341.971" y="738.9258"/><text fill="#000000" font-family="sans-serif" font-size="11" lengthAdjust="spacingAndGlyphs" textLength="81" x="353.971" y="744.9268">String chauffage</text><line style="stroke: #A80036; stroke-width: 1.5;" x1="334.971" x2="514.971" y1="751.3438" y2="751.3438"/><ellipse cx="344.971" cy="763.7617" fill="#84BE84" rx="3" ry="3" style="stroke: #038048; stroke-width: 1.0;"/><text fill="#000000" font-family="sans-serif" font-size="11" lengthAdjust="spacingAndGlyphs" textLength="156" x="353.971" y="766.7627">correspondance(Envie) : Double</text><!--class Appartement--><rect fill="#FEFECE" filter="url(#f13jsz46q2rdow)" height="103.3438" id="Appartement" style="stroke: #A80036; stroke-width: 1.5;" width="182" x="550.971" y="663"/><ellipse cx="602.721" cy="679" fill="#ADD1B2" rx="11" ry="11" style="stroke: #A80036; stroke-width: 1.0;"/><path d="M605.4866,674.875 Q605.6429,674.6563 605.8304,674.5469 Q606.0179,674.4375 606.2366,674.4375 Q606.6116,674.4375 606.846,674.6953 Q607.0804,674.9531 607.0804,675.5625 L607.0804,677.0156 Q607.0804,677.625 606.846,677.8906 Q606.6116,678.1563 606.2366,678.1563 Q605.8929,678.1563 605.6898,677.9531 Q605.4866,677.7656 605.3773,677.25 Q605.3304,676.8906 605.1429,676.7031 Q604.8148,676.3281 604.2054,676.1094 Q603.596,675.8906 602.971,675.8906 Q602.2054,675.8906 601.5726,676.2188 Q600.9398,676.5469 600.4476,677.2969 Q599.9554,678.0469 599.9554,679.0781 L599.9554,680.1719 Q599.9554,681.4063 600.846,682.2266 Q601.7366,683.0469 603.3304,683.0469 Q604.2679,683.0469 604.9241,682.7969 Q605.3148,682.6406 605.7366,682.2031 Q606.0023,681.9375 606.1507,681.8594 Q606.2991,681.7813 606.5023,681.7813 Q606.8304,681.7813 607.0882,682.0391 Q607.346,682.2969 607.346,682.6406 Q607.346,682.9844 607.0023,683.3906 Q606.5023,683.9688 605.7054,684.2969 Q604.6273,684.75 603.3304,684.75 Q601.8148,684.75 600.6116,684.125 Q599.6273,683.625 598.9398,682.5547 Q598.2523,681.4844 598.2523,680.2031 L598.2523,679.0469 Q598.2523,677.7188 598.8694,676.5703 Q599.4866,675.4219 600.5804,674.8047 Q601.6741,674.1875 602.9085,674.1875 Q603.6429,674.1875 604.2913,674.3516 Q604.9398,674.5156 605.4866,674.875 Z "/><text fill="#000000" font-family="sans-serif" font-size="12" lengthAdjust="spacingAndGlyphs" textLength="70" x="623.221" y="683.9102">Appartement</text><line style="stroke: #A80036; stroke-width: 1.5;" x1="551.971" x2="731.971" y1="695" y2="695"/><rect fill="none" height="6" style="stroke: #C82930; stroke-width: 1.0;" width="6" x="558.971" y="704.418"/><text fill="#000000" font-family="sans-serif" font-size="11" lengthAdjust="spacingAndGlyphs" textLength="58" x="570.971" y="710.4189">Int nbPieces</text><rect fill="none" height="6" style="stroke: #C82930; stroke-width: 1.0;" width="6" x="558.971" y="718.2539"/><text fill="#000000" font-family="sans-serif" font-size="11" lengthAdjust="spacingAndGlyphs" textLength="41" x="570.971" y="724.2549">Int etage</text><rect fill="none" height="6" style="stroke: #C82930; stroke-width: 1.0;" width="6" x="558.971" y="732.0898"/><text fill="#000000" font-family="sans-serif" font-size="11" lengthAdjust="spacingAndGlyphs" textLength="130" x="570.971" y="738.0908">Double chargesMensuelles</text><line style="stroke: #A80036; stroke-width: 1.5;" x1="551.971" x2="731.971" y1="744.5078" y2="744.5078"/><ellipse cx="561.971" cy="756.9258" fill="#84BE84" rx="3" ry="3" style="stroke: #038048; stroke-width: 1.0;"/><text fill="#000000" font-family="sans-serif" font-size="11" lengthAdjust="spacingAndGlyphs" textLength="156" x="570.971" y="759.9268">correspondance(Envie) : Double</text><!--link Client to Personne--><path d="M1396.24,1011.928 C1391.22,1048.108 1385.62,1088.562 1382.19,1113.278 " fill="none" id="Client-Personne" style="stroke: #A80036; stroke-width: 1.0;"/><polygon fill="none" points="1389.31,1010.964,1398.98,992.115,1403.17,1012.886,1389.31,1010.964" style="stroke: #A80036; stroke-width: 1.0;"/><!--link Client to Entreprise--><path d="M1449.37,1009.623 C1466.61,1040.182 1485.77,1074.13 1499.93,1099.215 " fill="none" id="Client-Entreprise" style="stroke: #A80036; stroke-width: 1.0;"/><polygon fill="none" points="1443.22,1012.973,1439.49,992.115,1455.41,1006.092,1443.22,1012.973" style="stroke: #A80036; stroke-width: 1.0;"/><!--link Client to Envie--><path d="M1488.27,993.907 C1523.62,1019.879 1565.46,1050.796 1602.97,1079 C1608.61,1083.24 1614.47,1087.677 1620.32,1092.127 " fill="none" id="Client-Envie" style="stroke: #A80036; stroke-width: 1.0;"/><polygon fill="#A80036" points="1477.51,986.014,1479.9764,992.7902,1487.1799,993.1198,1484.7136,986.3436,1477.51,986.014" style="stroke: #A80036; stroke-width: 1.0;"/><text fill="#000000" font-family="sans-serif" font-size="13" lengthAdjust="spacingAndGlyphs" textLength="55" x="1560.97" y="1045.4951">listeEnvie</text><text fill="#000000" font-family="sans-serif" font-size="13" lengthAdjust="spacingAndGlyphs" textLength="5" x="1607.6133" y="1082.7947">*</text><!--link Client to Agence--><path d="M1395.71,874.817 C1381.47,814.481 1351.89,719.842 1296.97,656 C1250.14,601.551 1182.18,559.714 1122.49,530.421 " fill="none" id="Client-Agence" style="stroke: #A80036; stroke-width: 1.0;"/><polygon fill="#A80036" points="1110.67,524.729,1114.3455,530.9331,1121.486,529.9266,1117.8105,523.7225,1110.67,524.729" style="stroke: #A80036; stroke-width: 1.0;"/><text fill="#000000" font-family="sans-serif" font-size="13" lengthAdjust="spacingAndGlyphs" textLength="57" x="1373.97" y="719.9951">listeClient</text><text fill="#000000" font-family="sans-serif" font-size="13" lengthAdjust="spacingAndGlyphs" textLength="5" x="1389.033" y="864.1956">*</text><!--link Agence to Mandat--><path d="M1080.28,588.409 C1098.66,611.696 1117.36,635.398 1133.47,655.818 " fill="none" id="Agence-Mandat" style="stroke: #A80036; stroke-width: 1.0;"/><polygon fill="#A80036" points="1072.16,578.109,1072.7384,585.2969,1079.5959,587.5275,1079.0174,580.3396,1072.16,578.109" style="stroke: #A80036; stroke-width: 1.0;"/><text fill="#000000" font-family="sans-serif" font-size="13" lengthAdjust="spacingAndGlyphs" textLength="67" x="1109.97" y="622.4951">listeMandat</text><text fill="#000000" font-family="sans-serif" font-size="13" lengthAdjust="spacingAndGlyphs" textLength="5" x="1122.62" y="645.1967">*</text><!--link Agence to Promesse--><path d="M880.08,588.438 C864.489,609.289 850.818,632.118 841.971,656 C816.006,726.09 841.203,810.794 865.821,867.828 " fill="none" id="Agence-Promesse" style="stroke: #A80036; stroke-width: 1.0;"/><polygon fill="#A80036" points="888.133,578.043,881.2962,580.3361,880.7834,587.529,887.6202,585.2358,888.133,578.043" style="stroke: #A80036; stroke-width: 1.0;"/><text fill="#000000" font-family="sans-serif" font-size="13" lengthAdjust="spacingAndGlyphs" textLength="83" x="842.971" y="719.9951">listePromesse</text><text fill="#000000" font-family="sans-serif" font-size="13" lengthAdjust="spacingAndGlyphs" textLength="5" x="856.9218" y="857.2836">*</text><!--link Mandat to Client--><path d="M1239.47,773.082 C1271.17,803.246 1309.99,840.201 1342.28,870.933 " fill="none" id="Mandat-Client" style="stroke: #A80036; stroke-width: 1.0;"/><polygon fill="#A80036" points="1346.19,874.649,1342.4233,865.5489,1342.5663,871.2039,1336.9112,871.3469,1346.19,874.649" style="stroke: #A80036; stroke-width: 1.0;"/><text fill="#000000" font-family="sans-serif" font-size="13" lengthAdjust="spacingAndGlyphs" textLength="44" x="1287.97" y="819.4951">vendeur</text><text fill="#000000" font-family="sans-serif" font-size="13" lengthAdjust="spacingAndGlyphs" textLength="7" x="1331.3559" y="864.0071">1</text><!--link Promesse to Client--><path d="M977.233,933.5 C1073.61,933.5 1236.21,933.5 1331.36,933.5 " fill="none" id="Promesse-Client" style="stroke: #A80036; stroke-width: 1.0;"/><polygon fill="#A80036" points="1336.4,933.5,1327.4,929.5,1331.4,933.5,1327.4,937.5,1336.4,933.5" style="stroke: #A80036; stroke-width: 1.0;"/><text fill="#000000" font-family="sans-serif" font-size="13" lengthAdjust="spacingAndGlyphs" textLength="50" x="1131.72" y="926.9951">acheteur</text><text fill="#000000" font-family="sans-serif" font-size="13" lengthAdjust="spacingAndGlyphs" textLength="7" x="1321.2986" y="930.1295">1</text><!--link Agence to Notaire--><path d="M993.971,591.549 C993.971,625.436 993.971,659.846 993.971,683.435 " fill="none" id="Agence-Notaire" style="stroke: #A80036; stroke-width: 1.0;"/><polygon fill="#A80036" points="993.971,578.109,989.971,584.109,993.971,590.109,997.971,584.109,993.971,578.109" style="stroke: #A80036; stroke-width: 1.0;"/><text fill="#000000" font-family="sans-serif" font-size="13" lengthAdjust="spacingAndGlyphs" textLength="65" x="994.971" y="622.4951">listeNotaire</text><text fill="#000000" font-family="sans-serif" font-size="13" lengthAdjust="spacingAndGlyphs" textLength="5" x="988.4241" y="672.441">*</text><!--link Notaire to Promesse--><path d="M978.603,750.605 C964.774,782.193 944.104,829.406 927.289,867.815 " fill="none" id="Notaire-Promesse" style="stroke: #A80036; stroke-width: 1.0;"/><polygon fill="#A80036" points="980.762,745.673,973.4884,752.3134,978.7568,750.2533,980.8168,755.5217,980.762,745.673" style="stroke: #A80036; stroke-width: 1.0;"/><text fill="#000000" font-family="sans-serif" font-size="13" lengthAdjust="spacingAndGlyphs" textLength="39" x="953.971" y="819.4951">notaire</text><text fill="#000000" font-family="sans-serif" font-size="13" lengthAdjust="spacingAndGlyphs" textLength="7" x="970.4724" y="766.9311">1</text><!--link AnnoncePub to Agence--><path d="M993.971,269.143 C993.971,293.488 993.971,329.362 993.971,364.48 " fill="none" id="AnnoncePub-Agence" style="stroke: #A80036; stroke-width: 1.0;"/><polygon fill="#A80036" points="993.971,377.877,997.971,371.877,993.971,365.877,989.971,371.877,993.971,377.877" style="stroke: #A80036; stroke-width: 1.0;"/><text fill="#000000" font-family="sans-serif" font-size="13" lengthAdjust="spacingAndGlyphs" textLength="75" x="994.971" y="322.4951">listeAnnonce</text><text fill="#000000" font-family="sans-serif" font-size="13" lengthAdjust="spacingAndGlyphs" textLength="5" x="988.4788" y="290.3952">*</text><!--link TypePub to AnnoncePub--><path d="M1224.81,111.75 C1201.28,123.2 1171.29,138.08 1144.97,152 C1116.02,167.32 1084.37,184.98 1057.57,200.22 " fill="none" id="TypePub-AnnoncePub" style="stroke: #A80036; stroke-width: 1.0;"/><polygon fill="#A80036" points="1046.01,206.82,1053.2035,207.323,1056.4346,200.8763,1049.2411,200.3733,1046.01,206.82" style="stroke: #A80036; stroke-width: 1.0;"/><text fill="#000000" font-family="sans-serif" font-size="13" lengthAdjust="spacingAndGlyphs" textLength="47" x="1145.97" y="166.4951">listePub</text><text fill="#000000" font-family="sans-serif" font-size="13" lengthAdjust="spacingAndGlyphs" textLength="5" x="1212.0331" y="111.5621">*</text><!--link TypePub to TypeTexte--><path d="M1227.91,137.61 C1211.21,157.62 1191.85,180.83 1176.03,199.78 " fill="none" id="TypePub-TypeTexte" style="stroke: #A80036; stroke-width: 1.0;"/><polygon fill="none" points="1222.71,132.91,1240.9,122.04,1233.46,141.88,1222.71,132.91" style="stroke: #A80036; stroke-width: 1.0;"/><!--link TypePub to TypeHtml--><path d="M1265.97,142.14 C1265.97,161.06 1265.97,182.24 1265.97,199.78 " fill="none" id="TypePub-TypeHtml" style="stroke: #A80036; stroke-width: 1.0;"/><polygon fill="none" points="1258.97,142.04,1265.97,122.04,1272.97,142.04,1258.97,142.04" style="stroke: #A80036; stroke-width: 1.0;"/><!--link TypePub to TypeImg--><path d="M1303.01,137.91 C1319.11,157.85 1337.72,180.92 1352.94,199.78 " fill="none" id="TypePub-TypeImg" style="stroke: #A80036; stroke-width: 1.0;"/><polygon fill="none" points="1297.33,142,1290.21,122.04,1308.22,133.21,1297.33,142" style="stroke: #A80036; stroke-width: 1.0;"/><!--link TypePub to TypeVid--><path d="M1324.31,127.47 C1358.25,148.3 1401.75,175.3 1439.97,200 C1445.58,203.62 1451.47,207.5 1457.22,211.34 " fill="none" id="TypePub-TypeVid" style="stroke: #A80036; stroke-width: 1.0;"/><polygon fill="none" points="1320.43,133.3,1307.02,116.89,1327.73,121.36,1320.43,133.3" style="stroke: #A80036; stroke-width: 1.0;"/><!--link BienImmo to Agence--><path d="M624.05,478 C692.636,478 787.602,478 864.14,478 " fill="none" id="BienImmo-Agence" style="stroke: #A80036; stroke-width: 1.0;"/><polygon fill="#A80036" points="877.229,478,871.229,474,865.229,478,871.229,482,877.229,478" style="stroke: #A80036; stroke-width: 1.0;"/><text fill="#000000" font-family="sans-serif" font-size="13" lengthAdjust="spacingAndGlyphs" textLength="50" x="725.721" y="471.4951">listeBien</text><text fill="#000000" font-family="sans-serif" font-size="13" lengthAdjust="spacingAndGlyphs" textLength="5" x="632.0919" y="474.8291">*</text><!--link BienImmo to Mandat--><path d="M628.962,521.865 C672.445,540.43 724.801,561.615 772.971,578 C835.745,599.352 998.891,632.707 1060.97,656 C1066.73,658.162 1072.59,660.507 1078.46,662.973 " fill="none" id="BienImmo-Mandat" style="stroke: #A80036; stroke-width: 1.0;"/><polygon fill="#A80036" points="624.245,519.846,630.9457,527.0641,628.8418,521.813,634.0929,519.7092,624.245,519.846" style="stroke: #A80036; stroke-width: 1.0;"/><text fill="#000000" font-family="sans-serif" font-size="13" lengthAdjust="spacingAndGlyphs" textLength="24" x="951.971" y="622.4951">bien</text><text fill="#000000" font-family="sans-serif" font-size="13" lengthAdjust="spacingAndGlyphs" textLength="7" x="632.0935" y="520.1647">1</text><!--link BienImmo to Promesse--><path d="M436.586,482.028 C319.376,491.508 125.953,527.106 34.971,656 C-1.1671,707.197 -5.7639,749.379 34.971,797 C135.949,915.048 627.516,930.953 820.748,932.582 " fill="none" id="BienImmo-Promesse" style="stroke: #A80036; stroke-width: 1.0;"/><polygon fill="#A80036" points="441.763,481.622,432.4775,478.3389,436.7783,482.0135,433.1038,486.3143,441.763,481.622" style="stroke: #A80036; stroke-width: 1.0;"/><text fill="#000000" font-family="sans-serif" font-size="13" lengthAdjust="spacingAndGlyphs" textLength="24" x="35.971" y="719.9951">bien</text><text fill="#000000" font-family="sans-serif" font-size="13" lengthAdjust="spacingAndGlyphs" textLength="7" x="426.92" y="478.7753">1</text><!--link BienImmo to Appartement--><path d="M574.779,568.945 C589.555,600.733 605.649,635.357 618.381,662.748 " fill="none" id="BienImmo-Appartement" style="stroke: #A80036; stroke-width: 1.0;"/><polygon fill="none" points="568.349,571.719,566.267,550.632,581.045,565.818,568.349,571.719" style="stroke: #A80036; stroke-width: 1.0;"/><!--link BienImmo to Maison--><path d="M491.583,568.865 C478.17,597.99 463.656,629.503 451.611,655.656 " fill="none" id="BienImmo-Maison" style="stroke: #A80036; stroke-width: 1.0;"/><polygon fill="none" points="485.256,565.87,499.981,550.632,497.972,571.726,485.256,565.87" style="stroke: #A80036; stroke-width: 1.0;"/><!--link BienImmo to Terrain--><path d="M424.747,548.913 C364.257,587.99 290.717,635.498 238.224,669.408 " fill="none" id="BienImmo-Terrain" style="stroke: #A80036; stroke-width: 1.0;"/><polygon fill="none" points="421.241,542.844,441.839,537.872,428.838,554.604,421.241,542.844" style="stroke: #A80036; stroke-width: 1.0;"/><!--link Terrain to Maison--><path d="M261.312,714.5 C280.563,714.5 301.012,714.5 320.698,714.5 " fill="none" id="Terrain-Maison" style="stroke: #A80036; stroke-width: 1.0;"/><polygon fill="#A80036" points="333.84,714.5,327.84,710.5,321.84,714.5,327.84,718.5,333.84,714.5" style="stroke: #A80036; stroke-width: 1.0;"/><text fill="#000000" font-family="sans-serif" font-size="13" lengthAdjust="spacingAndGlyphs" textLength="36" x="279.471" y="707.9951">terrain</text><text fill="#000000" font-family="sans-serif" font-size="13" lengthAdjust="spacingAndGlyphs" textLength="7" x="268.8696" y="711.3912">1</text><!--
@startuml

package user {

  abstract class Client {
    -String nom
    -String adresse
    -Int telephone
    -String email
    +creerEnvie(Envie) : void
  }

  class Personne {
  }

  class Entreprise {
    -String formeJuridique
    -Int numSiren
  }

  Personne -up-|> Client
  Entreprise -up-|> Client

  class Envie {
    -String type
    -Double prix
    -String localisation
    -Double surfaceSol
    -Int nbPieces
  }

  Client *- -"*" Envie : "listeEnvie"

}

package agence {

  class Agence {
    -String nom
    -HashSet<Date, Client> listeRdvVendeur
    +creerClient(String, String, Int, String) : void
    +priseRdvVendeur(Client, Date) : void
    +creerBien() : void
    +creerMandat(Client, Mandat) : void
    +organiserVisite(Client, Mandat, Date) : void
    +organiserVente(Client, Mandat, Date) : void
    -creerPromesse(Promesse) : void
    +voirStats() : void
    +creerDocument() : void
  }

  Client "*"-left-* Agence : "listeClient"

  class Mandat {
    -HashSet<Date, Client> listeRdvVisite
    -Int prix
    -Date vente
    -Date debut
    -Date fin
  }

  class Promesse {
    -Double prixVerseVendeur
    -String adresseNotaire
    -Date vente
    -Double commissionAgence
    -Double fraisVente
    +signerPromesse() : void
  }

  Agence *- -"*" Mandat : "listeMandat"
  Agence *- -"*" Promesse : "listePromesse"

  Mandat - ->"1" Client : "vendeur"
  Promesse - ->"1" Client : "acheteur"

  class Notaire {
    +verserArgent()
  }

  Agence *- -"*" Notaire : "listeNotaire"

  Notaire "1"<- - Promesse : "notaire"

}

package pub {

  class AnnoncePub {
    +addElem(TypePub) : void
  }

  AnnoncePub "*"- -* Agence : "listeAnnonce"
  TypePub "*"- -* AnnoncePub : "listePub"

  abstract class TypePub {
    +getElem()
  }

  class TypeTexte {
    -String texte
    +getElem()
  }

  class TypeHtml {
    -String html
    +getElem()
  }

  class TypeImg {
    -String img
    +getElem()
  }

  class TypeVid {
    -String vid
    +getElem()
  }

  TypeTexte -up-|> TypePub
  TypeHtml -up-|> TypePub
  TypeImg -up-|> TypePub
  TypeVid -up-|> TypePub

}

package immo {

  abstract class BienImmo {
    -Int num
    -String adresse
    -String orientation
    -Double prix
    -Date vente
    -Date[] dispo
    +correspondance(Envie) : Double
  }

  BienImmo "*"-left-* Agence : "listeBien"
  Mandat -up->"1" BienImmo : "bien"
  Promesse -up->"1" BienImmo : "bien"

  class Terrain {
    -Double surfaceSol
    -Double longueurFacade
    +correspondance(Envie) : Double
  }

  class Maison {
    -Double surfaceHabitable
    -Int nbPieces
    -Int nbEtages
    -String chauffage
    +correspondance(Envie) : Double
  }

  class Appartement {
    -Int nbPieces
    -Int etage
    -Double chargesMensuelles
    +correspondance(Envie) : Double
  }

  Appartement -up-|> BienImmo
  Maison -up-|> BienImmo
  Terrain -up-|> BienImmo

  Maison *-left-"1" Terrain : "terrain"

}

@enduml

PlantUML version 1.2017.18(Fri Oct 06 18:56:32 CEST 2017)
(GPL source distribution)
Java Runtime: Java(TM) SE Runtime Environment
JVM: Java HotSpot(TM) 64-Bit Server VM
Java Version: 9.0.1+11
Operating System: Windows 10
OS Version: 10.0
Default Encoding: Cp1252
Language: fr
Country: FR
--></g></svg>