<?xml version="1.0" encoding="UTF-8" standalone="no"?><svg xmlns="http://www.w3.org/2000/svg" xmlns:xlink="http://www.w3.org/1999/xlink" contentScriptType="application/ecmascript" contentStyleType="text/css" height="301px" preserveAspectRatio="none" style="width:171px;height:301px;" version="1.1" viewBox="0 0 171 301"
    width="171px" zoomAndPan="magnify"><defs><filter height="300%" id="f1ew23mkls0t3x" width="300%" x="-1" y="-1"><feGaussianBlur result="blurOut" stdDeviation="2.0"/><feColorMatrix in="blurOut" result="blurOut2" type="matrix" values="0 0 0 0 0 0 0 0 0 0 0 0 0 0 0 0 0 0 .4 0"/><feOffset dx="4.0" dy="4.0" in="blurOut2" result="blurOut3"/><feBlend in="SourceGraphic" in2="blurOut3" mode="normal"/></filter></defs><g><ellipse cx="85" cy="20" fill="#000000" filter="url(#f1ew23mkls0t3x)" rx="10" ry="10" style="stroke: none; stroke-width: 1.0;"/><rect fill="#FEFECE" filter="url(#f1ew23mkls0t3x)" height="35.0938" rx="12.5" ry="12.5" style="stroke: #A80036; stroke-width: 1.5;" width="131" x="19.5" y="50"/><text fill="#000000" font-family="sans-serif" font-size="12" lengthAdjust="spacingAndGlyphs" textLength="111" x="29.5" y="72.457">Créer une personne</text><rect fill="#FEFECE" filter="url(#f1ew23mkls0t3x)" height="35.0938" rx="12.5" ry="12.5" style="stroke: #A80036; stroke-width: 1.5;" width="150" x="10" y="105.0938"/><text fill="#000000" font-family="sans-serif" font-size="12" lengthAdjust="spacingAndGlyphs" textLength="130" x="20" y="127.5508">Organiser Rendez-vous</text><rect fill="#FEFECE" filter="url(#f1ew23mkls0t3x)" height="35.0938" rx="12.5" ry="12.5" style="stroke: #A80036; stroke-width: 1.5;" width="95" x="37.5" y="160.1875"/><text fill="#000000" font-family="sans-serif" font-size="12" lengthAdjust="spacingAndGlyphs" textLength="75" x="47.5" y="182.6445">Créer un bien</text><rect fill="#FEFECE" filter="url(#f1ew23mkls0t3x)" height="35.0938" rx="12.5" ry="12.5" style="stroke: #A80036; stroke-width: 1.5;" width="113" x="28.5" y="215.2813"/><text fill="#000000" font-family="sans-serif" font-size="12" lengthAdjust="spacingAndGlyphs" textLength="93" x="38.5" y="237.7383">Créer un mandat</text><ellipse cx="85" cy="280.375" fill="none" filter="url(#f1ew23mkls0t3x)" rx="10" ry="10" style="stroke: #000000; stroke-width: 1.0;"/><ellipse cx="85.5" cy="280.875" fill="#000000" filter="url(#f1ew23mkls0t3x)" rx="6" ry="6" style="stroke: none; stroke-width: 1.0;"/><line style="stroke: #A80036; stroke-width: 1.5;" x1="85" x2="85" y1="30" y2="50"/><polygon fill="#A80036" points="81,40,85,50,89,40,85,44" style="stroke: #A80036; stroke-width: 1.0;"/><line style="stroke: #A80036; stroke-width: 1.5;" x1="85" x2="85" y1="85.0938" y2="105.0938"/><polygon fill="#A80036" points="81,95.0938,85,105.0938,89,95.0938,85,99.0938" style="stroke: #A80036; stroke-width: 1.0;"/><line style="stroke: #A80036; stroke-width: 1.5;" x1="85" x2="85" y1="140.1875" y2="160.1875"/><polygon fill="#A80036" points="81,150.1875,85,160.1875,89,150.1875,85,154.1875" style="stroke: #A80036; stroke-width: 1.0;"/><line style="stroke: #A80036; stroke-width: 1.5;" x1="85" x2="85" y1="195.2813" y2="215.2813"/><polygon fill="#A80036" points="81,205.2813,85,215.2813,89,205.2813,85,209.2813" style="stroke: #A80036; stroke-width: 1.0;"/><line style="stroke: #A80036; stroke-width: 1.5;" x1="85" x2="85" y1="250.375" y2="270.375"/><polygon fill="#A80036" points="81,260.375,85,270.375,89,260.375,85,264.375" style="stroke: #A80036; stroke-width: 1.0;"/><!--
@startuml

start

:Créer une personne;

:Organiser Rendez-vous;

:Créer un bien;

:Créer un mandat;

stop

@enduml

PlantUML version 1.2017.18(Fri Oct 06 18:56:32 CEST 2017)
(GPL source distribution)
Java Runtime: Java(TM) SE Runtime Environment
JVM: Java HotSpot(TM) 64-Bit Server VM
Java Version: 1.8.0_131-b11
Operating System: Windows 10
OS Version: 10.0
Default Encoding: MS932
Language: fr
Country: FR
--></g></svg>