<?xml version="1.0" encoding="UTF-8" standalone="no"?><svg xmlns="http://www.w3.org/2000/svg" xmlns:xlink="http://www.w3.org/1999/xlink" contentScriptType="application/ecmascript" contentStyleType="text/css" height="1052px" preserveAspectRatio="none" style="width:1746px;height:1052px;" version="1.1" viewBox="0 0 1746 1052"
    width="1746px" zoomAndPan="magnify"><defs><filter height="300%" id="fmptnl3unrarq" width="300%" x="-1" y="-1"><feGaussianBlur result="blurOut" stdDeviation="2.0"/><feColorMatrix in="blurOut" result="blurOut2" type="matrix" values="0 0 0 0 0 0 0 0 0 0 0 0 0 0 0 0 0 0 .4 0"/><feOffset dx="4.0" dy="4.0" in="blurOut2" result="blurOut3"/><feBlend in="SourceGraphic" in2="blurOut3" mode="normal"/></filter></defs><g><!--cluster user--><polygon fill="#FFFFFF" filter="url(#fmptnl3unrarq)" points="791,749,829,749,836,772.6094,951,772.6094,951,1040,791,1040,791,749" style="stroke: #000000; stroke-width: 2.0;"/><line style="stroke: #000000; stroke-width: 2.0;" x1="791" x2="836" y1="772.6094" y2="772.6094"/><text fill="#000000" font-family="sans-serif" font-size="14" font-weight="bold" lengthAdjust="spacingAndGlyphs" textLength="32" x="795" y="765.5332">user</text><!--cluster agence--><polygon fill="#FFFFFF" filter="url(#fmptnl3unrarq)" points="596,24,654,24,661,47.6094,1158,47.6094,1158,725,596,725,596,24" style="stroke: #000000; stroke-width: 2.0;"/><line style="stroke: #000000; stroke-width: 2.0;" x1="596" x2="661" y1="47.6094" y2="47.6094"/><text fill="#000000" font-family="sans-serif" font-size="14" font-weight="bold" lengthAdjust="spacingAndGlyphs" textLength="52" x="600" y="40.5332">agence</text><!--cluster pub--><polygon fill="#FFFFFF" filter="url(#fmptnl3unrarq)" points="22,583.5,55,583.5,62,607.1094,572,607.1094,572,1033,22,1033,22,583.5" style="stroke: #000000; stroke-width: 2.0;"/><line style="stroke: #000000; stroke-width: 2.0;" x1="22" x2="62" y1="607.1094" y2="607.1094"/><text fill="#000000" font-family="sans-serif" font-size="14" font-weight="bold" lengthAdjust="spacingAndGlyphs" textLength="27" x="26" y="600.0332">pub</text><!--cluster immo--><polygon fill="#FFFFFF" filter="url(#fmptnl3unrarq)" points="1182,344,1225,344,1232,367.6094,1724,367.6094,1724,718,1182,718,1182,344" style="stroke: #000000; stroke-width: 2.0;"/><line style="stroke: #000000; stroke-width: 2.0;" x1="1182" x2="1232" y1="367.6094" y2="367.6094"/><text fill="#000000" font-family="sans-serif" font-size="14" font-weight="bold" lengthAdjust="spacingAndGlyphs" textLength="37" x="1186" y="360.5332">immo</text><!--class Personne--><rect fill="#FEFECE" filter="url(#fmptnl3unrarq)" height="103.3438" id="Personne" style="stroke: #A80036; stroke-width: 1.5;" width="97" x="822.5" y="785"/><ellipse cx="842.45" cy="801" fill="#ADD1B2" rx="11" ry="11" style="stroke: #A80036; stroke-width: 1.0;"/><path d="M845.2156,796.875 Q845.3719,796.6563 845.5594,796.5469 Q845.7469,796.4375 845.9656,796.4375 Q846.3406,796.4375 846.575,796.6953 Q846.8094,796.9531 846.8094,797.5625 L846.8094,799.0156 Q846.8094,799.625 846.575,799.8906 Q846.3406,800.1563 845.9656,800.1563 Q845.6219,800.1563 845.4188,799.9531 Q845.2156,799.7656 845.1063,799.25 Q845.0594,798.8906 844.8719,798.7031 Q844.5438,798.3281 843.9344,798.1094 Q843.325,797.8906 842.7,797.8906 Q841.9344,797.8906 841.3016,798.2188 Q840.6688,798.5469 840.1766,799.2969 Q839.6844,800.0469 839.6844,801.0781 L839.6844,802.1719 Q839.6844,803.4063 840.575,804.2266 Q841.4656,805.0469 843.0594,805.0469 Q843.9969,805.0469 844.6531,804.7969 Q845.0438,804.6406 845.4656,804.2031 Q845.7313,803.9375 845.8797,803.8594 Q846.0281,803.7813 846.2313,803.7813 Q846.5594,803.7813 846.8172,804.0391 Q847.075,804.2969 847.075,804.6406 Q847.075,804.9844 846.7313,805.3906 Q846.2313,805.9688 845.4344,806.2969 Q844.3563,806.75 843.0594,806.75 Q841.5438,806.75 840.3406,806.125 Q839.3563,805.625 838.6688,804.5547 Q837.9813,803.4844 837.9813,802.2031 L837.9813,801.0469 Q837.9813,799.7188 838.5984,798.5703 Q839.2156,797.4219 840.3094,796.8047 Q841.4031,796.1875 842.6375,796.1875 Q843.3719,796.1875 844.0203,796.3516 Q844.6688,796.5156 845.2156,796.875 Z "/><text fill="#000000" font-family="sans-serif" font-size="12" lengthAdjust="spacingAndGlyphs" textLength="54" x="857.55" y="805.9102">Personne</text><line style="stroke: #A80036; stroke-width: 1.5;" x1="823.5" x2="918.5" y1="817" y2="817"/><ellipse cx="833.5" cy="829.418" fill="none" rx="3" ry="3" style="stroke: #038048; stroke-width: 1.0;"/><text fill="#000000" font-family="sans-serif" font-size="11" lengthAdjust="spacingAndGlyphs" textLength="51" x="842.5" y="832.4189">String nom</text><ellipse cx="833.5" cy="843.2539" fill="none" rx="3" ry="3" style="stroke: #038048; stroke-width: 1.0;"/><text fill="#000000" font-family="sans-serif" font-size="11" lengthAdjust="spacingAndGlyphs" textLength="71" x="842.5" y="846.2549">String adresse</text><ellipse cx="833.5" cy="857.0898" fill="none" rx="3" ry="3" style="stroke: #038048; stroke-width: 1.0;"/><text fill="#000000" font-family="sans-serif" font-size="11" lengthAdjust="spacingAndGlyphs" textLength="61" x="842.5" y="860.0908">Int telephone</text><ellipse cx="833.5" cy="870.9258" fill="none" rx="3" ry="3" style="stroke: #038048; stroke-width: 1.0;"/><text fill="#000000" font-family="sans-serif" font-size="11" lengthAdjust="spacingAndGlyphs" textLength="55" x="842.5" y="873.9268">String email</text><line style="stroke: #A80036; stroke-width: 1.5;" x1="823.5" x2="918.5" y1="880.3438" y2="880.3438"/><!--class Entreprise--><rect fill="#FEFECE" filter="url(#fmptnl3unrarq)" height="75.6719" id="Entreprise" style="stroke: #A80036; stroke-width: 1.5;" width="128" x="807" y="948"/><ellipse cx="839.55" cy="964" fill="#ADD1B2" rx="11" ry="11" style="stroke: #A80036; stroke-width: 1.0;"/><path d="M842.3156,959.875 Q842.4719,959.6563 842.6594,959.5469 Q842.8469,959.4375 843.0656,959.4375 Q843.4406,959.4375 843.675,959.6953 Q843.9094,959.9531 843.9094,960.5625 L843.9094,962.0156 Q843.9094,962.625 843.675,962.8906 Q843.4406,963.1563 843.0656,963.1563 Q842.7219,963.1563 842.5188,962.9531 Q842.3156,962.7656 842.2063,962.25 Q842.1594,961.8906 841.9719,961.7031 Q841.6438,961.3281 841.0344,961.1094 Q840.425,960.8906 839.8,960.8906 Q839.0344,960.8906 838.4016,961.2188 Q837.7688,961.5469 837.2766,962.2969 Q836.7844,963.0469 836.7844,964.0781 L836.7844,965.1719 Q836.7844,966.4063 837.675,967.2266 Q838.5656,968.0469 840.1594,968.0469 Q841.0969,968.0469 841.7531,967.7969 Q842.1438,967.6406 842.5656,967.2031 Q842.8313,966.9375 842.9797,966.8594 Q843.1281,966.7813 843.3313,966.7813 Q843.6594,966.7813 843.9172,967.0391 Q844.175,967.2969 844.175,967.6406 Q844.175,967.9844 843.8313,968.3906 Q843.3313,968.9688 842.5344,969.2969 Q841.4563,969.75 840.1594,969.75 Q838.6438,969.75 837.4406,969.125 Q836.4563,968.625 835.7688,967.5547 Q835.0813,966.4844 835.0813,965.2031 L835.0813,964.0469 Q835.0813,962.7188 835.6984,961.5703 Q836.3156,960.4219 837.4094,959.8047 Q838.5031,959.1875 839.7375,959.1875 Q840.4719,959.1875 841.1203,959.3516 Q841.7688,959.5156 842.3156,959.875 Z "/><text fill="#000000" font-family="sans-serif" font-size="12" lengthAdjust="spacingAndGlyphs" textLength="57" x="857.45" y="968.9102">Entreprise</text><line style="stroke: #A80036; stroke-width: 1.5;" x1="808" x2="934" y1="980" y2="980"/><ellipse cx="818" cy="992.418" fill="none" rx="3" ry="3" style="stroke: #038048; stroke-width: 1.0;"/><text fill="#000000" font-family="sans-serif" font-size="11" lengthAdjust="spacingAndGlyphs" textLength="102" x="827" y="995.4189">String formeJuridique</text><ellipse cx="818" cy="1006.2539" fill="none" rx="3" ry="3" style="stroke: #038048; stroke-width: 1.0;"/><text fill="#000000" font-family="sans-serif" font-size="11" lengthAdjust="spacingAndGlyphs" textLength="59" x="827" y="1009.2549">Int numSiren</text><line style="stroke: #A80036; stroke-width: 1.5;" x1="808" x2="934" y1="1015.6719" y2="1015.6719"/><!--class Agence--><rect fill="#FEFECE" filter="url(#fmptnl3unrarq)" height="172.5234" id="Agence" style="stroke: #A80036; stroke-width: 1.5;" width="236" x="612" y="359"/><ellipse cx="705.25" cy="375" fill="#ADD1B2" rx="11" ry="11" style="stroke: #A80036; stroke-width: 1.0;"/><path d="M708.0156,370.875 Q708.1719,370.6563 708.3594,370.5469 Q708.5469,370.4375 708.7656,370.4375 Q709.1406,370.4375 709.375,370.6953 Q709.6094,370.9531 709.6094,371.5625 L709.6094,373.0156 Q709.6094,373.625 709.375,373.8906 Q709.1406,374.1563 708.7656,374.1563 Q708.4219,374.1563 708.2188,373.9531 Q708.0156,373.7656 707.9063,373.25 Q707.8594,372.8906 707.6719,372.7031 Q707.3438,372.3281 706.7344,372.1094 Q706.125,371.8906 705.5,371.8906 Q704.7344,371.8906 704.1016,372.2188 Q703.4688,372.5469 702.9766,373.2969 Q702.4844,374.0469 702.4844,375.0781 L702.4844,376.1719 Q702.4844,377.4063 703.375,378.2266 Q704.2656,379.0469 705.8594,379.0469 Q706.7969,379.0469 707.4531,378.7969 Q707.8438,378.6406 708.2656,378.2031 Q708.5313,377.9375 708.6797,377.8594 Q708.8281,377.7813 709.0313,377.7813 Q709.3594,377.7813 709.6172,378.0391 Q709.875,378.2969 709.875,378.6406 Q709.875,378.9844 709.5313,379.3906 Q709.0313,379.9688 708.2344,380.2969 Q707.1563,380.75 705.8594,380.75 Q704.3438,380.75 703.1406,380.125 Q702.1563,379.625 701.4688,378.5547 Q700.7813,377.4844 700.7813,376.2031 L700.7813,375.0469 Q700.7813,373.7188 701.3984,372.5703 Q702.0156,371.4219 703.1094,370.8047 Q704.2031,370.1875 705.4375,370.1875 Q706.1719,370.1875 706.8203,370.3516 Q707.4688,370.5156 708.0156,370.875 Z "/><text fill="#000000" font-family="sans-serif" font-size="12" lengthAdjust="spacingAndGlyphs" textLength="41" x="725.75" y="379.9102">Agence</text><line style="stroke: #A80036; stroke-width: 1.5;" x1="613" x2="847" y1="391" y2="391"/><ellipse cx="623" cy="403.418" fill="none" rx="3" ry="3" style="stroke: #038048; stroke-width: 1.0;"/><text fill="#000000" font-family="sans-serif" font-size="11" lengthAdjust="spacingAndGlyphs" textLength="51" x="632" y="406.4189">String nom</text><ellipse cx="623" cy="417.2539" fill="none" rx="3" ry="3" style="stroke: #038048; stroke-width: 1.0;"/><text fill="#000000" font-family="sans-serif" font-size="11" lengthAdjust="spacingAndGlyphs" textLength="210" x="632" y="420.2549">HashSet&lt;Date, Personne&gt; listeRdvVendeur</text><line style="stroke: #A80036; stroke-width: 1.5;" x1="613" x2="847" y1="426.6719" y2="426.6719"/><ellipse cx="623" cy="439.0898" fill="#84BE84" rx="3" ry="3" style="stroke: #038048; stroke-width: 1.0;"/><text fill="#000000" font-family="sans-serif" font-size="11" lengthAdjust="spacingAndGlyphs" textLength="186" x="632" y="442.0908">CreerMandat(Personne, Mandat) : void</text><ellipse cx="623" cy="452.9258" fill="#84BE84" rx="3" ry="3" style="stroke: #038048; stroke-width: 1.0;"/><text fill="#000000" font-family="sans-serif" font-size="11" lengthAdjust="spacingAndGlyphs" textLength="168" x="632" y="455.9268">CreerEnvie(Personne, Envie) : void</text><ellipse cx="623" cy="466.7617" fill="#84BE84" rx="3" ry="3" style="stroke: #038048; stroke-width: 1.0;"/><text fill="#000000" font-family="sans-serif" font-size="11" lengthAdjust="spacingAndGlyphs" textLength="151" x="632" y="469.7627">Contacter(Envie, Mandat) : void</text><ellipse cx="623" cy="480.5977" fill="#84BE84" rx="3" ry="3" style="stroke: #038048; stroke-width: 1.0;"/><text fill="#000000" font-family="sans-serif" font-size="11" lengthAdjust="spacingAndGlyphs" textLength="196" x="632" y="483.5986">PriseRdvVendeur(Personne, Date) : void</text><ellipse cx="623" cy="494.4336" fill="#84BE84" rx="3" ry="3" style="stroke: #038048; stroke-width: 1.0;"/><text fill="#000000" font-family="sans-serif" font-size="11" lengthAdjust="spacingAndGlyphs" textLength="207" x="632" y="497.4346">OrganiserVisite(Envie, Mandat, Date) : void</text><ellipse cx="623" cy="508.2695" fill="#84BE84" rx="3" ry="3" style="stroke: #038048; stroke-width: 1.0;"/><text fill="#000000" font-family="sans-serif" font-size="11" lengthAdjust="spacingAndGlyphs" textLength="209" x="632" y="511.2705">OrganiserVente(Envie, Mandat, Date) : void</text><ellipse cx="623" cy="522.1055" fill="#84BE84" rx="3" ry="3" style="stroke: #038048; stroke-width: 1.0;"/><text fill="#000000" font-family="sans-serif" font-size="11" lengthAdjust="spacingAndGlyphs" textLength="164" x="632" y="525.1064">SignerPromesse(Promesse) : void</text><!--class Envie--><rect fill="#FEFECE" filter="url(#fmptnl3unrarq)" height="117.1797" id="Envie" style="stroke: #A80036; stroke-width: 1.5;" width="115" x="702.5" y="592"/><ellipse cx="741.35" cy="608" fill="#ADD1B2" rx="11" ry="11" style="stroke: #A80036; stroke-width: 1.0;"/><path d="M744.1156,603.875 Q744.2719,603.6563 744.4594,603.5469 Q744.6469,603.4375 744.8656,603.4375 Q745.2406,603.4375 745.475,603.6953 Q745.7094,603.9531 745.7094,604.5625 L745.7094,606.0156 Q745.7094,606.625 745.475,606.8906 Q745.2406,607.1563 744.8656,607.1563 Q744.5219,607.1563 744.3188,606.9531 Q744.1156,606.7656 744.0063,606.25 Q743.9594,605.8906 743.7719,605.7031 Q743.4438,605.3281 742.8344,605.1094 Q742.225,604.8906 741.6,604.8906 Q740.8344,604.8906 740.2016,605.2188 Q739.5688,605.5469 739.0766,606.2969 Q738.5844,607.0469 738.5844,608.0781 L738.5844,609.1719 Q738.5844,610.4063 739.475,611.2266 Q740.3656,612.0469 741.9594,612.0469 Q742.8969,612.0469 743.5531,611.7969 Q743.9438,611.6406 744.3656,611.2031 Q744.6313,610.9375 744.7797,610.8594 Q744.9281,610.7813 745.1313,610.7813 Q745.4594,610.7813 745.7172,611.0391 Q745.975,611.2969 745.975,611.6406 Q745.975,611.9844 745.6313,612.3906 Q745.1313,612.9688 744.3344,613.2969 Q743.2563,613.75 741.9594,613.75 Q740.4438,613.75 739.2406,613.125 Q738.2563,612.625 737.5688,611.5547 Q736.8813,610.4844 736.8813,609.2031 L736.8813,608.0469 Q736.8813,606.7188 737.4984,605.5703 Q738.1156,604.4219 739.2094,603.8047 Q740.3031,603.1875 741.5375,603.1875 Q742.2719,603.1875 742.9203,603.3516 Q743.5688,603.5156 744.1156,603.875 Z "/><text fill="#000000" font-family="sans-serif" font-size="12" lengthAdjust="spacingAndGlyphs" textLength="30" x="760.65" y="612.9102">Envie</text><line style="stroke: #A80036; stroke-width: 1.5;" x1="703.5" x2="816.5" y1="624" y2="624"/><ellipse cx="713.5" cy="636.418" fill="none" rx="3" ry="3" style="stroke: #038048; stroke-width: 1.0;"/><text fill="#000000" font-family="sans-serif" font-size="11" lengthAdjust="spacingAndGlyphs" textLength="52" x="722.5" y="639.4189">String type</text><ellipse cx="713.5" cy="650.2539" fill="none" rx="3" ry="3" style="stroke: #038048; stroke-width: 1.0;"/><text fill="#000000" font-family="sans-serif" font-size="11" lengthAdjust="spacingAndGlyphs" textLength="54" x="722.5" y="653.2549">Double prix</text><ellipse cx="713.5" cy="664.0898" fill="none" rx="3" ry="3" style="stroke: #038048; stroke-width: 1.0;"/><text fill="#000000" font-family="sans-serif" font-size="11" lengthAdjust="spacingAndGlyphs" textLength="84" x="722.5" y="667.0908">String localisation</text><ellipse cx="713.5" cy="677.9258" fill="none" rx="3" ry="3" style="stroke: #038048; stroke-width: 1.0;"/><text fill="#000000" font-family="sans-serif" font-size="11" lengthAdjust="spacingAndGlyphs" textLength="89" x="722.5" y="680.9268">Double surfaceSol</text><ellipse cx="713.5" cy="691.7617" fill="none" rx="3" ry="3" style="stroke: #038048; stroke-width: 1.0;"/><text fill="#000000" font-family="sans-serif" font-size="11" lengthAdjust="spacingAndGlyphs" textLength="58" x="722.5" y="694.7627">Int nbPieces</text><line style="stroke: #A80036; stroke-width: 1.5;" x1="703.5" x2="816.5" y1="701.1797" y2="701.1797"/><!--class Mandat--><rect fill="#FEFECE" filter="url(#fmptnl3unrarq)" height="117.1797" id="Mandat" style="stroke: #A80036; stroke-width: 1.5;" width="221" x="920.5" y="387"/><ellipse cx="1006.75" cy="403" fill="#ADD1B2" rx="11" ry="11" style="stroke: #A80036; stroke-width: 1.0;"/><path d="M1009.5156,398.875 Q1009.6719,398.6563 1009.8594,398.5469 Q1010.0469,398.4375 1010.2656,398.4375 Q1010.6406,398.4375 1010.875,398.6953 Q1011.1094,398.9531 1011.1094,399.5625 L1011.1094,401.0156 Q1011.1094,401.625 1010.875,401.8906 Q1010.6406,402.1563 1010.2656,402.1563 Q1009.9219,402.1563 1009.7188,401.9531 Q1009.5156,401.7656 1009.4063,401.25 Q1009.3594,400.8906 1009.1719,400.7031 Q1008.8438,400.3281 1008.2344,400.1094 Q1007.625,399.8906 1007,399.8906 Q1006.2344,399.8906 1005.6016,400.2188 Q1004.9688,400.5469 1004.4766,401.2969 Q1003.9844,402.0469 1003.9844,403.0781 L1003.9844,404.1719 Q1003.9844,405.4063 1004.875,406.2266 Q1005.7656,407.0469 1007.3594,407.0469 Q1008.2969,407.0469 1008.9531,406.7969 Q1009.3438,406.6406 1009.7656,406.2031 Q1010.0313,405.9375 1010.1797,405.8594 Q1010.3281,405.7813 1010.5313,405.7813 Q1010.8594,405.7813 1011.1172,406.0391 Q1011.375,406.2969 1011.375,406.6406 Q1011.375,406.9844 1011.0313,407.3906 Q1010.5313,407.9688 1009.7344,408.2969 Q1008.6563,408.75 1007.3594,408.75 Q1005.8438,408.75 1004.6406,408.125 Q1003.6563,407.625 1002.9688,406.5547 Q1002.2813,405.4844 1002.2813,404.2031 L1002.2813,403.0469 Q1002.2813,401.7188 1002.8984,400.5703 Q1003.5156,399.4219 1004.6094,398.8047 Q1005.7031,398.1875 1006.9375,398.1875 Q1007.6719,398.1875 1008.3203,398.3516 Q1008.9688,398.5156 1009.5156,398.875 Z "/><text fill="#000000" font-family="sans-serif" font-size="12" lengthAdjust="spacingAndGlyphs" textLength="40" x="1027.25" y="407.9102">Mandat</text><line style="stroke: #A80036; stroke-width: 1.5;" x1="921.5" x2="1140.5" y1="419" y2="419"/><ellipse cx="931.5" cy="431.418" fill="none" rx="3" ry="3" style="stroke: #038048; stroke-width: 1.0;"/><text fill="#000000" font-family="sans-serif" font-size="11" lengthAdjust="spacingAndGlyphs" textLength="195" x="940.5" y="434.4189">HashSet&lt;Date, Personne&gt; listeRdvVisite</text><ellipse cx="931.5" cy="445.2539" fill="none" rx="3" ry="3" style="stroke: #038048; stroke-width: 1.0;"/><text fill="#000000" font-family="sans-serif" font-size="11" lengthAdjust="spacingAndGlyphs" textLength="32" x="940.5" y="448.2549">Int prix</text><ellipse cx="931.5" cy="459.0898" fill="none" rx="3" ry="3" style="stroke: #038048; stroke-width: 1.0;"/><text fill="#000000" font-family="sans-serif" font-size="11" lengthAdjust="spacingAndGlyphs" textLength="52" x="940.5" y="462.0908">Date vente</text><ellipse cx="931.5" cy="472.9258" fill="none" rx="3" ry="3" style="stroke: #038048; stroke-width: 1.0;"/><text fill="#000000" font-family="sans-serif" font-size="11" lengthAdjust="spacingAndGlyphs" textLength="52" x="940.5" y="475.9268">Date debut</text><ellipse cx="931.5" cy="486.7617" fill="none" rx="3" ry="3" style="stroke: #038048; stroke-width: 1.0;"/><text fill="#000000" font-family="sans-serif" font-size="11" lengthAdjust="spacingAndGlyphs" textLength="37" x="940.5" y="489.7627">Date fin</text><line style="stroke: #A80036; stroke-width: 1.5;" x1="921.5" x2="1140.5" y1="496.1797" y2="496.1797"/><!--class Promesse--><rect fill="#FEFECE" filter="url(#fmptnl3unrarq)" height="117.1797" id="Promesse" style="stroke: #A80036; stroke-width: 1.5;" width="156" x="806" y="182"/><ellipse cx="850.75" cy="198" fill="#ADD1B2" rx="11" ry="11" style="stroke: #A80036; stroke-width: 1.0;"/><path d="M853.5156,193.875 Q853.6719,193.6563 853.8594,193.5469 Q854.0469,193.4375 854.2656,193.4375 Q854.6406,193.4375 854.875,193.6953 Q855.1094,193.9531 855.1094,194.5625 L855.1094,196.0156 Q855.1094,196.625 854.875,196.8906 Q854.6406,197.1563 854.2656,197.1563 Q853.9219,197.1563 853.7188,196.9531 Q853.5156,196.7656 853.4063,196.25 Q853.3594,195.8906 853.1719,195.7031 Q852.8438,195.3281 852.2344,195.1094 Q851.625,194.8906 851,194.8906 Q850.2344,194.8906 849.6016,195.2188 Q848.9688,195.5469 848.4766,196.2969 Q847.9844,197.0469 847.9844,198.0781 L847.9844,199.1719 Q847.9844,200.4063 848.875,201.2266 Q849.7656,202.0469 851.3594,202.0469 Q852.2969,202.0469 852.9531,201.7969 Q853.3438,201.6406 853.7656,201.2031 Q854.0313,200.9375 854.1797,200.8594 Q854.3281,200.7813 854.5313,200.7813 Q854.8594,200.7813 855.1172,201.0391 Q855.375,201.2969 855.375,201.6406 Q855.375,201.9844 855.0313,202.3906 Q854.5313,202.9688 853.7344,203.2969 Q852.6563,203.75 851.3594,203.75 Q849.8438,203.75 848.6406,203.125 Q847.6563,202.625 846.9688,201.5547 Q846.2813,200.4844 846.2813,199.2031 L846.2813,198.0469 Q846.2813,196.7188 846.8984,195.5703 Q847.5156,194.4219 848.6094,193.8047 Q849.7031,193.1875 850.9375,193.1875 Q851.6719,193.1875 852.3203,193.3516 Q852.9688,193.5156 853.5156,193.875 Z "/><text fill="#000000" font-family="sans-serif" font-size="12" lengthAdjust="spacingAndGlyphs" textLength="58" x="871.25" y="202.9102">Promesse</text><line style="stroke: #A80036; stroke-width: 1.5;" x1="807" x2="961" y1="214" y2="214"/><ellipse cx="817" cy="226.418" fill="none" rx="3" ry="3" style="stroke: #038048; stroke-width: 1.0;"/><text fill="#000000" font-family="sans-serif" font-size="11" lengthAdjust="spacingAndGlyphs" textLength="126" x="826" y="229.4189">Double prixVerseVendeur</text><ellipse cx="817" cy="240.2539" fill="none" rx="3" ry="3" style="stroke: #038048; stroke-width: 1.0;"/><text fill="#000000" font-family="sans-serif" font-size="11" lengthAdjust="spacingAndGlyphs" textLength="105" x="826" y="243.2549">String adresseNotaire</text><ellipse cx="817" cy="254.0898" fill="none" rx="3" ry="3" style="stroke: #038048; stroke-width: 1.0;"/><text fill="#000000" font-family="sans-serif" font-size="11" lengthAdjust="spacingAndGlyphs" textLength="52" x="826" y="257.0908">Date vente</text><ellipse cx="817" cy="267.9258" fill="none" rx="3" ry="3" style="stroke: #038048; stroke-width: 1.0;"/><text fill="#000000" font-family="sans-serif" font-size="11" lengthAdjust="spacingAndGlyphs" textLength="130" x="826" y="270.9268">Double commissionAgence</text><ellipse cx="817" cy="281.7617" fill="none" rx="3" ry="3" style="stroke: #038048; stroke-width: 1.0;"/><text fill="#000000" font-family="sans-serif" font-size="11" lengthAdjust="spacingAndGlyphs" textLength="87" x="826" y="284.7627">Double fraisVente</text><line style="stroke: #A80036; stroke-width: 1.5;" x1="807" x2="961" y1="291.1797" y2="291.1797"/><!--class Notaire--><rect fill="#FEFECE" filter="url(#fmptnl3unrarq)" height="61.8359" id="Notaire" style="stroke: #A80036; stroke-width: 1.5;" width="101" x="833.5" y="60"/><ellipse cx="861.55" cy="76" fill="#ADD1B2" rx="11" ry="11" style="stroke: #A80036; stroke-width: 1.0;"/><path d="M864.3156,71.875 Q864.4719,71.6563 864.6594,71.5469 Q864.8469,71.4375 865.0656,71.4375 Q865.4406,71.4375 865.675,71.6953 Q865.9094,71.9531 865.9094,72.5625 L865.9094,74.0156 Q865.9094,74.625 865.675,74.8906 Q865.4406,75.1563 865.0656,75.1563 Q864.7219,75.1563 864.5188,74.9531 Q864.3156,74.7656 864.2063,74.25 Q864.1594,73.8906 863.9719,73.7031 Q863.6438,73.3281 863.0344,73.1094 Q862.425,72.8906 861.8,72.8906 Q861.0344,72.8906 860.4016,73.2188 Q859.7688,73.5469 859.2766,74.2969 Q858.7844,75.0469 858.7844,76.0781 L858.7844,77.1719 Q858.7844,78.4063 859.675,79.2266 Q860.5656,80.0469 862.1594,80.0469 Q863.0969,80.0469 863.7531,79.7969 Q864.1438,79.6406 864.5656,79.2031 Q864.8313,78.9375 864.9797,78.8594 Q865.1281,78.7813 865.3313,78.7813 Q865.6594,78.7813 865.9172,79.0391 Q866.175,79.2969 866.175,79.6406 Q866.175,79.9844 865.8313,80.3906 Q865.3313,80.9688 864.5344,81.2969 Q863.4563,81.75 862.1594,81.75 Q860.6438,81.75 859.4406,81.125 Q858.4563,80.625 857.7688,79.5547 Q857.0813,78.4844 857.0813,77.2031 L857.0813,76.0469 Q857.0813,74.7188 857.6984,73.5703 Q858.3156,72.4219 859.4094,71.8047 Q860.5031,71.1875 861.7375,71.1875 Q862.4719,71.1875 863.1203,71.3516 Q863.7688,71.5156 864.3156,71.875 Z "/><text fill="#000000" font-family="sans-serif" font-size="12" lengthAdjust="spacingAndGlyphs" textLength="40" x="878.45" y="80.9102">Notaire</text><line style="stroke: #A80036; stroke-width: 1.5;" x1="834.5" x2="933.5" y1="92" y2="92"/><line style="stroke: #A80036; stroke-width: 1.5;" x1="834.5" x2="933.5" y1="100" y2="100"/><ellipse cx="844.5" cy="112.418" fill="#84BE84" rx="3" ry="3" style="stroke: #038048; stroke-width: 1.0;"/><text fill="#000000" font-family="sans-serif" font-size="11" lengthAdjust="spacingAndGlyphs" textLength="75" x="853.5" y="115.4189">VerserArgent()</text><!--class AnnoncePub--><rect fill="#FEFECE" filter="url(#fmptnl3unrarq)" height="61.8359" id="AnnoncePub" style="stroke: #A80036; stroke-width: 1.5;" width="114" x="375" y="619.5"/><ellipse cx="395.4" cy="635.5" fill="#ADD1B2" rx="11" ry="11" style="stroke: #A80036; stroke-width: 1.0;"/><path d="M398.1656,631.375 Q398.3219,631.1563 398.5094,631.0469 Q398.6969,630.9375 398.9156,630.9375 Q399.2906,630.9375 399.525,631.1953 Q399.7594,631.4531 399.7594,632.0625 L399.7594,633.5156 Q399.7594,634.125 399.525,634.3906 Q399.2906,634.6563 398.9156,634.6563 Q398.5719,634.6563 398.3688,634.4531 Q398.1656,634.2656 398.0563,633.75 Q398.0094,633.3906 397.8219,633.2031 Q397.4938,632.8281 396.8844,632.6094 Q396.275,632.3906 395.65,632.3906 Q394.8844,632.3906 394.2516,632.7188 Q393.6188,633.0469 393.1266,633.7969 Q392.6344,634.5469 392.6344,635.5781 L392.6344,636.6719 Q392.6344,637.9063 393.525,638.7266 Q394.4156,639.5469 396.0094,639.5469 Q396.9469,639.5469 397.6031,639.2969 Q397.9938,639.1406 398.4156,638.7031 Q398.6813,638.4375 398.8297,638.3594 Q398.9781,638.2813 399.1813,638.2813 Q399.5094,638.2813 399.7672,638.5391 Q400.025,638.7969 400.025,639.1406 Q400.025,639.4844 399.6813,639.8906 Q399.1813,640.4688 398.3844,640.7969 Q397.3063,641.25 396.0094,641.25 Q394.4938,641.25 393.2906,640.625 Q392.3063,640.125 391.6188,639.0547 Q390.9313,637.9844 390.9313,636.7031 L390.9313,635.5469 Q390.9313,634.2188 391.5484,633.0703 Q392.1656,631.9219 393.2594,631.3047 Q394.3531,630.6875 395.5875,630.6875 Q396.3219,630.6875 396.9703,630.8516 Q397.6188,631.0156 398.1656,631.375 Z "/><text fill="#000000" font-family="sans-serif" font-size="12" lengthAdjust="spacingAndGlyphs" textLength="70" x="410.6" y="640.4102">AnnoncePub</text><line style="stroke: #A80036; stroke-width: 1.5;" x1="376" x2="488" y1="651.5" y2="651.5"/><ellipse cx="386" cy="663.918" fill="none" rx="3" ry="3" style="stroke: #038048; stroke-width: 1.0;"/><text fill="#000000" font-family="sans-serif" font-size="11" lengthAdjust="spacingAndGlyphs" textLength="88" x="395" y="666.9189">TypePub[] listePub</text><line style="stroke: #A80036; stroke-width: 1.5;" x1="376" x2="488" y1="673.3359" y2="673.3359"/><!--class TypePub--><rect fill="#FEFECE" filter="url(#fmptnl3unrarq)" height="61.8359" id="TypePub" style="stroke: #A80036; stroke-width: 1.5;" width="103" x="314.5" y="805.5"/><ellipse cx="338.95" cy="821.5" fill="#A9DCDF" rx="11" ry="11" style="stroke: #A80036; stroke-width: 1.0;"/><path d="M341.1375,823.2656 L336.9969,823.2656 L336.575,824.2969 L336.9969,824.2969 Q337.6063,824.2969 337.8719,824.5313 Q338.1375,824.7656 338.1375,825.1563 Q338.1375,825.5313 337.8719,825.7656 Q337.6063,826 336.9969,826 L334.7,826 Q334.0906,826 333.8328,825.7656 Q333.575,825.5313 333.575,825.1406 Q333.575,824.7656 333.8484,824.5234 Q334.1219,824.2813 334.7469,824.2969 L337.4188,817.6406 L336.3094,817.6406 Q335.7,817.6406 335.4344,817.4063 Q335.1688,817.1719 335.1688,816.7813 Q335.1688,816.4063 335.4344,816.1719 Q335.7,815.9375 336.3094,815.9375 L339.9813,815.9375 L343.3719,824.2969 Q343.9656,824.2969 344.1531,824.4375 Q344.5438,824.7031 344.5438,825.1563 Q344.5438,825.5313 344.2859,825.7656 Q344.0281,826 343.4188,826 L341.1219,826 Q340.5125,826 340.2469,825.7656 Q339.9813,825.5313 339.9813,825.1406 Q339.9813,824.7656 340.2469,824.5313 Q340.5125,824.2969 341.1219,824.2969 L341.5438,824.2969 L341.1375,823.2656 Z M340.4188,821.5625 L339.0594,818.1875 L337.6844,821.5625 L340.4188,821.5625 Z "/><text fill="#000000" font-family="sans-serif" font-size="12" font-style="italic" lengthAdjust="spacingAndGlyphs" textLength="50" x="355.05" y="826.4102">TypePub</text><line style="stroke: #A80036; stroke-width: 1.5;" x1="315.5" x2="416.5" y1="837.5" y2="837.5"/><line style="stroke: #A80036; stroke-width: 1.5;" x1="315.5" x2="416.5" y1="845.5" y2="845.5"/><ellipse cx="325.5" cy="857.918" fill="#84BE84" rx="3" ry="3" style="stroke: #038048; stroke-width: 1.0;"/><text fill="#000000" font-family="sans-serif" font-size="11" lengthAdjust="spacingAndGlyphs" textLength="77" x="334.5" y="860.9189">addElem() : void</text><!--class TypeTexte--><rect fill="#FEFECE" filter="url(#fmptnl3unrarq)" height="61.8359" id="TypeTexte" style="stroke: #A80036; stroke-width: 1.5;" width="103" x="176.5" y="955"/><ellipse cx="198.7" cy="971" fill="#ADD1B2" rx="11" ry="11" style="stroke: #A80036; stroke-width: 1.0;"/><path d="M201.4656,966.875 Q201.6219,966.6563 201.8094,966.5469 Q201.9969,966.4375 202.2156,966.4375 Q202.5906,966.4375 202.825,966.6953 Q203.0594,966.9531 203.0594,967.5625 L203.0594,969.0156 Q203.0594,969.625 202.825,969.8906 Q202.5906,970.1563 202.2156,970.1563 Q201.8719,970.1563 201.6688,969.9531 Q201.4656,969.7656 201.3563,969.25 Q201.3094,968.8906 201.1219,968.7031 Q200.7938,968.3281 200.1844,968.1094 Q199.575,967.8906 198.95,967.8906 Q198.1844,967.8906 197.5516,968.2188 Q196.9188,968.5469 196.4266,969.2969 Q195.9344,970.0469 195.9344,971.0781 L195.9344,972.1719 Q195.9344,973.4063 196.825,974.2266 Q197.7156,975.0469 199.3094,975.0469 Q200.2469,975.0469 200.9031,974.7969 Q201.2938,974.6406 201.7156,974.2031 Q201.9813,973.9375 202.1297,973.8594 Q202.2781,973.7813 202.4813,973.7813 Q202.8094,973.7813 203.0672,974.0391 Q203.325,974.2969 203.325,974.6406 Q203.325,974.9844 202.9813,975.3906 Q202.4813,975.9688 201.6844,976.2969 Q200.6063,976.75 199.3094,976.75 Q197.7938,976.75 196.5906,976.125 Q195.6063,975.625 194.9188,974.5547 Q194.2313,973.4844 194.2313,972.2031 L194.2313,971.0469 Q194.2313,969.7188 194.8484,968.5703 Q195.4656,967.4219 196.5594,966.8047 Q197.6531,966.1875 198.8875,966.1875 Q199.6219,966.1875 200.2703,966.3516 Q200.9188,966.5156 201.4656,966.875 Z "/><text fill="#000000" font-family="sans-serif" font-size="12" lengthAdjust="spacingAndGlyphs" textLength="55" x="214.3" y="975.9102">TypeTexte</text><line style="stroke: #A80036; stroke-width: 1.5;" x1="177.5" x2="278.5" y1="987" y2="987"/><line style="stroke: #A80036; stroke-width: 1.5;" x1="177.5" x2="278.5" y1="995" y2="995"/><ellipse cx="187.5" cy="1007.418" fill="#84BE84" rx="3" ry="3" style="stroke: #038048; stroke-width: 1.0;"/><text fill="#000000" font-family="sans-serif" font-size="11" lengthAdjust="spacingAndGlyphs" textLength="77" x="196.5" y="1010.4189">addElem() : void</text><!--class TypeHtml--><rect fill="#FEFECE" filter="url(#fmptnl3unrarq)" height="61.8359" id="TypeHtml" style="stroke: #A80036; stroke-width: 1.5;" width="103" x="314.5" y="955"/><ellipse cx="338.05" cy="971" fill="#ADD1B2" rx="11" ry="11" style="stroke: #A80036; stroke-width: 1.0;"/><path d="M340.8156,966.875 Q340.9719,966.6563 341.1594,966.5469 Q341.3469,966.4375 341.5656,966.4375 Q341.9406,966.4375 342.175,966.6953 Q342.4094,966.9531 342.4094,967.5625 L342.4094,969.0156 Q342.4094,969.625 342.175,969.8906 Q341.9406,970.1563 341.5656,970.1563 Q341.2219,970.1563 341.0188,969.9531 Q340.8156,969.7656 340.7063,969.25 Q340.6594,968.8906 340.4719,968.7031 Q340.1438,968.3281 339.5344,968.1094 Q338.925,967.8906 338.3,967.8906 Q337.5344,967.8906 336.9016,968.2188 Q336.2688,968.5469 335.7766,969.2969 Q335.2844,970.0469 335.2844,971.0781 L335.2844,972.1719 Q335.2844,973.4063 336.175,974.2266 Q337.0656,975.0469 338.6594,975.0469 Q339.5969,975.0469 340.2531,974.7969 Q340.6438,974.6406 341.0656,974.2031 Q341.3313,973.9375 341.4797,973.8594 Q341.6281,973.7813 341.8313,973.7813 Q342.1594,973.7813 342.4172,974.0391 Q342.675,974.2969 342.675,974.6406 Q342.675,974.9844 342.3313,975.3906 Q341.8313,975.9688 341.0344,976.2969 Q339.9563,976.75 338.6594,976.75 Q337.1438,976.75 335.9406,976.125 Q334.9563,975.625 334.2688,974.5547 Q333.5813,973.4844 333.5813,972.2031 L333.5813,971.0469 Q333.5813,969.7188 334.1984,968.5703 Q334.8156,967.4219 335.9094,966.8047 Q337.0031,966.1875 338.2375,966.1875 Q338.9719,966.1875 339.6203,966.3516 Q340.2688,966.5156 340.8156,966.875 Z "/><text fill="#000000" font-family="sans-serif" font-size="12" lengthAdjust="spacingAndGlyphs" textLength="52" x="353.95" y="975.9102">TypeHtml</text><line style="stroke: #A80036; stroke-width: 1.5;" x1="315.5" x2="416.5" y1="987" y2="987"/><line style="stroke: #A80036; stroke-width: 1.5;" x1="315.5" x2="416.5" y1="995" y2="995"/><ellipse cx="325.5" cy="1007.418" fill="#84BE84" rx="3" ry="3" style="stroke: #038048; stroke-width: 1.0;"/><text fill="#000000" font-family="sans-serif" font-size="11" lengthAdjust="spacingAndGlyphs" textLength="77" x="334.5" y="1010.4189">addElem() : void</text><!--class TypeImg--><rect fill="#FEFECE" filter="url(#fmptnl3unrarq)" height="61.8359" id="TypeImg" style="stroke: #A80036; stroke-width: 1.5;" width="103" x="452.5" y="955"/><ellipse cx="478.3" cy="971" fill="#ADD1B2" rx="11" ry="11" style="stroke: #A80036; stroke-width: 1.0;"/><path d="M481.0656,966.875 Q481.2219,966.6563 481.4094,966.5469 Q481.5969,966.4375 481.8156,966.4375 Q482.1906,966.4375 482.425,966.6953 Q482.6594,966.9531 482.6594,967.5625 L482.6594,969.0156 Q482.6594,969.625 482.425,969.8906 Q482.1906,970.1563 481.8156,970.1563 Q481.4719,970.1563 481.2688,969.9531 Q481.0656,969.7656 480.9563,969.25 Q480.9094,968.8906 480.7219,968.7031 Q480.3938,968.3281 479.7844,968.1094 Q479.175,967.8906 478.55,967.8906 Q477.7844,967.8906 477.1516,968.2188 Q476.5188,968.5469 476.0266,969.2969 Q475.5344,970.0469 475.5344,971.0781 L475.5344,972.1719 Q475.5344,973.4063 476.425,974.2266 Q477.3156,975.0469 478.9094,975.0469 Q479.8469,975.0469 480.5031,974.7969 Q480.8938,974.6406 481.3156,974.2031 Q481.5813,973.9375 481.7297,973.8594 Q481.8781,973.7813 482.0813,973.7813 Q482.4094,973.7813 482.6672,974.0391 Q482.925,974.2969 482.925,974.6406 Q482.925,974.9844 482.5813,975.3906 Q482.0813,975.9688 481.2844,976.2969 Q480.2063,976.75 478.9094,976.75 Q477.3938,976.75 476.1906,976.125 Q475.2063,975.625 474.5188,974.5547 Q473.8313,973.4844 473.8313,972.2031 L473.8313,971.0469 Q473.8313,969.7188 474.4484,968.5703 Q475.0656,967.4219 476.1594,966.8047 Q477.2531,966.1875 478.4875,966.1875 Q479.2219,966.1875 479.8703,966.3516 Q480.5188,966.5156 481.0656,966.875 Z "/><text fill="#000000" font-family="sans-serif" font-size="12" lengthAdjust="spacingAndGlyphs" textLength="47" x="494.7" y="975.9102">TypeImg</text><line style="stroke: #A80036; stroke-width: 1.5;" x1="453.5" x2="554.5" y1="987" y2="987"/><line style="stroke: #A80036; stroke-width: 1.5;" x1="453.5" x2="554.5" y1="995" y2="995"/><ellipse cx="463.5" cy="1007.418" fill="#84BE84" rx="3" ry="3" style="stroke: #038048; stroke-width: 1.0;"/><text fill="#000000" font-family="sans-serif" font-size="11" lengthAdjust="spacingAndGlyphs" textLength="77" x="472.5" y="1010.4189">addElem() : void</text><!--class TypeVid--><rect fill="#FEFECE" filter="url(#fmptnl3unrarq)" height="61.8359" id="TypeVid" style="stroke: #A80036; stroke-width: 1.5;" width="103" x="38.5" y="955"/><ellipse cx="66.1" cy="971" fill="#ADD1B2" rx="11" ry="11" style="stroke: #A80036; stroke-width: 1.0;"/><path d="M68.8656,966.875 Q69.0219,966.6563 69.2094,966.5469 Q69.3969,966.4375 69.6156,966.4375 Q69.9906,966.4375 70.225,966.6953 Q70.4594,966.9531 70.4594,967.5625 L70.4594,969.0156 Q70.4594,969.625 70.225,969.8906 Q69.9906,970.1563 69.6156,970.1563 Q69.2719,970.1563 69.0688,969.9531 Q68.8656,969.7656 68.7563,969.25 Q68.7094,968.8906 68.5219,968.7031 Q68.1938,968.3281 67.5844,968.1094 Q66.975,967.8906 66.35,967.8906 Q65.5844,967.8906 64.9516,968.2188 Q64.3188,968.5469 63.8266,969.2969 Q63.3344,970.0469 63.3344,971.0781 L63.3344,972.1719 Q63.3344,973.4063 64.225,974.2266 Q65.1156,975.0469 66.7094,975.0469 Q67.6469,975.0469 68.3031,974.7969 Q68.6938,974.6406 69.1156,974.2031 Q69.3813,973.9375 69.5297,973.8594 Q69.6781,973.7813 69.8813,973.7813 Q70.2094,973.7813 70.4672,974.0391 Q70.725,974.2969 70.725,974.6406 Q70.725,974.9844 70.3813,975.3906 Q69.8813,975.9688 69.0844,976.2969 Q68.0063,976.75 66.7094,976.75 Q65.1938,976.75 63.9906,976.125 Q63.0062,975.625 62.3187,974.5547 Q61.6312,973.4844 61.6312,972.2031 L61.6312,971.0469 Q61.6312,969.7188 62.2484,968.5703 Q62.8656,967.4219 63.9594,966.8047 Q65.0531,966.1875 66.2875,966.1875 Q67.0219,966.1875 67.6703,966.3516 Q68.3188,966.5156 68.8656,966.875 Z "/><text fill="#000000" font-family="sans-serif" font-size="12" lengthAdjust="spacingAndGlyphs" textLength="43" x="82.9" y="975.9102">TypeVid</text><line style="stroke: #A80036; stroke-width: 1.5;" x1="39.5" x2="140.5" y1="987" y2="987"/><line style="stroke: #A80036; stroke-width: 1.5;" x1="39.5" x2="140.5" y1="995" y2="995"/><ellipse cx="49.5" cy="1007.418" fill="#84BE84" rx="3" ry="3" style="stroke: #038048; stroke-width: 1.0;"/><text fill="#000000" font-family="sans-serif" font-size="11" lengthAdjust="spacingAndGlyphs" textLength="77" x="58.5" y="1010.4189">addElem() : void</text><!--class BienImmo--><rect fill="#FEFECE" filter="url(#fmptnl3unrarq)" height="131.0156" id="BienImmo" style="stroke: #A80036; stroke-width: 1.5;" width="107" x="1302.5" y="380"/><ellipse cx="1325.15" cy="396" fill="#A9DCDF" rx="11" ry="11" style="stroke: #A80036; stroke-width: 1.0;"/><path d="M1327.3375,397.7656 L1323.1969,397.7656 L1322.775,398.7969 L1323.1969,398.7969 Q1323.8063,398.7969 1324.0719,399.0313 Q1324.3375,399.2656 1324.3375,399.6563 Q1324.3375,400.0313 1324.0719,400.2656 Q1323.8063,400.5 1323.1969,400.5 L1320.9,400.5 Q1320.2906,400.5 1320.0328,400.2656 Q1319.775,400.0313 1319.775,399.6406 Q1319.775,399.2656 1320.0484,399.0234 Q1320.3219,398.7813 1320.9469,398.7969 L1323.6188,392.1406 L1322.5094,392.1406 Q1321.9,392.1406 1321.6344,391.9063 Q1321.3688,391.6719 1321.3688,391.2813 Q1321.3688,390.9063 1321.6344,390.6719 Q1321.9,390.4375 1322.5094,390.4375 L1326.1813,390.4375 L1329.5719,398.7969 Q1330.1656,398.7969 1330.3531,398.9375 Q1330.7438,399.2031 1330.7438,399.6563 Q1330.7438,400.0313 1330.4859,400.2656 Q1330.2281,400.5 1329.6188,400.5 L1327.3219,400.5 Q1326.7125,400.5 1326.4469,400.2656 Q1326.1813,400.0313 1326.1813,399.6406 Q1326.1813,399.2656 1326.4469,399.0313 Q1326.7125,398.7969 1327.3219,398.7969 L1327.7438,398.7969 L1327.3375,397.7656 Z M1326.6188,396.0625 L1325.2594,392.6875 L1323.8844,396.0625 L1326.6188,396.0625 Z "/><text fill="#000000" font-family="sans-serif" font-size="12" font-style="italic" lengthAdjust="spacingAndGlyphs" textLength="58" x="1340.85" y="400.9102">BienImmo</text><line style="stroke: #A80036; stroke-width: 1.5;" x1="1303.5" x2="1408.5" y1="412" y2="412"/><ellipse cx="1313.5" cy="424.418" fill="none" rx="3" ry="3" style="stroke: #038048; stroke-width: 1.0;"/><text fill="#000000" font-family="sans-serif" font-size="11" lengthAdjust="spacingAndGlyphs" textLength="34" x="1322.5" y="427.4189">Int num</text><ellipse cx="1313.5" cy="438.2539" fill="none" rx="3" ry="3" style="stroke: #038048; stroke-width: 1.0;"/><text fill="#000000" font-family="sans-serif" font-size="11" lengthAdjust="spacingAndGlyphs" textLength="71" x="1322.5" y="441.2549">String adresse</text><ellipse cx="1313.5" cy="452.0898" fill="none" rx="3" ry="3" style="stroke: #038048; stroke-width: 1.0;"/><text fill="#000000" font-family="sans-serif" font-size="11" lengthAdjust="spacingAndGlyphs" textLength="81" x="1322.5" y="455.0908">String orientation</text><ellipse cx="1313.5" cy="465.9258" fill="none" rx="3" ry="3" style="stroke: #038048; stroke-width: 1.0;"/><text fill="#000000" font-family="sans-serif" font-size="11" lengthAdjust="spacingAndGlyphs" textLength="54" x="1322.5" y="468.9268">Double prix</text><ellipse cx="1313.5" cy="479.7617" fill="none" rx="3" ry="3" style="stroke: #038048; stroke-width: 1.0;"/><text fill="#000000" font-family="sans-serif" font-size="11" lengthAdjust="spacingAndGlyphs" textLength="52" x="1322.5" y="482.7627">Date vente</text><ellipse cx="1313.5" cy="493.5977" fill="none" rx="3" ry="3" style="stroke: #038048; stroke-width: 1.0;"/><text fill="#000000" font-family="sans-serif" font-size="11" lengthAdjust="spacingAndGlyphs" textLength="57" x="1322.5" y="496.5986">Date[] dispo</text><line style="stroke: #A80036; stroke-width: 1.5;" x1="1303.5" x2="1408.5" y1="503.0156" y2="503.0156"/><!--class Terrain--><rect fill="#FEFECE" filter="url(#fmptnl3unrarq)" height="75.6719" id="Terrain" style="stroke: #A80036; stroke-width: 1.5;" width="140" x="1198" y="612.5"/><ellipse cx="1244.25" cy="628.5" fill="#ADD1B2" rx="11" ry="11" style="stroke: #A80036; stroke-width: 1.0;"/><path d="M1247.0156,624.375 Q1247.1719,624.1563 1247.3594,624.0469 Q1247.5469,623.9375 1247.7656,623.9375 Q1248.1406,623.9375 1248.375,624.1953 Q1248.6094,624.4531 1248.6094,625.0625 L1248.6094,626.5156 Q1248.6094,627.125 1248.375,627.3906 Q1248.1406,627.6563 1247.7656,627.6563 Q1247.4219,627.6563 1247.2188,627.4531 Q1247.0156,627.2656 1246.9063,626.75 Q1246.8594,626.3906 1246.6719,626.2031 Q1246.3438,625.8281 1245.7344,625.6094 Q1245.125,625.3906 1244.5,625.3906 Q1243.7344,625.3906 1243.1016,625.7188 Q1242.4688,626.0469 1241.9766,626.7969 Q1241.4844,627.5469 1241.4844,628.5781 L1241.4844,629.6719 Q1241.4844,630.9063 1242.375,631.7266 Q1243.2656,632.5469 1244.8594,632.5469 Q1245.7969,632.5469 1246.4531,632.2969 Q1246.8438,632.1406 1247.2656,631.7031 Q1247.5313,631.4375 1247.6797,631.3594 Q1247.8281,631.2813 1248.0313,631.2813 Q1248.3594,631.2813 1248.6172,631.5391 Q1248.875,631.7969 1248.875,632.1406 Q1248.875,632.4844 1248.5313,632.8906 Q1248.0313,633.4688 1247.2344,633.7969 Q1246.1563,634.25 1244.8594,634.25 Q1243.3438,634.25 1242.1406,633.625 Q1241.1563,633.125 1240.4688,632.0547 Q1239.7813,630.9844 1239.7813,629.7031 L1239.7813,628.5469 Q1239.7813,627.2188 1240.3984,626.0703 Q1241.0156,624.9219 1242.1094,624.3047 Q1243.2031,623.6875 1244.4375,623.6875 Q1245.1719,623.6875 1245.8203,623.8516 Q1246.4688,624.0156 1247.0156,624.375 Z "/><text fill="#000000" font-family="sans-serif" font-size="12" lengthAdjust="spacingAndGlyphs" textLength="39" x="1264.75" y="633.4102">Terrain</text><line style="stroke: #A80036; stroke-width: 1.5;" x1="1199" x2="1337" y1="644.5" y2="644.5"/><ellipse cx="1209" cy="656.918" fill="none" rx="3" ry="3" style="stroke: #038048; stroke-width: 1.0;"/><text fill="#000000" font-family="sans-serif" font-size="11" lengthAdjust="spacingAndGlyphs" textLength="89" x="1218" y="659.9189">Double surfaceSol</text><ellipse cx="1209" cy="670.7539" fill="none" rx="3" ry="3" style="stroke: #038048; stroke-width: 1.0;"/><text fill="#000000" font-family="sans-serif" font-size="11" lengthAdjust="spacingAndGlyphs" textLength="114" x="1218" y="673.7549">Double longueurFacade</text><line style="stroke: #A80036; stroke-width: 1.5;" x1="1199" x2="1337" y1="680.1719" y2="680.1719"/><!--class Maison--><rect fill="#FEFECE" filter="url(#fmptnl3unrarq)" height="103.3438" id="Maison" style="stroke: #A80036; stroke-width: 1.5;" width="144" x="1373" y="599"/><ellipse cx="1420.75" cy="615" fill="#ADD1B2" rx="11" ry="11" style="stroke: #A80036; stroke-width: 1.0;"/><path d="M1423.5156,610.875 Q1423.6719,610.6563 1423.8594,610.5469 Q1424.0469,610.4375 1424.2656,610.4375 Q1424.6406,610.4375 1424.875,610.6953 Q1425.1094,610.9531 1425.1094,611.5625 L1425.1094,613.0156 Q1425.1094,613.625 1424.875,613.8906 Q1424.6406,614.1563 1424.2656,614.1563 Q1423.9219,614.1563 1423.7188,613.9531 Q1423.5156,613.7656 1423.4063,613.25 Q1423.3594,612.8906 1423.1719,612.7031 Q1422.8438,612.3281 1422.2344,612.1094 Q1421.625,611.8906 1421,611.8906 Q1420.2344,611.8906 1419.6016,612.2188 Q1418.9688,612.5469 1418.4766,613.2969 Q1417.9844,614.0469 1417.9844,615.0781 L1417.9844,616.1719 Q1417.9844,617.4063 1418.875,618.2266 Q1419.7656,619.0469 1421.3594,619.0469 Q1422.2969,619.0469 1422.9531,618.7969 Q1423.3438,618.6406 1423.7656,618.2031 Q1424.0313,617.9375 1424.1797,617.8594 Q1424.3281,617.7813 1424.5313,617.7813 Q1424.8594,617.7813 1425.1172,618.0391 Q1425.375,618.2969 1425.375,618.6406 Q1425.375,618.9844 1425.0313,619.3906 Q1424.5313,619.9688 1423.7344,620.2969 Q1422.6563,620.75 1421.3594,620.75 Q1419.8438,620.75 1418.6406,620.125 Q1417.6563,619.625 1416.9688,618.5547 Q1416.2813,617.4844 1416.2813,616.2031 L1416.2813,615.0469 Q1416.2813,613.7188 1416.8984,612.5703 Q1417.5156,611.4219 1418.6094,610.8047 Q1419.7031,610.1875 1420.9375,610.1875 Q1421.6719,610.1875 1422.3203,610.3516 Q1422.9688,610.5156 1423.5156,610.875 Z "/><text fill="#000000" font-family="sans-serif" font-size="12" lengthAdjust="spacingAndGlyphs" textLength="40" x="1441.25" y="619.9102">Maison</text><line style="stroke: #A80036; stroke-width: 1.5;" x1="1374" x2="1516" y1="631" y2="631"/><ellipse cx="1384" cy="643.418" fill="none" rx="3" ry="3" style="stroke: #038048; stroke-width: 1.0;"/><text fill="#000000" font-family="sans-serif" font-size="11" lengthAdjust="spacingAndGlyphs" textLength="118" x="1393" y="646.4189">Double surfaceHabitable</text><ellipse cx="1384" cy="657.2539" fill="none" rx="3" ry="3" style="stroke: #038048; stroke-width: 1.0;"/><text fill="#000000" font-family="sans-serif" font-size="11" lengthAdjust="spacingAndGlyphs" textLength="58" x="1393" y="660.2549">Int nbPieces</text><ellipse cx="1384" cy="671.0898" fill="none" rx="3" ry="3" style="stroke: #038048; stroke-width: 1.0;"/><text fill="#000000" font-family="sans-serif" font-size="11" lengthAdjust="spacingAndGlyphs" textLength="59" x="1393" y="674.0908">Int nbEtages</text><ellipse cx="1384" cy="684.9258" fill="none" rx="3" ry="3" style="stroke: #038048; stroke-width: 1.0;"/><text fill="#000000" font-family="sans-serif" font-size="11" lengthAdjust="spacingAndGlyphs" textLength="81" x="1393" y="687.9268">String chauffage</text><line style="stroke: #A80036; stroke-width: 1.5;" x1="1374" x2="1516" y1="694.3438" y2="694.3438"/><!--class Appartement--><rect fill="#FEFECE" filter="url(#fmptnl3unrarq)" height="89.5078" id="Appartement" style="stroke: #A80036; stroke-width: 1.5;" width="156" x="1552" y="605.5"/><ellipse cx="1591.3" cy="621.5" fill="#ADD1B2" rx="11" ry="11" style="stroke: #A80036; stroke-width: 1.0;"/><path d="M1594.0656,617.375 Q1594.2219,617.1563 1594.4094,617.0469 Q1594.5969,616.9375 1594.8156,616.9375 Q1595.1906,616.9375 1595.425,617.1953 Q1595.6594,617.4531 1595.6594,618.0625 L1595.6594,619.5156 Q1595.6594,620.125 1595.425,620.3906 Q1595.1906,620.6563 1594.8156,620.6563 Q1594.4719,620.6563 1594.2688,620.4531 Q1594.0656,620.2656 1593.9563,619.75 Q1593.9094,619.3906 1593.7219,619.2031 Q1593.3938,618.8281 1592.7844,618.6094 Q1592.175,618.3906 1591.55,618.3906 Q1590.7844,618.3906 1590.1516,618.7188 Q1589.5188,619.0469 1589.0266,619.7969 Q1588.5344,620.5469 1588.5344,621.5781 L1588.5344,622.6719 Q1588.5344,623.9063 1589.425,624.7266 Q1590.3156,625.5469 1591.9094,625.5469 Q1592.8469,625.5469 1593.5031,625.2969 Q1593.8938,625.1406 1594.3156,624.7031 Q1594.5813,624.4375 1594.7297,624.3594 Q1594.8781,624.2813 1595.0813,624.2813 Q1595.4094,624.2813 1595.6672,624.5391 Q1595.925,624.7969 1595.925,625.1406 Q1595.925,625.4844 1595.5813,625.8906 Q1595.0813,626.4688 1594.2844,626.7969 Q1593.2063,627.25 1591.9094,627.25 Q1590.3938,627.25 1589.1906,626.625 Q1588.2063,626.125 1587.5188,625.0547 Q1586.8313,623.9844 1586.8313,622.7031 L1586.8313,621.5469 Q1586.8313,620.2188 1587.4484,619.0703 Q1588.0656,617.9219 1589.1594,617.3047 Q1590.2531,616.6875 1591.4875,616.6875 Q1592.2219,616.6875 1592.8703,616.8516 Q1593.5188,617.0156 1594.0656,617.375 Z "/><text fill="#000000" font-family="sans-serif" font-size="12" lengthAdjust="spacingAndGlyphs" textLength="70" x="1610.7" y="626.4102">Appartement</text><line style="stroke: #A80036; stroke-width: 1.5;" x1="1553" x2="1707" y1="637.5" y2="637.5"/><ellipse cx="1563" cy="649.918" fill="none" rx="3" ry="3" style="stroke: #038048; stroke-width: 1.0;"/><text fill="#000000" font-family="sans-serif" font-size="11" lengthAdjust="spacingAndGlyphs" textLength="58" x="1572" y="652.9189">Int nbPieces</text><ellipse cx="1563" cy="663.7539" fill="none" rx="3" ry="3" style="stroke: #038048; stroke-width: 1.0;"/><text fill="#000000" font-family="sans-serif" font-size="11" lengthAdjust="spacingAndGlyphs" textLength="41" x="1572" y="666.7549">Int etage</text><ellipse cx="1563" cy="677.5898" fill="none" rx="3" ry="3" style="stroke: #038048; stroke-width: 1.0;"/><text fill="#000000" font-family="sans-serif" font-size="11" lengthAdjust="spacingAndGlyphs" textLength="130" x="1572" y="680.5908">Double chargesMensuelles</text><line style="stroke: #A80036; stroke-width: 1.5;" x1="1553" x2="1707" y1="687.0078" y2="687.0078"/><!--link Personne to Entreprise--><path d="M871,908.483 C871,922.027 871,935.695 871,947.657 " fill="none" id="Personne-Entreprise" style="stroke: #A80036; stroke-width: 1.0;"/><polygon fill="none" points="864,908.261,871,888.261,878,908.261,864,908.261" style="stroke: #A80036; stroke-width: 1.0;"/><!--link Agence to Personne--><path d="M810.055,532.166 C819.74,545.899 828.491,560.539 835,575.5 C864.725,643.82 871.166,730.926 871.939,784.954 " fill="none" id="Agence-Personne" style="stroke: #A80036; stroke-width: 1.0;"/><text fill="#000000" font-family="sans-serif" font-size="13" lengthAdjust="spacingAndGlyphs" textLength="7" x="808.9162" y="552.9407">1</text><text fill="#000000" font-family="sans-serif" font-size="13" lengthAdjust="spacingAndGlyphs" textLength="5" x="866.7195" y="774.076">*</text><!--link Mandat to Agence--><path d="M920.3,445.5 C896.255,445.5 872.211,445.5 848.166,445.5 " fill="none" id="Mandat-Agence" style="stroke: #A80036; stroke-width: 1.0;"/><text fill="#000000" font-family="sans-serif" font-size="13" lengthAdjust="spacingAndGlyphs" textLength="5" x="907.3406" y="442.4387">*</text><text fill="#000000" font-family="sans-serif" font-size="13" lengthAdjust="spacingAndGlyphs" textLength="7" x="855.9602" y="442.5091">1</text><!--link Agence to Envie--><path d="M742.636,532.002 C745.614,552.156 748.72,573.174 751.468,591.768 " fill="none" id="Agence-Envie" style="stroke: #A80036; stroke-width: 1.0;"/><text fill="#000000" font-family="sans-serif" font-size="13" lengthAdjust="spacingAndGlyphs" textLength="7" x="736.364" y="553.0607">1</text><text fill="#000000" font-family="sans-serif" font-size="13" lengthAdjust="spacingAndGlyphs" textLength="5" x="745.1235" y="581.1406">*</text><!--link Envie to Personne--><path d="M797.409,713.511 C811.406,736.714 827.127,762.773 840.434,784.831 " fill="none" id="Envie-Personne" style="stroke: #A80036; stroke-width: 1.0;"/><polygon fill="#A80036" points="794.817,709.214,796.041,718.9865,797.3998,713.4953,802.891,714.8541,794.817,709.214" style="stroke: #A80036; stroke-width: 1.0;"/><!--link Mandat to Personne--><path d="M1005.173,509.291 C973.641,585.954 920.932,714.104 891.85,784.808 " fill="none" id="Mandat-Personne" style="stroke: #A80036; stroke-width: 1.0;"/><polygon fill="#A80036" points="1007.22,504.317,1000.1009,511.1227,1005.3206,508.9422,1007.5011,514.1618,1007.22,504.317" style="stroke: #A80036; stroke-width: 1.0;"/><!--link Promesse to Agence--><path d="M840.282,299.129 C826.232,317.649 810.351,338.583 795.108,358.676 " fill="none" id="Promesse-Agence" style="stroke: #A80036; stroke-width: 1.0;"/><text fill="#000000" font-family="sans-serif" font-size="13" lengthAdjust="spacingAndGlyphs" textLength="5" x="829.6492" y="320.755">*</text><text fill="#000000" font-family="sans-serif" font-size="13" lengthAdjust="spacingAndGlyphs" textLength="7" x="793.4024" y="348.0578">1</text><!--link Promesse to Mandat--><path d="M928.786,303.347 C947.99,329.867 970.298,360.674 989.165,386.727 " fill="none" id="Promesse-Mandat" style="stroke: #A80036; stroke-width: 1.0;"/><polygon fill="#A80036" points="925.731,299.129,927.77,308.7645,928.6636,303.1787,934.2494,304.0723,925.731,299.129" style="stroke: #A80036; stroke-width: 1.0;"/><!--link Promesse to Envie--><path d="M891.358,304.182 C895.894,364.898 895.909,458.337 865,532 C854.415,557.227 836.077,580.674 817.66,599.883 " fill="none" id="Promesse-Envie" style="stroke: #A80036; stroke-width: 1.0;"/><polygon fill="#A80036" points="890.965,299.14,887.6766,308.4237,891.3536,304.1249,895.6524,307.8019,890.965,299.14" style="stroke: #A80036; stroke-width: 1.0;"/><!--link Notaire to Promesse--><path d="M884,122.205 C884,137.921 884,157.748 884,176.606 " fill="none" id="Notaire-Promesse" style="stroke: #A80036; stroke-width: 1.0;"/><polygon fill="#A80036" points="884,181.895,888,172.895,884,176.895,880,172.895,884,181.895" style="stroke: #A80036; stroke-width: 1.0;"/><!--link Agence to AnnoncePub--><path d="M611.794,527.023 C564.02,559.567 511.828,595.12 476.045,619.496 " fill="none" id="Agence-AnnoncePub" style="stroke: #A80036; stroke-width: 1.0;"/><text fill="#000000" font-family="sans-serif" font-size="13" lengthAdjust="spacingAndGlyphs" textLength="7" x="596.9972" y="529.2547">1</text><text fill="#000000" font-family="sans-serif" font-size="13" lengthAdjust="spacingAndGlyphs" textLength="5" x="480.133" y="608.5154">*</text><!--link AnnoncePub to TypePub--><path d="M419.328,686.827 C406.996,721.208 388.459,772.888 376.805,805.377 " fill="none" id="AnnoncePub-TypePub" style="stroke: #A80036; stroke-width: 1.0;"/><polygon fill="#A80036" points="421.101,681.884,414.2963,689.0041,419.4123,686.5902,421.8262,691.7061,421.101,681.884" style="stroke: #A80036; stroke-width: 1.0;"/><!--link TypePub to TypeTexte--><path d="M324.043,882.345 C302.069,905.832 275.748,933.965 256.222,954.836 " fill="none" id="TypePub-TypeTexte" style="stroke: #A80036; stroke-width: 1.0;"/><polygon fill="none" points="318.965,877.527,337.741,867.705,329.188,887.092,318.965,877.527" style="stroke: #A80036; stroke-width: 1.0;"/><!--link TypePub to TypeHtml--><path d="M366,887.789 C366,910.077 366,935.555 366,954.836 " fill="none" id="TypePub-TypeHtml" style="stroke: #A80036; stroke-width: 1.0;"/><polygon fill="none" points="359,887.705,366,867.705,373,887.705,359,887.705" style="stroke: #A80036; stroke-width: 1.0;"/><!--link TypePub to TypeImg--><path d="M407.957,882.345 C429.931,905.832 456.252,933.965 475.778,954.836 " fill="none" id="TypePub-TypeImg" style="stroke: #A80036; stroke-width: 1.0;"/><polygon fill="none" points="402.812,887.092,394.259,867.705,413.035,877.527,402.812,887.092" style="stroke: #A80036; stroke-width: 1.0;"/><!--link TypePub to TypeVid--><path d="M296.217,874.71 C256.072,896.126 204.686,923.557 159,948 C153.367,951.014 147.477,954.168 141.613,957.3098 " fill="none" id="TypePub-TypeVid" style="stroke: #A80036; stroke-width: 1.0;"/><polygon fill="none" points="293.152,868.411,314.093,865.174,299.741,880.763,293.152,868.411" style="stroke: #A80036; stroke-width: 1.0;"/><!--link Mandat to BienImmo--><path d="M1146.79,445.5 C1198.67,445.5 1250.56,445.5 1302.44,445.5 " fill="none" id="Mandat-BienImmo" style="stroke: #A80036; stroke-width: 1.0;"/><polygon fill="#A80036" points="1141.77,445.5,1150.77,449.5,1146.77,445.5,1150.77,441.5,1141.77,445.5" style="stroke: #A80036; stroke-width: 1.0;"/><!--link BienImmo to Terrain--><path d="M1320.01,529.532 C1307.52,558.324 1294.15,589.167 1284.1,612.37 " fill="none" id="BienImmo-Terrain" style="stroke: #A80036; stroke-width: 1.0;"/><polygon fill="none" points="1313.66,526.575,1328.04,511.009,1326.5,532.144,1313.66,526.575" style="stroke: #A80036; stroke-width: 1.0;"/><!--link BienImmo to Maison--><path d="M1392.39,529.507 C1402.72,553.066 1413.65,578 1422.86,599 " fill="none" id="BienImmo-Maison" style="stroke: #A80036; stroke-width: 1.0;"/><polygon fill="none" points="1385.9,532.137,1384.28,511.009,1398.72,526.516,1385.9,532.137" style="stroke: #A80036; stroke-width: 1.0;"/><!--link BienImmo to Appartement--><path d="M1426.31,496.251 C1459.49,519.962 1499.5,548.896 1535,575.5 C1547.71,585.028 1561.25,595.421 1574,605.326 " fill="none" id="BienImmo-Appartement" style="stroke: #A80036; stroke-width: 1.0;"/><polygon fill="none" points="1421.86,501.678,1409.64,484.367,1429.99,490.278,1421.86,501.678" style="stroke: #A80036; stroke-width: 1.0;"/><!--
@startuml

package user {

  class Personne {
    +String nom
    +String adresse
    +Int telephone
    +String email
  }

  class Entreprise {
    +String formeJuridique
    +Int numSiren
  }

  Entreprise -up-|> Personne

}

package agence {

  class Agence {
    +String nom
    +HashSet<Date, Personne> listeRdvVendeur
    +CreerMandat(Personne, Mandat) : void
    +CreerEnvie(Personne, Envie) : void
    +Contacter(Envie, Mandat) : void
    +PriseRdvVendeur(Personne, Date) : void
    +OrganiserVisite(Envie, Mandat, Date) : void
    +OrganiserVente(Envie, Mandat, Date) : void
    +SignerPromesse(Promesse) : void
  }

  Personne "*"-up-"1" Agence

  class Envie {
    +String type
    +Double prix
    +String localisation
    +Double surfaceSol
    +Int nbPieces
  }

  class Mandat {
    +HashSet<Date, Personne> listeRdvVisite
    +Int prix
    +Date vente
    +Date debut
    +Date fin
  }

  Agence "1"-left-"*" Mandat
  Agence "1"- -"*" Envie

  Envie <- - Personne
  Mandat <- - Personne

  class Promesse {
    +Double prixVerseVendeur
    +String adresseNotaire
    +Date vente
    +Double commissionAgence
    +Double fraisVente
  }

  Agence "1"-up-"*" Promesse
  Mandat -up-> Promesse
  Envie -up-> Promesse

  class Notaire {
    +VerserArgent()
  }

  Notaire -down-> Promesse

}

package pub {

  class AnnoncePub {
    +TypePub[] listePub
  }

  Agence "1"-down-"*" AnnoncePub

  abstract class TypePub {
    +addElem() : void
  }

  TypePub -up-> AnnoncePub

  class TypeTexte {
    +addElem() : void
  }

  class TypeHtml {
    +addElem() : void
  }

  class TypeImg {
    +addElem() : void
  }

  class TypeVid {
    +addElem() : void
  }

  TypeTexte -up-|> TypePub
  TypeHtml -up-|> TypePub
  TypeImg -up-|> TypePub
  TypeVid -up-|> TypePub

}

package immo {

  abstract class BienImmo {
    +Int num
    +String adresse
    +String orientation
    +Double prix
    +Date vente
    +Date[] dispo
  }

  class Terrain {
    +Double surfaceSol
    +Double longueurFacade
  }

  class Maison {
    +Double surfaceHabitable
    +Int nbPieces
    +Int nbEtages
    +String chauffage
  }

  class Appartement {
    +Int nbPieces
    +Int etage
    +Double chargesMensuelles
  }

  BienImmo -left-> Mandat

  Terrain -up-|> BienImmo
  Maison -up-|> BienImmo
  Appartement -up-|> BienImmo

}

@enduml

PlantUML version 1.2017.18(Fri Oct 06 18:56:32 CEST 2017)
(GPL source distribution)
Java Runtime: Java(TM) SE Runtime Environment
JVM: Java HotSpot(TM) 64-Bit Server VM
Java Version: 9.0.1+11
Operating System: Windows 10
OS Version: 10.0
Default Encoding: Cp1252
Language: fr
Country: FR
--></g></svg>