<?xml version="1.0" encoding="UTF-8" standalone="no"?><svg xmlns="http://www.w3.org/2000/svg" xmlns:xlink="http://www.w3.org/1999/xlink" contentScriptType="application/ecmascript" contentStyleType="text/css" height="288px" preserveAspectRatio="none" style="width:255px;height:288px;" version="1.1" viewBox="0 0 255 288"
    width="255px" zoomAndPan="magnify"><defs><filter height="300%" id="fycbxe684062m" width="300%" x="-1" y="-1"><feGaussianBlur result="blurOut" stdDeviation="2.0"/><feColorMatrix in="blurOut" result="blurOut2" type="matrix" values="0 0 0 0 0 0 0 0 0 0 0 0 0 0 0 0 0 0 .4 0"/><feOffset dx="4.0" dy="4.0" in="blurOut2" result="blurOut3"/><feBlend in="SourceGraphic" in2="blurOut3" mode="normal"/></filter></defs><g><text fill="#000000" font-family="sans-serif" font-size="14" font-weight="bold" lengthAdjust="spacingAndGlyphs" textLength="231" x="12" y="24.5332">"Messages - Sequence Diagram"</text><line style="stroke: #A80036; stroke-width: 1.0; stroke-dasharray: 5.0,5.0;" x1="32" x2="32" y1="119.2188" y2="199.9219"/><line style="stroke: #A80036; stroke-width: 1.0; stroke-dasharray: 5.0,5.0;" x1="88" x2="88" y1="119.2188" y2="199.9219"/><line style="stroke: #A80036; stroke-width: 1.0; stroke-dasharray: 5.0,5.0;" x1="147" x2="147" y1="119.2188" y2="199.9219"/><line style="stroke: #A80036; stroke-width: 1.0; stroke-dasharray: 5.0,5.0;" x1="209" x2="209" y1="119.2188" y2="199.9219"/><text fill="#000000" font-family="sans-serif" font-size="14" lengthAdjust="spacingAndGlyphs" textLength="29" x="15" y="116.1426">User</text><ellipse cx="32.5" cy="44.6094" fill="#FEFECE" filter="url(#fycbxe684062m)" rx="8" ry="8" style="stroke: #A80036; stroke-width: 2.0;"/><path d="M32.5,52.6094 L32.5,79.6094 M19.5,60.6094 L45.5,60.6094 M32.5,79.6094 L19.5,94.6094 M32.5,79.6094 L45.5,94.6094 " fill="#FEFECE" filter="url(#fycbxe684062m)" style="stroke: #A80036; stroke-width: 2.0;"/><text fill="#000000" font-family="sans-serif" font-size="14" lengthAdjust="spacingAndGlyphs" textLength="29" x="15" y="213.4551">User</text><ellipse cx="32.5" cy="226.5313" fill="#FEFECE" filter="url(#fycbxe684062m)" rx="8" ry="8" style="stroke: #A80036; stroke-width: 2.0;"/><path d="M32.5,234.5313 L32.5,261.5313 M19.5,242.5313 L45.5,242.5313 M32.5,261.5313 L19.5,276.5313 M32.5,261.5313 L45.5,276.5313 " fill="#FEFECE" filter="url(#fycbxe684062m)" style="stroke: #A80036; stroke-width: 2.0;"/><text fill="#000000" font-family="sans-serif" font-size="14" lengthAdjust="spacingAndGlyphs" textLength="51" x="60" y="116.1426">Widgets</text><path d="M70.5,65.6094 C70.5,55.6094 88.5,55.6094 88.5,55.6094 C88.5,55.6094 106.5,55.6094 106.5,65.6094 L106.5,91.6094 C106.5,101.6094 88.5,101.6094 88.5,101.6094 C88.5,101.6094 70.5,101.6094 70.5,91.6094 L70.5,65.6094 " fill="#FEFECE" filter="url(#fycbxe684062m)" style="stroke: #000000; stroke-width: 1.5;"/><path d="M70.5,65.6094 C70.5,75.6094 88.5,75.6094 88.5,75.6094 C88.5,75.6094 106.5,75.6094 106.5,65.6094 " fill="none" style="stroke: #000000; stroke-width: 1.5;"/><text fill="#000000" font-family="sans-serif" font-size="14" lengthAdjust="spacingAndGlyphs" textLength="51" x="60" y="213.4551">Widgets</text><path d="M70.5,226.5313 C70.5,216.5313 88.5,216.5313 88.5,216.5313 C88.5,216.5313 106.5,216.5313 106.5,226.5313 L106.5,252.5313 C106.5,262.5313 88.5,262.5313 88.5,262.5313 C88.5,262.5313 70.5,262.5313 70.5,252.5313 L70.5,226.5313 " fill="#FEFECE" filter="url(#fycbxe684062m)" style="stroke: #000000; stroke-width: 1.5;"/><path d="M70.5,226.5313 C70.5,236.5313 88.5,236.5313 88.5,236.5313 C88.5,236.5313 106.5,236.5313 106.5,226.5313 " fill="none" style="stroke: #000000; stroke-width: 1.5;"/><rect fill="#FEFECE" filter="url(#fycbxe684062m)" height="31.6094" style="stroke: #A80036; stroke-width: 1.5;" width="37" x="127" y="82.6094"/><text fill="#000000" font-family="sans-serif" font-size="14" lengthAdjust="spacingAndGlyphs" textLength="23" x="134" y="104.1426">GUI</text><rect fill="#FEFECE" filter="url(#fycbxe684062m)" height="31.6094" style="stroke: #A80036; stroke-width: 1.5;" width="37" x="127" y="198.9219"/><text fill="#000000" font-family="sans-serif" font-size="14" lengthAdjust="spacingAndGlyphs" textLength="23" x="134" y="220.4551">GUI</text><rect fill="#FEFECE" filter="url(#fycbxe684062m)" height="31.6094" style="stroke: #A80036; stroke-width: 1.5;" width="58" x="178" y="82.6094"/><text fill="#000000" font-family="sans-serif" font-size="14" lengthAdjust="spacingAndGlyphs" textLength="44" x="185" y="104.1426">Widget</text><rect fill="#FEFECE" filter="url(#fycbxe684062m)" height="31.6094" style="stroke: #A80036; stroke-width: 1.5;" width="58" x="178" y="198.9219"/><text fill="#000000" font-family="sans-serif" font-size="14" lengthAdjust="spacingAndGlyphs" textLength="44" x="185" y="220.4551">Widget</text><polygon fill="#A80036" points="135.5,147.2188,145.5,151.2188,135.5,155.2188,139.5,151.2188" style="stroke: #A80036; stroke-width: 1.0;"/><line style="stroke: #A80036; stroke-width: 1.0;" x1="32.5" x2="141.5" y1="151.2188" y2="151.2188"/><text fill="#000000" font-family="sans-serif" font-size="13" lengthAdjust="spacingAndGlyphs" textLength="71" x="39.5" y="146.7139">To boundary</text><polygon fill="#A80036" points="99.5,177.5703,89.5,181.5703,99.5,185.5703,95.5,181.5703" style="stroke: #A80036; stroke-width: 1.0;"/><line style="stroke: #A80036; stroke-width: 1.0;" x1="93.5" x2="208" y1="181.5703" y2="181.5703"/><text fill="#000000" font-family="sans-serif" font-size="13" lengthAdjust="spacingAndGlyphs" textLength="71" x="105.5" y="177.0654">To database</text><!--
@startuml

title "Messages - Sequence Diagram"

actor User
database Widgets

User -> GUI : To boundary
Widget -> Widgets : To database

@enduml

PlantUML version 1.2017.18(Fri Oct 06 18:56:32 CEST 2017)
(GPL source distribution)
Java Runtime: Java(TM) SE Runtime Environment
JVM: Java HotSpot(TM) 64-Bit Server VM
Java Version: 1.8.0_131-b11
Operating System: Windows 10
OS Version: 10.0
Default Encoding: MS932
Language: fr
Country: FR
--></g></svg>