<?xml version="1.0" encoding="UTF-8" standalone="no"?><svg xmlns="http://www.w3.org/2000/svg" xmlns:xlink="http://www.w3.org/1999/xlink" contentScriptType="application/ecmascript" contentStyleType="text/css" height="1160px" preserveAspectRatio="none" style="width:1610px;height:1160px;" version="1.1" viewBox="0 0 1610 1160"
    width="1610px" zoomAndPan="magnify"><defs><filter height="300%" id="fvv1e53u89qfq" width="300%" x="-1" y="-1"><feGaussianBlur result="blurOut" stdDeviation="2.0"/><feColorMatrix in="blurOut" result="blurOut2" type="matrix" values="0 0 0 0 0 0 0 0 0 0 0 0 0 0 0 0 0 0 .4 0"/><feOffset dx="4.0" dy="4.0" in="blurOut2" result="blurOut3"/><feBlend in="SourceGraphic" in2="blurOut3" mode="normal"/></filter></defs><g><!--cluster user--><polygon fill="#FFFFFF" filter="url(#fvv1e53u89qfq)" points="442,540.5,480,540.5,487,564.1094,602,564.1094,602,932.5,442,932.5,442,540.5" style="stroke: #000000; stroke-width: 2.0;"/><line style="stroke: #000000; stroke-width: 2.0;" x1="442" x2="487" y1="564.1094" y2="564.1094"/><text fill="#000000" font-family="sans-serif" font-size="14" font-weight="bold" lengthAdjust="spacingAndGlyphs" textLength="32" x="446" y="557.0332">user</text><!--cluster agence--><polygon fill="#FFFFFF" filter="url(#fvv1e53u89qfq)" points="626,269,684,269,691,292.6094,1101,292.6094,1101,1148,626,1148,626,269" style="stroke: #000000; stroke-width: 2.0;"/><line style="stroke: #000000; stroke-width: 2.0;" x1="626" x2="691" y1="292.6094" y2="292.6094"/><text fill="#000000" font-family="sans-serif" font-size="14" font-weight="bold" lengthAdjust="spacingAndGlyphs" textLength="52" x="630" y="285.5332">agence</text><!--cluster pub--><polygon fill="#FFFFFF" filter="url(#fvv1e53u89qfq)" points="1125,310.5,1158,310.5,1165,334.1094,1588,334.1094,1588,918.5,1125,918.5,1125,310.5" style="stroke: #000000; stroke-width: 2.0;"/><line style="stroke: #000000; stroke-width: 2.0;" x1="1125" x2="1165" y1="334.1094" y2="334.1094"/><text fill="#000000" font-family="sans-serif" font-size="14" font-weight="bold" lengthAdjust="spacingAndGlyphs" textLength="27" x="1129" y="327.0332">pub</text><!--cluster immo--><polygon fill="#FFFFFF" filter="url(#fvv1e53u89qfq)" points="22,24,65,24,72,47.6094,602,47.6094,602,438,22,438,22,24" style="stroke: #000000; stroke-width: 2.0;"/><line style="stroke: #000000; stroke-width: 2.0;" x1="22" x2="72" y1="47.6094" y2="47.6094"/><text fill="#000000" font-family="sans-serif" font-size="14" font-weight="bold" lengthAdjust="spacingAndGlyphs" textLength="37" x="26" y="40.5332">immo</text><!--class Personne--><rect fill="#FEFECE" filter="url(#fvv1e53u89qfq)" height="103.3438" id="Personne" style="stroke: #A80036; stroke-width: 1.5;" width="97" x="488.5" y="576.5"/><ellipse cx="508.45" cy="592.5" fill="#ADD1B2" rx="11" ry="11" style="stroke: #A80036; stroke-width: 1.0;"/><path d="M511.2156,588.375 Q511.3719,588.1563 511.5594,588.0469 Q511.7469,587.9375 511.9656,587.9375 Q512.3406,587.9375 512.575,588.1953 Q512.8094,588.4531 512.8094,589.0625 L512.8094,590.5156 Q512.8094,591.125 512.575,591.3906 Q512.3406,591.6563 511.9656,591.6563 Q511.6219,591.6563 511.4188,591.4531 Q511.2156,591.2656 511.1063,590.75 Q511.0594,590.3906 510.8719,590.2031 Q510.5438,589.8281 509.9344,589.6094 Q509.325,589.3906 508.7,589.3906 Q507.9344,589.3906 507.3016,589.7188 Q506.6688,590.0469 506.1766,590.7969 Q505.6844,591.5469 505.6844,592.5781 L505.6844,593.6719 Q505.6844,594.9063 506.575,595.7266 Q507.4656,596.5469 509.0594,596.5469 Q509.9969,596.5469 510.6531,596.2969 Q511.0438,596.1406 511.4656,595.7031 Q511.7313,595.4375 511.8797,595.3594 Q512.0281,595.2813 512.2313,595.2813 Q512.5594,595.2813 512.8172,595.5391 Q513.075,595.7969 513.075,596.1406 Q513.075,596.4844 512.7313,596.8906 Q512.2313,597.4688 511.4344,597.7969 Q510.3563,598.25 509.0594,598.25 Q507.5438,598.25 506.3406,597.625 Q505.3563,597.125 504.6688,596.0547 Q503.9813,594.9844 503.9813,593.7031 L503.9813,592.5469 Q503.9813,591.2188 504.5984,590.0703 Q505.2156,588.9219 506.3094,588.3047 Q507.4031,587.6875 508.6375,587.6875 Q509.3719,587.6875 510.0203,587.8516 Q510.6688,588.0156 511.2156,588.375 Z "/><text fill="#000000" font-family="sans-serif" font-size="12" lengthAdjust="spacingAndGlyphs" textLength="54" x="523.55" y="597.4102">Personne</text><line style="stroke: #A80036; stroke-width: 1.5;" x1="489.5" x2="584.5" y1="608.5" y2="608.5"/><rect fill="none" height="6" style="stroke: #C82930; stroke-width: 1.0;" width="6" x="496.5" y="617.918"/><text fill="#000000" font-family="sans-serif" font-size="11" lengthAdjust="spacingAndGlyphs" textLength="51" x="508.5" y="623.9189">String nom</text><rect fill="none" height="6" style="stroke: #C82930; stroke-width: 1.0;" width="6" x="496.5" y="631.7539"/><text fill="#000000" font-family="sans-serif" font-size="11" lengthAdjust="spacingAndGlyphs" textLength="71" x="508.5" y="637.7549">String adresse</text><rect fill="none" height="6" style="stroke: #C82930; stroke-width: 1.0;" width="6" x="496.5" y="645.5898"/><text fill="#000000" font-family="sans-serif" font-size="11" lengthAdjust="spacingAndGlyphs" textLength="61" x="508.5" y="651.5908">Int telephone</text><rect fill="none" height="6" style="stroke: #C82930; stroke-width: 1.0;" width="6" x="496.5" y="659.4258"/><text fill="#000000" font-family="sans-serif" font-size="11" lengthAdjust="spacingAndGlyphs" textLength="55" x="508.5" y="665.4268">String email</text><line style="stroke: #A80036; stroke-width: 1.5;" x1="489.5" x2="584.5" y1="671.8438" y2="671.8438"/><!--class Entreprise--><rect fill="#FEFECE" filter="url(#fvv1e53u89qfq)" height="75.6719" id="Entreprise" style="stroke: #A80036; stroke-width: 1.5;" width="128" x="458" y="840.5"/><ellipse cx="490.55" cy="856.5" fill="#ADD1B2" rx="11" ry="11" style="stroke: #A80036; stroke-width: 1.0;"/><path d="M493.3156,852.375 Q493.4719,852.1563 493.6594,852.0469 Q493.8469,851.9375 494.0656,851.9375 Q494.4406,851.9375 494.675,852.1953 Q494.9094,852.4531 494.9094,853.0625 L494.9094,854.5156 Q494.9094,855.125 494.675,855.3906 Q494.4406,855.6563 494.0656,855.6563 Q493.7219,855.6563 493.5188,855.4531 Q493.3156,855.2656 493.2063,854.75 Q493.1594,854.3906 492.9719,854.2031 Q492.6438,853.8281 492.0344,853.6094 Q491.425,853.3906 490.8,853.3906 Q490.0344,853.3906 489.4016,853.7188 Q488.7688,854.0469 488.2766,854.7969 Q487.7844,855.5469 487.7844,856.5781 L487.7844,857.6719 Q487.7844,858.9063 488.675,859.7266 Q489.5656,860.5469 491.1594,860.5469 Q492.0969,860.5469 492.7531,860.2969 Q493.1438,860.1406 493.5656,859.7031 Q493.8313,859.4375 493.9797,859.3594 Q494.1281,859.2813 494.3313,859.2813 Q494.6594,859.2813 494.9172,859.5391 Q495.175,859.7969 495.175,860.1406 Q495.175,860.4844 494.8313,860.8906 Q494.3313,861.4688 493.5344,861.7969 Q492.4563,862.25 491.1594,862.25 Q489.6438,862.25 488.4406,861.625 Q487.4563,861.125 486.7688,860.0547 Q486.0813,858.9844 486.0813,857.7031 L486.0813,856.5469 Q486.0813,855.2188 486.6984,854.0703 Q487.3156,852.9219 488.4094,852.3047 Q489.5031,851.6875 490.7375,851.6875 Q491.4719,851.6875 492.1203,851.8516 Q492.7688,852.0156 493.3156,852.375 Z "/><text fill="#000000" font-family="sans-serif" font-size="12" lengthAdjust="spacingAndGlyphs" textLength="57" x="508.45" y="861.4102">Entreprise</text><line style="stroke: #A80036; stroke-width: 1.5;" x1="459" x2="585" y1="872.5" y2="872.5"/><rect fill="none" height="6" style="stroke: #C82930; stroke-width: 1.0;" width="6" x="466" y="881.918"/><text fill="#000000" font-family="sans-serif" font-size="11" lengthAdjust="spacingAndGlyphs" textLength="102" x="478" y="887.9189">String formeJuridique</text><rect fill="none" height="6" style="stroke: #C82930; stroke-width: 1.0;" width="6" x="466" y="895.7539"/><text fill="#000000" font-family="sans-serif" font-size="11" lengthAdjust="spacingAndGlyphs" textLength="59" x="478" y="901.7549">Int numSiren</text><line style="stroke: #A80036; stroke-width: 1.5;" x1="459" x2="585" y1="908.1719" y2="908.1719"/><!--class Agence--><rect fill="#FEFECE" filter="url(#fvv1e53u89qfq)" height="227.8672" id="Agence" style="stroke: #A80036; stroke-width: 1.5;" width="248" x="825" y="514"/><ellipse cx="924.25" cy="530" fill="#ADD1B2" rx="11" ry="11" style="stroke: #A80036; stroke-width: 1.0;"/><path d="M927.0156,525.875 Q927.1719,525.6563 927.3594,525.5469 Q927.5469,525.4375 927.7656,525.4375 Q928.1406,525.4375 928.375,525.6953 Q928.6094,525.9531 928.6094,526.5625 L928.6094,528.0156 Q928.6094,528.625 928.375,528.8906 Q928.1406,529.1563 927.7656,529.1563 Q927.4219,529.1563 927.2188,528.9531 Q927.0156,528.7656 926.9063,528.25 Q926.8594,527.8906 926.6719,527.7031 Q926.3438,527.3281 925.7344,527.1094 Q925.125,526.8906 924.5,526.8906 Q923.7344,526.8906 923.1016,527.2188 Q922.4688,527.5469 921.9766,528.2969 Q921.4844,529.0469 921.4844,530.0781 L921.4844,531.1719 Q921.4844,532.4063 922.375,533.2266 Q923.2656,534.0469 924.8594,534.0469 Q925.7969,534.0469 926.4531,533.7969 Q926.8438,533.6406 927.2656,533.2031 Q927.5313,532.9375 927.6797,532.8594 Q927.8281,532.7813 928.0313,532.7813 Q928.3594,532.7813 928.6172,533.0391 Q928.875,533.2969 928.875,533.6406 Q928.875,533.9844 928.5313,534.3906 Q928.0313,534.9688 927.2344,535.2969 Q926.1563,535.75 924.8594,535.75 Q923.3438,535.75 922.1406,535.125 Q921.1563,534.625 920.4688,533.5547 Q919.7813,532.4844 919.7813,531.2031 L919.7813,530.0469 Q919.7813,528.7188 920.3984,527.5703 Q921.0156,526.4219 922.1094,525.8047 Q923.2031,525.1875 924.4375,525.1875 Q925.1719,525.1875 925.8203,525.3516 Q926.4688,525.5156 927.0156,525.875 Z "/><text fill="#000000" font-family="sans-serif" font-size="12" lengthAdjust="spacingAndGlyphs" textLength="41" x="944.75" y="534.9102">Agence</text><line style="stroke: #A80036; stroke-width: 1.5;" x1="826" x2="1072" y1="546" y2="546"/><rect fill="none" height="6" style="stroke: #C82930; stroke-width: 1.0;" width="6" x="833" y="555.418"/><text fill="#000000" font-family="sans-serif" font-size="11" lengthAdjust="spacingAndGlyphs" textLength="51" x="845" y="561.4189">String nom</text><rect fill="none" height="6" style="stroke: #C82930; stroke-width: 1.0;" width="6" x="833" y="569.2539"/><text fill="#000000" font-family="sans-serif" font-size="11" lengthAdjust="spacingAndGlyphs" textLength="210" x="845" y="575.2549">HashSet&lt;Date, Personne&gt; listeRdvVendeur</text><line style="stroke: #A80036; stroke-width: 1.5;" x1="826" x2="1072" y1="581.6719" y2="581.6719"/><ellipse cx="836" cy="594.0898" fill="#84BE84" rx="3" ry="3" style="stroke: #038048; stroke-width: 1.0;"/><text fill="#000000" font-family="sans-serif" font-size="11" lengthAdjust="spacingAndGlyphs" textLength="196" x="845" y="597.0908">priseRdvVendeur(Personne, Date) : void</text><rect fill="#F24D5C" height="6" style="stroke: #C82930; stroke-width: 1.0;" width="6" x="833" y="604.9258"/><text fill="#000000" font-family="sans-serif" font-size="11" lengthAdjust="spacingAndGlyphs" textLength="222" x="845" y="610.9268">creerPersonne(String, String, Int, String) : void</text><ellipse cx="836" cy="621.7617" fill="#84BE84" rx="3" ry="3" style="stroke: #038048; stroke-width: 1.0;"/><text fill="#000000" font-family="sans-serif" font-size="11" lengthAdjust="spacingAndGlyphs" textLength="185" x="845" y="624.7627">creerMandat(Personne, Mandat) : void</text><ellipse cx="836" cy="635.5977" fill="#84BE84" rx="3" ry="3" style="stroke: #038048; stroke-width: 1.0;"/><text fill="#000000" font-family="sans-serif" font-size="11" lengthAdjust="spacingAndGlyphs" textLength="167" x="845" y="638.5986">creerEnvie(Personne, Envie) : void</text><ellipse cx="836" cy="649.4336" fill="#84BE84" rx="3" ry="3" style="stroke: #038048; stroke-width: 1.0;"/><text fill="#000000" font-family="sans-serif" font-size="11" lengthAdjust="spacingAndGlyphs" textLength="150" x="845" y="652.4346">contacter(Envie, Mandat) : void</text><ellipse cx="836" cy="663.2695" fill="#84BE84" rx="3" ry="3" style="stroke: #038048; stroke-width: 1.0;"/><text fill="#000000" font-family="sans-serif" font-size="11" lengthAdjust="spacingAndGlyphs" textLength="205" x="845" y="666.2705">organiserVisite(Envie, Mandat, Date) : void</text><ellipse cx="836" cy="677.1055" fill="#84BE84" rx="3" ry="3" style="stroke: #038048; stroke-width: 1.0;"/><text fill="#000000" font-family="sans-serif" font-size="11" lengthAdjust="spacingAndGlyphs" textLength="207" x="845" y="680.1064">organiserVente(Envie, Mandat, Date) : void</text><rect fill="#F24D5C" height="6" style="stroke: #C82930; stroke-width: 1.0;" width="6" x="833" y="687.9414"/><text fill="#000000" font-family="sans-serif" font-size="11" lengthAdjust="spacingAndGlyphs" textLength="159" x="845" y="693.9424">creerPromesse(Promesse) : void</text><ellipse cx="836" cy="704.7773" fill="#84BE84" rx="3" ry="3" style="stroke: #038048; stroke-width: 1.0;"/><text fill="#000000" font-family="sans-serif" font-size="11" lengthAdjust="spacingAndGlyphs" textLength="163" x="845" y="707.7783">signerPromesse(Promesse) : void</text><ellipse cx="836" cy="718.6133" fill="#84BE84" rx="3" ry="3" style="stroke: #038048; stroke-width: 1.0;"/><text fill="#000000" font-family="sans-serif" font-size="11" lengthAdjust="spacingAndGlyphs" textLength="80" x="845" y="721.6143">voirStats() : void</text><ellipse cx="836" cy="732.4492" fill="#84BE84" rx="3" ry="3" style="stroke: #038048; stroke-width: 1.0;"/><text fill="#000000" font-family="sans-serif" font-size="11" lengthAdjust="spacingAndGlyphs" textLength="111" x="845" y="735.4502">creerDocument() : void</text><!--class Envie--><rect fill="#FEFECE" filter="url(#fvv1e53u89qfq)" height="117.1797" id="Envie" style="stroke: #A80036; stroke-width: 1.5;" width="115" x="814.5" y="820"/><ellipse cx="853.35" cy="836" fill="#ADD1B2" rx="11" ry="11" style="stroke: #A80036; stroke-width: 1.0;"/><path d="M856.1156,831.875 Q856.2719,831.6563 856.4594,831.5469 Q856.6469,831.4375 856.8656,831.4375 Q857.2406,831.4375 857.475,831.6953 Q857.7094,831.9531 857.7094,832.5625 L857.7094,834.0156 Q857.7094,834.625 857.475,834.8906 Q857.2406,835.1563 856.8656,835.1563 Q856.5219,835.1563 856.3188,834.9531 Q856.1156,834.7656 856.0063,834.25 Q855.9594,833.8906 855.7719,833.7031 Q855.4438,833.3281 854.8344,833.1094 Q854.225,832.8906 853.6,832.8906 Q852.8344,832.8906 852.2016,833.2188 Q851.5688,833.5469 851.0766,834.2969 Q850.5844,835.0469 850.5844,836.0781 L850.5844,837.1719 Q850.5844,838.4063 851.475,839.2266 Q852.3656,840.0469 853.9594,840.0469 Q854.8969,840.0469 855.5531,839.7969 Q855.9438,839.6406 856.3656,839.2031 Q856.6313,838.9375 856.7797,838.8594 Q856.9281,838.7813 857.1313,838.7813 Q857.4594,838.7813 857.7172,839.0391 Q857.975,839.2969 857.975,839.6406 Q857.975,839.9844 857.6313,840.3906 Q857.1313,840.9688 856.3344,841.2969 Q855.2563,841.75 853.9594,841.75 Q852.4438,841.75 851.2406,841.125 Q850.2563,840.625 849.5688,839.5547 Q848.8813,838.4844 848.8813,837.2031 L848.8813,836.0469 Q848.8813,834.7188 849.4984,833.5703 Q850.1156,832.4219 851.2094,831.8047 Q852.3031,831.1875 853.5375,831.1875 Q854.2719,831.1875 854.9203,831.3516 Q855.5688,831.5156 856.1156,831.875 Z "/><text fill="#000000" font-family="sans-serif" font-size="12" lengthAdjust="spacingAndGlyphs" textLength="30" x="872.65" y="840.9102">Envie</text><line style="stroke: #A80036; stroke-width: 1.5;" x1="815.5" x2="928.5" y1="852" y2="852"/><rect fill="none" height="6" style="stroke: #C82930; stroke-width: 1.0;" width="6" x="822.5" y="861.418"/><text fill="#000000" font-family="sans-serif" font-size="11" lengthAdjust="spacingAndGlyphs" textLength="52" x="834.5" y="867.4189">String type</text><rect fill="none" height="6" style="stroke: #C82930; stroke-width: 1.0;" width="6" x="822.5" y="875.2539"/><text fill="#000000" font-family="sans-serif" font-size="11" lengthAdjust="spacingAndGlyphs" textLength="54" x="834.5" y="881.2549">Double prix</text><rect fill="none" height="6" style="stroke: #C82930; stroke-width: 1.0;" width="6" x="822.5" y="889.0898"/><text fill="#000000" font-family="sans-serif" font-size="11" lengthAdjust="spacingAndGlyphs" textLength="84" x="834.5" y="895.0908">String localisation</text><rect fill="none" height="6" style="stroke: #C82930; stroke-width: 1.0;" width="6" x="822.5" y="902.9258"/><text fill="#000000" font-family="sans-serif" font-size="11" lengthAdjust="spacingAndGlyphs" textLength="89" x="834.5" y="908.9268">Double surfaceSol</text><rect fill="none" height="6" style="stroke: #C82930; stroke-width: 1.0;" width="6" x="822.5" y="916.7617"/><text fill="#000000" font-family="sans-serif" font-size="11" lengthAdjust="spacingAndGlyphs" textLength="58" x="834.5" y="922.7627">Int nbPieces</text><line style="stroke: #A80036; stroke-width: 1.5;" x1="815.5" x2="928.5" y1="929.1797" y2="929.1797"/><!--class Mandat--><rect fill="#FEFECE" filter="url(#fvv1e53u89qfq)" height="131.0156" id="Mandat" style="stroke: #A80036; stroke-width: 1.5;" width="221" x="655.5" y="305"/><ellipse cx="741.75" cy="321" fill="#ADD1B2" rx="11" ry="11" style="stroke: #A80036; stroke-width: 1.0;"/><path d="M744.5156,316.875 Q744.6719,316.6563 744.8594,316.5469 Q745.0469,316.4375 745.2656,316.4375 Q745.6406,316.4375 745.875,316.6953 Q746.1094,316.9531 746.1094,317.5625 L746.1094,319.0156 Q746.1094,319.625 745.875,319.8906 Q745.6406,320.1563 745.2656,320.1563 Q744.9219,320.1563 744.7188,319.9531 Q744.5156,319.7656 744.4063,319.25 Q744.3594,318.8906 744.1719,318.7031 Q743.8438,318.3281 743.2344,318.1094 Q742.625,317.8906 742,317.8906 Q741.2344,317.8906 740.6016,318.2188 Q739.9688,318.5469 739.4766,319.2969 Q738.9844,320.0469 738.9844,321.0781 L738.9844,322.1719 Q738.9844,323.4063 739.875,324.2266 Q740.7656,325.0469 742.3594,325.0469 Q743.2969,325.0469 743.9531,324.7969 Q744.3438,324.6406 744.7656,324.2031 Q745.0313,323.9375 745.1797,323.8594 Q745.3281,323.7813 745.5313,323.7813 Q745.8594,323.7813 746.1172,324.0391 Q746.375,324.2969 746.375,324.6406 Q746.375,324.9844 746.0313,325.3906 Q745.5313,325.9688 744.7344,326.2969 Q743.6563,326.75 742.3594,326.75 Q740.8438,326.75 739.6406,326.125 Q738.6563,325.625 737.9688,324.5547 Q737.2813,323.4844 737.2813,322.2031 L737.2813,321.0469 Q737.2813,319.7188 737.8984,318.5703 Q738.5156,317.4219 739.6094,316.8047 Q740.7031,316.1875 741.9375,316.1875 Q742.6719,316.1875 743.3203,316.3516 Q743.9688,316.5156 744.5156,316.875 Z "/><text fill="#000000" font-family="sans-serif" font-size="12" lengthAdjust="spacingAndGlyphs" textLength="40" x="762.25" y="325.9102">Mandat</text><line style="stroke: #A80036; stroke-width: 1.5;" x1="656.5" x2="875.5" y1="337" y2="337"/><rect fill="none" height="6" style="stroke: #C82930; stroke-width: 1.0;" width="6" x="663.5" y="346.418"/><text fill="#000000" font-family="sans-serif" font-size="11" lengthAdjust="spacingAndGlyphs" textLength="195" x="675.5" y="352.4189">HashSet&lt;Date, Personne&gt; listeRdvVisite</text><rect fill="none" height="6" style="stroke: #C82930; stroke-width: 1.0;" width="6" x="663.5" y="360.2539"/><text fill="#000000" font-family="sans-serif" font-size="11" lengthAdjust="spacingAndGlyphs" textLength="32" x="675.5" y="366.2549">Int prix</text><rect fill="none" height="6" style="stroke: #C82930; stroke-width: 1.0;" width="6" x="663.5" y="374.0898"/><text fill="#000000" font-family="sans-serif" font-size="11" lengthAdjust="spacingAndGlyphs" textLength="52" x="675.5" y="380.0908">Date vente</text><rect fill="none" height="6" style="stroke: #C82930; stroke-width: 1.0;" width="6" x="663.5" y="387.9258"/><text fill="#000000" font-family="sans-serif" font-size="11" lengthAdjust="spacingAndGlyphs" textLength="52" x="675.5" y="393.9268">Date debut</text><rect fill="none" height="6" style="stroke: #C82930; stroke-width: 1.0;" width="6" x="663.5" y="401.7617"/><text fill="#000000" font-family="sans-serif" font-size="11" lengthAdjust="spacingAndGlyphs" textLength="37" x="675.5" y="407.7627">Date fin</text><line style="stroke: #A80036; stroke-width: 1.5;" x1="656.5" x2="875.5" y1="414.1797" y2="414.1797"/><rect fill="#F24D5C" height="6" style="stroke: #C82930; stroke-width: 1.0;" width="6" x="663.5" y="423.5977"/><text fill="#000000" font-family="sans-serif" font-size="11" lengthAdjust="spacingAndGlyphs" textLength="78" x="675.5" y="429.5986">reerBien() : void</text><!--class Promesse--><rect fill="#FEFECE" filter="url(#fvv1e53u89qfq)" height="117.1797" id="Promesse" style="stroke: #A80036; stroke-width: 1.5;" width="156" x="734" y="1015"/><ellipse cx="778.75" cy="1031" fill="#ADD1B2" rx="11" ry="11" style="stroke: #A80036; stroke-width: 1.0;"/><path d="M781.5156,1026.875 Q781.6719,1026.6563 781.8594,1026.5469 Q782.0469,1026.4375 782.2656,1026.4375 Q782.6406,1026.4375 782.875,1026.6953 Q783.1094,1026.9531 783.1094,1027.5625 L783.1094,1029.0156 Q783.1094,1029.625 782.875,1029.8906 Q782.6406,1030.1563 782.2656,1030.1563 Q781.9219,1030.1563 781.7188,1029.9531 Q781.5156,1029.7656 781.4063,1029.25 Q781.3594,1028.8906 781.1719,1028.7031 Q780.8438,1028.3281 780.2344,1028.1094 Q779.625,1027.8906 779,1027.8906 Q778.2344,1027.8906 777.6016,1028.2188 Q776.9688,1028.5469 776.4766,1029.2969 Q775.9844,1030.0469 775.9844,1031.0781 L775.9844,1032.1719 Q775.9844,1033.4063 776.875,1034.2266 Q777.7656,1035.0469 779.3594,1035.0469 Q780.2969,1035.0469 780.9531,1034.7969 Q781.3438,1034.6406 781.7656,1034.2031 Q782.0313,1033.9375 782.1797,1033.8594 Q782.3281,1033.7813 782.5313,1033.7813 Q782.8594,1033.7813 783.1172,1034.0391 Q783.375,1034.2969 783.375,1034.6406 Q783.375,1034.9844 783.0313,1035.3906 Q782.5313,1035.9688 781.7344,1036.2969 Q780.6563,1036.75 779.3594,1036.75 Q777.8438,1036.75 776.6406,1036.125 Q775.6563,1035.625 774.9688,1034.5547 Q774.2813,1033.4844 774.2813,1032.2031 L774.2813,1031.0469 Q774.2813,1029.7188 774.8984,1028.5703 Q775.5156,1027.4219 776.6094,1026.8047 Q777.7031,1026.1875 778.9375,1026.1875 Q779.6719,1026.1875 780.3203,1026.3516 Q780.9688,1026.5156 781.5156,1026.875 Z "/><text fill="#000000" font-family="sans-serif" font-size="12" lengthAdjust="spacingAndGlyphs" textLength="58" x="799.25" y="1035.9102">Promesse</text><line style="stroke: #A80036; stroke-width: 1.5;" x1="735" x2="889" y1="1047" y2="1047"/><rect fill="none" height="6" style="stroke: #C82930; stroke-width: 1.0;" width="6" x="742" y="1056.418"/><text fill="#000000" font-family="sans-serif" font-size="11" lengthAdjust="spacingAndGlyphs" textLength="126" x="754" y="1062.4189">Double prixVerseVendeur</text><rect fill="none" height="6" style="stroke: #C82930; stroke-width: 1.0;" width="6" x="742" y="1070.2539"/><text fill="#000000" font-family="sans-serif" font-size="11" lengthAdjust="spacingAndGlyphs" textLength="105" x="754" y="1076.2549">String adresseNotaire</text><rect fill="none" height="6" style="stroke: #C82930; stroke-width: 1.0;" width="6" x="742" y="1084.0898"/><text fill="#000000" font-family="sans-serif" font-size="11" lengthAdjust="spacingAndGlyphs" textLength="52" x="754" y="1090.0908">Date vente</text><rect fill="none" height="6" style="stroke: #C82930; stroke-width: 1.0;" width="6" x="742" y="1097.9258"/><text fill="#000000" font-family="sans-serif" font-size="11" lengthAdjust="spacingAndGlyphs" textLength="130" x="754" y="1103.9268">Double commissionAgence</text><rect fill="none" height="6" style="stroke: #C82930; stroke-width: 1.0;" width="6" x="742" y="1111.7617"/><text fill="#000000" font-family="sans-serif" font-size="11" lengthAdjust="spacingAndGlyphs" textLength="87" x="754" y="1117.7627">Double fraisVente</text><line style="stroke: #A80036; stroke-width: 1.5;" x1="735" x2="889" y1="1124.1797" y2="1124.1797"/><!--class Notaire--><rect fill="#FEFECE" filter="url(#fvv1e53u89qfq)" height="61.8359" id="Notaire" style="stroke: #A80036; stroke-width: 1.5;" width="99" x="642.5" y="847.5"/><ellipse cx="669.65" cy="863.5" fill="#ADD1B2" rx="11" ry="11" style="stroke: #A80036; stroke-width: 1.0;"/><path d="M672.4156,859.375 Q672.5719,859.1563 672.7594,859.0469 Q672.9469,858.9375 673.1656,858.9375 Q673.5406,858.9375 673.775,859.1953 Q674.0094,859.4531 674.0094,860.0625 L674.0094,861.5156 Q674.0094,862.125 673.775,862.3906 Q673.5406,862.6563 673.1656,862.6563 Q672.8219,862.6563 672.6188,862.4531 Q672.4156,862.2656 672.3063,861.75 Q672.2594,861.3906 672.0719,861.2031 Q671.7438,860.8281 671.1344,860.6094 Q670.525,860.3906 669.9,860.3906 Q669.1344,860.3906 668.5016,860.7188 Q667.8688,861.0469 667.3766,861.7969 Q666.8844,862.5469 666.8844,863.5781 L666.8844,864.6719 Q666.8844,865.9063 667.775,866.7266 Q668.6656,867.5469 670.2594,867.5469 Q671.1969,867.5469 671.8531,867.2969 Q672.2438,867.1406 672.6656,866.7031 Q672.9313,866.4375 673.0797,866.3594 Q673.2281,866.2813 673.4313,866.2813 Q673.7594,866.2813 674.0172,866.5391 Q674.275,866.7969 674.275,867.1406 Q674.275,867.4844 673.9313,867.8906 Q673.4313,868.4688 672.6344,868.7969 Q671.5563,869.25 670.2594,869.25 Q668.7438,869.25 667.5406,868.625 Q666.5563,868.125 665.8688,867.0547 Q665.1813,865.9844 665.1813,864.7031 L665.1813,863.5469 Q665.1813,862.2188 665.7984,861.0703 Q666.4156,859.9219 667.5094,859.3047 Q668.6031,858.6875 669.8375,858.6875 Q670.5719,858.6875 671.2203,858.8516 Q671.8688,859.0156 672.4156,859.375 Z "/><text fill="#000000" font-family="sans-serif" font-size="12" lengthAdjust="spacingAndGlyphs" textLength="40" x="686.35" y="868.4102">Notaire</text><line style="stroke: #A80036; stroke-width: 1.5;" x1="643.5" x2="740.5" y1="879.5" y2="879.5"/><line style="stroke: #A80036; stroke-width: 1.5;" x1="643.5" x2="740.5" y1="887.5" y2="887.5"/><ellipse cx="653.5" cy="899.918" fill="#84BE84" rx="3" ry="3" style="stroke: #038048; stroke-width: 1.0;"/><text fill="#000000" font-family="sans-serif" font-size="11" lengthAdjust="spacingAndGlyphs" textLength="73" x="662.5" y="902.9189">verserArgent()</text><!--class AnnoncePub--><rect fill="#FEFECE" filter="url(#fvv1e53u89qfq)" height="48" id="AnnoncePub" style="stroke: #A80036; stroke-width: 1.5;" width="102" x="1191" y="346.5"/><ellipse cx="1206" cy="362.5" fill="#ADD1B2" rx="11" ry="11" style="stroke: #A80036; stroke-width: 1.0;"/><path d="M1208.7656,358.375 Q1208.9219,358.1563 1209.1094,358.0469 Q1209.2969,357.9375 1209.5156,357.9375 Q1209.8906,357.9375 1210.125,358.1953 Q1210.3594,358.4531 1210.3594,359.0625 L1210.3594,360.5156 Q1210.3594,361.125 1210.125,361.3906 Q1209.8906,361.6563 1209.5156,361.6563 Q1209.1719,361.6563 1208.9688,361.4531 Q1208.7656,361.2656 1208.6563,360.75 Q1208.6094,360.3906 1208.4219,360.2031 Q1208.0938,359.8281 1207.4844,359.6094 Q1206.875,359.3906 1206.25,359.3906 Q1205.4844,359.3906 1204.8516,359.7188 Q1204.2188,360.0469 1203.7266,360.7969 Q1203.2344,361.5469 1203.2344,362.5781 L1203.2344,363.6719 Q1203.2344,364.9063 1204.125,365.7266 Q1205.0156,366.5469 1206.6094,366.5469 Q1207.5469,366.5469 1208.2031,366.2969 Q1208.5938,366.1406 1209.0156,365.7031 Q1209.2813,365.4375 1209.4297,365.3594 Q1209.5781,365.2813 1209.7813,365.2813 Q1210.1094,365.2813 1210.3672,365.5391 Q1210.625,365.7969 1210.625,366.1406 Q1210.625,366.4844 1210.2813,366.8906 Q1209.7813,367.4688 1208.9844,367.7969 Q1207.9063,368.25 1206.6094,368.25 Q1205.0938,368.25 1203.8906,367.625 Q1202.9063,367.125 1202.2188,366.0547 Q1201.5313,364.9844 1201.5313,363.7031 L1201.5313,362.5469 Q1201.5313,361.2188 1202.1484,360.0703 Q1202.7656,358.9219 1203.8594,358.3047 Q1204.9531,357.6875 1206.1875,357.6875 Q1206.9219,357.6875 1207.5703,357.8516 Q1208.2188,358.0156 1208.7656,358.375 Z "/><text fill="#000000" font-family="sans-serif" font-size="12" lengthAdjust="spacingAndGlyphs" textLength="70" x="1220" y="367.4102">AnnoncePub</text><line style="stroke: #A80036; stroke-width: 1.5;" x1="1192" x2="1292" y1="378.5" y2="378.5"/><line style="stroke: #A80036; stroke-width: 1.5;" x1="1192" x2="1292" y1="386.5" y2="386.5"/><!--class TypePub--><rect fill="#FEFECE" filter="url(#fvv1e53u89qfq)" height="61.8359" id="TypePub" style="stroke: #A80036; stroke-width: 1.5;" width="103" x="1241.5" y="597"/><ellipse cx="1265.95" cy="613" fill="#A9DCDF" rx="11" ry="11" style="stroke: #A80036; stroke-width: 1.0;"/><path d="M1268.1375,614.7656 L1263.9969,614.7656 L1263.575,615.7969 L1263.9969,615.7969 Q1264.6063,615.7969 1264.8719,616.0313 Q1265.1375,616.2656 1265.1375,616.6563 Q1265.1375,617.0313 1264.8719,617.2656 Q1264.6063,617.5 1263.9969,617.5 L1261.7,617.5 Q1261.0906,617.5 1260.8328,617.2656 Q1260.575,617.0313 1260.575,616.6406 Q1260.575,616.2656 1260.8484,616.0234 Q1261.1219,615.7813 1261.7469,615.7969 L1264.4188,609.1406 L1263.3094,609.1406 Q1262.7,609.1406 1262.4344,608.9063 Q1262.1688,608.6719 1262.1688,608.2813 Q1262.1688,607.9063 1262.4344,607.6719 Q1262.7,607.4375 1263.3094,607.4375 L1266.9813,607.4375 L1270.3719,615.7969 Q1270.9656,615.7969 1271.1531,615.9375 Q1271.5438,616.2031 1271.5438,616.6563 Q1271.5438,617.0313 1271.2859,617.2656 Q1271.0281,617.5 1270.4188,617.5 L1268.1219,617.5 Q1267.5125,617.5 1267.2469,617.2656 Q1266.9813,617.0313 1266.9813,616.6406 Q1266.9813,616.2656 1267.2469,616.0313 Q1267.5125,615.7969 1268.1219,615.7969 L1268.5438,615.7969 L1268.1375,614.7656 Z M1267.4188,613.0625 L1266.0594,609.6875 L1264.6844,613.0625 L1267.4188,613.0625 Z "/><text fill="#000000" font-family="sans-serif" font-size="12" font-style="italic" lengthAdjust="spacingAndGlyphs" textLength="50" x="1282.05" y="617.9102">TypePub</text><line style="stroke: #A80036; stroke-width: 1.5;" x1="1242.5" x2="1343.5" y1="629" y2="629"/><line style="stroke: #A80036; stroke-width: 1.5;" x1="1242.5" x2="1343.5" y1="637" y2="637"/><ellipse cx="1252.5" cy="649.418" fill="#84BE84" rx="3" ry="3" style="stroke: #038048; stroke-width: 1.0;"/><text fill="#000000" font-family="sans-serif" font-size="11" lengthAdjust="spacingAndGlyphs" textLength="77" x="1261.5" y="652.4189">addElem() : void</text><!--class TypeTexte--><rect fill="#FEFECE" filter="url(#fvv1e53u89qfq)" height="48" id="TypeTexte" style="stroke: #A80036; stroke-width: 1.5;" width="87" x="1365.5" y="854.5"/><ellipse cx="1380.5" cy="870.5" fill="#ADD1B2" rx="11" ry="11" style="stroke: #A80036; stroke-width: 1.0;"/><path d="M1383.2656,866.375 Q1383.4219,866.1563 1383.6094,866.0469 Q1383.7969,865.9375 1384.0156,865.9375 Q1384.3906,865.9375 1384.625,866.1953 Q1384.8594,866.4531 1384.8594,867.0625 L1384.8594,868.5156 Q1384.8594,869.125 1384.625,869.3906 Q1384.3906,869.6563 1384.0156,869.6563 Q1383.6719,869.6563 1383.4688,869.4531 Q1383.2656,869.2656 1383.1563,868.75 Q1383.1094,868.3906 1382.9219,868.2031 Q1382.5938,867.8281 1381.9844,867.6094 Q1381.375,867.3906 1380.75,867.3906 Q1379.9844,867.3906 1379.3516,867.7188 Q1378.7188,868.0469 1378.2266,868.7969 Q1377.7344,869.5469 1377.7344,870.5781 L1377.7344,871.6719 Q1377.7344,872.9063 1378.625,873.7266 Q1379.5156,874.5469 1381.1094,874.5469 Q1382.0469,874.5469 1382.7031,874.2969 Q1383.0938,874.1406 1383.5156,873.7031 Q1383.7813,873.4375 1383.9297,873.3594 Q1384.0781,873.2813 1384.2813,873.2813 Q1384.6094,873.2813 1384.8672,873.5391 Q1385.125,873.7969 1385.125,874.1406 Q1385.125,874.4844 1384.7813,874.8906 Q1384.2813,875.4688 1383.4844,875.7969 Q1382.4063,876.25 1381.1094,876.25 Q1379.5938,876.25 1378.3906,875.625 Q1377.4063,875.125 1376.7188,874.0547 Q1376.0313,872.9844 1376.0313,871.7031 L1376.0313,870.5469 Q1376.0313,869.2188 1376.6484,868.0703 Q1377.2656,866.9219 1378.3594,866.3047 Q1379.4531,865.6875 1380.6875,865.6875 Q1381.4219,865.6875 1382.0703,865.8516 Q1382.7188,866.0156 1383.2656,866.375 Z "/><text fill="#000000" font-family="sans-serif" font-size="12" lengthAdjust="spacingAndGlyphs" textLength="55" x="1394.5" y="875.4102">TypeTexte</text><line style="stroke: #A80036; stroke-width: 1.5;" x1="1366.5" x2="1451.5" y1="886.5" y2="886.5"/><line style="stroke: #A80036; stroke-width: 1.5;" x1="1366.5" x2="1451.5" y1="894.5" y2="894.5"/><!--class TypeHtml--><rect fill="#FEFECE" filter="url(#fvv1e53u89qfq)" height="48" id="TypeHtml" style="stroke: #A80036; stroke-width: 1.5;" width="84" x="1488" y="854.5"/><ellipse cx="1503" cy="870.5" fill="#ADD1B2" rx="11" ry="11" style="stroke: #A80036; stroke-width: 1.0;"/><path d="M1505.7656,866.375 Q1505.9219,866.1563 1506.1094,866.0469 Q1506.2969,865.9375 1506.5156,865.9375 Q1506.8906,865.9375 1507.125,866.1953 Q1507.3594,866.4531 1507.3594,867.0625 L1507.3594,868.5156 Q1507.3594,869.125 1507.125,869.3906 Q1506.8906,869.6563 1506.5156,869.6563 Q1506.1719,869.6563 1505.9688,869.4531 Q1505.7656,869.2656 1505.6563,868.75 Q1505.6094,868.3906 1505.4219,868.2031 Q1505.0938,867.8281 1504.4844,867.6094 Q1503.875,867.3906 1503.25,867.3906 Q1502.4844,867.3906 1501.8516,867.7188 Q1501.2188,868.0469 1500.7266,868.7969 Q1500.2344,869.5469 1500.2344,870.5781 L1500.2344,871.6719 Q1500.2344,872.9063 1501.125,873.7266 Q1502.0156,874.5469 1503.6094,874.5469 Q1504.5469,874.5469 1505.2031,874.2969 Q1505.5938,874.1406 1506.0156,873.7031 Q1506.2813,873.4375 1506.4297,873.3594 Q1506.5781,873.2813 1506.7813,873.2813 Q1507.1094,873.2813 1507.3672,873.5391 Q1507.625,873.7969 1507.625,874.1406 Q1507.625,874.4844 1507.2813,874.8906 Q1506.7813,875.4688 1505.9844,875.7969 Q1504.9063,876.25 1503.6094,876.25 Q1502.0938,876.25 1500.8906,875.625 Q1499.9063,875.125 1499.2188,874.0547 Q1498.5313,872.9844 1498.5313,871.7031 L1498.5313,870.5469 Q1498.5313,869.2188 1499.1484,868.0703 Q1499.7656,866.9219 1500.8594,866.3047 Q1501.9531,865.6875 1503.1875,865.6875 Q1503.9219,865.6875 1504.5703,865.8516 Q1505.2188,866.0156 1505.7656,866.375 Z "/><text fill="#000000" font-family="sans-serif" font-size="12" lengthAdjust="spacingAndGlyphs" textLength="52" x="1517" y="875.4102">TypeHtml</text><line style="stroke: #A80036; stroke-width: 1.5;" x1="1489" x2="1571" y1="886.5" y2="886.5"/><line style="stroke: #A80036; stroke-width: 1.5;" x1="1489" x2="1571" y1="894.5" y2="894.5"/><!--class TypeImg--><rect fill="#FEFECE" filter="url(#fvv1e53u89qfq)" height="48" id="TypeImg" style="stroke: #A80036; stroke-width: 1.5;" width="79" x="1141.5" y="854.5"/><ellipse cx="1156.5" cy="870.5" fill="#ADD1B2" rx="11" ry="11" style="stroke: #A80036; stroke-width: 1.0;"/><path d="M1159.2656,866.375 Q1159.4219,866.1563 1159.6094,866.0469 Q1159.7969,865.9375 1160.0156,865.9375 Q1160.3906,865.9375 1160.625,866.1953 Q1160.8594,866.4531 1160.8594,867.0625 L1160.8594,868.5156 Q1160.8594,869.125 1160.625,869.3906 Q1160.3906,869.6563 1160.0156,869.6563 Q1159.6719,869.6563 1159.4688,869.4531 Q1159.2656,869.2656 1159.1563,868.75 Q1159.1094,868.3906 1158.9219,868.2031 Q1158.5938,867.8281 1157.9844,867.6094 Q1157.375,867.3906 1156.75,867.3906 Q1155.9844,867.3906 1155.3516,867.7188 Q1154.7188,868.0469 1154.2266,868.7969 Q1153.7344,869.5469 1153.7344,870.5781 L1153.7344,871.6719 Q1153.7344,872.9063 1154.625,873.7266 Q1155.5156,874.5469 1157.1094,874.5469 Q1158.0469,874.5469 1158.7031,874.2969 Q1159.0938,874.1406 1159.5156,873.7031 Q1159.7813,873.4375 1159.9297,873.3594 Q1160.0781,873.2813 1160.2813,873.2813 Q1160.6094,873.2813 1160.8672,873.5391 Q1161.125,873.7969 1161.125,874.1406 Q1161.125,874.4844 1160.7813,874.8906 Q1160.2813,875.4688 1159.4844,875.7969 Q1158.4063,876.25 1157.1094,876.25 Q1155.5938,876.25 1154.3906,875.625 Q1153.4063,875.125 1152.7188,874.0547 Q1152.0313,872.9844 1152.0313,871.7031 L1152.0313,870.5469 Q1152.0313,869.2188 1152.6484,868.0703 Q1153.2656,866.9219 1154.3594,866.3047 Q1155.4531,865.6875 1156.6875,865.6875 Q1157.4219,865.6875 1158.0703,865.8516 Q1158.7188,866.0156 1159.2656,866.375 Z "/><text fill="#000000" font-family="sans-serif" font-size="12" lengthAdjust="spacingAndGlyphs" textLength="47" x="1170.5" y="875.4102">TypeImg</text><line style="stroke: #A80036; stroke-width: 1.5;" x1="1142.5" x2="1219.5" y1="886.5" y2="886.5"/><line style="stroke: #A80036; stroke-width: 1.5;" x1="1142.5" x2="1219.5" y1="894.5" y2="894.5"/><!--class TypeVid--><rect fill="#FEFECE" filter="url(#fvv1e53u89qfq)" height="48" id="TypeVid" style="stroke: #A80036; stroke-width: 1.5;" width="75" x="1255.5" y="854.5"/><ellipse cx="1270.5" cy="870.5" fill="#ADD1B2" rx="11" ry="11" style="stroke: #A80036; stroke-width: 1.0;"/><path d="M1273.2656,866.375 Q1273.4219,866.1563 1273.6094,866.0469 Q1273.7969,865.9375 1274.0156,865.9375 Q1274.3906,865.9375 1274.625,866.1953 Q1274.8594,866.4531 1274.8594,867.0625 L1274.8594,868.5156 Q1274.8594,869.125 1274.625,869.3906 Q1274.3906,869.6563 1274.0156,869.6563 Q1273.6719,869.6563 1273.4688,869.4531 Q1273.2656,869.2656 1273.1563,868.75 Q1273.1094,868.3906 1272.9219,868.2031 Q1272.5938,867.8281 1271.9844,867.6094 Q1271.375,867.3906 1270.75,867.3906 Q1269.9844,867.3906 1269.3516,867.7188 Q1268.7188,868.0469 1268.2266,868.7969 Q1267.7344,869.5469 1267.7344,870.5781 L1267.7344,871.6719 Q1267.7344,872.9063 1268.625,873.7266 Q1269.5156,874.5469 1271.1094,874.5469 Q1272.0469,874.5469 1272.7031,874.2969 Q1273.0938,874.1406 1273.5156,873.7031 Q1273.7813,873.4375 1273.9297,873.3594 Q1274.0781,873.2813 1274.2813,873.2813 Q1274.6094,873.2813 1274.8672,873.5391 Q1275.125,873.7969 1275.125,874.1406 Q1275.125,874.4844 1274.7813,874.8906 Q1274.2813,875.4688 1273.4844,875.7969 Q1272.4063,876.25 1271.1094,876.25 Q1269.5938,876.25 1268.3906,875.625 Q1267.4063,875.125 1266.7188,874.0547 Q1266.0313,872.9844 1266.0313,871.7031 L1266.0313,870.5469 Q1266.0313,869.2188 1266.6484,868.0703 Q1267.2656,866.9219 1268.3594,866.3047 Q1269.4531,865.6875 1270.6875,865.6875 Q1271.4219,865.6875 1272.0703,865.8516 Q1272.7188,866.0156 1273.2656,866.375 Z "/><text fill="#000000" font-family="sans-serif" font-size="12" lengthAdjust="spacingAndGlyphs" textLength="43" x="1284.5" y="875.4102">TypeVid</text><line style="stroke: #A80036; stroke-width: 1.5;" x1="1256.5" x2="1329.5" y1="886.5" y2="886.5"/><line style="stroke: #A80036; stroke-width: 1.5;" x1="1256.5" x2="1329.5" y1="894.5" y2="894.5"/><!--class BienImmo--><rect fill="#FEFECE" filter="url(#fvv1e53u89qfq)" height="144.8516" id="BienImmo" style="stroke: #A80036; stroke-width: 1.5;" width="182" x="316" y="60"/><ellipse cx="373.75" cy="76" fill="#A9DCDF" rx="11" ry="11" style="stroke: #A80036; stroke-width: 1.0;"/><path d="M375.9375,77.7656 L371.7969,77.7656 L371.375,78.7969 L371.7969,78.7969 Q372.4063,78.7969 372.6719,79.0313 Q372.9375,79.2656 372.9375,79.6563 Q372.9375,80.0313 372.6719,80.2656 Q372.4063,80.5 371.7969,80.5 L369.5,80.5 Q368.8906,80.5 368.6328,80.2656 Q368.375,80.0313 368.375,79.6406 Q368.375,79.2656 368.6484,79.0234 Q368.9219,78.7813 369.5469,78.7969 L372.2188,72.1406 L371.1094,72.1406 Q370.5,72.1406 370.2344,71.9063 Q369.9688,71.6719 369.9688,71.2813 Q369.9688,70.9063 370.2344,70.6719 Q370.5,70.4375 371.1094,70.4375 L374.7813,70.4375 L378.1719,78.7969 Q378.7656,78.7969 378.9531,78.9375 Q379.3438,79.2031 379.3438,79.6563 Q379.3438,80.0313 379.0859,80.2656 Q378.8281,80.5 378.2188,80.5 L375.9219,80.5 Q375.3125,80.5 375.0469,80.2656 Q374.7813,80.0313 374.7813,79.6406 Q374.7813,79.2656 375.0469,79.0313 Q375.3125,78.7969 375.9219,78.7969 L376.3438,78.7969 L375.9375,77.7656 Z M375.2188,76.0625 L373.8594,72.6875 L372.4844,76.0625 L375.2188,76.0625 Z "/><text fill="#000000" font-family="sans-serif" font-size="12" font-style="italic" lengthAdjust="spacingAndGlyphs" textLength="58" x="394.25" y="80.9102">BienImmo</text><line style="stroke: #A80036; stroke-width: 1.5;" x1="317" x2="497" y1="92" y2="92"/><rect fill="none" height="6" style="stroke: #C82930; stroke-width: 1.0;" width="6" x="324" y="101.418"/><text fill="#000000" font-family="sans-serif" font-size="11" lengthAdjust="spacingAndGlyphs" textLength="34" x="336" y="107.4189">Int num</text><rect fill="none" height="6" style="stroke: #C82930; stroke-width: 1.0;" width="6" x="324" y="115.2539"/><text fill="#000000" font-family="sans-serif" font-size="11" lengthAdjust="spacingAndGlyphs" textLength="71" x="336" y="121.2549">String adresse</text><rect fill="none" height="6" style="stroke: #C82930; stroke-width: 1.0;" width="6" x="324" y="129.0898"/><text fill="#000000" font-family="sans-serif" font-size="11" lengthAdjust="spacingAndGlyphs" textLength="81" x="336" y="135.0908">String orientation</text><rect fill="none" height="6" style="stroke: #C82930; stroke-width: 1.0;" width="6" x="324" y="142.9258"/><text fill="#000000" font-family="sans-serif" font-size="11" lengthAdjust="spacingAndGlyphs" textLength="54" x="336" y="148.9268">Double prix</text><rect fill="none" height="6" style="stroke: #C82930; stroke-width: 1.0;" width="6" x="324" y="156.7617"/><text fill="#000000" font-family="sans-serif" font-size="11" lengthAdjust="spacingAndGlyphs" textLength="52" x="336" y="162.7627">Date vente</text><rect fill="none" height="6" style="stroke: #C82930; stroke-width: 1.0;" width="6" x="324" y="170.5977"/><text fill="#000000" font-family="sans-serif" font-size="11" lengthAdjust="spacingAndGlyphs" textLength="57" x="336" y="176.5986">Date[] dispo</text><line style="stroke: #A80036; stroke-width: 1.5;" x1="317" x2="497" y1="183.0156" y2="183.0156"/><ellipse cx="327" cy="195.4336" fill="#84BE84" rx="3" ry="3" style="stroke: #038048; stroke-width: 1.0;"/><text fill="#000000" font-family="sans-serif" font-size="11" lengthAdjust="spacingAndGlyphs" textLength="156" x="336" y="198.4346">correspondance(Envie) : Double</text><!--class Terrain--><rect fill="#FEFECE" filter="url(#fvv1e53u89qfq)" height="75.6719" id="Terrain" style="stroke: #A80036; stroke-width: 1.5;" width="140" x="229" y="332.5"/><ellipse cx="275.25" cy="348.5" fill="#ADD1B2" rx="11" ry="11" style="stroke: #A80036; stroke-width: 1.0;"/><path d="M278.0156,344.375 Q278.1719,344.1563 278.3594,344.0469 Q278.5469,343.9375 278.7656,343.9375 Q279.1406,343.9375 279.375,344.1953 Q279.6094,344.4531 279.6094,345.0625 L279.6094,346.5156 Q279.6094,347.125 279.375,347.3906 Q279.1406,347.6563 278.7656,347.6563 Q278.4219,347.6563 278.2188,347.4531 Q278.0156,347.2656 277.9063,346.75 Q277.8594,346.3906 277.6719,346.2031 Q277.3438,345.8281 276.7344,345.6094 Q276.125,345.3906 275.5,345.3906 Q274.7344,345.3906 274.1016,345.7188 Q273.4688,346.0469 272.9766,346.7969 Q272.4844,347.5469 272.4844,348.5781 L272.4844,349.6719 Q272.4844,350.9063 273.375,351.7266 Q274.2656,352.5469 275.8594,352.5469 Q276.7969,352.5469 277.4531,352.2969 Q277.8438,352.1406 278.2656,351.7031 Q278.5313,351.4375 278.6797,351.3594 Q278.8281,351.2813 279.0313,351.2813 Q279.3594,351.2813 279.6172,351.5391 Q279.875,351.7969 279.875,352.1406 Q279.875,352.4844 279.5313,352.8906 Q279.0313,353.4688 278.2344,353.7969 Q277.1563,354.25 275.8594,354.25 Q274.3438,354.25 273.1406,353.625 Q272.1563,353.125 271.4688,352.0547 Q270.7813,350.9844 270.7813,349.7031 L270.7813,348.5469 Q270.7813,347.2188 271.3984,346.0703 Q272.0156,344.9219 273.1094,344.3047 Q274.2031,343.6875 275.4375,343.6875 Q276.1719,343.6875 276.8203,343.8516 Q277.4688,344.0156 278.0156,344.375 Z "/><text fill="#000000" font-family="sans-serif" font-size="12" lengthAdjust="spacingAndGlyphs" textLength="39" x="295.75" y="353.4102">Terrain</text><line style="stroke: #A80036; stroke-width: 1.5;" x1="230" x2="368" y1="364.5" y2="364.5"/><rect fill="none" height="6" style="stroke: #C82930; stroke-width: 1.0;" width="6" x="237" y="373.918"/><text fill="#000000" font-family="sans-serif" font-size="11" lengthAdjust="spacingAndGlyphs" textLength="89" x="249" y="379.9189">Double surfaceSol</text><rect fill="none" height="6" style="stroke: #C82930; stroke-width: 1.0;" width="6" x="237" y="387.7539"/><text fill="#000000" font-family="sans-serif" font-size="11" lengthAdjust="spacingAndGlyphs" textLength="114" x="249" y="393.7549">Double longueurFacade</text><line style="stroke: #A80036; stroke-width: 1.5;" x1="230" x2="368" y1="400.1719" y2="400.1719"/><!--class Maison--><rect fill="#FEFECE" filter="url(#fvv1e53u89qfq)" height="103.3438" id="Maison" style="stroke: #A80036; stroke-width: 1.5;" width="144" x="442" y="319"/><ellipse cx="489.75" cy="335" fill="#ADD1B2" rx="11" ry="11" style="stroke: #A80036; stroke-width: 1.0;"/><path d="M492.5156,330.875 Q492.6719,330.6563 492.8594,330.5469 Q493.0469,330.4375 493.2656,330.4375 Q493.6406,330.4375 493.875,330.6953 Q494.1094,330.9531 494.1094,331.5625 L494.1094,333.0156 Q494.1094,333.625 493.875,333.8906 Q493.6406,334.1563 493.2656,334.1563 Q492.9219,334.1563 492.7188,333.9531 Q492.5156,333.7656 492.4063,333.25 Q492.3594,332.8906 492.1719,332.7031 Q491.8438,332.3281 491.2344,332.1094 Q490.625,331.8906 490,331.8906 Q489.2344,331.8906 488.6016,332.2188 Q487.9688,332.5469 487.4766,333.2969 Q486.9844,334.0469 486.9844,335.0781 L486.9844,336.1719 Q486.9844,337.4063 487.875,338.2266 Q488.7656,339.0469 490.3594,339.0469 Q491.2969,339.0469 491.9531,338.7969 Q492.3438,338.6406 492.7656,338.2031 Q493.0313,337.9375 493.1797,337.8594 Q493.3281,337.7813 493.5313,337.7813 Q493.8594,337.7813 494.1172,338.0391 Q494.375,338.2969 494.375,338.6406 Q494.375,338.9844 494.0313,339.3906 Q493.5313,339.9688 492.7344,340.2969 Q491.6563,340.75 490.3594,340.75 Q488.8438,340.75 487.6406,340.125 Q486.6563,339.625 485.9688,338.5547 Q485.2813,337.4844 485.2813,336.2031 L485.2813,335.0469 Q485.2813,333.7188 485.8984,332.5703 Q486.5156,331.4219 487.6094,330.8047 Q488.7031,330.1875 489.9375,330.1875 Q490.6719,330.1875 491.3203,330.3516 Q491.9688,330.5156 492.5156,330.875 Z "/><text fill="#000000" font-family="sans-serif" font-size="12" lengthAdjust="spacingAndGlyphs" textLength="40" x="510.25" y="339.9102">Maison</text><line style="stroke: #A80036; stroke-width: 1.5;" x1="443" x2="585" y1="351" y2="351"/><rect fill="none" height="6" style="stroke: #C82930; stroke-width: 1.0;" width="6" x="450" y="360.418"/><text fill="#000000" font-family="sans-serif" font-size="11" lengthAdjust="spacingAndGlyphs" textLength="118" x="462" y="366.4189">Double surfaceHabitable</text><rect fill="none" height="6" style="stroke: #C82930; stroke-width: 1.0;" width="6" x="450" y="374.2539"/><text fill="#000000" font-family="sans-serif" font-size="11" lengthAdjust="spacingAndGlyphs" textLength="58" x="462" y="380.2549">Int nbPieces</text><rect fill="none" height="6" style="stroke: #C82930; stroke-width: 1.0;" width="6" x="450" y="388.0898"/><text fill="#000000" font-family="sans-serif" font-size="11" lengthAdjust="spacingAndGlyphs" textLength="59" x="462" y="394.0908">Int nbEtages</text><rect fill="none" height="6" style="stroke: #C82930; stroke-width: 1.0;" width="6" x="450" y="401.9258"/><text fill="#000000" font-family="sans-serif" font-size="11" lengthAdjust="spacingAndGlyphs" textLength="81" x="462" y="407.9268">String chauffage</text><line style="stroke: #A80036; stroke-width: 1.5;" x1="443" x2="585" y1="414.3438" y2="414.3438"/><!--class Appartement--><rect fill="#FEFECE" filter="url(#fvv1e53u89qfq)" height="89.5078" id="Appartement" style="stroke: #A80036; stroke-width: 1.5;" width="156" x="38" y="325.5"/><ellipse cx="77.3" cy="341.5" fill="#ADD1B2" rx="11" ry="11" style="stroke: #A80036; stroke-width: 1.0;"/><path d="M80.0656,337.375 Q80.2219,337.1563 80.4094,337.0469 Q80.5969,336.9375 80.8156,336.9375 Q81.1906,336.9375 81.425,337.1953 Q81.6594,337.4531 81.6594,338.0625 L81.6594,339.5156 Q81.6594,340.125 81.425,340.3906 Q81.1906,340.6563 80.8156,340.6563 Q80.4719,340.6563 80.2688,340.4531 Q80.0656,340.2656 79.9563,339.75 Q79.9094,339.3906 79.7219,339.2031 Q79.3938,338.8281 78.7844,338.6094 Q78.175,338.3906 77.55,338.3906 Q76.7844,338.3906 76.1516,338.7188 Q75.5188,339.0469 75.0266,339.7969 Q74.5344,340.5469 74.5344,341.5781 L74.5344,342.6719 Q74.5344,343.9063 75.425,344.7266 Q76.3156,345.5469 77.9094,345.5469 Q78.8469,345.5469 79.5031,345.2969 Q79.8938,345.1406 80.3156,344.7031 Q80.5813,344.4375 80.7297,344.3594 Q80.8781,344.2813 81.0813,344.2813 Q81.4094,344.2813 81.6672,344.5391 Q81.925,344.7969 81.925,345.1406 Q81.925,345.4844 81.5813,345.8906 Q81.0813,346.4688 80.2844,346.7969 Q79.2063,347.25 77.9094,347.25 Q76.3938,347.25 75.1906,346.625 Q74.2063,346.125 73.5188,345.0547 Q72.8313,343.9844 72.8313,342.7031 L72.8313,341.5469 Q72.8313,340.2188 73.4484,339.0703 Q74.0656,337.9219 75.1594,337.3047 Q76.2531,336.6875 77.4875,336.6875 Q78.2219,336.6875 78.8703,336.8516 Q79.5188,337.0156 80.0656,337.375 Z "/><text fill="#000000" font-family="sans-serif" font-size="12" lengthAdjust="spacingAndGlyphs" textLength="70" x="96.7" y="346.4102">Appartement</text><line style="stroke: #A80036; stroke-width: 1.5;" x1="39" x2="193" y1="357.5" y2="357.5"/><rect fill="none" height="6" style="stroke: #C82930; stroke-width: 1.0;" width="6" x="46" y="366.918"/><text fill="#000000" font-family="sans-serif" font-size="11" lengthAdjust="spacingAndGlyphs" textLength="58" x="58" y="372.9189">Int nbPieces</text><rect fill="none" height="6" style="stroke: #C82930; stroke-width: 1.0;" width="6" x="46" y="380.7539"/><text fill="#000000" font-family="sans-serif" font-size="11" lengthAdjust="spacingAndGlyphs" textLength="41" x="58" y="386.7549">Int etage</text><rect fill="none" height="6" style="stroke: #C82930; stroke-width: 1.0;" width="6" x="46" y="394.5898"/><text fill="#000000" font-family="sans-serif" font-size="11" lengthAdjust="spacingAndGlyphs" textLength="130" x="58" y="400.5908">Double chargesMensuelles</text><line style="stroke: #A80036; stroke-width: 1.5;" x1="39" x2="193" y1="407.0078" y2="407.0078"/><!--link Personne to Entreprise--><path d="M532.734,699.666 C529.97,745.464 526.48,803.276 524.244,840.322 " fill="none" id="Personne-Entreprise" style="stroke: #A80036; stroke-width: 1.0;"/><polygon fill="none" points="525.754,699.129,533.946,679.587,539.729,699.973,525.754,699.129" style="stroke: #A80036; stroke-width: 1.0;"/><!--link Personne to Agence--><path d="M591.128,628 C650.241,628 746.89,628 824.856,628 " fill="none" id="Personne-Agence" style="stroke: #A80036; stroke-width: 1.0;"/><polygon fill="#A80036" points="585.88,628,594.88,632,590.88,628,594.88,624,585.88,628" style="stroke: #A80036; stroke-width: 1.0;"/><text fill="#000000" font-family="sans-serif" font-size="13" lengthAdjust="spacingAndGlyphs" textLength="79" x="665.75" y="621.4951">listePersonne</text><text fill="#000000" font-family="sans-serif" font-size="13" lengthAdjust="spacingAndGlyphs" textLength="5" x="593.4264" y="624.3207">*</text><!--link Mandat to Agence--><path d="M815.402,440.474 C831.541,463.006 849.914,488.659 867.76,513.575 " fill="none" id="Mandat-Agence" style="stroke: #A80036; stroke-width: 1.0;"/><polygon fill="#A80036" points="812.415,436.304,814.4043,445.9499,815.3267,440.3687,820.9079,441.2911,812.415,436.304" style="stroke: #A80036; stroke-width: 1.0;"/><text fill="#000000" font-family="sans-serif" font-size="13" lengthAdjust="spacingAndGlyphs" textLength="43" x="848" y="480.4951">mandat</text><text fill="#000000" font-family="sans-serif" font-size="13" lengthAdjust="spacingAndGlyphs" textLength="5" x="811.9437" y="457.4275">*</text><!--link Agence to Envie--><path d="M913.88,742.342 C906.136,767.333 898.209,792.918 891.363,815.009 " fill="none" id="Agence-Envie" style="stroke: #A80036; stroke-width: 1.0;"/><polygon fill="#A80036" points="889.829,819.96,896.3139,812.5474,891.3091,815.1841,888.6724,810.1793,889.829,819.96" style="stroke: #A80036; stroke-width: 1.0;"/><text fill="#000000" font-family="sans-serif" font-size="13" lengthAdjust="spacingAndGlyphs" textLength="29" x="905" y="786.4951">envie</text><text fill="#000000" font-family="sans-serif" font-size="13" lengthAdjust="spacingAndGlyphs" textLength="5" x="886.793" y="808.9407">*</text><!--link Envie to Personne--><path d="M814.444,846.886 C796.82,837.873 777.263,828.229 759,820 C725.891,805.082 714.186,808.606 683,790 C654.558,773.031 649.032,765.799 626,742 C608.724,724.149 591.436,703.109 576.754,684.053 " fill="none" id="Envie-Personne" style="stroke: #A80036; stroke-width: 1.0;"/><polygon fill="#A80036" points="573.468,679.766,575.7677,689.3426,576.5094,683.7346,582.1175,684.4763,573.468,679.766" style="stroke: #A80036; stroke-width: 1.0;"/><text fill="#000000" font-family="sans-serif" font-size="13" lengthAdjust="spacingAndGlyphs" textLength="50" x="684" y="786.4951">acheteur</text><text fill="#000000" font-family="sans-serif" font-size="13" lengthAdjust="spacingAndGlyphs" textLength="7" x="570.8981" y="701.2927">1</text><!--link Mandat to Personne--><path d="M699.635,436.044 C675.82,459.981 649.146,487.708 626,514 C609.816,532.384 592.968,553.269 578.342,572.039 " fill="none" id="Mandat-Personne" style="stroke: #A80036; stroke-width: 1.0;"/><polygon fill="#A80036" points="575.063,576.259,583.7448,571.6086,578.1318,572.3115,577.4289,566.6985,575.063,576.259" style="stroke: #A80036; stroke-width: 1.0;"/><text fill="#000000" font-family="sans-serif" font-size="13" lengthAdjust="spacingAndGlyphs" textLength="44" x="668" y="480.4951">vendeur</text><text fill="#000000" font-family="sans-serif" font-size="13" lengthAdjust="spacingAndGlyphs" textLength="7" x="572.7074" y="565.7269">1</text><!--link Agence to Promesse--><path d="M968.789,742.078 C974.507,803.155 973.315,878.524 947,940.5 C935.435,967.739 915.238,992.182 893.935,1012.413 " fill="none" id="Agence-Promesse" style="stroke: #A80036; stroke-width: 1.0;"/><polygon fill="#A80036" points="890.229,1015.882,899.5335,1012.653,893.8798,1012.4656,894.0672,1006.8118,890.229,1015.882" style="stroke: #A80036; stroke-width: 1.0;"/><text fill="#000000" font-family="sans-serif" font-size="13" lengthAdjust="spacingAndGlyphs" textLength="83" x="973" y="883.9951">listePromesse</text><text fill="#000000" font-family="sans-serif" font-size="13" lengthAdjust="spacingAndGlyphs" textLength="5" x="897.9235" y="1007.1311">*</text><!--link Mandat to Promesse--><path d="M768.472,441.041 C772.583,548.352 781.902,760.726 797,940.5 C799.046,964.862 801.969,991.681 804.693,1014.744 " fill="none" id="Mandat-Promesse" style="stroke: #A80036; stroke-width: 1.0;"/><polygon fill="#A80036" points="768.28,436.011,764.6275,445.1576,768.4715,441.0073,772.6217,444.8512,768.28,436.011" style="stroke: #A80036; stroke-width: 1.0;"/><text fill="#000000" font-family="sans-serif" font-size="13" lengthAdjust="spacingAndGlyphs" textLength="43" x="787" y="786.4951">mandat</text><text fill="#000000" font-family="sans-serif" font-size="13" lengthAdjust="spacingAndGlyphs" textLength="7" x="761.1466" y="457.5648">1</text><!--link Envie to Promesse--><path d="M852.543,942.086 C845.274,965.47 837.058,991.898 829.932,1014.819 " fill="none" id="Envie-Promesse" style="stroke: #A80036; stroke-width: 1.0;"/><polygon fill="#A80036" points="854.079,937.145,847.5875,944.5517,852.5946,941.9196,855.2268,946.9267,854.079,937.145" style="stroke: #A80036; stroke-width: 1.0;"/><text fill="#000000" font-family="sans-serif" font-size="13" lengthAdjust="spacingAndGlyphs" textLength="29" x="845" y="981.4951">envie</text><text fill="#000000" font-family="sans-serif" font-size="13" lengthAdjust="spacingAndGlyphs" textLength="7" x="844.4683" y="958.773">1</text><!--link Notaire to Promesse--><path d="M699.876,914.683 C705.633,936.037 714.769,963.27 728,985 C734.242,995.252 741.869,1005.277 749.955,1014.667 " fill="none" id="Notaire-Promesse" style="stroke: #A80036; stroke-width: 1.0;"/><polygon fill="#A80036" points="698.556,909.666,696.9787,919.3877,699.8287,914.5013,704.7152,917.3513,698.556,909.666" style="stroke: #A80036; stroke-width: 1.0;"/><text fill="#000000" font-family="sans-serif" font-size="13" lengthAdjust="spacingAndGlyphs" textLength="39" x="729" y="981.4951">notaire</text><text fill="#000000" font-family="sans-serif" font-size="13" lengthAdjust="spacingAndGlyphs" textLength="7" x="692.1577" y="930.9227">1</text><!--link AnnoncePub to Agence--><path d="M1211.58,398.025 C1178.71,426.686 1124.2,474.227 1073.33,518.584 " fill="none" id="AnnoncePub-Agence" style="stroke: #A80036; stroke-width: 1.0;"/><polygon fill="#A80036" points="1215.48,394.625,1206.0676,397.5245,1211.7113,397.9108,1211.325,403.5545,1215.48,394.625" style="stroke: #A80036; stroke-width: 1.0;"/><text fill="#000000" font-family="sans-serif" font-size="13" lengthAdjust="spacingAndGlyphs" textLength="75" x="1132" y="480.4951">listeAnnonce</text><text fill="#000000" font-family="sans-serif" font-size="13" lengthAdjust="spacingAndGlyphs" textLength="5" x="1203.4064" y="415.9934">*</text><!--link AnnoncePub to TypePub--><path d="M1246.62,394.625 C1255.57,439.488 1275.35,538.585 1285.96,591.717 " fill="none" id="AnnoncePub-TypePub" style="stroke: #A80036; stroke-width: 1.0;"/><polygon fill="#A80036" points="1286.95,596.712,1289.11,587.1029,1285.9708,591.8088,1281.2649,588.6696,1286.95,596.712" style="stroke: #A80036; stroke-width: 1.0;"/><text fill="#000000" font-family="sans-serif" font-size="13" lengthAdjust="spacingAndGlyphs" textLength="47" x="1265" y="480.4951">listePub</text><text fill="#000000" font-family="sans-serif" font-size="13" lengthAdjust="spacingAndGlyphs" textLength="5" x="1280.1866" y="586.1571">*</text><!--link TypePub to TypeTexte--><path d="M1315.68,677.594 C1340.53,730.827 1379.35,813.975 1398.11,854.178 " fill="none" id="TypePub-TypeTexte" style="stroke: #A80036; stroke-width: 1.0;"/><polygon fill="none" points="1309.34,680.555,1307.22,659.471,1322.03,674.633,1309.34,680.555" style="stroke: #A80036; stroke-width: 1.0;"/><!--link TypePub to TypeHtml--><path d="M1336.05,674.136 C1386.62,727.159 1468.57,813.093 1507.76,854.178 " fill="none" id="TypePub-TypeHtml" style="stroke: #A80036; stroke-width: 1.0;"/><polygon fill="none" points="1330.8,678.775,1322.06,659.471,1340.93,669.113,1330.8,678.775" style="stroke: #A80036; stroke-width: 1.0;"/><!--link TypePub to TypeImg--><path d="M1270.94,677.945 C1246.94,731.191 1209.59,814.063 1191.51,854.178 " fill="none" id="TypePub-TypeImg" style="stroke: #A80036; stroke-width: 1.0;"/><polygon fill="none" points="1264.67,674.828,1279.27,659.471,1277.43,680.581,1264.67,674.828" style="stroke: #A80036; stroke-width: 1.0;"/><!--link TypePub to TypeVid--><path d="M1293,679.711 C1293,733.008 1293,814.504 1293,854.178 " fill="none" id="TypePub-TypeVid" style="stroke: #A80036; stroke-width: 1.0;"/><polygon fill="none" points="1286,679.471,1293,659.471,1300,679.471,1286,679.471" style="stroke: #A80036; stroke-width: 1.0;"/><!--link BienImmo to Mandat--><path d="M502.577,195.846 C534.245,216.542 569.658,239.728 602,261 C623.535,275.164 646.632,290.41 668.497,304.869 " fill="none" id="BienImmo-Mandat" style="stroke: #A80036; stroke-width: 1.0;"/><polygon fill="#A80036" points="498.335,193.073,503.6803,201.3451,502.5204,195.8085,508.057,194.6486,498.335,193.073" style="stroke: #A80036; stroke-width: 1.0;"/><text fill="#000000" font-family="sans-serif" font-size="13" lengthAdjust="spacingAndGlyphs" textLength="56" x="588" y="249.4951">bienImmo</text><text fill="#000000" font-family="sans-serif" font-size="13" lengthAdjust="spacingAndGlyphs" textLength="7" x="505.8922" y="194.7775">1</text><!--link BienImmo to Terrain--><path d="M365.731,223.679 C348.466,261.407 329.36,303.158 316.032,332.283 " fill="none" id="BienImmo-Terrain" style="stroke: #A80036; stroke-width: 1.0;"/><polygon fill="none" points="359.469,220.542,374.157,205.269,372.199,226.368,359.469,220.542" style="stroke: #A80036; stroke-width: 1.0;"/><!--link BienImmo to Maison--><path d="M447.933,223.782 C462.508,255.928 478.401,290.983 490.947,318.653 " fill="none" id="BienImmo-Maison" style="stroke: #A80036; stroke-width: 1.0;"/><polygon fill="none" points="441.423,226.375,439.539,205.269,454.173,220.594,441.423,226.375" style="stroke: #A80036; stroke-width: 1.0;"/><!--link BienImmo to Appartement--><path d="M298.777,196.354 C269.126,215.551 237.795,237.773 211,261 C188.865,280.187 167.12,304.499 150.031,325.244 " fill="none" id="BienImmo-Appartement" style="stroke: #A80036; stroke-width: 1.0;"/><polygon fill="none" points="295.358,190.232,315.993,185.415,302.866,202.049,295.358,190.232" style="stroke: #A80036; stroke-width: 1.0;"/><!--link Terrain to Maison--><path d="M374.328,370.5 C396.223,370.5 420.081,370.5 441.781,370.5 " fill="none" id="Terrain-Maison" style="stroke: #A80036; stroke-width: 1.0;"/><polygon fill="#A80036" points="369.102,370.5,378.102,374.5,374.102,370.5,378.102,366.5,369.102,370.5" style="stroke: #A80036; stroke-width: 1.0;"/><text fill="#000000" font-family="sans-serif" font-size="13" lengthAdjust="spacingAndGlyphs" textLength="36" x="387.5" y="363.9951">terrain</text><text fill="#000000" font-family="sans-serif" font-size="13" lengthAdjust="spacingAndGlyphs" textLength="7" x="377.1522" y="367.1573">1</text><!--
@startuml

package user {

  class Personne {
    -String nom
    -String adresse
    -Int telephone
    -String email
  }

  class Entreprise {
    -String formeJuridique
    -Int numSiren
  }

  Entreprise -up-|> Personne

}

package agence {

  class Agence {
    -String nom
    -HashSet<Date, Personne> listeRdvVendeur
    +priseRdvVendeur(Personne, Date) : void
    -creerPersonne(String, String, Int, String) : void
    +creerMandat(Personne, Mandat) : void
    +creerEnvie(Personne, Envie) : void
    +contacter(Envie, Mandat) : void
    +organiserVisite(Envie, Mandat, Date) : void
    +organiserVente(Envie, Mandat, Date) : void
    -creerPromesse(Promesse) : void
    +signerPromesse(Promesse) : void
    +voirStats() : void
    +creerDocument() : void
  }

  Personne "*"<- - Agence : "listePersonne"

  class Envie {
    -String type
    -Double prix
    -String localisation
    -Double surfaceSol
    -Int nbPieces
  }

  class Mandat {
    -HashSet<Date, Personne> listeRdvVisite
    -Int prix
    -Date vente
    -Date debut
    -Date fin
    - reerBien() : void
  }

  Agence -up->"*" Mandat : "mandat"
  Agence - ->"*" Envie : "envie"

  Envie - ->"1" Personne : "acheteur"
  Mandat - ->"1" Personne : "vendeur"

  class Promesse {
    -Double prixVerseVendeur
    -String adresseNotaire
    -Date vente
    -Double commissionAgence
    -Double fraisVente
  }

  Agence - ->"*" Promesse : "listePromesse"
  Mandat "1"<- - Promesse : "mandat"
  Envie "1"<- - Promesse : "envie"

  class Notaire {
    +verserArgent()
  }

  Notaire "1"<- - Promesse : "notaire"

}

package pub {

  class AnnoncePub {
  }

  AnnoncePub "*"<- - Agence : "listeAnnonce"
  TypePub "*"<-down- AnnoncePub : "listePub"

  abstract class TypePub {
    +addElem() : void
  }

  class TypeTexte {
  }

  class TypeHtml {
  }

  class TypeImg {
  }

  class TypeVid {
  }

  TypeTexte -up-|> TypePub
  TypeHtml -up-|> TypePub
  TypeImg -up-|> TypePub
  TypeVid -up-|> TypePub

}

package immo {

  abstract class BienImmo {
    -Int num
    -String adresse
    -String orientation
    -Double prix
    -Date vente
    -Date[] dispo
    +correspondance(Envie) : Double
  }

  class Terrain {
    -Double surfaceSol
    -Double longueurFacade
  }

  class Maison {
    -Double surfaceHabitable
    -Int nbPieces
    -Int nbEtages
    -String chauffage
  }

  class Appartement {
    -Int nbPieces
    -Int etage
    -Double chargesMensuelles
  }

  BienImmo "1"<- - Mandat : "bienImmo"

  Terrain -up-|> BienImmo
  Maison -up-|> BienImmo
  Appartement -up-|> BienImmo

  Maison -left->"1" Terrain : "terrain"

}

@enduml

PlantUML version 1.2017.18(Fri Oct 06 18:56:32 CEST 2017)
(GPL source distribution)
Java Runtime: Java(TM) SE Runtime Environment
JVM: Java HotSpot(TM) 64-Bit Server VM
Java Version: 9.0.1+11
Operating System: Windows 10
OS Version: 10.0
Default Encoding: Cp1252
Language: fr
Country: FR
--></g></svg>